<svg width="236" height="38" viewBox="0 0 236 38" fill="none" xmlns="http://www.w3.org/2000/svg">
<g id="mrotionNavLogo">
<path id="navRvector" d="M43.8182 0.601276H60.6321C63.0929 0.540617 65.5296 1.09758 67.7196 2.22127C69.6579 3.23587 71.2498 4.80506 72.2922 6.72851C73.3504 8.72474 73.8874 10.9559 73.8534 13.215C73.9313 15.7343 73.2632 18.2205 71.9329 20.3613C70.5223 22.4171 68.4459 23.9236 66.0539 24.6268L75.0618 36.6331H69.0457L60.6321 25.8222H48.6259V36.6331H43.8182V0.601276ZM60.0312 21.622C61.2224 21.6757 62.4126 21.494 63.5335 21.0871C64.6544 20.6802 65.684 20.0562 66.5634 19.2508C67.3814 18.4775 68.0266 17.54 68.4566 16.4998C68.8867 15.4596 69.0919 14.3401 69.0587 13.215C69.0893 12.09 68.8816 10.9712 68.4493 9.93215C68.017 8.89306 67.3699 7.95713 66.5503 7.18577C65.671 6.38038 64.6413 5.75638 63.5204 5.34949C62.3995 4.9426 61.2094 4.76083 60.0181 4.81457H48.6259V21.622H60.0312Z" fill="#2D2D2D"/>
<path id="navOvector2" d="M87.3621 34.7126C84.5546 33.0705 82.2173 30.7331 80.5751 27.9257C78.8974 25.1122 78.0231 21.8928 78.0471 18.6172C78.0231 15.3417 78.8974 12.1222 80.5751 9.30879C82.2187 6.50241 84.5557 4.16538 87.3621 2.5218C90.1863 0.870364 93.3989 0 96.6705 0C99.9421 0 103.155 0.870364 105.979 2.5218C108.782 4.16909 111.119 6.50528 112.766 9.30879C114.439 12.1239 115.311 15.3426 115.287 18.6172C115.311 21.8918 114.439 25.1105 112.766 27.9257C111.12 30.7306 108.784 33.0672 105.979 34.7126C103.155 36.3641 99.9421 37.2344 96.6705 37.2344C93.3989 37.2344 90.1863 36.3641 87.3621 34.7126ZM103.693 31.0807C105.787 29.7846 107.505 27.9627 108.677 25.7961C109.877 23.5915 110.506 21.1211 110.506 18.6107C110.506 16.1003 109.877 13.6299 108.677 11.4252C107.504 9.25997 105.786 7.43841 103.693 6.14065C101.581 4.86741 99.1623 4.19452 96.6966 4.19452C94.231 4.19452 91.8121 4.86741 89.7006 6.14065C87.6043 7.43634 85.8837 9.25827 84.71 11.4252C83.5094 13.6299 82.8803 16.1003 82.8803 18.6107C82.8803 21.1211 83.5094 23.5915 84.71 25.7961C85.8817 27.9645 87.6027 29.7869 89.7006 31.0807C91.8106 32.3581 94.2301 33.0334 96.6966 33.0334C99.1632 33.0334 101.583 32.3581 103.693 31.0807Z" fill="#2D2D2D"/>
<path id="navTvector" d="M128.496 4.80808H116.489V0.601318H145.316V4.80808H133.303V36.6331H128.496V4.80808Z" fill="#2D2D2D"/>
<path id="navIvector" d="M150.718 0.601318H155.519V36.6331H150.718V0.601318Z" fill="#2D2D2D"/>
<path id="navOvector" d="M170.837 34.7126C168.031 33.0691 165.694 30.732 164.05 27.9257C162.375 25.1117 161.503 21.8922 161.529 18.6172C161.503 15.3422 162.375 12.1227 164.05 9.30879C165.696 6.50385 168.033 4.16724 170.837 2.5218C173.662 0.870364 176.874 0 180.146 0C183.417 0 186.63 0.870364 189.454 2.5218C192.258 4.16909 194.594 6.50528 196.241 9.30879C197.914 12.1239 198.786 15.3426 198.763 18.6172C198.786 21.8918 197.914 25.1105 196.241 27.9257C194.59 30.733 192.247 33.0699 189.435 34.7126C186.611 36.3641 183.398 37.2344 180.126 37.2344C176.855 37.2344 173.642 36.3641 170.818 34.7126H170.837ZM187.168 31.0807C189.264 29.7865 190.983 27.9641 192.152 25.7961C193.353 23.5915 193.982 21.1211 193.982 18.6107C193.982 16.1003 193.353 13.6299 192.152 11.4252C190.981 9.25854 189.263 7.43652 187.168 6.14065C185.057 4.86741 182.638 4.19452 180.172 4.19452C177.706 4.19452 175.287 4.86741 173.176 6.14065C171.081 7.43652 169.363 9.25854 168.192 11.4252C166.985 13.628 166.353 16.0992 166.353 18.6107C166.353 21.1222 166.985 23.5933 168.192 25.7961C169.361 27.9641 171.08 29.7865 173.176 31.0807C175.286 32.3581 177.705 33.0334 180.172 33.0334C182.639 33.0334 185.058 32.3581 187.168 31.0807V31.0807Z" fill="#2D2D2D"/>
<path id="navNvector" d="M228.158 2.10367C230.556 3.51314 232.528 5.54441 233.867 7.98268C235.324 10.683 236.057 13.7141 235.997 16.7816V36.6331H231.195V16.8143C231.225 14.5902 230.73 12.3904 229.752 10.3931C228.871 8.55879 227.519 6.99186 225.832 5.85318C224.223 4.78028 222.332 4.20777 220.398 4.20777C218.463 4.20777 216.572 4.78028 214.963 5.85318C213.273 7.00131 211.919 8.57985 211.043 10.4257C210.067 12.4236 209.575 14.6234 209.606 16.8469V36.6331H204.799V16.8143C204.737 13.7458 205.473 10.714 206.935 8.01535C208.269 5.57616 210.24 3.54441 212.637 2.13634C214.997 0.758987 217.681 0.0332031 220.414 0.0332031C223.147 0.0332031 225.83 0.758987 228.19 2.13634L228.158 2.10367Z" fill="#2D2D2D"/>
<path id="navMvector" d="M17.6697 17.7811L0 0.11145V28.9382V36.6332H1.63306H4.70974V33.5565V28.9382V11.8956L15.5402 22.7195L30.6296 7.62352V11.9021L30.6362 11.8956V36.6332H35.3459V0.11145L17.6697 17.7811Z" fill="#2D2D2D"/>
</g>
</svg>
