<svg width="1920" height="1080" viewBox="0 0 1920 1080" fill="none" xmlns="http://www.w3.org/2000/svg">
<mask id="path-1-inside-1_103_2" fill="white">
<path d="M533.858 -44.0685C524.192 -40.8006 515.807 -34.5597 509.902 -26.2386C506.302 -21.4232 503.086 -16.3318 500.284 -11.0116C491.339 4.45241 485.548 18.028 481.082 27.6667C468.17 55.6087 465.434 65.1869 452.595 85.8256C429.121 123.529 388.889 113.67 369.301 105.05C362.762 102.123 349.209 94.9784 339.796 90.9404C306.902 76.8435 289.271 93.1669 286.517 121.947C282.671 162.148 274.286 177.847 257.223 186.023C241.82 193.396 219.939 190.48 193.052 161.052C167.054 132.585 142.792 102.557 116.746 74.1623C97.2388 52.8733 74.1306 29.7979 43.7873 44.0325C13.4439 58.267 18.512 91.5791 24.8256 117.335C41.5502 185.697 65.2269 255.071 83.2553 323.059C85.2365 330.36 87.7547 337.508 88.6666 345.047C89.0452 347.833 88.5814 350.668 87.3349 353.188C83.5726 359.829 77.3858 363.624 71.041 367.533L70.3875 367.91C68.4688 369.115 66.4896 370.22 64.4577 371.222C63.0089 372.023 61.4305 372.564 59.7947 372.82C58.9573 372.879 58.1689 372.596 58.2485 371.612C59.3219 358.31 58.2461 344.923 55.0625 331.963C31.9355 242.142 25.7839 229.049 -0.621885 124.029C-3.78221 112.552 -5.18562 100.662 -4.78434 88.7645C-4.03532 58.64 5.13022 32.8387 35.7314 20.4437C64.5859 8.69973 91.2708 17.4221 111.199 37.195C141.099 66.8494 163.48 93.5398 190.255 126.294C197.919 135.699 213.716 154.818 224.268 162.221C242.848 175.287 260.876 168.319 264.868 138.78C267.501 119.387 270.928 96.1837 283.064 83.1894C303.176 61.8367 330.708 66.1827 355.826 81.0151C416.693 116.786 437.349 95.6778 459.217 53.0254C472.122 27.8578 483.957 0.76063 500.85 -21.3697C508.618 -32.8063 520.399 -40.9076 533.858 -44.0685"/>
</mask>
<path d="M509.902 -26.2386L511.504 -25.0409L511.519 -25.0608L511.533 -25.0811L509.902 -26.2386ZM500.284 -11.0116L502.015 -10.0101L502.035 -10.0446L502.054 -10.0797L500.284 -11.0116ZM481.082 27.6667L479.267 26.8258L479.266 26.8278L481.082 27.6667ZM452.595 85.8256L454.293 86.8826L454.293 86.882L452.595 85.8256ZM369.301 105.05L368.483 106.875L368.495 106.881L369.301 105.05ZM339.796 90.9404L340.584 89.1024L340.584 89.1022L339.796 90.9404ZM286.517 121.947L284.526 121.756L284.526 121.756L286.517 121.947ZM257.223 186.023L258.087 187.827L258.088 187.826L257.223 186.023ZM193.052 161.052L191.575 162.4L191.575 162.401L193.052 161.052ZM116.746 74.1623L115.272 75.5135L115.273 75.5143L116.746 74.1623ZM24.8256 117.335L26.7684 116.86L26.7681 116.859L24.8256 117.335ZM83.2553 323.059L81.3221 323.571L81.3251 323.583L83.2553 323.059ZM88.6666 345.047L86.6811 345.287L86.6828 345.301L86.6848 345.316L88.6666 345.047ZM87.3349 353.188L89.075 354.174L89.1027 354.125L89.1276 354.075L87.3349 353.188ZM71.041 367.533L72.041 369.265L72.0658 369.251L72.0901 369.236L71.041 367.533ZM70.3875 367.91L69.3875 366.178L69.3555 366.197L69.3241 366.216L70.3875 367.91ZM64.4577 371.222L63.5732 369.428L63.531 369.449L63.4898 369.472L64.4577 371.222ZM59.7947 372.82L59.9351 374.815L60.0196 374.809L60.1032 374.796L59.7947 372.82ZM58.2485 371.612L60.242 371.773L60.2421 371.773L58.2485 371.612ZM55.0625 331.963L57.0048 331.486L57.0021 331.475L56.9993 331.464L55.0625 331.963ZM-0.621886 124.029L1.31774 123.542L1.31229 123.52L1.30635 123.498L-0.621886 124.029ZM-4.78434 88.7645L-2.78548 88.8319L-2.78518 88.8231L-2.78496 88.8142L-4.78434 88.7645ZM35.7314 20.4437L36.4822 22.2974L36.4853 22.2962L35.7314 20.4437ZM111.199 37.195L109.79 38.6147L109.79 38.615L111.199 37.195ZM190.255 126.294L191.805 125.031L191.803 125.029L190.255 126.294ZM224.268 162.221L225.418 160.585L225.416 160.583L224.268 162.221ZM264.868 138.78L262.886 138.511L262.886 138.512L264.868 138.78ZM283.064 83.1894L281.608 81.8181L281.602 81.8243L283.064 83.1894ZM355.826 81.0151L354.809 82.7372L354.813 82.7394L355.826 81.0151ZM459.217 53.0254L457.437 52.1129L457.437 52.113L459.217 53.0254ZM500.85 -21.3697L502.44 -20.1562L502.473 -20.2002L502.504 -20.2459L500.85 -21.3697ZM533.217 -45.9632C523.152 -42.5601 514.42 -36.0612 508.271 -27.396L511.533 -25.0811C517.194 -33.0582 525.232 -39.041 534.498 -42.1739L533.217 -45.9632ZM508.301 -27.4363C504.637 -22.5368 501.365 -17.3565 498.514 -11.9434L502.054 -10.0797C504.806 -15.307 507.966 -20.3096 511.504 -25.0409L508.301 -27.4363ZM498.553 -12.013C489.549 3.55169 483.708 17.2416 479.267 26.8258L482.897 28.5076C487.388 18.8144 493.128 5.35314 502.015 -10.0101L498.553 -12.013ZM479.266 26.8278C466.283 54.9241 463.648 64.2706 450.897 84.7692L454.293 86.882C467.219 66.1032 470.057 56.2932 482.897 28.5057L479.266 26.8278ZM450.897 84.7685C439.532 103.023 424.215 109.687 409.339 110.815C394.352 111.951 379.742 107.46 370.106 103.219L368.495 106.881C378.447 111.26 393.747 116.008 409.642 114.803C425.648 113.59 442.184 106.332 454.293 86.8826L450.897 84.7685ZM370.118 103.225C366.894 101.781 361.924 99.29 356.512 96.6182C351.134 93.9637 345.347 91.1453 340.584 89.1024L339.007 92.7785C343.658 94.7735 349.355 97.5461 354.741 100.205C360.093 102.847 365.169 105.391 368.483 106.875L370.118 103.225ZM340.584 89.1022C323.794 81.9067 310.383 82.2678 300.744 88.7013C291.173 95.0898 285.931 107.071 284.526 121.756L288.508 122.137C289.857 108.043 294.808 97.4723 302.964 92.0283C311.053 86.6294 322.904 85.8773 339.008 92.7787L340.584 89.1022ZM284.526 121.756C282.61 141.788 279.578 155.486 275.018 165.14C270.507 174.691 264.482 180.327 256.359 184.219L258.088 187.826C267.028 183.543 273.726 177.241 278.635 166.848C283.495 156.559 286.578 142.307 288.508 122.137L284.526 121.756ZM256.36 184.219C249.124 187.683 240.333 188.764 230.061 185.435C219.739 182.09 207.826 174.257 194.528 159.703L191.575 162.401C205.165 177.274 217.636 185.613 228.828 189.24C240.069 192.883 249.92 191.736 258.087 187.827L256.36 184.219ZM194.529 159.703C181.553 145.495 169.008 130.895 156.433 116.276C143.865 101.664 131.268 87.035 118.22 72.8104L115.273 75.5143C128.27 89.6845 140.827 104.266 153.401 118.884C165.968 133.494 178.552 148.141 191.575 162.4L194.529 159.703ZM118.221 72.8112C108.488 62.1896 97.6323 50.8569 85.2992 44.0265C72.8374 37.1247 58.7936 34.7836 42.9379 42.2218L44.6367 45.8431C59.1242 39.0468 71.8063 41.1261 83.3613 47.5257C95.045 53.9965 105.497 64.8461 115.272 75.5135L118.221 72.8112ZM42.9379 42.2218C27.0374 49.681 20.3847 62.2318 18.5769 76.1048C16.788 89.8324 19.7224 104.917 22.8832 117.812L26.7681 116.859C23.6153 103.997 20.8589 89.5479 22.5433 76.6217C24.2088 63.841 30.1938 52.6185 44.6367 45.8431L42.9379 42.2218ZM22.8829 117.811C31.2583 152.045 41.3717 186.522 51.6351 220.909C61.9028 255.311 72.3178 289.615 81.3221 323.571L85.1885 322.546C76.1644 288.515 65.7268 254.137 55.468 219.765C45.2047 185.378 35.1175 150.987 26.7684 116.86L22.8829 117.811ZM81.3251 323.583C83.358 331.074 85.7923 337.94 86.6811 345.287L90.6521 344.806C89.717 337.076 87.1151 329.646 85.1855 322.535L81.3251 323.583ZM86.6848 345.316C87.0096 347.706 86.6117 350.139 85.5422 352.301L89.1276 354.075C90.5511 351.197 91.0807 347.959 90.6484 344.777L86.6848 345.316ZM85.5948 352.202C82.1266 358.324 76.4123 361.875 69.992 365.83L72.0901 369.236C78.3592 365.373 85.0186 361.334 89.075 354.174L85.5948 352.202ZM70.041 365.801L69.3875 366.178L71.3875 369.642L72.041 369.265L70.041 365.801ZM69.3241 366.216C67.4633 367.385 65.5438 368.457 63.5732 369.428L65.3422 373.016C67.4354 371.984 69.4744 370.845 71.4509 369.604L69.3241 366.216ZM63.4898 369.472C62.2458 370.16 60.8906 370.624 59.4861 370.844L60.1032 374.796C61.9705 374.504 63.7719 373.887 65.4257 372.972L63.4898 369.472ZM59.6543 370.825C59.572 370.83 59.5333 370.824 59.5356 370.825C59.5387 370.825 59.5603 370.829 59.596 370.842C59.632 370.855 59.6875 370.879 59.7535 370.921C59.8981 371.013 60.0542 371.169 60.1541 371.385C60.2498 371.592 60.2442 371.746 60.242 371.773L56.255 371.451C56.1627 372.592 56.6141 373.663 57.602 374.293C58.4119 374.81 59.3204 374.858 59.9351 374.815L59.6543 370.825ZM60.2421 371.773C61.3327 358.257 60.2396 344.654 57.0048 331.486L53.1203 332.44C56.2526 345.191 57.3111 358.364 56.255 371.451L60.2421 371.773ZM56.9993 331.464C45.43 286.531 38.105 260.784 30.3759 233.157C22.6499 205.541 14.5153 176.03 1.31774 123.542L-2.56151 124.517C10.6467 177.048 18.7908 206.594 26.5238 234.234C34.2537 261.864 41.5681 287.574 53.1257 332.462L56.9993 331.464ZM1.30635 123.498C-1.80035 112.216 -3.17995 100.528 -2.78548 88.8319L-6.7832 88.6971C-7.19129 100.797 -5.76407 112.888 -2.55012 124.56L1.30635 123.498ZM-2.78496 88.8142C-2.41454 73.9168 0.0362887 60.2779 6.04769 48.8891C12.0314 37.5529 21.6062 28.3229 36.4822 22.2974L34.9805 18.59C19.2554 24.9595 8.94685 34.8276 2.51024 47.0219C-3.89866 59.1637 -6.40512 73.4877 -6.78373 88.7148L-2.78496 88.8142ZM36.4853 22.2962C64.4635 10.9089 90.321 19.2972 109.79 38.6147L112.607 35.7753C92.2206 15.5471 64.7083 6.4906 34.9774 18.5913L36.4853 22.2962ZM109.79 38.615C139.613 68.1925 161.939 94.8158 188.706 127.56L191.803 125.029C165.02 92.2638 142.585 65.5063 112.607 35.7749L109.79 38.615ZM188.704 127.558C192.54 132.265 198.432 139.429 204.695 146.35C210.925 153.235 217.642 160.016 223.119 163.858L225.416 160.583C220.341 157.023 213.884 150.543 207.661 143.667C201.472 136.826 195.633 129.729 191.805 125.031L188.704 127.558ZM223.117 163.857C232.751 170.632 242.722 172.525 250.96 168.253C259.125 164.017 264.815 154.105 266.85 139.048L262.886 138.512C260.929 152.994 255.609 161.335 249.118 164.702C242.698 168.032 234.364 166.876 225.418 160.585L223.117 163.857ZM266.85 139.049C268.168 129.341 269.668 118.818 272.331 109.114C274.998 99.3941 278.779 90.7069 284.525 84.5545L281.602 81.8243C275.212 88.6662 271.212 98.0777 268.473 108.056C265.731 118.051 264.201 128.826 262.886 138.511L266.85 139.049ZM284.52 84.5607C294.168 74.3175 305.524 70.2725 317.524 70.5324C329.601 70.7939 342.425 75.4244 354.809 82.7372L356.843 79.2929C344.109 71.7734 330.607 66.8148 317.611 66.5333C304.537 66.2502 292.072 70.7086 281.608 81.8181L284.52 84.5607ZM354.813 82.7394C385.371 100.698 406.475 104.783 422.882 98.2885C439.167 91.8431 450.086 75.2175 460.996 53.9379L457.437 52.113C446.479 73.4857 436.137 88.7403 421.41 94.5693C406.806 100.35 387.148 97.1028 356.84 79.2908L354.813 82.7394ZM460.996 53.938C473.984 28.6093 485.69 1.78627 502.44 -20.1562L499.26 -22.5832C482.224 -0.265025 470.259 27.1063 457.437 52.1129L460.996 53.938ZM502.504 -20.2459C509.991 -31.2677 521.344 -39.0752 534.315 -42.1215L533.401 -46.0156C519.453 -42.74 507.245 -34.3448 499.195 -22.4934L502.504 -20.2459Z" fill="#2C2D2D" fill-opacity="0.5" mask="url(#path-1-inside-1_103_2)"/>
<mask id="path-3-inside-2_103_2" fill="white">
<path d="M18.1446 814.835C24.9047 807.193 29.075 797.608 30.0589 787.452C30.7876 781.484 31.0453 775.467 30.8296 769.458C30.8985 751.594 29.1699 736.936 28.2508 726.353C25.5548 695.69 23.1648 686.02 24.0379 661.729C25.6493 617.345 65.4566 605.888 86.737 603.623C93.8654 602.911 109.176 602.368 119.351 601.189C154.899 597.059 162.076 574.128 150.151 547.791C133.493 511.002 132.959 493.212 143.695 477.633C153.39 463.574 173.824 455.222 211.786 467.379C248.499 479.144 284.482 493.127 321.2 504.806C348.712 513.573 380.237 522.098 399.481 494.658C418.725 467.217 397.76 440.838 379.472 421.633C330.962 370.646 275.917 322.237 226.461 272.222C221.111 266.873 215.371 261.925 210.831 255.838C209.116 253.609 208.109 250.919 207.936 248.113C207.898 240.48 211.377 234.111 214.937 227.564L215.317 226.911C216.382 224.912 217.549 222.969 218.814 221.089C219.672 219.673 220.772 218.419 222.065 217.384C222.762 216.916 223.586 216.769 224.006 217.662C229.691 229.736 237.283 240.815 246.491 250.475C311.229 316.895 323.078 325.194 398.219 403.169C406.669 411.555 413.801 421.171 419.37 431.693C433.703 458.199 438.585 485.142 418.202 511.115C399.011 535.655 371.522 541.36 344.399 534.118C303.71 523.263 271.02 511.239 231.5 496.141C220.174 491.794 196.959 483.064 184.124 481.89C161.506 479.796 149.331 494.808 160.56 522.419C167.922 540.553 176.489 562.387 172.424 579.697C165.596 608.224 139.549 618.147 110.381 617.773C39.7851 617.014 32.364 645.599 34.6071 693.478C35.9292 721.731 39.1387 751.125 35.4905 778.726C34.4396 792.511 28.2487 805.399 18.1446 814.835"/>
</mask>
<path d="M30.0589 787.452L28.0737 787.21L28.0706 787.235L28.0682 787.259L30.0589 787.452ZM30.8296 769.459L28.8296 769.451L28.8294 769.491L28.8309 769.53L30.8296 769.459ZM28.2508 726.353L30.2433 726.18L30.2431 726.178L28.2508 726.353ZM24.0379 661.729L22.0392 661.657L22.0392 661.657L24.0379 661.729ZM86.7371 603.623L86.5382 601.633L86.5254 601.635L86.7371 603.623ZM119.351 601.189L119.582 603.176L119.582 603.176L119.351 601.189ZM150.151 547.791L151.973 546.966L151.973 546.966L150.151 547.791ZM143.695 477.633L142.048 476.497L142.048 476.498L143.695 477.633ZM211.786 467.379L212.396 465.474L212.396 465.474L211.786 467.379ZM321.2 504.806L321.807 502.901L321.806 502.901L321.2 504.806ZM379.472 421.633L378.023 423.012L378.023 423.013L379.472 421.633ZM226.461 272.222L227.883 270.816L227.875 270.807L226.461 272.222ZM210.831 255.838L212.434 254.642L212.425 254.63L212.416 254.619L210.831 255.838ZM207.936 248.113L205.937 248.123L205.937 248.179L205.94 248.235L207.936 248.113ZM214.937 227.564L213.208 226.559L213.194 226.583L213.18 226.608L214.937 227.564ZM215.317 226.911L217.046 227.917L217.064 227.885L217.082 227.852L215.317 226.911ZM218.814 221.089L220.473 222.205L220.5 222.166L220.524 222.126L218.814 221.089ZM222.065 217.384L220.951 215.723L220.88 215.77L220.814 215.823L222.065 217.384ZM224.006 217.662L222.197 218.514L222.197 218.514L224.006 217.662ZM246.491 250.475L245.043 251.855L245.051 251.863L245.058 251.871L246.491 250.475ZM398.219 403.169L396.779 404.557L396.795 404.573L396.811 404.589L398.219 403.169ZM419.37 431.693L417.602 432.628L417.607 432.636L417.611 432.644L419.37 431.693ZM418.202 511.115L416.628 509.88L416.626 509.883L418.202 511.115ZM344.399 534.118L344.915 532.186L344.915 532.185L344.399 534.118ZM231.5 496.141L230.783 498.008L230.786 498.009L231.5 496.141ZM184.124 481.89L183.939 483.882L183.942 483.882L184.124 481.89ZM160.56 522.419L162.413 521.667L162.413 521.666L160.56 522.419ZM172.424 579.697L174.369 580.162L174.371 580.154L172.424 579.697ZM110.381 617.773L110.407 615.773L110.402 615.773L110.381 617.773ZM34.6071 693.478L36.6049 693.385L36.6049 693.385L34.6071 693.478ZM35.4905 778.726L33.5078 778.464L33.5005 778.519L33.4963 778.574L35.4905 778.726ZM19.6426 816.16C26.6823 808.202 31.0249 798.221 32.0496 787.645L28.0682 787.259C27.125 796.995 23.1271 806.184 16.6465 813.51L19.6426 816.16ZM32.0442 787.695C32.7856 781.622 33.0478 775.5 32.8283 769.387L28.8309 769.53C29.0428 775.434 28.7896 781.346 28.0737 787.21L32.0442 787.695ZM32.8296 769.466C32.899 751.485 31.1572 736.704 30.2433 726.18L26.2583 726.526C27.1826 737.169 28.8981 751.702 28.8296 769.451L32.8296 769.466ZM30.2431 726.178C27.5322 695.346 25.1695 685.927 26.0366 661.801L22.0392 661.657C21.1602 686.113 23.5774 696.035 26.2585 726.528L30.2431 726.178ZM26.0366 661.802C26.8167 640.313 36.7906 626.913 49.1346 618.536C61.5714 610.096 76.4803 606.726 86.9487 605.612L86.5254 601.635C75.7133 602.785 60.0784 606.276 46.8885 615.226C33.606 624.24 22.8705 638.761 22.0392 661.657L26.0366 661.802ZM86.9359 605.613C90.4509 605.262 96.001 604.952 102.026 604.577C108.011 604.206 114.434 603.772 119.582 603.176L119.121 599.202C114.094 599.785 107.773 600.213 101.778 600.585C95.821 600.955 90.1515 601.272 86.5382 601.633L86.9359 605.613ZM119.582 603.176C137.727 601.067 149.182 594.084 154.344 583.708C159.47 573.406 158.058 560.405 151.973 546.966L148.329 548.615C154.169 561.514 155.131 573.147 150.763 581.926C146.431 590.633 136.524 597.18 119.12 599.202L119.582 603.176ZM151.973 546.966C143.672 528.634 139.49 515.243 138.644 504.6C137.807 494.07 140.231 486.184 145.342 478.768L142.048 476.498C136.423 484.661 133.745 493.459 134.656 504.917C135.558 516.26 139.971 530.158 148.329 548.616L151.973 546.966ZM145.341 478.768C149.896 472.164 156.985 466.853 167.552 464.632C178.17 462.401 192.401 463.271 211.176 469.283L212.396 465.474C193.209 459.33 178.242 458.298 166.729 460.718C155.165 463.148 147.189 469.043 142.048 476.497L145.341 478.768ZM211.176 469.283C229.499 475.155 247.644 481.582 265.824 488.011C283.995 494.435 302.2 500.862 320.594 506.712L321.806 502.901C303.482 497.072 285.336 490.667 267.158 484.239C248.989 477.815 230.786 471.368 212.396 465.474L211.176 469.283ZM320.593 506.712C334.319 511.086 349.374 515.518 363.47 515.31C377.714 515.099 391.062 510.145 401.118 495.806L397.843 493.509C388.655 506.611 376.619 511.115 363.411 511.31C350.057 511.507 335.593 507.294 321.807 502.901L320.593 506.712ZM401.118 495.806C411.202 481.426 410.731 467.229 405.4 454.295C400.124 441.496 390.076 429.868 380.92 420.254L378.023 423.013C387.156 432.603 396.734 443.767 401.702 455.819C406.614 467.735 407.003 480.448 397.843 493.509L401.118 495.806ZM380.921 420.255C356.628 394.721 330.706 369.841 304.699 345.114C278.681 320.375 252.584 295.796 227.883 270.816L225.039 273.628C249.794 298.663 275.947 323.296 301.943 348.013C327.95 372.74 353.806 397.558 378.023 423.012L380.921 420.255ZM227.875 270.807C222.386 265.319 216.859 260.574 212.434 254.642L209.228 257.034C213.884 263.275 219.836 268.427 225.047 273.636L227.875 270.807ZM212.416 254.619C210.945 252.707 210.08 250.398 209.933 247.99L205.94 248.235C206.137 251.44 207.288 254.512 209.245 257.057L212.416 254.619ZM209.936 248.102C209.901 241.067 213.092 235.144 216.694 228.519L213.18 226.608C209.663 233.077 205.895 239.894 205.937 248.123L209.936 248.102ZM216.666 228.569L217.046 227.917L213.588 225.906L213.208 226.559L216.666 228.569ZM217.082 227.852C218.115 225.913 219.247 224.028 220.473 222.205L217.154 219.973C215.852 221.909 214.649 223.911 213.552 225.971L217.082 227.852ZM220.524 222.126C221.261 220.91 222.206 219.833 223.315 218.945L220.814 215.823C219.339 217.005 218.083 218.436 217.104 220.052L220.524 222.126ZM223.179 219.045C223.247 218.999 223.284 218.985 223.282 218.986C223.279 218.987 223.258 218.994 223.221 219.001C223.183 219.007 223.123 219.014 223.045 219.01C222.873 219.002 222.66 218.945 222.466 218.807C222.28 218.675 222.208 218.539 222.197 218.514L225.816 216.811C225.328 215.775 224.404 215.07 223.234 215.015C222.274 214.969 221.462 215.38 220.951 215.723L223.179 219.045ZM222.197 218.514C227.973 230.782 235.687 242.04 245.043 251.855L247.938 249.095C238.879 239.591 231.409 228.69 225.816 216.81L222.197 218.514ZM245.058 251.871C277.444 285.098 296.605 303.792 317.051 323.915C337.489 344.03 359.223 365.585 396.779 404.557L399.659 401.782C362.073 362.778 340.313 341.197 319.857 321.064C299.408 300.938 280.276 282.272 247.923 249.079L245.058 251.871ZM396.811 404.589C405.117 412.832 412.127 422.286 417.602 432.628L421.138 430.757C415.474 420.057 408.222 410.277 399.628 401.75L396.811 404.589ZM417.611 432.644C424.699 445.752 429.356 458.804 429.806 471.674C430.253 484.484 426.537 497.254 416.628 509.88L419.775 512.35C430.249 499.003 434.284 485.315 433.803 471.534C433.324 457.813 428.374 444.14 421.129 430.741L417.611 432.644ZM416.626 509.883C398.018 533.677 371.414 539.261 344.915 532.186L343.883 536.05C371.631 543.459 400.003 537.632 419.777 512.347L416.626 509.883ZM344.915 532.185C304.331 521.359 271.721 509.366 232.214 494.272L230.786 498.009C270.318 513.112 303.089 525.167 343.884 536.05L344.915 532.185ZM232.217 494.274C226.548 492.098 217.873 488.813 208.997 485.924C200.168 483.05 190.968 480.508 184.306 479.899L183.942 483.882C190.115 484.447 198.94 486.856 207.759 489.727C216.531 492.583 225.125 495.836 230.783 498.008L232.217 494.274ZM184.308 479.899C172.58 478.813 162.989 482.13 157.967 489.933C152.99 497.669 152.983 509.098 158.707 523.173L162.413 521.666C156.908 508.13 157.374 498.247 161.331 492.098C165.244 486.016 173.049 482.874 183.939 483.882L184.308 479.899ZM158.707 523.172C162.392 532.249 166.325 542.125 168.841 551.867C171.361 561.627 172.402 571.044 170.477 579.239L174.371 580.154C176.511 571.04 175.301 560.886 172.714 550.867C170.122 540.832 166.09 530.723 162.413 521.667L158.707 523.172ZM170.479 579.231C167.203 592.916 159.363 602.074 148.823 607.817C138.216 613.596 124.788 615.957 110.407 615.773L110.355 619.773C125.143 619.962 139.322 617.549 150.737 611.329C162.22 605.072 170.816 595.004 174.369 580.162L170.479 579.231ZM110.402 615.773C74.9597 615.392 54.6198 622.345 43.616 636.139C32.6944 649.83 31.4902 669.685 32.6093 693.572L36.6049 693.385C35.4809 669.393 36.8658 651.015 46.7429 638.634C56.5377 626.355 75.2063 619.395 110.359 619.773L110.402 615.773ZM32.6093 693.572C33.9399 722.005 37.1249 751.097 33.5078 778.464L37.4733 778.988C41.1524 751.153 37.9186 721.456 36.6049 693.385L32.6093 693.572ZM33.4963 778.574C32.4835 791.859 26.5172 804.279 16.7795 813.374L19.5097 816.297C29.9803 806.518 36.3957 793.163 37.4847 778.878L33.4963 778.574Z" fill="#2C2D2D" fill-opacity="0.5" mask="url(#path-3-inside-2_103_2)"/>
<mask id="path-5-inside-3_103_2" fill="white">
<path d="M1380.11 -0.591138C1369.91 -0.404151 1360.03 3.00402 1351.88 9.14595C1346.99 12.6446 1342.38 16.5229 1338.1 20.7447C1324.89 32.7732 1315.26 43.9574 1308.09 51.7906C1287.32 74.5096 1281.81 82.8092 1263.32 98.5901C1229.53 127.414 1194.17 105.832 1178.12 91.6844C1172.77 86.914 1162.02 76.0007 1154.27 69.3013C1127.19 45.9041 1105.45 56.1208 1094.1 82.7148C1078.26 119.863 1065.52 132.285 1046.78 134.909C1029.87 137.271 1009.9 127.864 993.186 91.6754C977.031 56.6715 963.002 20.706 946.78 -14.2435C934.637 -40.4409 919.603 -69.4312 886.373 -65.0554C853.144 -60.6795 847.885 -27.397 846.101 -0.938135C841.335 69.2775 842.889 142.564 839.479 212.819C839.156 220.378 839.391 227.952 837.977 235.413C837.494 238.183 836.193 240.745 834.242 242.769C828.645 247.958 821.599 249.702 814.369 251.505L813.632 251.667C811.438 252.234 809.217 252.688 806.977 253.027C805.354 253.352 803.686 253.389 802.049 253.137C801.233 252.94 800.567 252.432 800.941 251.518C805.993 239.167 809.023 226.082 809.914 212.767C815.077 120.16 813.18 105.819 819.821 -2.26597C820.285 -14.1614 822.549 -25.9178 826.535 -37.1351C836.373 -65.6179 852.922 -87.4314 885.84 -89.9761C916.896 -92.4293 939.686 -76.0346 952.689 -51.1548C972.204 -13.8373 985.45 18.3779 1001.05 57.7034C1005.5 68.9876 1014.77 91.9934 1022.58 102.244C1036.33 120.324 1055.62 119.143 1068.37 92.2007C1076.76 74.5156 1087.05 53.4403 1102.55 44.7319C1128.19 30.4735 1153.11 42.9539 1172.56 64.6972C1219.73 117.223 1245.81 103.362 1279.57 69.3359C1299.49 49.2589 1318.97 27.0191 1341.78 11.0445C1352.64 2.49779 1366.33 -1.65503 1380.11 -0.591138"/>
</mask>
<path d="M1351.88 9.14595L1353.04 10.7725L1353.06 10.758L1353.08 10.743L1351.88 9.14595ZM1338.1 20.7447L1339.45 22.2234L1339.48 22.1967L1339.5 22.1688L1338.1 20.7447ZM1308.09 51.7906L1306.61 50.4396L1306.61 50.4412L1308.09 51.7906ZM1263.32 98.59L1264.62 100.112L1264.62 100.111L1263.32 98.59ZM1178.12 91.6844L1176.79 93.1765L1176.8 93.185L1178.12 91.6844ZM1154.27 69.3013L1155.58 67.7884L1155.58 67.788L1154.27 69.3013ZM1094.1 82.7148L1092.26 81.9303L1092.26 81.9303L1094.1 82.7148ZM1046.78 134.909L1047.06 136.89L1047.06 136.89L1046.78 134.909ZM993.185 91.6754L991.37 92.5135L991.37 92.5139L993.185 91.6754ZM946.78 -14.2435L944.966 -13.4024L944.966 -13.4015L946.78 -14.2435ZM846.101 -0.938135L848.096 -0.802709L848.096 -0.803612L846.101 -0.938135ZM839.479 212.819L837.481 212.722L837.481 212.734L839.479 212.819ZM837.977 235.413L836.012 235.041L836.009 235.055L836.006 235.07L837.977 235.413ZM834.242 242.769L835.602 244.236L835.643 244.198L835.682 244.157L834.242 242.769ZM814.369 251.505L814.797 253.459L814.825 253.453L814.853 253.446L814.369 251.505ZM813.632 251.667L813.203 249.713L813.167 249.721L813.131 249.731L813.632 251.667ZM806.977 253.027L806.677 251.05L806.631 251.057L806.585 251.066L806.977 253.027ZM802.049 253.137L801.579 255.081L801.661 255.101L801.745 255.114L802.049 253.137ZM800.941 251.518L802.792 252.276L802.793 252.276L800.941 251.518ZM809.914 212.767L811.909 212.9L811.91 212.889L811.91 212.878L809.914 212.767ZM819.821 -2.26597L821.818 -2.1433L821.819 -2.16562L821.82 -2.18798L819.821 -2.26597ZM826.535 -37.1351L828.419 -36.4655L828.422 -36.4738L828.425 -36.4822L826.535 -37.1351ZM885.84 -89.9761L885.994 -87.982L885.997 -87.9823L885.84 -89.9761ZM952.689 -51.1548L950.917 -50.2284L950.917 -50.228L952.689 -51.1548ZM1001.05 57.7034L1002.91 56.9689L1002.91 56.9661L1001.05 57.7034ZM1022.58 102.244L1024.17 101.033L1024.17 101.031L1022.58 102.244ZM1068.37 92.2007L1066.57 91.3441L1066.57 91.3452L1068.37 92.2007ZM1102.55 44.7319L1101.58 42.9841L1101.57 42.9882L1102.55 44.7319ZM1172.56 64.6972L1171.06 66.0305L1171.07 66.0336L1172.56 64.6972ZM1279.57 69.3359L1278.15 67.9272L1278.15 67.9273L1279.57 69.3359ZM1341.78 11.0445L1342.92 12.6825L1342.97 12.6508L1343.01 12.6165L1341.78 11.0445ZM1380.07 -2.5908C1369.45 -2.39608 1359.16 1.153 1350.67 7.54889L1353.08 10.743C1360.89 4.85504 1370.37 1.58777 1380.15 1.40853L1380.07 -2.5908ZM1350.71 7.5194C1345.74 11.0792 1341.05 15.0251 1336.7 19.3207L1339.5 22.1688C1343.71 18.0206 1348.24 14.2101 1353.04 10.7725L1350.71 7.5194ZM1336.75 19.266C1323.46 31.3728 1313.75 42.6507 1306.61 50.4396L1309.56 53.1416C1316.78 45.2641 1326.32 34.1736 1339.45 22.2234L1336.75 19.266ZM1306.61 50.4412C1285.73 73.2857 1280.38 81.3952 1262.02 97.0689L1264.62 100.111C1283.23 84.2232 1288.91 75.7335 1309.56 53.1401L1306.61 50.4412ZM1262.02 97.0684C1245.66 111.023 1229.05 112.735 1214.53 109.305C1199.9 105.849 1187.34 97.1432 1179.44 90.1837L1176.8 93.185C1184.95 100.373 1198.1 109.532 1213.61 113.198C1229.23 116.889 1247.19 114.98 1264.62 100.112L1262.02 97.0684ZM1179.45 90.1923C1176.81 87.84 1172.83 83.9608 1168.48 79.7752C1164.16 75.6166 1159.5 71.1779 1155.58 67.7884L1152.96 70.8143C1156.79 74.1241 1161.38 78.4918 1165.71 82.6573C1170.01 86.7957 1174.08 90.7584 1176.79 93.1765L1179.45 90.1923ZM1155.58 67.788C1141.76 55.8454 1128.87 52.1277 1117.73 55.3397C1106.68 58.5293 1098.05 68.3603 1092.26 81.9303L1095.94 83.4994C1101.5 70.4754 1109.42 61.901 1118.84 59.183C1128.18 56.4875 1139.71 59.36 1152.96 70.8147L1155.58 67.788ZM1092.26 81.9303C1084.37 100.441 1077.33 112.577 1070.06 120.397C1062.87 128.133 1055.42 131.679 1046.5 132.928L1047.06 136.89C1056.88 135.515 1065.17 131.539 1072.99 123.12C1080.74 114.786 1088 102.137 1095.94 83.4993L1092.26 81.9303ZM1046.5 132.928C1038.56 134.038 1029.85 132.406 1021.07 126.123C1012.25 119.809 1003.27 108.735 995.001 90.8369L991.37 92.5139C999.816 110.804 1009.18 122.529 1018.74 129.376C1028.35 136.252 1038.09 138.142 1047.06 136.89L1046.5 132.928ZM995.001 90.8373C986.939 73.3672 979.405 55.6529 971.848 37.9118C964.296 20.1802 956.721 2.42262 948.594 -15.0856L944.966 -13.4015C953.062 4.03982 960.612 21.7398 968.168 39.4793C975.72 57.2093 983.277 74.9797 991.37 92.5135L995.001 90.8373ZM948.595 -15.0847C942.536 -28.1552 935.622 -42.2434 925.937 -52.4884C916.151 -62.8403 903.476 -69.3248 886.112 -67.0382L886.634 -63.0725C902.5 -65.1618 913.956 -59.3391 923.031 -49.7405C932.206 -40.0349 938.881 -26.5293 944.966 -13.4024L948.595 -15.0847ZM886.112 -67.0382C868.699 -64.7452 858.558 -54.7988 852.633 -42.1248C846.771 -29.5838 844.998 -14.3186 844.105 -1.07266L848.096 -0.803612C848.987 -14.0166 850.736 -28.622 856.257 -40.4309C861.715 -52.1069 870.818 -60.9896 886.634 -63.0725L886.112 -67.0382ZM844.106 -1.07356C841.719 34.0894 840.916 70.0098 840.282 105.89C839.648 141.787 839.184 177.634 837.481 212.722L841.477 212.916C843.183 177.75 843.648 141.826 844.281 105.961C844.915 70.0807 845.717 34.25 848.096 -0.802709L844.106 -1.07356ZM837.481 212.734C837.149 220.489 837.39 227.77 836.012 235.041L839.942 235.786C841.392 228.135 841.162 220.266 841.477 212.905L837.481 212.734ZM836.006 235.07C835.592 237.446 834.476 239.644 832.802 241.381L835.682 244.157C837.91 241.846 839.395 238.92 839.947 235.757L836.006 235.07ZM832.882 241.303C827.723 246.086 821.201 247.74 813.885 249.565L814.853 253.446C821.997 251.664 829.567 249.831 835.602 244.236L832.882 241.303ZM813.94 249.552L813.203 249.713L814.06 253.621L814.797 253.459L813.94 249.552ZM813.131 249.731C811.004 250.28 808.85 250.721 806.677 251.05L807.277 255.005C809.584 254.655 811.872 254.187 814.132 253.603L813.131 249.731ZM806.585 251.066C805.191 251.345 803.759 251.377 802.354 251.161L801.745 255.114C803.613 255.402 805.517 255.359 807.37 254.988L806.585 251.066ZM802.52 251.194C802.44 251.174 802.405 251.157 802.407 251.158C802.409 251.159 802.429 251.169 802.459 251.193C802.489 251.216 802.535 251.255 802.585 251.316C802.695 251.447 802.797 251.643 802.826 251.879C802.855 252.105 802.803 252.251 802.792 252.276L799.09 250.761C798.657 251.821 798.763 252.978 799.513 253.878C800.129 254.615 800.98 254.936 801.579 255.081L802.52 251.194ZM802.793 252.276C807.926 239.725 811.004 226.43 811.909 212.9L807.918 212.633C807.041 225.734 804.061 238.608 799.09 250.761L802.793 252.276ZM811.91 212.878C814.493 166.551 815.311 139.794 816.312 111.124C817.313 82.4655 818.498 51.8772 821.818 -2.1433L817.825 -2.38863C814.503 51.6754 813.316 82.3 812.314 110.985C811.313 139.658 810.497 166.375 807.917 212.655L811.91 212.878ZM821.82 -2.18798C822.276 -13.8815 824.501 -25.4385 828.419 -36.4655L824.65 -37.8048C820.597 -26.3971 818.295 -14.4412 817.823 -2.34396L821.82 -2.18798ZM828.425 -36.4822C833.29 -50.5677 839.757 -62.8238 848.935 -71.857C858.071 -80.8485 869.992 -86.745 885.994 -87.982L885.686 -91.9701C868.77 -90.6625 855.957 -84.3799 846.129 -74.7078C836.344 -65.0774 829.617 -52.1853 824.645 -37.7881L828.425 -36.4822ZM885.997 -87.9823C916.11 -90.361 938.213 -74.5353 950.917 -50.2284L954.462 -52.0812C941.159 -77.5338 917.682 -94.4976 885.682 -91.9699L885.997 -87.9823ZM950.917 -50.228C970.381 -13.0073 983.595 19.1275 999.188 58.4408L1002.91 56.9661C987.304 17.6283 974.027 -14.6673 954.462 -52.0816L950.917 -50.228ZM999.186 58.4379C1001.42 64.0853 1004.86 72.698 1008.73 81.191C1012.59 89.6392 1016.93 98.1361 1020.99 103.456L1024.17 101.031C1020.41 96.1011 1016.22 87.9698 1012.37 79.5315C1008.55 71.138 1005.13 62.6057 1002.91 56.9689L999.186 58.4379ZM1020.99 103.455C1028.12 112.829 1037.05 117.654 1046.19 116.077C1055.26 114.513 1063.68 106.79 1070.18 93.0563L1066.57 91.3452C1060.32 104.554 1052.72 110.892 1045.51 112.135C1038.39 113.364 1030.79 109.738 1024.17 101.033L1020.99 103.455ZM1070.18 93.0574C1074.38 84.2045 1078.99 74.6296 1084.47 66.1886C1089.96 57.7328 1096.19 50.5987 1103.53 46.4756L1101.57 42.9882C1093.41 47.5735 1086.75 55.3313 1081.12 64.0115C1075.47 72.7065 1070.75 82.5119 1066.57 91.3441L1070.18 93.0574ZM1103.52 46.4797C1115.82 39.6398 1127.87 39.2243 1139.23 43.1064C1150.66 47.0133 1161.48 55.3103 1171.06 66.0305L1174.05 63.364C1164.19 52.3409 1152.82 43.5259 1140.52 39.3214C1128.15 35.0921 1114.92 35.5656 1101.58 42.9841L1103.52 46.4797ZM1171.07 66.0336C1194.75 92.4041 1213.63 102.688 1231.23 101.469C1248.7 100.258 1264.14 87.7205 1280.99 70.7446L1278.15 67.9273C1261.23 84.9775 1246.75 96.3833 1230.95 97.4782C1215.28 98.5639 1197.53 89.5158 1174.04 63.3608L1171.07 66.0336ZM1280.99 70.7446C1301.04 50.5392 1320.32 28.5215 1342.92 12.6825L1340.63 9.40647C1317.63 25.5167 1297.94 47.9787 1278.15 67.9272L1280.99 70.7446ZM1343.01 12.6165C1353.49 4.37983 1366.67 0.377631 1379.96 1.40292L1380.26 -2.58521C1365.98 -3.68769 1351.8 0.615745 1340.54 9.47244L1343.01 12.6165Z" fill="#2C2D2D" fill-opacity="0.5" mask="url(#path-5-inside-3_103_2)"/>
<mask id="path-7-inside-4_103_2" fill="white">
<path d="M613.858 915.931C604.192 919.199 595.807 925.44 589.902 933.761C586.302 938.577 583.086 943.668 580.284 948.988C571.339 964.452 565.548 978.028 561.082 987.667C548.17 1015.61 545.434 1025.19 532.595 1045.83C509.121 1083.53 468.889 1073.67 449.301 1065.05C442.762 1062.12 429.209 1054.98 419.796 1050.94C386.902 1036.84 369.271 1053.17 366.517 1081.95C362.671 1122.15 354.286 1137.85 337.223 1146.02C321.82 1153.4 299.939 1150.48 273.052 1121.05C247.054 1092.58 222.792 1062.56 196.746 1034.16C177.239 1012.87 154.131 989.798 123.787 1004.03C93.4439 1018.27 98.512 1051.58 104.826 1077.34C121.55 1145.7 145.227 1215.07 163.255 1283.06C165.237 1290.36 167.755 1297.51 168.667 1305.05C169.045 1307.83 168.581 1310.67 167.335 1313.19C163.573 1319.83 157.386 1323.62 151.041 1327.53L150.388 1327.91C148.469 1329.11 146.49 1330.22 144.458 1331.22C143.009 1332.02 141.431 1332.56 139.795 1332.82C138.957 1332.88 138.169 1332.6 138.249 1331.61C139.322 1318.31 138.246 1304.92 135.063 1291.96C111.936 1202.14 105.784 1189.05 79.3781 1084.03C76.2178 1072.55 74.8144 1060.66 75.2157 1048.76C75.9647 1018.64 85.1302 992.839 115.731 980.444C144.586 968.7 171.271 977.422 191.199 997.195C221.099 1026.85 243.48 1053.54 270.255 1086.29C277.919 1095.7 293.716 1114.82 304.268 1122.22C322.848 1135.29 340.876 1128.32 344.868 1098.78C347.501 1079.39 350.928 1056.18 363.064 1043.19C383.176 1021.84 410.708 1026.18 435.826 1041.02C496.693 1076.79 517.349 1055.68 539.217 1013.03C552.122 987.858 563.957 960.761 580.85 938.63C588.618 927.194 600.399 919.092 613.858 915.931"/>
</mask>
<path d="M589.902 933.761L591.504 934.959L591.519 934.939L591.533 934.919L589.902 933.761ZM580.284 948.988L582.015 949.99L582.035 949.955L582.054 949.92L580.284 948.988ZM561.082 987.667L559.267 986.826L559.266 986.828L561.082 987.667ZM532.595 1045.83L534.293 1046.88L534.293 1046.88L532.595 1045.83ZM449.301 1065.05L448.483 1066.88L448.495 1066.88L449.301 1065.05ZM419.796 1050.94L420.584 1049.1L420.584 1049.1L419.796 1050.94ZM366.517 1081.95L364.526 1081.76L364.526 1081.76L366.517 1081.95ZM337.223 1146.02L338.087 1147.83L338.088 1147.83L337.223 1146.02ZM273.052 1121.05L271.575 1122.4L271.575 1122.4L273.052 1121.05ZM196.746 1034.16L195.272 1035.51L195.273 1035.51L196.746 1034.16ZM104.826 1077.34L106.768 1076.86L106.768 1076.86L104.826 1077.34ZM163.255 1283.06L161.322 1283.57L161.325 1283.58L163.255 1283.06ZM168.667 1305.05L166.681 1305.29L166.683 1305.3L166.685 1305.32L168.667 1305.05ZM167.335 1313.19L169.075 1314.17L169.103 1314.13L169.128 1314.07L167.335 1313.19ZM151.041 1327.53L152.041 1329.26L152.066 1329.25L152.09 1329.24L151.041 1327.53ZM150.388 1327.91L149.388 1326.18L149.355 1326.2L149.324 1326.22L150.388 1327.91ZM144.458 1331.22L143.573 1329.43L143.531 1329.45L143.49 1329.47L144.458 1331.22ZM139.795 1332.82L139.935 1334.81L140.02 1334.81L140.103 1334.8L139.795 1332.82ZM138.249 1331.61L140.242 1331.77L140.242 1331.77L138.249 1331.61ZM135.063 1291.96L137.005 1291.49L137.002 1291.48L136.999 1291.46L135.063 1291.96ZM79.3781 1084.03L81.3177 1083.54L81.3123 1083.52L81.3064 1083.5L79.3781 1084.03ZM75.2157 1048.76L77.2145 1048.83L77.2148 1048.82L77.215 1048.81L75.2157 1048.76ZM115.731 980.444L116.482 982.297L116.485 982.296L115.731 980.444ZM191.199 997.195L189.79 998.615L189.79 998.615L191.199 997.195ZM270.255 1086.29L271.805 1085.03L271.803 1085.03L270.255 1086.29ZM304.268 1122.22L305.418 1120.58L305.416 1120.58L304.268 1122.22ZM344.868 1098.78L342.886 1098.51L342.886 1098.51L344.868 1098.78ZM363.064 1043.19L361.608 1041.82L361.602 1041.82L363.064 1043.19ZM435.826 1041.02L434.809 1042.74L434.813 1042.74L435.826 1041.02ZM539.217 1013.03L537.437 1012.11L537.437 1012.11L539.217 1013.03ZM580.85 938.63L582.44 939.844L582.473 939.8L582.504 939.754L580.85 938.63ZM613.217 914.037C603.152 917.44 594.42 923.939 588.271 932.604L591.533 934.919C597.194 926.942 605.232 920.959 614.498 917.826L613.217 914.037ZM588.301 932.564C584.637 937.463 581.365 942.643 578.514 948.057L582.054 949.92C584.806 944.693 587.966 939.69 591.504 934.959L588.301 932.564ZM578.553 947.987C569.549 963.552 563.708 977.242 559.267 986.826L562.897 988.508C567.388 978.814 573.128 965.353 582.015 949.99L578.553 947.987ZM559.266 986.828C546.283 1014.92 543.648 1024.27 530.897 1044.77L534.293 1046.88C547.219 1026.1 550.057 1016.29 562.897 988.506L559.266 986.828ZM530.897 1044.77C519.532 1063.02 504.215 1069.69 489.339 1070.81C474.352 1071.95 459.742 1067.46 450.106 1063.22L448.495 1066.88C458.447 1071.26 473.747 1076.01 489.642 1074.8C505.648 1073.59 522.184 1066.33 534.293 1046.88L530.897 1044.77ZM450.118 1063.22C446.894 1061.78 441.924 1059.29 436.512 1056.62C431.134 1053.96 425.347 1051.15 420.584 1049.1L419.007 1052.78C423.658 1054.77 429.355 1057.55 434.741 1060.21C440.093 1062.85 445.169 1065.39 448.483 1066.88L450.118 1063.22ZM420.584 1049.1C403.794 1041.91 390.383 1042.27 380.744 1048.7C371.173 1055.09 365.931 1067.07 364.526 1081.76L368.508 1082.14C369.857 1068.04 374.808 1057.47 382.964 1052.03C391.053 1046.63 402.904 1045.88 419.008 1052.78L420.584 1049.1ZM364.526 1081.76C362.61 1101.79 359.578 1115.49 355.018 1125.14C350.507 1134.69 344.482 1140.33 336.359 1144.22L338.088 1147.83C347.028 1143.54 353.726 1137.24 358.635 1126.85C363.495 1116.56 366.578 1102.31 368.508 1082.14L364.526 1081.76ZM336.36 1144.22C329.124 1147.68 320.333 1148.76 310.061 1145.44C299.739 1142.09 287.826 1134.26 274.528 1119.7L271.575 1122.4C285.165 1137.27 297.636 1145.61 308.828 1149.24C320.069 1152.88 329.92 1151.74 338.087 1147.83L336.36 1144.22ZM274.529 1119.7C261.553 1105.5 249.008 1090.89 236.433 1076.28C223.865 1061.66 211.268 1047.03 198.22 1032.81L195.273 1035.51C208.27 1049.68 220.827 1064.27 233.401 1078.88C245.968 1093.49 258.552 1108.14 271.575 1122.4L274.529 1119.7ZM198.221 1032.81C188.488 1022.19 177.632 1010.86 165.299 1004.03C152.837 997.125 138.794 994.784 122.938 1002.22L124.637 1005.84C139.124 999.047 151.806 1001.13 163.361 1007.53C175.045 1014 185.497 1024.85 195.272 1035.51L198.221 1032.81ZM122.938 1002.22C107.037 1009.68 100.385 1022.23 98.5769 1036.1C96.788 1049.83 99.7224 1064.92 102.883 1077.81L106.768 1076.86C103.615 1064 100.859 1049.55 102.543 1036.62C104.209 1023.84 110.194 1012.62 124.637 1005.84L122.938 1002.22ZM102.883 1077.81C111.258 1112.04 121.372 1146.52 131.635 1180.91C141.903 1215.31 152.318 1249.61 161.322 1283.57L165.188 1282.55C156.164 1248.51 145.727 1214.14 135.468 1179.76C125.205 1145.38 115.117 1110.99 106.768 1076.86L102.883 1077.81ZM161.325 1283.58C163.358 1291.07 165.792 1297.94 166.681 1305.29L170.652 1304.81C169.717 1297.08 167.115 1289.65 165.186 1282.53L161.325 1283.58ZM166.685 1305.32C167.01 1307.71 166.612 1310.14 165.542 1312.3L169.128 1314.07C170.551 1311.2 171.081 1307.96 170.648 1304.78L166.685 1305.32ZM165.595 1312.2C162.127 1318.32 156.412 1321.87 149.992 1325.83L152.09 1329.24C158.359 1325.37 165.019 1321.33 169.075 1314.17L165.595 1312.2ZM150.041 1325.8L149.388 1326.18L151.388 1329.64L152.041 1329.26L150.041 1325.8ZM149.324 1326.22C147.463 1327.38 145.544 1328.46 143.573 1329.43L145.342 1333.02C147.435 1331.98 149.474 1330.84 151.451 1329.6L149.324 1326.22ZM143.49 1329.47C142.246 1330.16 140.891 1330.62 139.486 1330.84L140.103 1334.8C141.97 1334.5 143.772 1333.89 145.426 1332.97L143.49 1329.47ZM139.654 1330.82C139.572 1330.83 139.533 1330.82 139.536 1330.82C139.539 1330.83 139.56 1330.83 139.596 1330.84C139.632 1330.85 139.687 1330.88 139.754 1330.92C139.898 1331.01 140.054 1331.17 140.154 1331.38C140.25 1331.59 140.244 1331.75 140.242 1331.77L136.255 1331.45C136.163 1332.59 136.614 1333.66 137.602 1334.29C138.412 1334.81 139.32 1334.86 139.935 1334.81L139.654 1330.82ZM140.242 1331.77C141.333 1318.26 140.24 1304.65 137.005 1291.49L133.12 1292.44C136.253 1305.19 137.311 1318.36 136.255 1331.45L140.242 1331.77ZM136.999 1291.46C125.43 1246.53 118.105 1220.78 110.376 1193.16C102.65 1165.54 94.5153 1136.03 81.3177 1083.54L77.4385 1084.52C90.6467 1137.05 98.7908 1166.59 106.524 1194.23C114.254 1221.86 121.568 1247.57 133.126 1292.46L136.999 1291.46ZM81.3064 1083.5C78.1996 1072.22 76.8201 1060.53 77.2145 1048.83L73.2168 1048.7C72.8087 1060.8 74.2359 1072.89 77.4499 1084.56L81.3064 1083.5ZM77.215 1048.81C77.5855 1033.92 80.0363 1020.28 86.0477 1008.89C92.0314 997.553 101.606 988.323 116.482 982.297L114.981 978.59C99.2554 984.959 88.9469 994.828 82.5102 1007.02C76.1013 1019.16 73.5949 1033.49 73.2163 1048.71L77.215 1048.81ZM116.485 982.296C144.463 970.909 170.321 979.297 189.79 998.615L192.607 995.775C172.221 975.547 144.708 966.491 114.977 978.591L116.485 982.296ZM189.79 998.615C219.613 1028.19 241.939 1054.82 268.706 1087.56L271.803 1085.03C245.02 1052.26 222.585 1025.51 192.607 995.775L189.79 998.615ZM268.704 1087.56C272.54 1092.26 278.432 1099.43 284.695 1106.35C290.925 1113.24 297.642 1120.02 303.119 1123.86L305.416 1120.58C300.341 1117.02 293.884 1110.54 287.661 1103.67C281.472 1096.83 275.633 1089.73 271.805 1085.03L268.704 1087.56ZM303.117 1123.86C312.751 1130.63 322.722 1132.53 330.96 1128.25C339.125 1124.02 344.815 1114.11 346.85 1099.05L342.886 1098.51C340.929 1112.99 335.609 1121.34 329.118 1124.7C322.698 1128.03 314.364 1126.88 305.418 1120.58L303.117 1123.86ZM346.85 1099.05C348.168 1089.34 349.668 1078.82 352.331 1069.11C354.998 1059.39 358.779 1050.71 364.525 1044.55L361.602 1041.82C355.212 1048.67 351.212 1058.08 348.473 1068.06C345.731 1078.05 344.201 1088.83 342.886 1098.51L346.85 1099.05ZM364.52 1044.56C374.168 1034.32 385.524 1030.27 397.524 1030.53C409.601 1030.79 422.425 1035.42 434.809 1042.74L436.843 1039.29C424.109 1031.77 410.607 1026.81 397.611 1026.53C384.537 1026.25 372.072 1030.71 361.608 1041.82L364.52 1044.56ZM434.813 1042.74C465.371 1060.7 486.475 1064.78 502.882 1058.29C519.167 1051.84 530.086 1035.22 540.996 1013.94L537.437 1012.11C526.479 1033.49 516.137 1048.74 501.41 1054.57C486.806 1060.35 467.148 1057.1 436.84 1039.29L434.813 1042.74ZM540.996 1013.94C553.984 988.609 565.69 961.786 582.44 939.844L579.26 937.417C562.224 959.735 550.259 987.106 537.437 1012.11L540.996 1013.94ZM582.504 939.754C589.991 928.732 601.344 920.925 614.315 917.878L613.401 913.984C599.453 917.26 587.245 925.655 579.195 937.507L582.504 939.754Z" fill="#2C2D2D" fill-opacity="0.5" mask="url(#path-7-inside-4_103_2)"/>
<mask id="path-9-inside-5_103_2" fill="white">
<path d="M2016.86 769.931C2007.19 773.199 1998.81 779.44 1992.9 787.761C1989.3 792.577 1986.09 797.668 1983.28 802.988C1974.34 818.452 1968.55 832.028 1964.08 841.667C1951.17 869.609 1948.43 879.187 1935.59 899.826C1912.12 937.529 1871.89 927.67 1852.3 919.05C1845.76 916.122 1832.21 908.978 1822.8 904.94C1789.9 890.843 1772.27 907.167 1769.52 935.947C1765.67 976.148 1757.29 991.847 1740.22 1000.02C1724.82 1007.4 1702.94 1004.48 1676.05 975.052C1650.05 946.585 1625.79 916.557 1599.75 888.162C1580.24 866.873 1557.13 843.798 1526.79 858.032C1496.44 872.267 1501.51 905.579 1507.83 931.335C1524.55 999.697 1548.23 1069.07 1566.26 1137.06C1568.24 1144.36 1570.75 1151.51 1571.67 1159.05C1572.05 1161.83 1571.58 1164.67 1570.33 1167.19C1566.57 1173.83 1560.39 1177.62 1554.04 1181.53L1553.39 1181.91C1551.47 1183.11 1549.49 1184.22 1547.46 1185.22C1546.01 1186.02 1544.43 1186.56 1542.79 1186.82C1541.96 1186.88 1541.17 1186.6 1541.25 1185.61C1542.32 1172.31 1541.25 1158.92 1538.06 1145.96C1514.94 1056.14 1508.78 1043.05 1482.38 938.029C1479.22 926.552 1477.81 914.662 1478.22 902.764C1478.96 872.64 1488.13 846.839 1518.73 834.444C1547.59 822.7 1574.27 831.422 1594.2 851.195C1624.1 880.849 1646.48 907.54 1673.25 940.294C1680.92 949.699 1696.72 968.818 1707.27 976.221C1725.85 989.287 1743.88 982.319 1747.87 952.78C1750.5 933.387 1753.93 910.184 1766.06 897.189C1786.18 875.837 1813.71 880.183 1838.83 895.015C1899.69 930.786 1920.35 909.678 1942.22 867.025C1955.12 841.858 1966.96 814.761 1983.85 792.63C1991.62 781.194 2003.4 773.092 2016.86 769.931"/>
</mask>
<path d="M1992.9 787.761L1994.5 788.959L1994.52 788.939L1994.53 788.919L1992.9 787.761ZM1983.28 802.988L1985.02 803.99L1985.04 803.955L1985.05 803.92L1983.28 802.988ZM1964.08 841.667L1962.27 840.826L1962.27 840.828L1964.08 841.667ZM1935.59 899.826L1937.29 900.883L1937.29 900.882L1935.59 899.826ZM1852.3 919.05L1851.48 920.875L1851.5 920.881L1852.3 919.05ZM1822.8 904.94L1823.58 903.102L1823.58 903.102L1822.8 904.94ZM1769.52 935.947L1767.53 935.756L1767.53 935.756L1769.52 935.947ZM1740.22 1000.02L1741.09 1001.83L1741.09 1001.83L1740.22 1000.02ZM1676.05 975.052L1674.57 976.4L1674.58 976.401L1676.05 975.052ZM1599.75 888.162L1598.27 889.513L1598.27 889.514L1599.75 888.162ZM1507.83 931.335L1509.77 930.86L1509.77 930.859L1507.83 931.335ZM1566.26 1137.06L1564.32 1137.57L1564.33 1137.58L1566.26 1137.06ZM1571.67 1159.05L1569.68 1159.29L1569.68 1159.3L1569.68 1159.32L1571.67 1159.05ZM1570.33 1167.19L1572.08 1168.17L1572.1 1168.13L1572.13 1168.07L1570.33 1167.19ZM1554.04 1181.53L1555.04 1183.26L1555.07 1183.25L1555.09 1183.24L1554.04 1181.53ZM1553.39 1181.91L1552.39 1180.18L1552.36 1180.2L1552.32 1180.22L1553.39 1181.91ZM1547.46 1185.22L1546.57 1183.43L1546.53 1183.45L1546.49 1183.47L1547.46 1185.22ZM1542.79 1186.82L1542.94 1188.81L1543.02 1188.81L1543.1 1188.8L1542.79 1186.82ZM1541.25 1185.61L1543.24 1185.77L1543.24 1185.77L1541.25 1185.61ZM1538.06 1145.96L1540 1145.49L1540 1145.48L1540 1145.46L1538.06 1145.96ZM1482.38 938.029L1484.32 937.542L1484.31 937.52L1484.31 937.498L1482.38 938.029ZM1478.22 902.764L1480.21 902.832L1480.21 902.823L1480.22 902.814L1478.22 902.764ZM1518.73 834.444L1519.48 836.297L1519.49 836.296L1518.73 834.444ZM1594.2 851.195L1592.79 852.615L1592.79 852.615L1594.2 851.195ZM1673.25 940.294L1674.81 939.031L1674.8 939.029L1673.25 940.294ZM1707.27 976.221L1708.42 974.585L1708.42 974.583L1707.27 976.221ZM1747.87 952.78L1745.89 952.511L1745.89 952.512L1747.87 952.78ZM1766.06 897.189L1764.61 895.818L1764.6 895.824L1766.06 897.189ZM1838.83 895.015L1837.81 896.737L1837.81 896.739L1838.83 895.015ZM1942.22 867.025L1940.44 866.113L1940.44 866.113L1942.22 867.025ZM1983.85 792.63L1985.44 793.844L1985.47 793.8L1985.5 793.754L1983.85 792.63ZM2016.22 768.037C2006.15 771.44 1997.42 777.939 1991.27 786.604L1994.53 788.919C2000.19 780.942 2008.23 774.959 2017.5 771.826L2016.22 768.037ZM1991.3 786.564C1987.64 791.463 1984.36 796.643 1981.51 802.057L1985.05 803.92C1987.81 798.693 1990.97 793.69 1994.5 788.959L1991.3 786.564ZM1981.55 801.987C1972.55 817.552 1966.71 831.242 1962.27 840.826L1965.9 842.508C1970.39 832.814 1976.13 819.353 1985.02 803.99L1981.55 801.987ZM1962.27 840.828C1949.28 868.924 1946.65 878.271 1933.9 898.769L1937.29 900.882C1950.22 880.103 1953.06 870.293 1965.9 842.506L1962.27 840.828ZM1933.9 898.769C1922.53 917.023 1907.21 923.687 1892.34 924.815C1877.35 925.951 1862.74 921.46 1853.11 917.219L1851.5 920.881C1861.45 925.26 1876.75 930.008 1892.64 928.803C1908.65 927.59 1925.18 920.332 1937.29 900.883L1933.9 898.769ZM1853.12 917.225C1849.89 915.781 1844.92 913.29 1839.51 910.618C1834.13 907.964 1828.35 905.145 1823.58 903.102L1822.01 906.778C1826.66 908.773 1832.35 911.546 1837.74 914.205C1843.09 916.847 1848.17 919.391 1851.48 920.875L1853.12 917.225ZM1823.58 903.102C1806.79 895.907 1793.38 896.268 1783.74 902.701C1774.17 909.09 1768.93 921.071 1767.53 935.756L1771.51 936.137C1772.86 922.043 1777.81 911.472 1785.96 906.028C1794.05 900.629 1805.9 899.877 1822.01 906.779L1823.58 903.102ZM1767.53 935.756C1765.61 955.788 1762.58 969.486 1758.02 979.14C1753.51 988.691 1747.48 994.327 1739.36 998.219L1741.09 1001.83C1750.03 997.542 1756.73 991.241 1761.64 980.848C1766.49 970.559 1769.58 956.307 1771.51 936.137L1767.53 935.756ZM1739.36 998.219C1732.12 1001.68 1723.33 1002.76 1713.06 999.435C1702.74 996.09 1690.83 988.257 1677.53 973.703L1674.58 976.401C1688.16 991.274 1700.64 999.613 1711.83 1003.24C1723.07 1006.88 1732.92 1005.74 1741.09 1001.83L1739.36 998.219ZM1677.53 973.703C1664.55 959.495 1652.01 944.895 1639.43 930.276C1626.87 915.664 1614.27 901.035 1601.22 886.81L1598.27 889.514C1611.27 903.684 1623.83 918.266 1636.4 932.884C1648.97 947.494 1661.55 962.141 1674.57 976.4L1677.53 973.703ZM1601.22 886.811C1591.49 876.19 1580.63 864.857 1568.3 858.026C1555.84 851.125 1541.79 848.784 1525.94 856.222L1527.64 859.843C1542.12 853.047 1554.81 855.126 1566.36 861.526C1578.05 867.996 1588.5 878.846 1598.27 889.513L1601.22 886.811ZM1525.94 856.222C1510.04 863.681 1503.38 876.232 1501.58 890.105C1499.79 903.832 1502.72 918.917 1505.88 931.812L1509.77 930.859C1506.62 917.997 1503.86 903.548 1505.54 890.622C1507.21 877.841 1513.19 866.618 1527.64 859.843L1525.94 856.222ZM1505.88 931.811C1514.26 966.045 1524.37 1000.52 1534.64 1034.91C1544.9 1069.31 1555.32 1103.61 1564.32 1137.57L1568.19 1136.55C1559.16 1102.51 1548.73 1068.14 1538.47 1033.76C1528.2 999.378 1518.12 964.987 1509.77 930.86L1505.88 931.811ZM1564.33 1137.58C1566.36 1145.07 1568.79 1151.94 1569.68 1159.29L1573.65 1158.81C1572.72 1151.08 1570.12 1143.65 1568.19 1136.53L1564.33 1137.58ZM1569.68 1159.32C1570.01 1161.71 1569.61 1164.14 1568.54 1166.3L1572.13 1168.07C1573.55 1165.2 1574.08 1161.96 1573.65 1158.78L1569.68 1159.32ZM1568.59 1166.2C1565.13 1172.32 1559.41 1175.87 1552.99 1179.83L1555.09 1183.24C1561.36 1179.37 1568.02 1175.33 1572.08 1168.17L1568.59 1166.2ZM1553.04 1179.8L1552.39 1180.18L1554.39 1183.64L1555.04 1183.26L1553.04 1179.8ZM1552.32 1180.22C1550.46 1181.38 1548.54 1182.46 1546.57 1183.43L1548.34 1187.02C1550.44 1185.98 1552.47 1184.84 1554.45 1183.6L1552.32 1180.22ZM1546.49 1183.47C1545.25 1184.16 1543.89 1184.62 1542.49 1184.84L1543.1 1188.8C1544.97 1188.5 1546.77 1187.89 1548.43 1186.97L1546.49 1183.47ZM1542.65 1184.82C1542.57 1184.83 1542.53 1184.82 1542.54 1184.82C1542.54 1184.83 1542.56 1184.83 1542.6 1184.84C1542.63 1184.85 1542.69 1184.88 1542.75 1184.92C1542.9 1185.01 1543.05 1185.17 1543.15 1185.38C1543.25 1185.59 1543.24 1185.75 1543.24 1185.77L1539.26 1185.45C1539.16 1186.59 1539.61 1187.66 1540.6 1188.29C1541.41 1188.81 1542.32 1188.86 1542.94 1188.81L1542.65 1184.82ZM1543.24 1185.77C1544.33 1172.26 1543.24 1158.65 1540 1145.49L1536.12 1146.44C1539.25 1159.19 1540.31 1172.36 1539.26 1185.45L1543.24 1185.77ZM1540 1145.46C1528.43 1100.53 1521.1 1074.78 1513.38 1047.16C1505.65 1019.54 1497.52 990.03 1484.32 937.542L1480.44 938.517C1493.65 991.048 1501.79 1020.59 1509.52 1048.23C1517.25 1075.86 1524.57 1101.57 1536.13 1146.46L1540 1145.46ZM1484.31 937.498C1481.2 926.216 1479.82 914.528 1480.21 902.832L1476.22 902.697C1475.81 914.797 1477.24 926.888 1480.45 938.56L1484.31 937.498ZM1480.22 902.814C1480.59 887.917 1483.04 874.278 1489.05 862.889C1495.03 851.553 1504.61 842.323 1519.48 836.297L1517.98 832.59C1502.26 838.959 1491.95 848.828 1485.51 861.022C1479.1 873.164 1476.59 887.488 1476.22 902.715L1480.22 902.814ZM1519.49 836.296C1547.46 824.909 1573.32 833.297 1592.79 852.615L1595.61 849.775C1575.22 829.547 1547.71 820.491 1517.98 832.591L1519.49 836.296ZM1592.79 852.615C1622.61 882.192 1644.94 908.816 1671.71 941.56L1674.8 939.029C1648.02 906.264 1625.59 879.506 1595.61 849.775L1592.79 852.615ZM1671.7 941.558C1675.54 946.265 1681.43 953.429 1687.7 960.35C1693.93 967.235 1700.64 974.016 1706.12 977.858L1708.42 974.583C1703.34 971.023 1696.88 964.543 1690.66 957.667C1684.47 950.826 1678.63 943.729 1674.81 939.031L1671.7 941.558ZM1706.12 977.857C1715.75 984.632 1725.72 986.525 1733.96 982.253C1742.13 978.017 1747.82 968.105 1749.85 953.048L1745.89 952.512C1743.93 966.994 1738.61 975.335 1732.12 978.702C1725.7 982.032 1717.36 980.876 1708.42 974.585L1706.12 977.857ZM1749.85 953.049C1751.17 943.341 1752.67 932.818 1755.33 923.114C1758 913.394 1761.78 904.707 1767.53 898.554L1764.6 895.824C1758.21 902.666 1754.21 912.078 1751.47 922.056C1748.73 932.051 1747.2 942.826 1745.89 952.511L1749.85 953.049ZM1767.52 898.561C1777.17 888.317 1788.52 884.273 1800.52 884.532C1812.6 884.794 1825.42 889.424 1837.81 896.737L1839.84 893.293C1827.11 885.773 1813.61 880.815 1800.61 880.533C1787.54 880.25 1775.07 884.709 1764.61 895.818L1767.52 898.561ZM1837.81 896.739C1868.37 914.698 1889.48 918.782 1905.88 912.289C1922.17 905.843 1933.09 889.217 1944 867.938L1940.44 866.113C1929.48 887.486 1919.14 902.74 1904.41 908.569C1889.81 914.35 1870.15 911.103 1839.84 893.291L1837.81 896.739ZM1944 867.938C1956.98 842.609 1968.69 815.786 1985.44 793.844L1982.26 791.417C1965.22 813.735 1953.26 841.106 1940.44 866.113L1944 867.938ZM1985.5 793.754C1992.99 782.732 2004.34 774.925 2017.32 771.878L2016.4 767.984C2002.45 771.26 1990.25 779.655 1982.2 791.507L1985.5 793.754Z" fill="#2C2D2D" fill-opacity="0.5" mask="url(#path-9-inside-5_103_2)"/>
<mask id="path-11-inside-6_103_2" fill="white">
<path d="M1159.16 1076.19C1152.18 1068.75 1143.03 1063.7 1133.01 1061.77C1127.13 1060.48 1121.17 1059.66 1115.17 1059.32C1097.39 1057.58 1082.63 1057.92 1072.01 1057.85C1041.23 1057.66 1031.38 1059.14 1007.27 1055.99C963.235 1050.23 955.555 1009.53 955.293 988.128C955.251 980.964 956.144 965.67 955.923 955.429C955.139 919.651 932.981 910.358 905.643 919.765C867.456 932.906 849.694 931.772 835.189 919.624C822.1 908.655 815.697 887.53 831.355 850.872C846.506 815.422 863.796 780.906 878.862 745.443C890.166 718.873 901.606 688.285 876.087 666.556C850.569 644.827 822.343 663.231 801.51 679.64C746.205 723.163 692.855 773.434 638.429 817.99C632.603 822.816 627.139 828.067 620.654 832.018C618.275 833.516 615.502 834.267 612.691 834.176C605.089 833.5 599.073 829.439 592.888 825.282L592.274 824.843C590.384 823.595 588.558 822.251 586.805 820.816C585.476 819.829 584.33 818.616 583.42 817.233C583.02 816.495 582.951 815.661 583.88 815.326C596.432 810.796 608.174 804.275 618.653 796.012C690.843 737.777 700.215 726.757 784.883 659.246C794.022 651.618 804.265 645.419 815.261 640.859C842.993 629.071 870.274 626.733 894.225 649.458C916.86 670.863 919.967 698.765 910.217 725.09C895.6 764.584 880.569 796.006 861.836 833.938C856.448 844.808 845.583 867.102 843.213 879.772C839.01 902.095 852.816 915.621 881.358 907.027C900.101 901.395 922.641 894.909 939.494 900.578C967.257 910.046 974.698 936.908 971.594 965.913C964.229 1036.13 991.994 1046.19 1039.87 1048.44C1068.12 1049.77 1097.69 1049.33 1124.83 1055.54C1138.45 1057.88 1150.71 1065.25 1159.16 1076.19"/>
</mask>
<path d="M1133.01 1061.77L1132.58 1063.72L1132.61 1063.73L1132.63 1063.73L1133.01 1061.77ZM1115.17 1059.32L1114.97 1061.31L1115.01 1061.31L1115.05 1061.31L1115.17 1059.32ZM1072.01 1057.85L1072.02 1055.85L1072.02 1055.85L1072.01 1057.85ZM1007.27 1055.99L1007.01 1057.98L1007.01 1057.98L1007.27 1055.99ZM955.293 988.128L953.293 988.14L953.293 988.153L955.293 988.128ZM955.923 955.429L957.923 955.386L957.923 955.385L955.923 955.429ZM905.643 919.765L904.992 917.874L904.992 917.874L905.643 919.765ZM835.189 919.624L833.904 921.157L833.905 921.158L835.189 919.624ZM831.355 850.872L829.516 850.086L829.516 850.087L831.355 850.872ZM878.862 745.443L877.022 744.66L877.022 744.661L878.862 745.443ZM801.51 679.64L802.747 681.212L802.748 681.211L801.51 679.64ZM638.429 817.99L637.162 816.442L637.153 816.45L638.429 817.99ZM620.654 832.018L619.613 830.31L619.601 830.317L619.588 830.325L620.654 832.018ZM612.691 834.176L612.514 836.168L612.57 836.173L612.626 836.175L612.691 834.176ZM592.888 825.282L591.726 826.909L591.749 826.926L591.773 826.942L592.888 825.282ZM592.274 824.843L593.437 823.216L593.407 823.194L593.376 823.174L592.274 824.843ZM586.805 820.816L588.072 819.269L588.035 819.239L587.997 819.211L586.805 820.816ZM583.42 817.233L581.662 818.186L581.703 818.261L581.749 818.332L583.42 817.233ZM583.88 815.326L584.558 817.207L584.558 817.207L583.88 815.326ZM618.653 796.012L619.891 797.583L619.9 797.576L619.909 797.569L618.653 796.012ZM784.883 659.246L786.13 660.81L786.147 660.796L786.164 660.782L784.883 659.246ZM815.261 640.859L816.027 642.707L816.035 642.703L816.043 642.7L815.261 640.859ZM894.225 649.458L892.848 650.909L892.851 650.911L894.225 649.458ZM910.217 725.09L908.341 724.396L908.341 724.396L910.217 725.09ZM861.836 833.938L863.628 834.826L863.63 834.824L861.836 833.938ZM843.213 879.772L845.178 880.142L845.179 880.14L843.213 879.772ZM881.358 907.027L880.782 905.111L880.781 905.112L881.358 907.027ZM939.494 900.578L940.14 898.685L940.132 898.682L939.494 900.578ZM971.594 965.913L969.605 965.7L969.605 965.704L971.594 965.913ZM1039.87 1048.44L1039.97 1046.44L1039.97 1046.44L1039.87 1048.44ZM1124.83 1055.54L1124.38 1057.49L1124.44 1057.51L1124.49 1057.52L1124.83 1055.54ZM1160.61 1074.83C1153.35 1067.07 1143.82 1061.82 1133.39 1059.8L1132.63 1063.73C1142.23 1065.58 1151.01 1070.42 1157.7 1077.56L1160.61 1074.83ZM1133.44 1059.81C1127.46 1058.51 1121.39 1057.67 1115.28 1057.32L1115.05 1061.31C1120.95 1061.65 1126.81 1062.46 1132.58 1063.72L1133.44 1059.81ZM1115.36 1057.33C1097.46 1055.57 1082.59 1055.92 1072.02 1055.85L1071.99 1059.85C1082.68 1059.92 1097.31 1059.58 1114.97 1061.31L1115.36 1057.33ZM1072.02 1055.85C1041.07 1055.66 1031.47 1057.13 1007.53 1054.01L1007.01 1057.98C1031.28 1061.14 1041.39 1059.66 1072 1059.85L1072.02 1055.85ZM1007.53 1054.01C986.212 1051.22 973.804 1040.04 966.62 1026.96C959.382 1013.79 957.422 998.63 957.293 988.104L953.293 988.153C953.426 999.025 955.438 1014.92 963.114 1028.89C970.845 1042.96 984.297 1055 1007.01 1057.98L1007.53 1054.01ZM957.293 988.117C957.272 984.584 957.483 979.029 957.674 972.996C957.865 967.002 958.035 960.567 957.923 955.386L953.924 955.472C954.033 960.532 953.867 966.865 953.676 972.869C953.487 978.834 953.272 984.509 953.293 988.14L957.293 988.117ZM957.923 955.385C957.522 937.123 951.642 925.064 941.795 918.954C932.018 912.885 918.942 913.074 904.992 917.874L906.294 921.656C919.682 917.05 931.354 917.181 939.686 922.352C947.949 927.48 953.54 937.957 953.924 955.473L957.923 955.385ZM904.992 917.874C885.964 924.422 872.24 927.333 861.564 927.178C851.003 927.026 843.378 923.874 836.473 918.091L833.905 921.158C841.505 927.523 850.014 931.012 861.506 931.178C872.884 931.342 887.135 928.249 906.294 921.656L904.992 917.874ZM836.473 918.092C830.324 912.938 825.701 905.384 824.479 894.655C823.251 883.875 825.45 869.788 833.194 851.658L829.516 850.087C821.602 868.614 819.173 883.419 820.505 895.108C821.842 906.849 826.964 915.341 833.904 921.157L836.473 918.092ZM833.194 851.658C840.756 833.966 848.853 816.502 856.956 799.003C865.053 781.514 873.156 763.991 880.703 746.225L877.022 744.661C869.503 762.359 861.427 779.825 853.326 797.322C845.229 814.81 837.105 832.329 829.516 850.086L833.194 851.658ZM880.703 746.226C886.342 732.969 892.165 718.396 893.277 704.342C894.401 690.141 890.718 676.388 877.384 665.033L874.79 668.079C886.974 678.453 890.332 690.859 889.289 704.026C888.236 717.341 882.686 731.346 877.022 744.66L880.703 746.226ZM877.384 665.033C864.012 653.647 849.833 652.787 836.456 656.884C823.219 660.938 810.702 669.854 800.273 678.069L802.748 681.211C813.151 673.017 825.163 664.526 837.627 660.709C849.951 656.934 862.644 657.736 874.79 668.079L877.384 665.033ZM800.274 678.068C772.577 699.864 745.38 723.342 718.326 746.92C691.26 770.508 664.345 794.189 637.162 816.442L639.696 819.537C666.939 797.235 693.912 773.503 720.954 749.936C748.008 726.358 775.138 702.939 802.747 681.212L800.274 678.068ZM637.153 816.45C631.175 821.401 625.934 826.459 619.613 830.31L621.695 833.726C628.344 829.674 634.031 824.23 639.705 819.53L637.153 816.45ZM619.588 830.325C617.547 831.611 615.168 832.255 612.756 832.177L612.626 836.175C615.835 836.279 619.002 835.421 621.719 833.71L619.588 830.325ZM612.869 832.184C605.861 831.561 600.263 827.829 594.004 823.622L591.773 826.942C597.884 831.05 604.318 835.439 612.514 836.168L612.869 832.184ZM594.051 823.655L593.437 823.216L591.112 826.47L591.726 826.909L594.051 823.655ZM593.376 823.174C591.542 821.964 589.772 820.66 588.072 819.269L585.538 822.364C587.344 823.842 589.225 825.227 591.173 826.512L593.376 823.174ZM587.997 819.211C586.856 818.363 585.873 817.322 585.092 816.134L581.749 818.332C582.788 819.911 584.095 821.295 585.613 822.422L587.997 819.211ZM585.178 816.279C585.139 816.207 585.129 816.169 585.129 816.171C585.13 816.174 585.135 816.195 585.138 816.233C585.142 816.271 585.143 816.332 585.132 816.409C585.108 816.579 585.031 816.786 584.875 816.966C584.726 817.139 584.584 817.198 584.558 817.207L583.201 813.444C582.124 813.833 581.336 814.687 581.171 815.847C581.036 816.798 581.369 817.645 581.662 818.186L585.178 816.279ZM584.558 817.207C597.313 812.605 609.243 805.978 619.891 797.583L617.415 794.442C607.104 802.571 595.552 808.988 583.201 813.444L584.558 817.207ZM619.909 797.569C656.022 768.437 676.428 751.11 698.377 732.638C720.317 714.173 743.813 694.552 786.13 660.81L783.636 657.683C741.285 691.452 717.761 711.096 695.801 729.578C673.849 748.052 653.474 765.353 617.397 794.456L619.909 797.569ZM786.164 660.782C795.149 653.283 805.217 647.189 816.027 642.707L814.495 639.012C803.312 643.649 792.896 649.954 783.601 657.711L786.164 660.782ZM816.043 642.7C829.758 636.87 843.188 633.455 856.043 634.213C868.84 634.967 881.205 639.862 892.848 650.909L895.602 648.007C883.294 636.329 870.044 631.031 856.279 630.219C842.573 629.412 828.496 633.06 814.479 639.018L816.043 642.7ZM892.851 650.911C914.799 671.666 917.867 698.676 908.341 724.396L912.093 725.785C922.067 698.853 918.922 670.06 895.599 648.005L892.851 650.911ZM908.341 724.396C893.763 763.787 878.77 795.132 860.043 833.052L863.63 834.824C882.368 796.879 897.438 765.381 912.093 725.784L908.341 724.396ZM860.044 833.05C857.348 838.49 853.265 846.819 849.557 855.386C845.869 863.907 842.477 872.828 841.247 879.404L845.179 880.14C846.319 874.046 849.544 865.486 853.228 856.974C856.893 848.508 860.937 840.256 863.628 834.826L860.044 833.05ZM841.247 879.402C839.068 890.976 841.472 900.837 848.771 906.566C856.007 912.246 867.385 913.323 881.934 908.942L880.781 905.112C866.789 909.325 856.993 907.935 851.241 903.42C845.553 898.955 843.155 890.89 845.178 880.142L841.247 879.402ZM881.933 908.942C891.316 906.123 901.517 903.132 911.452 901.539C921.404 899.944 930.877 899.79 938.856 902.473L940.132 898.682C931.258 895.697 921.035 895.952 910.818 897.59C900.584 899.231 890.143 902.299 880.782 905.111L881.933 908.942ZM938.848 902.471C952.167 907.013 960.55 915.676 965.281 926.707C970.042 937.809 971.136 951.399 969.605 965.7L973.583 966.126C975.156 951.421 974.081 937.078 968.957 925.131C963.803 913.113 954.584 903.611 940.14 898.685L938.848 902.471ZM969.605 965.704C965.907 1000.96 970.925 1021.86 983.629 1034.1C996.237 1046.26 1015.89 1049.32 1039.78 1050.44L1039.97 1046.44C1015.97 1045.32 997.808 1042.22 986.405 1031.22C975.098 1020.32 969.916 1001.08 973.583 966.122L969.605 965.704ZM1039.78 1050.44C1068.21 1051.78 1097.47 1051.33 1124.38 1057.49L1125.28 1053.59C1097.91 1047.33 1068.04 1047.76 1039.97 1046.44L1039.78 1050.44ZM1124.49 1057.52C1137.62 1059.77 1149.43 1066.87 1157.57 1077.42L1160.74 1074.97C1151.98 1063.63 1139.29 1055.99 1125.17 1053.57L1124.49 1057.52Z" fill="#2C2D2D" fill-opacity="0.5" mask="url(#path-11-inside-6_103_2)"/>
<mask id="path-13-inside-7_103_2" fill="white">
<path d="M2289.86 343.931C2280.19 347.199 2271.81 353.44 2265.9 361.761C2262.3 366.577 2259.09 371.668 2256.28 376.988C2247.34 392.452 2241.55 406.028 2237.08 415.667C2224.17 443.609 2221.43 453.187 2208.59 473.826C2185.12 511.529 2144.89 501.67 2125.3 493.05C2118.76 490.122 2105.21 482.978 2095.8 478.94C2062.9 464.843 2045.27 481.167 2042.52 509.947C2038.67 550.148 2030.29 565.847 2013.22 574.023C1997.82 581.396 1975.94 578.48 1949.05 549.052C1923.05 520.585 1898.79 490.557 1872.75 462.162C1853.24 440.873 1830.13 417.798 1799.79 432.032C1769.44 446.267 1774.51 479.579 1780.83 505.335C1797.55 573.697 1821.23 643.071 1839.26 711.059C1841.24 718.36 1843.75 725.508 1844.67 733.047C1845.05 735.832 1844.58 738.668 1843.33 741.188C1839.57 747.829 1833.39 751.624 1827.04 755.533L1826.39 755.91C1824.47 757.115 1822.49 758.22 1820.46 759.222C1819.01 760.023 1817.43 760.564 1815.79 760.82C1814.96 760.878 1814.17 760.596 1814.25 759.612C1815.32 746.31 1814.25 732.923 1811.06 719.963C1787.94 630.142 1781.78 617.049 1755.38 512.029C1752.22 500.552 1750.81 488.662 1751.22 476.764C1751.96 446.64 1761.13 420.839 1791.73 408.444C1820.59 396.7 1847.27 405.422 1867.2 425.195C1897.1 454.849 1919.48 481.54 1946.25 514.294C1953.92 523.699 1969.72 542.818 1980.27 550.221C1998.85 563.287 2016.88 556.319 2020.87 526.78C2023.5 507.387 2026.93 484.184 2039.06 471.189C2059.18 449.837 2086.71 454.183 2111.83 469.015C2172.69 504.786 2193.35 483.678 2215.22 441.025C2228.12 415.858 2239.96 388.761 2256.85 366.63C2264.62 355.194 2276.4 347.092 2289.86 343.931"/>
</mask>
<path d="M2265.9 361.761L2267.5 362.959L2267.52 362.939L2267.53 362.919L2265.9 361.761ZM2256.28 376.988L2258.02 377.99L2258.04 377.955L2258.05 377.92L2256.28 376.988ZM2237.08 415.667L2235.27 414.826L2235.27 414.828L2237.08 415.667ZM2208.59 473.826L2210.29 474.883L2210.29 474.882L2208.59 473.826ZM2125.3 493.05L2124.48 494.875L2124.5 494.881L2125.3 493.05ZM2095.8 478.94L2096.58 477.102L2096.58 477.102L2095.8 478.94ZM2042.52 509.947L2040.53 509.756L2040.53 509.756L2042.52 509.947ZM2013.22 574.023L2014.09 575.827L2014.09 575.826L2013.22 574.023ZM1949.05 549.052L1947.57 550.4L1947.58 550.401L1949.05 549.052ZM1872.75 462.162L1871.27 463.513L1871.27 463.514L1872.75 462.162ZM1780.83 505.335L1782.77 504.86L1782.77 504.859L1780.83 505.335ZM1839.26 711.059L1837.32 711.571L1837.33 711.583L1839.26 711.059ZM1844.67 733.047L1842.68 733.287L1842.68 733.301L1842.68 733.316L1844.67 733.047ZM1843.33 741.188L1845.08 742.174L1845.1 742.125L1845.13 742.075L1843.33 741.188ZM1827.04 755.533L1828.04 757.265L1828.07 757.251L1828.09 757.236L1827.04 755.533ZM1826.39 755.91L1825.39 754.178L1825.36 754.197L1825.32 754.216L1826.39 755.91ZM1820.46 759.222L1819.57 757.428L1819.53 757.449L1819.49 757.472L1820.46 759.222ZM1815.79 760.82L1815.94 762.815L1816.02 762.809L1816.1 762.796L1815.79 760.82ZM1814.25 759.612L1816.24 759.773L1816.24 759.773L1814.25 759.612ZM1811.06 719.963L1813 719.486L1813 719.475L1813 719.464L1811.06 719.963ZM1755.38 512.029L1757.32 511.542L1757.31 511.52L1757.31 511.498L1755.38 512.029ZM1751.22 476.764L1753.21 476.832L1753.21 476.823L1753.22 476.814L1751.22 476.764ZM1791.73 408.444L1792.48 410.297L1792.49 410.296L1791.73 408.444ZM1867.2 425.195L1865.79 426.615L1865.79 426.615L1867.2 425.195ZM1946.25 514.294L1947.81 513.031L1947.8 513.029L1946.25 514.294ZM1980.27 550.221L1981.42 548.585L1981.42 548.583L1980.27 550.221ZM2020.87 526.78L2018.89 526.511L2018.89 526.512L2020.87 526.78ZM2039.06 471.189L2037.61 469.818L2037.6 469.824L2039.06 471.189ZM2111.83 469.015L2110.81 470.737L2110.81 470.739L2111.83 469.015ZM2215.22 441.025L2213.44 440.113L2213.44 440.113L2215.22 441.025ZM2256.85 366.63L2258.44 367.844L2258.47 367.8L2258.5 367.754L2256.85 366.63ZM2289.22 342.037C2279.15 345.44 2270.42 351.939 2264.27 360.604L2267.53 362.919C2273.19 354.942 2281.23 348.959 2290.5 345.826L2289.22 342.037ZM2264.3 360.564C2260.64 365.463 2257.36 370.643 2254.51 376.057L2258.05 377.92C2260.81 372.693 2263.97 367.69 2267.5 362.959L2264.3 360.564ZM2254.55 375.987C2245.55 391.552 2239.71 405.242 2235.27 414.826L2238.9 416.508C2243.39 406.814 2249.13 393.353 2258.02 377.99L2254.55 375.987ZM2235.27 414.828C2222.28 442.924 2219.65 452.271 2206.9 472.769L2210.29 474.882C2223.22 454.103 2226.06 444.293 2238.9 416.506L2235.27 414.828ZM2206.9 472.769C2195.53 491.023 2180.21 497.687 2165.34 498.815C2150.35 499.951 2135.74 495.46 2126.11 491.219L2124.5 494.881C2134.45 499.26 2149.75 504.008 2165.64 502.803C2181.65 501.59 2198.18 494.332 2210.29 474.883L2206.9 472.769ZM2126.12 491.225C2122.89 489.781 2117.92 487.29 2112.51 484.618C2107.13 481.964 2101.35 479.145 2096.58 477.102L2095.01 480.778C2099.66 482.773 2105.35 485.546 2110.74 488.205C2116.09 490.847 2121.17 493.391 2124.48 494.875L2126.12 491.225ZM2096.58 477.102C2079.79 469.907 2066.38 470.268 2056.74 476.701C2047.17 483.09 2041.93 495.071 2040.53 509.756L2044.51 510.137C2045.86 496.043 2050.81 485.472 2058.96 480.028C2067.05 474.629 2078.9 473.877 2095.01 480.779L2096.58 477.102ZM2040.53 509.756C2038.61 529.788 2035.58 543.486 2031.02 553.14C2026.51 562.691 2020.48 568.327 2012.36 572.219L2014.09 575.826C2023.03 571.542 2029.73 565.241 2034.64 554.848C2039.49 544.559 2042.58 530.307 2044.51 510.137L2040.53 509.756ZM2012.36 572.219C2005.12 575.683 1996.33 576.764 1986.06 573.435C1975.74 570.09 1963.83 562.257 1950.53 547.703L1947.58 550.401C1961.16 565.274 1973.64 573.613 1984.83 577.24C1996.07 580.883 2005.92 579.736 2014.09 575.827L2012.36 572.219ZM1950.53 547.703C1937.55 533.495 1925.01 518.895 1912.43 504.276C1899.87 489.664 1887.27 475.035 1874.22 460.81L1871.27 463.514C1884.27 477.684 1896.83 492.266 1909.4 506.884C1921.97 521.494 1934.55 536.141 1947.57 550.4L1950.53 547.703ZM1874.22 460.811C1864.49 450.19 1853.63 438.857 1841.3 432.026C1828.84 425.125 1814.79 422.784 1798.94 430.222L1800.64 433.843C1815.12 427.047 1827.81 429.126 1839.36 435.526C1851.05 441.996 1861.5 452.846 1871.27 463.513L1874.22 460.811ZM1798.94 430.222C1783.04 437.681 1776.38 450.232 1774.58 464.105C1772.79 477.832 1775.72 492.917 1778.88 505.812L1782.77 504.859C1779.62 491.997 1776.86 477.548 1778.54 464.622C1780.21 451.841 1786.19 440.618 1800.64 433.843L1798.94 430.222ZM1778.88 505.811C1787.26 540.045 1797.37 574.522 1807.64 608.909C1817.9 643.311 1828.32 677.615 1837.32 711.571L1841.19 710.546C1832.16 676.515 1821.73 642.137 1811.47 607.765C1801.2 573.378 1791.12 538.987 1782.77 504.86L1778.88 505.811ZM1837.33 711.583C1839.36 719.074 1841.79 725.94 1842.68 733.287L1846.65 732.806C1845.72 725.076 1843.12 717.646 1841.19 710.535L1837.33 711.583ZM1842.68 733.316C1843.01 735.706 1842.61 738.139 1841.54 740.301L1845.13 742.075C1846.55 739.197 1847.08 735.959 1846.65 732.777L1842.68 733.316ZM1841.59 740.202C1838.13 746.324 1832.41 749.875 1825.99 753.83L1828.09 757.236C1834.36 753.373 1841.02 749.334 1845.08 742.174L1841.59 740.202ZM1826.04 753.801L1825.39 754.178L1827.39 757.642L1828.04 757.265L1826.04 753.801ZM1825.32 754.216C1823.46 755.385 1821.54 756.457 1819.57 757.428L1821.34 761.016C1823.44 759.984 1825.47 758.845 1827.45 757.604L1825.32 754.216ZM1819.49 757.472C1818.25 758.16 1816.89 758.624 1815.49 758.843L1816.1 762.796C1817.97 762.504 1819.77 761.887 1821.43 760.972L1819.49 757.472ZM1815.65 758.824C1815.57 758.83 1815.53 758.824 1815.54 758.824C1815.54 758.825 1815.56 758.829 1815.6 758.842C1815.63 758.855 1815.69 758.879 1815.75 758.921C1815.9 759.013 1816.05 759.169 1816.15 759.385C1816.25 759.592 1816.24 759.746 1816.24 759.773L1812.26 759.451C1812.16 760.592 1812.61 761.663 1813.6 762.293C1814.41 762.81 1815.32 762.858 1815.94 762.815L1815.65 758.824ZM1816.24 759.773C1817.33 746.257 1816.24 732.654 1813 719.486L1809.12 720.44C1812.25 733.191 1813.31 746.364 1812.26 759.451L1816.24 759.773ZM1813 719.464C1801.43 674.531 1794.1 648.784 1786.38 621.157C1778.65 593.541 1770.52 564.03 1757.32 511.542L1753.44 512.517C1766.65 565.048 1774.79 594.594 1782.52 622.234C1790.25 649.864 1797.57 675.574 1809.13 720.462L1813 719.464ZM1757.31 511.498C1754.2 500.216 1752.82 488.528 1753.21 476.832L1749.22 476.697C1748.81 488.797 1750.24 500.888 1753.45 512.56L1757.31 511.498ZM1753.22 476.814C1753.59 461.917 1756.04 448.278 1762.05 436.889C1768.03 425.553 1777.61 416.323 1792.48 410.297L1790.98 406.59C1775.26 412.959 1764.95 422.828 1758.51 435.022C1752.1 447.164 1749.59 461.488 1749.22 476.715L1753.22 476.814ZM1792.49 410.296C1820.46 398.909 1846.32 407.297 1865.79 426.615L1868.61 423.775C1848.22 403.547 1820.71 394.491 1790.98 406.591L1792.49 410.296ZM1865.79 426.615C1895.61 456.192 1917.94 482.816 1944.71 515.56L1947.8 513.029C1921.02 480.264 1898.59 453.506 1868.61 423.775L1865.79 426.615ZM1944.7 515.558C1948.54 520.265 1954.43 527.429 1960.7 534.35C1966.93 541.235 1973.64 548.016 1979.12 551.858L1981.42 548.583C1976.34 545.023 1969.88 538.543 1963.66 531.667C1957.47 524.826 1951.63 517.729 1947.81 513.031L1944.7 515.558ZM1979.12 551.857C1988.75 558.632 1998.72 560.525 2006.96 556.253C2015.13 552.017 2020.82 542.105 2022.85 527.048L2018.89 526.512C2016.93 540.994 2011.61 549.335 2005.12 552.702C1998.7 556.032 1990.36 554.876 1981.42 548.585L1979.12 551.857ZM2022.85 527.049C2024.17 517.341 2025.67 506.818 2028.33 497.114C2031 487.394 2034.78 478.707 2040.53 472.554L2037.6 469.824C2031.21 476.666 2027.21 486.078 2024.47 496.056C2021.73 506.051 2020.2 516.826 2018.89 526.511L2022.85 527.049ZM2040.52 472.561C2050.17 462.317 2061.52 458.273 2073.52 458.532C2085.6 458.794 2098.42 463.424 2110.81 470.737L2112.84 467.293C2100.11 459.773 2086.61 454.815 2073.61 454.533C2060.54 454.25 2048.07 458.709 2037.61 469.818L2040.52 472.561ZM2110.81 470.739C2141.37 488.698 2162.48 492.782 2178.88 486.289C2195.17 479.843 2206.09 463.217 2217 441.938L2213.44 440.113C2202.48 461.486 2192.14 476.74 2177.41 482.569C2162.81 488.35 2143.15 485.103 2112.84 467.291L2110.81 470.739ZM2217 441.938C2229.98 416.609 2241.69 389.786 2258.44 367.844L2255.26 365.417C2238.22 387.735 2226.26 415.106 2213.44 440.113L2217 441.938ZM2258.5 367.754C2265.99 356.732 2277.34 348.925 2290.32 345.878L2289.4 341.984C2275.45 345.26 2263.25 353.655 2255.2 365.507L2258.5 367.754Z" fill="#2C2D2D" fill-opacity="0.5" mask="url(#path-13-inside-7_103_2)"/>
<mask id="path-15-inside-8_103_2" fill="white">
<path d="M2101.86 -33.0685C2092.19 -29.8006 2083.81 -23.5597 2077.9 -15.2386C2074.3 -10.4232 2071.09 -5.33179 2068.28 -0.011581C2059.34 15.4524 2053.55 29.028 2049.08 38.6667C2036.17 66.6087 2033.43 76.1869 2020.59 96.8256C1997.12 134.529 1956.89 124.67 1937.3 116.05C1930.76 113.123 1917.21 105.978 1907.8 101.94C1874.9 87.8435 1857.27 104.167 1854.52 132.947C1850.67 173.148 1842.29 188.847 1825.22 197.023C1809.82 204.396 1787.94 201.48 1761.05 172.052C1735.05 143.585 1710.79 113.557 1684.75 85.1623C1665.24 63.8733 1642.13 40.7979 1611.79 55.0325C1581.44 69.267 1586.51 102.579 1592.83 128.335C1609.55 196.697 1633.23 266.071 1651.26 334.059C1653.24 341.36 1655.75 348.508 1656.67 356.047C1657.05 358.833 1656.58 361.668 1655.33 364.188C1651.57 370.829 1645.39 374.624 1639.04 378.533L1638.39 378.91C1636.47 380.115 1634.49 381.22 1632.46 382.222C1631.01 383.023 1629.43 383.564 1627.79 383.82C1626.96 383.879 1626.17 383.596 1626.25 382.612C1627.32 369.31 1626.25 355.923 1623.06 342.963C1599.94 253.142 1593.78 240.049 1567.38 135.029C1564.22 123.552 1562.81 111.662 1563.22 99.7645C1563.96 69.64 1573.13 43.8387 1603.73 31.4437C1632.59 19.6997 1659.27 28.4221 1679.2 48.195C1709.1 77.8494 1731.48 104.54 1758.25 137.294C1765.92 146.699 1781.72 165.818 1792.27 173.221C1810.85 186.287 1828.88 179.319 1832.87 149.78C1835.5 130.387 1838.93 107.184 1851.06 94.1894C1871.18 72.8367 1898.71 77.1827 1923.83 92.0151C1984.69 127.786 2005.35 106.678 2027.22 64.0254C2040.12 38.8578 2051.96 11.7606 2068.85 -10.3697C2076.62 -21.8063 2088.4 -29.9076 2101.86 -33.0685"/>
</mask>
<path d="M2077.9 -15.2386L2079.5 -14.0409L2079.52 -14.0608L2079.53 -14.0811L2077.9 -15.2386ZM2068.28 -0.011593L2070.02 0.989857L2070.04 0.955436L2070.05 0.920283L2068.28 -0.011593ZM2049.08 38.6667L2047.27 37.8258L2047.27 37.8278L2049.08 38.6667ZM2020.59 96.8256L2022.29 97.8826L2022.29 97.882L2020.59 96.8256ZM1937.3 116.05L1936.48 117.875L1936.5 117.881L1937.3 116.05ZM1907.8 101.94L1908.58 100.102L1908.58 100.102L1907.8 101.94ZM1854.52 132.947L1852.53 132.756L1852.53 132.756L1854.52 132.947ZM1825.22 197.023L1826.09 198.827L1826.09 198.826L1825.22 197.023ZM1761.05 172.052L1759.57 173.4L1759.58 173.401L1761.05 172.052ZM1684.75 85.1623L1683.27 86.5135L1683.27 86.5143L1684.75 85.1623ZM1592.83 128.335L1594.77 127.86L1594.77 127.859L1592.83 128.335ZM1651.26 334.059L1649.32 334.571L1649.33 334.583L1651.26 334.059ZM1656.67 356.047L1654.68 356.287L1654.68 356.301L1654.68 356.316L1656.67 356.047ZM1655.33 364.188L1657.08 365.174L1657.1 365.125L1657.13 365.075L1655.33 364.188ZM1639.04 378.533L1640.04 380.265L1640.07 380.251L1640.09 380.236L1639.04 378.533ZM1638.39 378.91L1637.39 377.178L1637.36 377.197L1637.32 377.216L1638.39 378.91ZM1632.46 382.222L1631.57 380.428L1631.53 380.449L1631.49 380.472L1632.46 382.222ZM1627.79 383.82L1627.94 385.815L1628.02 385.809L1628.1 385.796L1627.79 383.82ZM1626.25 382.612L1628.24 382.773L1628.24 382.773L1626.25 382.612ZM1623.06 342.963L1625 342.486L1625 342.475L1625 342.464L1623.06 342.963ZM1567.38 135.029L1569.32 134.542L1569.31 134.52L1569.31 134.498L1567.38 135.029ZM1563.22 99.7645L1565.21 99.8319L1565.21 99.8231L1565.22 99.8142L1563.22 99.7645ZM1603.73 31.4437L1604.48 33.2974L1604.49 33.2962L1603.73 31.4437ZM1679.2 48.195L1677.79 49.6147L1677.79 49.615L1679.2 48.195ZM1758.25 137.294L1759.81 136.031L1759.8 136.029L1758.25 137.294ZM1792.27 173.221L1793.42 171.585L1793.42 171.583L1792.27 173.221ZM1832.87 149.78L1830.89 149.511L1830.89 149.512L1832.87 149.78ZM1851.06 94.1894L1849.61 92.8181L1849.6 92.8243L1851.06 94.1894ZM1923.83 92.0151L1922.81 93.7372L1922.81 93.7394L1923.83 92.0151ZM2027.22 64.0254L2025.44 63.1129L2025.44 63.113L2027.22 64.0254ZM2068.85 -10.3697L2070.44 -9.15616L2070.47 -9.20015L2070.5 -9.24592L2068.85 -10.3697ZM2101.22 -34.9632C2091.15 -31.5601 2082.42 -25.0612 2076.27 -16.396L2079.53 -14.0811C2085.19 -22.0582 2093.23 -28.041 2102.5 -31.1739L2101.22 -34.9632ZM2076.3 -16.4363C2072.64 -11.5368 2069.36 -6.3565 2066.51 -0.943439L2070.05 0.920283C2072.81 -4.30705 2075.97 -9.30958 2079.5 -14.0409L2076.3 -16.4363ZM2066.55 -1.013C2057.55 14.5517 2051.71 28.2416 2047.27 37.8258L2050.9 39.5076C2055.39 29.8144 2061.13 16.3531 2070.02 0.989857L2066.55 -1.013ZM2047.27 37.8278C2034.28 65.9241 2031.65 75.2706 2018.9 95.7692L2022.29 97.882C2035.22 77.1032 2038.06 67.2932 2050.9 39.5057L2047.27 37.8278ZM2018.9 95.7685C2007.53 114.023 1992.21 120.687 1977.34 121.815C1962.35 122.951 1947.74 118.46 1938.11 114.219L1936.5 117.881C1946.45 122.26 1961.75 127.008 1977.64 125.803C1993.65 124.59 2010.18 117.332 2022.29 97.8826L2018.9 95.7685ZM1938.12 114.225C1934.89 112.781 1929.92 110.29 1924.51 107.618C1919.13 104.964 1913.35 102.145 1908.58 100.102L1907.01 103.778C1911.66 105.773 1917.35 108.546 1922.74 111.205C1928.09 113.847 1933.17 116.391 1936.48 117.875L1938.12 114.225ZM1908.58 100.102C1891.79 92.9067 1878.38 93.2678 1868.74 99.7013C1859.17 106.09 1853.93 118.071 1852.53 132.756L1856.51 133.137C1857.86 119.043 1862.81 108.472 1870.96 103.028C1879.05 97.6294 1890.9 96.8773 1907.01 103.779L1908.58 100.102ZM1852.53 132.756C1850.61 152.788 1847.58 166.486 1843.02 176.14C1838.51 185.691 1832.48 191.327 1824.36 195.219L1826.09 198.826C1835.03 194.543 1841.73 188.241 1846.64 177.848C1851.49 167.559 1854.58 153.307 1856.51 133.137L1852.53 132.756ZM1824.36 195.219C1817.12 198.683 1808.33 199.764 1798.06 196.435C1787.74 193.09 1775.83 185.257 1762.53 170.703L1759.58 173.401C1773.16 188.274 1785.64 196.613 1796.83 200.24C1808.07 203.883 1817.92 202.736 1826.09 198.827L1824.36 195.219ZM1762.53 170.703C1749.55 156.495 1737.01 141.895 1724.43 127.276C1711.87 112.664 1699.27 98.035 1686.22 83.8104L1683.27 86.5143C1696.27 100.685 1708.83 115.266 1721.4 129.884C1733.97 144.494 1746.55 159.141 1759.57 173.4L1762.53 170.703ZM1686.22 83.8112C1676.49 73.1896 1665.63 61.8569 1653.3 55.0265C1640.84 48.1247 1626.79 45.7836 1610.94 53.2218L1612.64 56.8431C1627.12 50.0468 1639.81 52.1261 1651.36 58.5257C1663.05 64.9965 1673.5 75.8461 1683.27 86.5135L1686.22 83.8112ZM1610.94 53.2218C1595.04 60.681 1588.38 73.2318 1586.58 87.1048C1584.79 100.832 1587.72 115.917 1590.88 128.812L1594.77 127.859C1591.62 114.997 1588.86 100.548 1590.54 87.6217C1592.21 74.841 1598.19 63.6185 1612.64 56.8431L1610.94 53.2218ZM1590.88 128.811C1599.26 163.045 1609.37 197.522 1619.64 231.909C1629.9 266.311 1640.32 300.615 1649.32 334.571L1653.19 333.546C1644.16 299.515 1633.73 265.137 1623.47 230.765C1613.2 196.378 1603.12 161.987 1594.77 127.86L1590.88 128.811ZM1649.33 334.583C1651.36 342.074 1653.79 348.94 1654.68 356.287L1658.65 355.806C1657.72 348.076 1655.12 340.646 1653.19 333.535L1649.33 334.583ZM1654.68 356.316C1655.01 358.706 1654.61 361.139 1653.54 363.301L1657.13 365.075C1658.55 362.197 1659.08 358.959 1658.65 355.777L1654.68 356.316ZM1653.59 363.202C1650.13 369.324 1644.41 372.875 1637.99 376.83L1640.09 380.236C1646.36 376.373 1653.02 372.334 1657.08 365.174L1653.59 363.202ZM1638.04 376.801L1637.39 377.178L1639.39 380.642L1640.04 380.265L1638.04 376.801ZM1637.32 377.216C1635.46 378.385 1633.54 379.457 1631.57 380.428L1633.34 384.016C1635.44 382.984 1637.47 381.845 1639.45 380.604L1637.32 377.216ZM1631.49 380.472C1630.25 381.16 1628.89 381.624 1627.49 381.844L1628.1 385.796C1629.97 385.504 1631.77 384.887 1633.43 383.972L1631.49 380.472ZM1627.65 381.825C1627.57 381.83 1627.53 381.824 1627.54 381.825C1627.54 381.825 1627.56 381.829 1627.6 381.842C1627.63 381.855 1627.69 381.879 1627.75 381.921C1627.9 382.013 1628.05 382.169 1628.15 382.385C1628.25 382.592 1628.24 382.746 1628.24 382.773L1624.26 382.451C1624.16 383.592 1624.61 384.663 1625.6 385.293C1626.41 385.81 1627.32 385.858 1627.94 385.815L1627.65 381.825ZM1628.24 382.773C1629.33 369.257 1628.24 355.654 1625 342.486L1621.12 343.44C1624.25 356.191 1625.31 369.364 1624.26 382.451L1628.24 382.773ZM1625 342.464C1613.43 297.531 1606.1 271.784 1598.38 244.157C1590.65 216.541 1582.52 187.03 1569.32 134.542L1565.44 135.517C1578.65 188.048 1586.79 217.594 1594.52 245.234C1602.25 272.864 1609.57 298.574 1621.13 343.462L1625 342.464ZM1569.31 134.498C1566.2 123.216 1564.82 111.528 1565.21 99.8319L1561.22 99.6971C1560.81 111.797 1562.24 123.888 1565.45 135.56L1569.31 134.498ZM1565.22 99.8142C1565.59 84.9168 1568.04 71.2779 1574.05 59.8891C1580.03 48.5529 1589.61 39.3229 1604.48 33.2974L1602.98 29.59C1587.26 35.9595 1576.95 45.8276 1570.51 58.0219C1564.1 70.1637 1561.59 84.4877 1561.22 99.7148L1565.22 99.8142ZM1604.49 33.2962C1632.46 21.9089 1658.32 30.2972 1677.79 49.6147L1680.61 46.7753C1660.22 26.5471 1632.71 17.4906 1602.98 29.5913L1604.49 33.2962ZM1677.79 49.615C1707.61 79.1925 1729.94 105.816 1756.71 138.56L1759.8 136.029C1733.02 103.264 1710.59 76.5063 1680.61 46.7749L1677.79 49.615ZM1756.7 138.558C1760.54 143.265 1766.43 150.429 1772.7 157.35C1778.93 164.235 1785.64 171.016 1791.12 174.858L1793.42 171.583C1788.34 168.023 1781.88 161.543 1775.66 154.667C1769.47 147.826 1763.63 140.729 1759.81 136.031L1756.7 138.558ZM1791.12 174.857C1800.75 181.632 1810.72 183.525 1818.96 179.253C1827.13 175.017 1832.82 165.105 1834.85 150.048L1830.89 149.512C1828.93 163.994 1823.61 172.335 1817.12 175.702C1810.7 179.032 1802.36 177.876 1793.42 171.585L1791.12 174.857ZM1834.85 150.049C1836.17 140.341 1837.67 129.818 1840.33 120.114C1843 110.394 1846.78 101.707 1852.53 95.5545L1849.6 92.8243C1843.21 99.6662 1839.21 109.078 1836.47 119.056C1833.73 129.051 1832.2 139.826 1830.89 149.511L1834.85 150.049ZM1852.52 95.5607C1862.17 85.3175 1873.52 81.2725 1885.52 81.5324C1897.6 81.7939 1910.42 86.4244 1922.81 93.7372L1924.84 90.2929C1912.11 82.7734 1898.61 77.8148 1885.61 77.5333C1872.54 77.2502 1860.07 81.7086 1849.61 92.8181L1852.52 95.5607ZM1922.81 93.7394C1953.37 111.698 1974.48 115.783 1990.88 109.289C2007.17 102.843 2018.09 86.2175 2029 64.9379L2025.44 63.113C2014.48 84.4857 2004.14 99.7403 1989.41 105.569C1974.81 111.35 1955.15 108.103 1924.84 90.2908L1922.81 93.7394ZM2029 64.938C2041.98 39.6093 2053.69 12.7863 2070.44 -9.15616L2067.26 -11.5832C2050.22 10.735 2038.26 38.1063 2025.44 63.1129L2029 64.938ZM2070.5 -9.24592C2077.99 -20.2677 2089.34 -28.0752 2102.32 -31.1215L2101.4 -35.0156C2087.45 -31.74 2075.25 -23.3448 2067.2 -11.4934L2070.5 -9.24592Z" fill="#2C2D2D" fill-opacity="0.5" mask="url(#path-15-inside-8_103_2)"/>
</svg>
