<svg width="100%" height="100%" viewBox="0 0 1163 101" fill="none" xmlns="http://www.w3.org/2000/svg">
<path d="M563.111 91.542V91.789H566.894V91.542H563.111Z" fill="#F7F7F3"/>
<path d="M75.4183 29.29C77.6183 29.29 78.1903 30.302 77.7503 32.37C77.3323 34.196 77.1783 35.34 77.2443 36H79.2683C79.2023 35.362 79.4663 34.086 79.8403 32.326C80.3903 29.73 79.1803 28.85 78.3443 28.542C80.3243 28.08 81.6663 26.738 81.6663 24.494C81.6663 22.206 80.1263 20.732 77.2663 20.732H72.0083L68.7743 36H70.9083L72.3163 29.29H75.4183ZM73.7463 22.492H76.8263C78.5643 22.492 79.4663 23.218 79.4663 24.714C79.4663 26.716 77.9703 27.508 75.6163 27.508H72.6903L73.7463 22.492ZM92.2068 30.764C92.4048 30.038 92.4928 29.378 92.4928 28.652C92.4928 26.562 91.4588 24.582 88.4008 24.582C84.2208 24.582 82.5048 28.63 82.5048 31.754C82.5048 34.372 83.8468 36.22 86.6848 36.22C89.6768 36.22 91.0628 34.526 91.7668 32.81H89.6548C89.1708 33.712 88.4668 34.57 86.9048 34.57C85.3868 34.57 84.5728 33.514 84.5728 31.754C84.5728 31.402 84.6168 31.16 84.6608 30.764H92.2068ZM84.9908 29.268C85.5188 27.332 86.6848 26.21 88.3128 26.21C89.8748 26.21 90.5348 27.09 90.5348 28.52C90.5348 28.74 90.5128 29.004 90.4688 29.268H84.9908ZM103.701 28.476C104.295 25.748 102.557 24.582 99.9615 24.582C96.7495 24.582 95.5175 26.188 95.1215 27.86H97.2115C97.5195 27.068 97.9815 26.122 99.7855 26.122C101.809 26.122 101.875 27.42 101.677 28.432L101.545 29.158C100.951 29.18 99.9835 29.18 98.8615 29.268C96.5735 29.51 93.6255 30.214 93.6255 33.404C93.6255 34.724 94.4835 36.22 96.7275 36.22C98.9715 36.22 99.8735 35.23 100.445 34.372C100.335 34.944 100.203 35.626 100.181 36H102.183C102.227 35.582 102.491 34.218 102.689 33.25L103.701 28.476ZM101.193 30.808C100.753 32.722 99.8735 34.57 97.4975 34.57C96.3315 34.57 95.7815 33.888 95.7815 33.074C95.7815 31.446 97.2335 30.94 99.0155 30.742C99.8955 30.654 100.599 30.632 101.237 30.632L101.193 30.808ZM107.38 36L110.79 19.874H108.744L105.334 36H107.38ZM127.284 19.874L125.942 26.232C125.7 25.528 124.71 24.582 122.862 24.582C118.968 24.582 116.988 28.542 116.988 31.864C116.988 34.438 118.22 36.22 120.618 36.22C122.422 36.22 123.522 35.472 124.248 34.328C124.116 35.01 124.006 35.67 123.984 36H125.964C126.14 35.01 126.36 33.954 126.58 32.898L129.33 19.874H127.284ZM122.95 26.364C125.018 26.364 125.678 27.772 125.216 30.038C124.754 32.48 123.588 34.46 121.366 34.46C119.936 34.46 119.122 33.536 119.122 31.644C119.122 29.29 120.442 26.364 122.95 26.364ZM129.161 36H131.207L132.307 30.83C132.835 28.344 134.397 26.826 136.531 26.694L136.971 24.582C135.211 24.582 133.869 25.572 133.077 27.112C133.275 26.166 133.451 25.088 133.473 24.802H131.493C131.317 25.836 131.075 27.024 130.855 28.124L129.161 36ZM146.82 30.764C147.018 30.038 147.106 29.378 147.106 28.652C147.106 26.562 146.072 24.582 143.014 24.582C138.834 24.582 137.118 28.63 137.118 31.754C137.118 34.372 138.46 36.22 141.298 36.22C144.29 36.22 145.676 34.526 146.38 32.81H144.268C143.784 33.712 143.08 34.57 141.518 34.57C140 34.57 139.186 33.514 139.186 31.754C139.186 31.402 139.23 31.16 139.274 30.764H146.82ZM139.604 29.268C140.132 27.332 141.298 26.21 142.926 26.21C144.488 26.21 145.148 27.09 145.148 28.52C145.148 28.74 145.126 29.004 145.082 29.268H139.604ZM158.315 28.476C158.909 25.748 157.171 24.582 154.575 24.582C151.363 24.582 150.131 26.188 149.735 27.86H151.825C152.133 27.068 152.595 26.122 154.399 26.122C156.423 26.122 156.489 27.42 156.291 28.432L156.159 29.158C155.565 29.18 154.597 29.18 153.475 29.268C151.187 29.51 148.239 30.214 148.239 33.404C148.239 34.724 149.097 36.22 151.341 36.22C153.585 36.22 154.487 35.23 155.059 34.372C154.949 34.944 154.817 35.626 154.795 36H156.797C156.841 35.582 157.105 34.218 157.303 33.25L158.315 28.476ZM155.807 30.808C155.367 32.722 154.487 34.57 152.111 34.57C150.945 34.57 150.395 33.888 150.395 33.074C150.395 31.446 151.847 30.94 153.629 30.742C154.509 30.654 155.213 30.632 155.851 30.632L155.807 30.808ZM159.948 36H161.972L163.27 29.84C163.688 27.882 164.7 26.364 166.416 26.364C167.978 26.364 168.154 27.53 167.824 29.136L166.35 36H168.374L169.716 29.642C170.112 27.794 171.058 26.364 172.73 26.364C174.468 26.364 174.512 27.728 174.226 28.982L172.752 36H174.754L176.294 28.74C176.954 25.682 175.48 24.582 173.61 24.582C171.784 24.582 170.684 25.506 169.892 26.584C169.716 25.286 168.88 24.582 167.318 24.582C165.624 24.582 164.722 25.44 163.996 26.474C164.128 25.924 164.26 25.11 164.282 24.802H162.28C162.104 25.88 161.884 26.892 161.664 27.948L159.948 36ZM177.644 32.634C177.622 34.768 179.052 36.22 181.934 36.22C184.596 36.22 186.51 34.966 186.51 32.656C186.51 31.094 185.542 30.148 183.144 29.312C181.604 28.762 180.966 28.41 180.966 27.662C180.966 26.694 181.802 26.188 182.88 26.188C184.596 26.188 184.948 27.09 185.014 27.86H187.082C187.148 26.21 185.982 24.582 183.034 24.582C180.284 24.582 178.898 26.1 178.898 27.904C178.898 29.202 179.668 30.082 182.11 30.918C183.672 31.468 184.376 31.93 184.376 32.898C184.376 33.91 183.65 34.614 182.22 34.614C180.548 34.614 179.844 33.756 179.734 32.634H177.644ZM203.776 28.476C204.37 25.748 202.632 24.582 200.036 24.582C196.824 24.582 195.592 26.188 195.196 27.86H197.286C197.594 27.068 198.056 26.122 199.86 26.122C201.884 26.122 201.95 27.42 201.752 28.432L201.62 29.158C201.026 29.18 200.058 29.18 198.936 29.268C196.648 29.51 193.7 30.214 193.7 33.404C193.7 34.724 194.558 36.22 196.802 36.22C199.046 36.22 199.948 35.23 200.52 34.372C200.41 34.944 200.278 35.626 200.256 36H202.258C202.302 35.582 202.566 34.218 202.764 33.25L203.776 28.476ZM201.268 30.808C200.828 32.722 199.948 34.57 197.572 34.57C196.406 34.57 195.856 33.888 195.856 33.074C195.856 31.446 197.308 30.94 199.09 30.742C199.97 30.654 200.674 30.632 201.312 30.632L201.268 30.808ZM205.409 36H207.455L208.555 30.83C209.083 28.344 210.645 26.826 212.779 26.694L213.219 24.582C211.459 24.582 210.117 25.572 209.325 27.112C209.523 26.166 209.699 25.088 209.721 24.802H207.741C207.565 25.836 207.323 27.024 207.103 28.124L205.409 36ZM223.068 30.764C223.266 30.038 223.354 29.378 223.354 28.652C223.354 26.562 222.32 24.582 219.262 24.582C215.082 24.582 213.366 28.63 213.366 31.754C213.366 34.372 214.708 36.22 217.546 36.22C220.538 36.22 221.924 34.526 222.628 32.81H220.516C220.032 33.712 219.328 34.57 217.766 34.57C216.248 34.57 215.434 33.514 215.434 31.754C215.434 31.402 215.478 31.16 215.522 30.764H223.068ZM215.852 29.268C216.38 27.332 217.546 26.21 219.174 26.21C220.736 26.21 221.396 27.09 221.396 28.52C221.396 28.74 221.374 29.004 221.33 29.268H215.852ZM230.646 26.452H232.472L231.02 33.316C230.624 35.208 231.152 36.154 233.022 36.154C233.528 36.154 234.122 36.132 234.65 35.956L235.002 34.372C234.672 34.438 234.254 34.46 233.924 34.46C232.978 34.46 232.934 33.976 233.132 33.008L234.496 26.452H236.828L237.202 24.802H234.87L235.552 21.612H233.506L232.824 24.802H231.02L230.646 26.452ZM240.229 19.874L236.819 36H238.865L240.185 29.796C240.625 27.794 241.857 26.364 243.639 26.364C245.245 26.364 245.641 27.31 245.245 29.136L243.815 36H245.839L247.357 28.806C248.061 25.484 246.257 24.582 244.541 24.582C242.737 24.582 241.615 25.484 240.867 26.54L242.275 19.874H240.229ZM255.401 24.582C251.331 24.582 249.417 28.608 249.417 31.688C249.417 34.482 250.913 36.22 253.707 36.22C258.085 36.22 259.735 32.15 259.735 29.246C259.735 26.21 257.997 24.582 255.401 24.582ZM255.225 26.276C256.831 26.276 257.623 27.332 257.623 29.136C257.623 31.402 256.501 34.548 253.927 34.548C252.387 34.548 251.529 33.492 251.529 31.688C251.529 29.4 252.739 26.276 255.225 26.276ZM260.918 32.634C260.896 34.768 262.326 36.22 265.208 36.22C267.87 36.22 269.784 34.966 269.784 32.656C269.784 31.094 268.816 30.148 266.418 29.312C264.878 28.762 264.24 28.41 264.24 27.662C264.24 26.694 265.076 26.188 266.154 26.188C267.87 26.188 268.222 27.09 268.288 27.86H270.356C270.422 26.21 269.256 24.582 266.308 24.582C263.558 24.582 262.172 26.1 262.172 27.904C262.172 29.202 262.942 30.082 265.384 30.918C266.946 31.468 267.65 31.93 267.65 32.898C267.65 33.91 266.924 34.614 265.494 34.614C263.822 34.614 263.118 33.756 263.008 32.634H260.918ZM281.291 30.764C281.489 30.038 281.577 29.378 281.577 28.652C281.577 26.562 280.543 24.582 277.485 24.582C273.305 24.582 271.589 28.63 271.589 31.754C271.589 34.372 272.931 36.22 275.769 36.22C278.761 36.22 280.147 34.526 280.851 32.81H278.739C278.255 33.712 277.551 34.57 275.989 34.57C274.471 34.57 273.657 33.514 273.657 31.754C273.657 31.402 273.701 31.16 273.745 30.764H281.291ZM274.075 29.268C274.603 27.332 275.769 26.21 277.397 26.21C278.959 26.21 279.619 27.09 279.619 28.52C279.619 28.74 279.597 29.004 279.553 29.268H274.075ZM289.309 24.802L290.057 36H292.323C294.413 31.71 295.887 28.762 296.415 27.354H296.437C296.393 28.828 296.547 32.172 296.767 36H298.967L304.775 24.802H302.641C299.891 30.258 298.791 32.7 298.285 33.844H298.263C298.329 32.788 298.307 31.182 298.021 24.802H295.997C293.005 31.006 292.191 32.766 291.707 33.954H291.685C291.707 32.59 291.597 29.29 291.355 24.802H289.309ZM307.948 19.874L304.538 36H306.584L307.904 29.796C308.344 27.794 309.576 26.364 311.358 26.364C312.964 26.364 313.36 27.31 312.964 29.136L311.534 36H313.558L315.076 28.806C315.78 25.484 313.976 24.582 312.26 24.582C310.456 24.582 309.334 25.484 308.586 26.54L309.994 19.874H307.948ZM316.762 36H318.808L321.184 24.802H319.138L316.762 36ZM319.666 22.36H321.712L322.218 19.874H320.172L319.666 22.36ZM329.528 32.612C328.934 33.866 328.01 34.592 326.8 34.592C325.414 34.592 324.512 33.734 324.512 31.732C324.512 29.422 325.612 26.232 328.12 26.232C329.682 26.232 330.188 27.244 330.232 28.432H332.234C332.366 26.936 331.486 24.582 328.23 24.582C324.27 24.582 322.4 28.498 322.4 31.864C322.4 34.46 323.742 36.22 326.514 36.22C329.286 36.22 330.848 34.724 331.574 32.612H329.528ZM336.586 19.874L333.176 36H335.222L336.542 29.796C336.982 27.794 338.214 26.364 339.996 26.364C341.602 26.364 341.998 27.31 341.602 29.136L340.172 36H342.196L343.714 28.806C344.418 25.484 342.614 24.582 340.898 24.582C339.094 24.582 337.972 25.484 337.224 26.54L338.632 19.874H336.586ZM351.56 26.452H353.386L351.934 33.316C351.538 35.208 352.066 36.154 353.936 36.154C354.442 36.154 355.036 36.132 355.564 35.956L355.916 34.372C355.586 34.438 355.168 34.46 354.838 34.46C353.892 34.46 353.848 33.976 354.046 33.008L355.41 26.452H357.742L358.116 24.802H355.784L356.466 21.612H354.42L353.738 24.802H351.934L351.56 26.452ZM367.809 28.476C368.403 25.748 366.665 24.582 364.069 24.582C360.857 24.582 359.625 26.188 359.229 27.86H361.319C361.627 27.068 362.089 26.122 363.893 26.122C365.917 26.122 365.983 27.42 365.785 28.432L365.653 29.158C365.059 29.18 364.091 29.18 362.969 29.268C360.681 29.51 357.733 30.214 357.733 33.404C357.733 34.724 358.591 36.22 360.835 36.22C363.079 36.22 363.981 35.23 364.553 34.372C364.443 34.944 364.311 35.626 364.289 36H366.291C366.335 35.582 366.599 34.218 366.797 33.25L367.809 28.476ZM365.301 30.808C364.861 32.722 363.981 34.57 361.605 34.57C360.439 34.57 359.889 33.888 359.889 33.074C359.889 31.446 361.341 30.94 363.123 30.742C364.003 30.654 364.707 30.632 365.345 30.632L365.301 30.808ZM374.898 19.874H372.852L369.442 36H371.488L372.324 32.062L374.37 30.456L376.57 36H378.88L375.976 29.18C377.604 27.75 379.298 26.298 380.948 24.802H378.396C376.768 26.276 373.842 28.828 372.742 29.84L374.898 19.874ZM390.109 30.764C390.307 30.038 390.395 29.378 390.395 28.652C390.395 26.562 389.361 24.582 386.303 24.582C382.123 24.582 380.407 28.63 380.407 31.754C380.407 34.372 381.749 36.22 384.587 36.22C387.579 36.22 388.965 34.526 389.669 32.81H387.557C387.073 33.712 386.369 34.57 384.807 34.57C383.289 34.57 382.475 33.514 382.475 31.754C382.475 31.402 382.519 31.16 382.563 30.764H390.109ZM382.893 29.268C383.421 27.332 384.587 26.21 386.215 26.21C387.777 26.21 388.437 27.09 388.437 28.52C388.437 28.74 388.415 29.004 388.371 29.268H382.893ZM391.435 32.634C391.413 34.768 392.843 36.22 395.725 36.22C398.387 36.22 400.301 34.966 400.301 32.656C400.301 31.094 399.333 30.148 396.935 29.312C395.395 28.762 394.757 28.41 394.757 27.662C394.757 26.694 395.593 26.188 396.671 26.188C398.387 26.188 398.739 27.09 398.805 27.86H400.873C400.939 26.21 399.773 24.582 396.825 24.582C394.075 24.582 392.689 26.1 392.689 27.904C392.689 29.202 393.459 30.082 395.901 30.918C397.463 31.468 398.167 31.93 398.167 32.898C398.167 33.91 397.441 34.614 396.011 34.614C394.339 34.614 393.635 33.756 393.525 32.634H391.435ZM417.567 28.476C418.161 25.748 416.423 24.582 413.827 24.582C410.615 24.582 409.383 26.188 408.987 27.86H411.077C411.385 27.068 411.847 26.122 413.651 26.122C415.675 26.122 415.741 27.42 415.543 28.432L415.411 29.158C414.817 29.18 413.849 29.18 412.727 29.268C410.439 29.51 407.491 30.214 407.491 33.404C407.491 34.724 408.349 36.22 410.593 36.22C412.837 36.22 413.739 35.23 414.311 34.372C414.201 34.944 414.069 35.626 414.047 36H416.049C416.093 35.582 416.357 34.218 416.555 33.25L417.567 28.476ZM415.059 30.808C414.619 32.722 413.739 34.57 411.363 34.57C410.197 34.57 409.647 33.888 409.647 33.074C409.647 31.446 411.099 30.94 412.881 30.742C413.761 30.654 414.465 30.632 415.103 30.632L415.059 30.808ZM419.912 24.802L420.66 36H422.926C425.016 31.71 426.49 28.762 427.018 27.354H427.04C426.996 28.828 427.15 32.172 427.37 36H429.57L435.378 24.802H433.244C430.494 30.258 429.394 32.7 428.888 33.844H428.866C428.932 32.788 428.91 31.182 428.624 24.802H426.6C423.608 31.006 422.794 32.766 422.31 33.954H422.288C422.31 32.59 422.2 29.29 421.958 24.802H419.912ZM444.895 28.476C445.489 25.748 443.751 24.582 441.155 24.582C437.943 24.582 436.711 26.188 436.315 27.86H438.405C438.713 27.068 439.175 26.122 440.979 26.122C443.003 26.122 443.069 27.42 442.871 28.432L442.739 29.158C442.145 29.18 441.177 29.18 440.055 29.268C437.767 29.51 434.819 30.214 434.819 33.404C434.819 34.724 435.677 36.22 437.921 36.22C440.165 36.22 441.067 35.23 441.639 34.372C441.529 34.944 441.397 35.626 441.375 36H443.377C443.421 35.582 443.685 34.218 443.883 33.25L444.895 28.476ZM442.387 30.808C441.947 32.722 441.067 34.57 438.691 34.57C437.525 34.57 436.975 33.888 436.975 33.074C436.975 31.446 438.427 30.94 440.209 30.742C441.089 30.654 441.793 30.632 442.431 30.632L442.387 30.808ZM447.127 24.802L448.821 36.638C447.919 38.2 447.435 38.794 445.983 38.794C445.477 38.794 445.213 38.75 444.971 38.706L444.553 40.466C444.861 40.554 445.455 40.62 445.873 40.62C447.985 40.62 449.063 40.29 450.999 36.616L457.203 24.802H455.047C452.297 30.104 450.911 33.184 450.295 34.394H450.273C450.207 33.272 449.811 29.752 449.195 24.802H447.127ZM463.992 24.802L465.686 36.638C464.784 38.2 464.3 38.794 462.848 38.794C462.342 38.794 462.078 38.75 461.836 38.706L461.418 40.466C461.726 40.554 462.32 40.62 462.738 40.62C464.85 40.62 465.928 40.29 467.864 36.616L474.068 24.802H471.912C469.162 30.104 467.776 33.184 467.16 34.394H467.138C467.072 33.272 466.676 29.752 466.06 24.802H463.992ZM480.278 24.582C476.208 24.582 474.294 28.608 474.294 31.688C474.294 34.482 475.79 36.22 478.584 36.22C482.962 36.22 484.612 32.15 484.612 29.246C484.612 26.21 482.874 24.582 480.278 24.582ZM480.102 26.276C481.708 26.276 482.5 27.332 482.5 29.136C482.5 31.402 481.378 34.548 478.804 34.548C477.264 34.548 476.406 33.492 476.406 31.688C476.406 29.4 477.616 26.276 480.102 26.276ZM497.042 24.802H495.018L493.852 30.236C493.214 33.25 491.806 34.504 490.156 34.504C488.462 34.504 488.374 33.316 488.66 31.93L490.178 24.802H488.154L486.592 32.15C485.976 35.01 487.274 36.22 489.32 36.22C491.014 36.22 492.268 35.428 493.038 34.152C492.906 34.702 492.752 35.67 492.73 36H494.732C494.886 35.12 495.084 34.02 495.304 33.008L497.042 24.802ZM497.875 36H499.921L501.021 30.83C501.549 28.344 503.111 26.826 505.245 26.694L505.685 24.582C503.925 24.582 502.583 25.572 501.791 27.112C501.989 26.166 502.165 25.088 502.187 24.802H500.207C500.031 25.836 499.789 27.024 499.569 28.124L497.875 36ZM510.802 32.634C510.78 34.768 512.21 36.22 515.092 36.22C517.754 36.22 519.668 34.966 519.668 32.656C519.668 31.094 518.7 30.148 516.302 29.312C514.762 28.762 514.124 28.41 514.124 27.662C514.124 26.694 514.96 26.188 516.038 26.188C517.754 26.188 518.106 27.09 518.172 27.86H520.24C520.306 26.21 519.14 24.582 516.192 24.582C513.442 24.582 512.056 26.1 512.056 27.904C512.056 29.202 512.826 30.082 515.268 30.918C516.83 31.468 517.534 31.93 517.534 32.898C517.534 33.91 516.808 34.614 515.378 34.614C513.706 34.614 513.002 33.756 512.892 32.634H510.802ZM523.296 36L526.706 19.874H524.66L521.25 36H523.296ZM536.568 30.764C536.766 30.038 536.854 29.378 536.854 28.652C536.854 26.562 535.82 24.582 532.762 24.582C528.582 24.582 526.866 28.63 526.866 31.754C526.866 34.372 528.208 36.22 531.046 36.22C534.038 36.22 535.424 34.526 536.128 32.81H534.016C533.532 33.712 532.828 34.57 531.266 34.57C529.748 34.57 528.934 33.514 528.934 31.754C528.934 31.402 528.978 31.16 529.022 30.764H536.568ZM529.352 29.268C529.88 27.332 531.046 26.21 532.674 26.21C534.236 26.21 534.896 27.09 534.896 28.52C534.896 28.74 534.874 29.004 534.83 29.268H529.352ZM548.148 30.764C548.346 30.038 548.434 29.378 548.434 28.652C548.434 26.562 547.4 24.582 544.342 24.582C540.162 24.582 538.446 28.63 538.446 31.754C538.446 34.372 539.788 36.22 542.626 36.22C545.618 36.22 547.004 34.526 547.708 32.81H545.596C545.112 33.712 544.408 34.57 542.846 34.57C541.328 34.57 540.514 33.514 540.514 31.754C540.514 31.402 540.558 31.16 540.602 30.764H548.148ZM540.932 29.268C541.46 27.332 542.626 26.21 544.254 26.21C545.816 26.21 546.476 27.09 546.476 28.52C546.476 28.74 546.454 29.004 546.41 29.268H540.932ZM555.064 36.22C558.892 36.22 561.004 32.48 561.004 28.85C561.004 26.276 559.706 24.582 557.44 24.582C555.636 24.582 554.448 25.528 553.7 26.672C553.832 26.012 554.008 25.044 554.03 24.802H552.006C551.896 25.506 551.676 26.562 551.346 28.102L548.75 40.4H550.796L552.028 34.614C552.402 35.406 553.326 36.22 555.064 36.22ZM555.064 34.482C552.864 34.482 552.314 32.81 552.82 30.478C553.26 28.322 554.624 26.342 556.626 26.342C558.012 26.342 558.87 27.266 558.87 29.07C558.87 31.424 557.682 34.482 555.064 34.482ZM578.184 28.476C578.778 25.748 577.04 24.582 574.444 24.582C571.232 24.582 570 26.188 569.604 27.86H571.694C572.002 27.068 572.464 26.122 574.268 26.122C576.292 26.122 576.358 27.42 576.16 28.432L576.028 29.158C575.434 29.18 574.466 29.18 573.344 29.268C571.056 29.51 568.108 30.214 568.108 33.404C568.108 34.724 568.966 36.22 571.21 36.22C573.454 36.22 574.356 35.23 574.928 34.372C574.818 34.944 574.686 35.626 574.664 36H576.666C576.71 35.582 576.974 34.218 577.172 33.25L578.184 28.476ZM575.676 30.808C575.236 32.722 574.356 34.57 571.98 34.57C570.814 34.57 570.264 33.888 570.264 33.074C570.264 31.446 571.716 30.94 573.498 30.742C574.378 30.654 575.082 30.632 575.72 30.632L575.676 30.808ZM579.817 36H581.863L583.051 30.368C583.535 28.124 584.679 26.364 586.637 26.364C588.243 26.364 588.617 27.486 588.265 29.092L586.813 36H588.837L590.311 29.048C590.993 25.836 589.673 24.582 587.517 24.582C585.515 24.582 584.459 25.682 583.843 26.628C583.909 26.32 584.129 25.154 584.151 24.802H582.149C581.995 25.748 581.797 26.694 581.599 27.662L579.817 36ZM602.712 19.874L601.37 26.232C601.128 25.528 600.138 24.582 598.29 24.582C594.396 24.582 592.416 28.542 592.416 31.864C592.416 34.438 593.648 36.22 596.046 36.22C597.85 36.22 598.95 35.472 599.676 34.328C599.544 35.01 599.434 35.67 599.412 36H601.392C601.568 35.01 601.788 33.954 602.008 32.898L604.758 19.874H602.712ZM598.378 26.364C600.446 26.364 601.106 27.772 600.644 30.038C600.182 32.48 599.016 34.46 596.794 34.46C595.364 34.46 594.55 33.536 594.55 31.644C594.55 29.29 595.87 26.364 598.378 26.364ZM611.242 26.452H613.068L611.616 33.316C611.22 35.208 611.748 36.154 613.618 36.154C614.124 36.154 614.718 36.132 615.246 35.956L615.598 34.372C615.268 34.438 614.85 34.46 614.52 34.46C613.574 34.46 613.53 33.976 613.728 33.008L615.092 26.452H617.424L617.798 24.802H615.466L616.148 21.612H614.102L613.42 24.802H611.616L611.242 26.452ZM620.825 19.874L617.415 36H619.461L620.781 29.796C621.221 27.794 622.453 26.364 624.235 26.364C625.841 26.364 626.237 27.31 625.841 29.136L624.411 36H626.435L627.953 28.806C628.657 25.484 626.853 24.582 625.137 24.582C623.333 24.582 622.211 25.484 621.463 26.54L622.871 19.874H620.825ZM639.693 30.764C639.891 30.038 639.979 29.378 639.979 28.652C639.979 26.562 638.945 24.582 635.887 24.582C631.707 24.582 629.991 28.63 629.991 31.754C629.991 34.372 631.333 36.22 634.171 36.22C637.163 36.22 638.549 34.526 639.253 32.81H637.141C636.657 33.712 635.953 34.57 634.391 34.57C632.873 34.57 632.059 33.514 632.059 31.754C632.059 31.402 632.103 31.16 632.147 30.764H639.693ZM632.477 29.268C633.005 27.332 634.171 26.21 635.799 26.21C637.361 26.21 638.021 27.09 638.021 28.52C638.021 28.74 637.999 29.004 637.955 29.268H632.477ZM652.023 36.22C655.851 36.22 657.963 32.48 657.963 28.85C657.963 26.276 656.665 24.582 654.399 24.582C652.595 24.582 651.407 25.528 650.659 26.672C650.791 26.012 650.967 25.044 650.989 24.802H648.965C648.855 25.506 648.635 26.562 648.305 28.102L645.709 40.4H647.755L648.987 34.614C649.361 35.406 650.285 36.22 652.023 36.22ZM652.023 34.482C649.823 34.482 649.273 32.81 649.779 30.478C650.219 28.322 651.583 26.342 653.585 26.342C654.971 26.342 655.829 27.266 655.829 29.07C655.829 31.424 654.641 34.482 652.023 34.482ZM670.4 24.802H668.376L667.21 30.236C666.572 33.25 665.164 34.504 663.514 34.504C661.82 34.504 661.732 33.316 662.018 31.93L663.536 24.802H661.512L659.95 32.15C659.334 35.01 660.632 36.22 662.678 36.22C664.372 36.22 665.626 35.428 666.396 34.152C666.264 34.702 666.11 35.67 666.088 36H668.09C668.244 35.12 668.442 34.02 668.662 33.008L670.4 24.802ZM671.233 36H673.279L674.379 30.83C674.907 28.344 676.469 26.826 678.603 26.694L679.043 24.582C677.283 24.582 675.941 25.572 675.149 27.112C675.347 26.166 675.523 25.088 675.545 24.802H673.565C673.389 25.836 673.147 27.024 672.927 28.124L671.233 36ZM684.164 36.22C687.992 36.22 690.104 32.48 690.104 28.85C690.104 26.276 688.806 24.582 686.54 24.582C684.736 24.582 683.548 25.528 682.8 26.672C682.932 26.012 683.108 25.044 683.13 24.802H681.106C680.996 25.506 680.776 26.562 680.446 28.102L677.85 40.4H679.896L681.128 34.614C681.502 35.406 682.426 36.22 684.164 36.22ZM684.164 34.482C681.964 34.482 681.414 32.81 681.92 30.478C682.36 28.322 683.724 26.342 685.726 26.342C687.112 26.342 687.97 27.266 687.97 29.07C687.97 31.424 686.782 34.482 684.164 34.482ZM697.743 24.582C693.673 24.582 691.759 28.608 691.759 31.688C691.759 34.482 693.255 36.22 696.049 36.22C700.427 36.22 702.077 32.15 702.077 29.246C702.077 26.21 700.339 24.582 697.743 24.582ZM697.567 26.276C699.173 26.276 699.965 27.332 699.965 29.136C699.965 31.402 698.843 34.548 696.269 34.548C694.729 34.548 693.871 33.492 693.871 31.688C693.871 29.4 695.081 26.276 697.567 26.276ZM703.259 32.634C703.237 34.768 704.667 36.22 707.549 36.22C710.211 36.22 712.125 34.966 712.125 32.656C712.125 31.094 711.157 30.148 708.759 29.312C707.219 28.762 706.581 28.41 706.581 27.662C706.581 26.694 707.417 26.188 708.495 26.188C710.211 26.188 710.563 27.09 710.629 27.86H712.697C712.763 26.21 711.597 24.582 708.649 24.582C705.899 24.582 704.513 26.1 704.513 27.904C704.513 29.202 705.283 30.082 707.725 30.918C709.287 31.468 709.991 31.93 709.991 32.898C709.991 33.91 709.265 34.614 707.835 34.614C706.163 34.614 705.459 33.756 705.349 32.634H703.259ZM723.633 30.764C723.831 30.038 723.919 29.378 723.919 28.652C723.919 26.562 722.885 24.582 719.827 24.582C715.647 24.582 713.931 28.63 713.931 31.754C713.931 34.372 715.273 36.22 718.111 36.22C721.103 36.22 722.489 34.526 723.193 32.81H721.081C720.597 33.712 719.893 34.57 718.331 34.57C716.813 34.57 715.999 33.514 715.999 31.754C715.999 31.402 716.043 31.16 716.087 30.764H723.633ZM716.417 29.268C716.945 27.332 718.111 26.21 719.739 26.21C721.301 26.21 721.961 27.09 721.961 28.52C721.961 28.74 721.939 29.004 721.895 29.268H716.417ZM736.931 24.582C732.861 24.582 730.947 28.608 730.947 31.688C730.947 34.482 732.443 36.22 735.237 36.22C739.615 36.22 741.265 32.15 741.265 29.246C741.265 26.21 739.527 24.582 736.931 24.582ZM736.755 26.276C738.361 26.276 739.153 27.332 739.153 29.136C739.153 31.402 738.031 34.548 735.457 34.548C733.917 34.548 733.059 33.492 733.059 31.688C733.059 29.4 734.269 26.276 736.755 26.276ZM744.913 36.022L746.915 26.474H749.071L749.423 24.824H747.289L747.597 23.35C747.861 22.096 748.433 21.458 749.467 21.458C749.731 21.458 750.127 21.48 750.325 21.546L750.699 19.83C750.457 19.742 749.907 19.676 749.379 19.676C747.135 19.676 746.035 21.216 745.573 23.328L745.243 24.824H743.505L743.131 26.474H744.869L742.867 36.022H744.913ZM756.445 36L759.855 19.874H757.809L754.399 36H756.445ZM759.727 36H761.773L764.149 24.802H762.103L759.727 36ZM762.631 22.36H764.677L765.183 19.874H763.137L762.631 22.36ZM767.58 36.022L769.582 26.474H771.738L772.09 24.824H769.956L770.264 23.35C770.528 22.096 771.1 21.458 772.134 21.458C772.398 21.458 772.794 21.48 772.992 21.546L773.366 19.83C773.124 19.742 772.574 19.676 772.046 19.676C769.802 19.676 768.702 21.216 768.24 23.328L767.91 24.824H766.172L765.798 26.474H767.536L765.534 36.022H767.58ZM781.597 30.764C781.795 30.038 781.883 29.378 781.883 28.652C781.883 26.562 780.849 24.582 777.791 24.582C773.611 24.582 771.895 28.63 771.895 31.754C771.895 34.372 773.237 36.22 776.075 36.22C779.067 36.22 780.453 34.526 781.157 32.81H779.045C778.561 33.712 777.857 34.57 776.295 34.57C774.777 34.57 773.963 33.514 773.963 31.754C773.963 31.402 774.007 31.16 774.051 30.764H781.597ZM774.381 29.268C774.909 27.332 776.075 26.21 777.703 26.21C779.265 26.21 779.925 27.09 779.925 28.52C779.925 28.74 779.903 29.004 779.859 29.268H774.381ZM788.538 36H790.584L792.96 24.802H790.914L788.538 36ZM791.442 22.36H793.488L793.994 19.874H791.948L791.442 22.36ZM793.623 32.634C793.601 34.768 795.031 36.22 797.913 36.22C800.575 36.22 802.489 34.966 802.489 32.656C802.489 31.094 801.521 30.148 799.123 29.312C797.583 28.762 796.945 28.41 796.945 27.662C796.945 26.694 797.781 26.188 798.859 26.188C800.575 26.188 800.927 27.09 800.993 27.86H803.061C803.127 26.21 801.961 24.582 799.013 24.582C796.263 24.582 794.877 26.1 794.877 27.904C794.877 29.202 795.647 30.082 798.089 30.918C799.651 31.468 800.355 31.93 800.355 32.898C800.355 33.91 799.629 34.614 798.199 34.614C796.527 34.614 795.823 33.756 795.713 32.634H793.623ZM810.316 26.452H812.142L810.69 33.316C810.294 35.208 810.822 36.154 812.692 36.154C813.198 36.154 813.792 36.132 814.32 35.956L814.672 34.372C814.342 34.438 813.924 34.46 813.594 34.46C812.648 34.46 812.604 33.976 812.802 33.008L814.166 26.452H816.498L816.872 24.802H814.54L815.222 21.612H813.176L812.494 24.802H810.69L810.316 26.452ZM822.782 24.582C818.712 24.582 816.798 28.608 816.798 31.688C816.798 34.482 818.294 36.22 821.088 36.22C825.466 36.22 827.116 32.15 827.116 29.246C827.116 26.21 825.378 24.582 822.782 24.582ZM822.606 26.276C824.212 26.276 825.004 27.332 825.004 29.136C825.004 31.402 823.882 34.548 821.308 34.548C819.768 34.548 818.91 33.492 818.91 31.688C818.91 29.4 820.12 26.276 822.606 26.276ZM844.883 19.874L843.541 26.232C843.299 25.528 842.309 24.582 840.461 24.582C836.567 24.582 834.587 28.542 834.587 31.864C834.587 34.438 835.819 36.22 838.217 36.22C840.021 36.22 841.121 35.472 841.847 34.328C841.715 35.01 841.605 35.67 841.583 36H843.563C843.739 35.01 843.959 33.954 844.179 32.898L846.929 19.874H844.883ZM840.549 26.364C842.617 26.364 843.277 27.772 842.815 30.038C842.353 32.48 841.187 34.46 838.965 34.46C837.535 34.46 836.721 33.536 836.721 31.644C836.721 29.29 838.041 26.364 840.549 26.364ZM856.814 30.764C857.012 30.038 857.1 29.378 857.1 28.652C857.1 26.562 856.066 24.582 853.008 24.582C848.828 24.582 847.112 28.63 847.112 31.754C847.112 34.372 848.454 36.22 851.292 36.22C854.284 36.22 855.67 34.526 856.374 32.81H854.262C853.778 33.712 853.074 34.57 851.512 34.57C849.994 34.57 849.18 33.514 849.18 31.754C849.18 31.402 849.224 31.16 849.268 30.764H856.814ZM849.598 29.268C850.126 27.332 851.292 26.21 852.92 26.21C854.482 26.21 855.142 27.09 855.142 28.52C855.142 28.74 855.12 29.004 855.076 29.268H849.598ZM858.14 32.634C858.118 34.768 859.548 36.22 862.43 36.22C865.092 36.22 867.006 34.966 867.006 32.656C867.006 31.094 866.038 30.148 863.64 29.312C862.1 28.762 861.462 28.41 861.462 27.662C861.462 26.694 862.298 26.188 863.376 26.188C865.092 26.188 865.444 27.09 865.51 27.86H867.578C867.644 26.21 866.478 24.582 863.53 24.582C860.78 24.582 859.394 26.1 859.394 27.904C859.394 29.202 860.164 30.082 862.606 30.918C864.168 31.468 864.872 31.93 864.872 32.898C864.872 33.91 864.146 34.614 862.716 34.614C861.044 34.614 860.34 33.756 860.23 32.634H858.14ZM868.717 36H870.763L873.139 24.802H871.093L868.717 36ZM871.621 22.36H873.667L874.173 19.874H872.127L871.621 22.36ZM884.979 27.75C885.177 26.76 885.419 25.682 885.639 24.802H883.681C883.571 25.11 883.351 25.836 883.219 26.32C882.999 25.506 882.009 24.582 880.095 24.582C876.465 24.582 874.441 28.322 874.441 31.622C874.441 34.35 875.827 35.934 878.093 35.934C879.743 35.934 880.865 35.23 881.613 34.042L881.415 34.922C880.821 37.518 880.095 38.992 877.851 38.992C876.135 38.992 875.497 38.134 875.475 37.188H873.407C873.407 38.486 873.847 40.62 877.653 40.62C881.613 40.62 882.713 38.376 883.461 34.812L884.979 27.75ZM880.271 26.32C882.537 26.32 882.955 28.08 882.515 30.104C882.031 32.392 880.799 34.196 878.819 34.196C877.367 34.196 876.597 33.272 876.597 31.49C876.597 28.982 877.873 26.32 880.271 26.32ZM886.442 36H888.488L889.676 30.368C890.16 28.124 891.304 26.364 893.262 26.364C894.868 26.364 895.242 27.486 894.89 29.092L893.438 36H895.462L896.936 29.048C897.618 25.836 896.298 24.582 894.142 24.582C892.14 24.582 891.084 25.682 890.468 26.628C890.534 26.32 890.754 25.154 890.776 24.802H888.774C888.62 25.748 888.422 26.694 888.224 27.662L886.442 36ZM904.826 26.452H906.652L905.2 33.316C904.804 35.208 905.332 36.154 907.202 36.154C907.708 36.154 908.302 36.132 908.83 35.956L909.182 34.372C908.852 34.438 908.434 34.46 908.104 34.46C907.158 34.46 907.114 33.976 907.312 33.008L908.676 26.452H911.008L911.382 24.802H909.05L909.732 21.612H907.686L907.004 24.802H905.2L904.826 26.452ZM914.409 19.874L910.999 36H913.045L914.365 29.796C914.805 27.794 916.037 26.364 917.819 26.364C919.425 26.364 919.821 27.31 919.425 29.136L917.995 36H920.019L921.537 28.806C922.241 25.484 920.437 24.582 918.721 24.582C916.917 24.582 915.795 25.484 915.047 26.54L916.455 19.874H914.409ZM933.277 30.764C933.475 30.038 933.563 29.378 933.563 28.652C933.563 26.562 932.529 24.582 929.471 24.582C925.291 24.582 923.575 28.63 923.575 31.754C923.575 34.372 924.917 36.22 927.755 36.22C930.747 36.22 932.133 34.526 932.837 32.81H930.725C930.241 33.712 929.537 34.57 927.975 34.57C926.457 34.57 925.643 33.514 925.643 31.754C925.643 31.402 925.687 31.16 925.731 30.764H933.277ZM926.061 29.268C926.589 27.332 927.755 26.21 929.383 26.21C930.945 26.21 931.605 27.09 931.605 28.52C931.605 28.74 931.583 29.004 931.539 29.268H926.061ZM934.803 36H936.827L938.125 29.84C938.543 27.882 939.555 26.364 941.271 26.364C942.833 26.364 943.009 27.53 942.679 29.136L941.205 36H943.229L944.571 29.642C944.967 27.794 945.913 26.364 947.585 26.364C949.323 26.364 949.367 27.728 949.081 28.982L947.607 36H949.609L951.149 28.74C951.809 25.682 950.335 24.582 948.465 24.582C946.639 24.582 945.539 25.506 944.747 26.584C944.571 25.286 943.735 24.582 942.173 24.582C940.479 24.582 939.577 25.44 938.851 26.474C938.983 25.924 939.115 25.11 939.137 24.802H937.135C936.959 25.88 936.739 26.892 936.519 27.948L934.803 36ZM959.45 24.802L960.198 36H962.464C964.554 31.71 966.028 28.762 966.556 27.354H966.578C966.534 28.828 966.688 32.172 966.908 36H969.108L974.916 24.802H972.782C970.032 30.258 968.932 32.7 968.426 33.844H968.404C968.47 32.788 968.448 31.182 968.162 24.802H966.138C963.146 31.006 962.332 32.766 961.848 33.954H961.826C961.848 32.59 961.738 29.29 961.496 24.802H959.45ZM978.088 19.874L974.678 36H976.724L978.044 29.796C978.484 27.794 979.716 26.364 981.498 26.364C983.104 26.364 983.5 27.31 983.104 29.136L981.674 36H983.698L985.216 28.806C985.92 25.484 984.116 24.582 982.4 24.582C980.596 24.582 979.474 25.484 978.726 26.54L980.134 19.874H978.088ZM986.903 36H988.949L991.325 24.802H989.279L986.903 36ZM989.807 22.36H991.853L992.359 19.874H990.313L989.807 22.36ZM994.255 36L997.665 19.874H995.619L992.209 36H994.255ZM1007.53 30.764C1007.73 30.038 1007.81 29.378 1007.81 28.652C1007.81 26.562 1006.78 24.582 1003.72 24.582C999.541 24.582 997.825 28.63 997.825 31.754C997.825 34.372 999.167 36.22 1002.01 36.22C1005 36.22 1006.38 34.526 1007.09 32.81H1004.98C1004.49 33.712 1003.79 34.57 1002.23 34.57C1000.71 34.57 999.893 33.514 999.893 31.754C999.893 31.402 999.937 31.16 999.981 30.764H1007.53ZM1000.31 29.268C1000.84 27.332 1002.01 26.21 1003.63 26.21C1005.2 26.21 1005.86 27.09 1005.86 28.52C1005.86 28.74 1005.83 29.004 1005.79 29.268H1000.31ZM1015.28 24.802L1016.98 36.638C1016.07 38.2 1015.59 38.794 1014.14 38.794C1013.63 38.794 1013.37 38.75 1013.13 38.706L1012.71 40.466C1013.02 40.554 1013.61 40.62 1014.03 40.62C1016.14 40.62 1017.22 40.29 1019.15 36.616L1025.36 24.802H1023.2C1020.45 30.104 1019.07 33.184 1018.45 34.394H1018.43C1018.36 33.272 1017.97 29.752 1017.35 24.802H1015.28ZM1031.57 24.582C1027.5 24.582 1025.58 28.608 1025.58 31.688C1025.58 34.482 1027.08 36.22 1029.87 36.22C1034.25 36.22 1035.9 32.15 1035.9 29.246C1035.9 26.21 1034.16 24.582 1031.57 24.582ZM1031.39 26.276C1033 26.276 1033.79 27.332 1033.79 29.136C1033.79 31.402 1032.67 34.548 1030.09 34.548C1028.55 34.548 1027.7 33.492 1027.7 31.688C1027.7 29.4 1028.91 26.276 1031.39 26.276ZM1048.33 24.802H1046.31L1045.14 30.236C1044.5 33.25 1043.1 34.504 1041.45 34.504C1039.75 34.504 1039.66 33.316 1039.95 31.93L1041.47 24.802H1039.44L1037.88 32.15C1037.27 35.01 1038.56 36.22 1040.61 36.22C1042.3 36.22 1043.56 35.428 1044.33 34.152C1044.2 34.702 1044.04 35.67 1044.02 36H1046.02C1046.18 35.12 1046.37 34.02 1046.59 33.008L1048.33 24.802ZM1062.19 32.612C1061.59 33.866 1060.67 34.592 1059.46 34.592C1058.07 34.592 1057.17 33.734 1057.17 31.732C1057.17 29.422 1058.27 26.232 1060.78 26.232C1062.34 26.232 1062.85 27.244 1062.89 28.432H1064.89C1065.03 26.936 1064.15 24.582 1060.89 24.582C1056.93 24.582 1055.06 28.498 1055.06 31.864C1055.06 34.46 1056.4 36.22 1059.17 36.22C1061.95 36.22 1063.51 34.724 1064.23 32.612H1062.19ZM1075.91 28.476C1076.51 25.748 1074.77 24.582 1072.17 24.582C1068.96 24.582 1067.73 26.188 1067.33 27.86H1069.42C1069.73 27.068 1070.19 26.122 1072 26.122C1074.02 26.122 1074.09 27.42 1073.89 28.432L1073.76 29.158C1073.16 29.18 1072.19 29.18 1071.07 29.268C1068.78 29.51 1065.84 30.214 1065.84 33.404C1065.84 34.724 1066.69 36.22 1068.94 36.22C1071.18 36.22 1072.08 35.23 1072.66 34.372C1072.55 34.944 1072.41 35.626 1072.39 36H1074.39C1074.44 35.582 1074.7 34.218 1074.9 33.25L1075.91 28.476ZM1073.4 30.808C1072.96 32.722 1072.08 34.57 1069.71 34.57C1068.54 34.57 1067.99 33.888 1067.99 33.074C1067.99 31.446 1069.44 30.94 1071.23 30.742C1072.11 30.654 1072.81 30.632 1073.45 30.632L1073.4 30.808ZM1077.55 36H1079.59L1080.78 30.368C1081.26 28.124 1082.41 26.364 1084.37 26.364C1085.97 26.364 1086.35 27.486 1085.99 29.092L1084.54 36H1086.57L1088.04 29.048C1088.72 25.836 1087.4 24.582 1085.25 24.582C1083.24 24.582 1082.19 25.682 1081.57 26.628C1081.64 26.32 1081.86 25.154 1081.88 24.802H1079.88C1079.72 25.748 1079.53 26.694 1079.33 27.662L1077.55 36ZM1091.49 36.022L1092.21 32.656H1090.03L1089.31 36.022H1091.49ZM365.538 62H371.06C376.494 62 379.684 58.216 379.684 53.178C379.684 49.174 377.22 46.732 373.282 46.732H368.772L365.538 62ZM370.532 48.492H372.996C375.856 48.492 377.44 50.23 377.418 53.222C377.418 57.446 375.064 60.24 371.06 60.24H368.046L370.532 48.492ZM380.743 62H382.789L383.889 56.83C384.417 54.344 385.979 52.826 388.113 52.694L388.553 50.582C386.793 50.582 385.451 51.572 384.659 53.112C384.857 52.166 385.033 51.088 385.055 50.802H383.075C382.899 51.836 382.657 53.024 382.437 54.124L380.743 62ZM398.402 56.764C398.6 56.038 398.688 55.378 398.688 54.652C398.688 52.562 397.654 50.582 394.596 50.582C390.416 50.582 388.7 54.63 388.7 57.754C388.7 60.372 390.042 62.22 392.88 62.22C395.872 62.22 397.258 60.526 397.962 58.81H395.85C395.366 59.712 394.662 60.57 393.1 60.57C391.582 60.57 390.768 59.514 390.768 57.754C390.768 57.402 390.812 57.16 390.856 56.764H398.402ZM391.186 55.268C391.714 53.332 392.88 52.21 394.508 52.21C396.07 52.21 396.73 53.09 396.73 54.52C396.73 54.74 396.708 55.004 396.664 55.268H391.186ZM409.897 54.476C410.491 51.748 408.753 50.582 406.157 50.582C402.945 50.582 401.713 52.188 401.317 53.86H403.407C403.715 53.068 404.177 52.122 405.981 52.122C408.005 52.122 408.071 53.42 407.873 54.432L407.741 55.158C407.147 55.18 406.179 55.18 405.057 55.268C402.769 55.51 399.821 56.214 399.821 59.404C399.821 60.724 400.679 62.22 402.923 62.22C405.167 62.22 406.069 61.23 406.641 60.372C406.531 60.944 406.399 61.626 406.377 62H408.379C408.423 61.582 408.687 60.218 408.885 59.25L409.897 54.476ZM407.389 56.808C406.949 58.722 406.069 60.57 403.693 60.57C402.527 60.57 401.977 59.888 401.977 59.074C401.977 57.446 403.429 56.94 405.211 56.742C406.091 56.654 406.795 56.632 407.433 56.632L407.389 56.808ZM411.53 62H413.554L414.852 55.84C415.27 53.882 416.282 52.364 417.998 52.364C419.56 52.364 419.736 53.53 419.406 55.136L417.932 62H419.956L421.298 55.642C421.694 53.794 422.64 52.364 424.312 52.364C426.05 52.364 426.094 53.728 425.808 54.982L424.334 62H426.336L427.876 54.74C428.536 51.682 427.062 50.582 425.192 50.582C423.366 50.582 422.266 51.506 421.474 52.584C421.298 51.286 420.462 50.582 418.9 50.582C417.206 50.582 416.304 51.44 415.578 52.474C415.71 51.924 415.842 51.11 415.864 50.802H413.862C413.686 51.88 413.466 52.892 413.246 53.948L411.53 62ZM429.226 58.634C429.204 60.768 430.634 62.22 433.516 62.22C436.178 62.22 438.092 60.966 438.092 58.656C438.092 57.094 437.124 56.148 434.726 55.312C433.186 54.762 432.548 54.41 432.548 53.662C432.548 52.694 433.384 52.188 434.462 52.188C436.178 52.188 436.53 53.09 436.596 53.86H438.664C438.73 52.21 437.564 50.582 434.616 50.582C431.866 50.582 430.48 52.1 430.48 53.904C430.48 55.202 431.25 56.082 433.692 56.918C435.254 57.468 435.958 57.93 435.958 58.898C435.958 59.91 435.232 60.614 433.802 60.614C432.13 60.614 431.426 59.756 431.316 58.634H429.226ZM455.358 54.476C455.952 51.748 454.214 50.582 451.618 50.582C448.406 50.582 447.174 52.188 446.778 53.86H448.868C449.176 53.068 449.638 52.122 451.442 52.122C453.466 52.122 453.532 53.42 453.334 54.432L453.202 55.158C452.608 55.18 451.64 55.18 450.518 55.268C448.23 55.51 445.282 56.214 445.282 59.404C445.282 60.724 446.14 62.22 448.384 62.22C450.628 62.22 451.53 61.23 452.102 60.372C451.992 60.944 451.86 61.626 451.838 62H453.84C453.884 61.582 454.148 60.218 454.346 59.25L455.358 54.476ZM452.85 56.808C452.41 58.722 451.53 60.57 449.154 60.57C447.988 60.57 447.438 59.888 447.438 59.074C447.438 57.446 448.89 56.94 450.672 56.742C451.552 56.654 452.256 56.632 452.894 56.632L452.85 56.808ZM456.991 62H459.037L460.137 56.83C460.665 54.344 462.227 52.826 464.361 52.694L464.801 50.582C463.041 50.582 461.699 51.572 460.907 53.112C461.105 52.166 461.281 51.088 461.303 50.802H459.323C459.147 51.836 458.905 53.024 458.685 54.124L456.991 62ZM474.65 56.764C474.848 56.038 474.936 55.378 474.936 54.652C474.936 52.562 473.902 50.582 470.844 50.582C466.664 50.582 464.948 54.63 464.948 57.754C464.948 60.372 466.29 62.22 469.128 62.22C472.12 62.22 473.506 60.526 474.21 58.81H472.098C471.614 59.712 470.91 60.57 469.348 60.57C467.83 60.57 467.016 59.514 467.016 57.754C467.016 57.402 467.06 57.16 467.104 56.764H474.65ZM467.434 55.268C467.962 53.332 469.128 52.21 470.756 52.21C472.318 52.21 472.978 53.09 472.978 54.52C472.978 54.74 472.956 55.004 472.912 55.268H467.434ZM476.176 62H478.222L479.41 56.368C479.894 54.124 481.038 52.364 482.996 52.364C484.602 52.364 484.976 53.486 484.624 55.092L483.172 62H485.196L486.67 55.048C487.352 51.836 486.032 50.582 483.876 50.582C481.874 50.582 480.818 51.682 480.202 52.628C480.268 52.32 480.488 51.154 480.51 50.802H478.508C478.354 51.748 478.156 52.694 477.958 53.662L476.176 62ZM490.832 51.77C491.844 50.472 493.098 47.876 493.56 45.874H491.47C491.118 47.48 490.128 49.988 489.05 51.77H490.832ZM494.066 52.452H495.892L494.44 59.316C494.044 61.208 494.572 62.154 496.442 62.154C496.948 62.154 497.542 62.132 498.07 61.956L498.422 60.372C498.092 60.438 497.674 60.46 497.344 60.46C496.398 60.46 496.354 59.976 496.552 59.008L497.916 52.452H500.248L500.622 50.802H498.29L498.972 47.612H496.926L496.244 50.802H494.44L494.066 52.452ZM513.413 58.612C512.819 59.866 511.895 60.592 510.685 60.592C509.299 60.592 508.397 59.734 508.397 57.732C508.397 55.422 509.497 52.232 512.005 52.232C513.567 52.232 514.073 53.244 514.117 54.432H516.119C516.251 52.936 515.371 50.582 512.115 50.582C508.155 50.582 506.285 54.498 506.285 57.864C506.285 60.46 507.627 62.22 510.399 62.22C513.171 62.22 514.733 60.724 515.459 58.612H513.413ZM517.061 62H519.107L520.207 56.83C520.735 54.344 522.297 52.826 524.431 52.694L524.871 50.582C523.111 50.582 521.769 51.572 520.977 53.112C521.175 52.166 521.351 51.088 521.373 50.802H519.393C519.217 51.836 518.975 53.024 518.755 54.124L517.061 62ZM534.721 56.764C534.919 56.038 535.007 55.378 535.007 54.652C535.007 52.562 533.973 50.582 530.915 50.582C526.735 50.582 525.019 54.63 525.019 57.754C525.019 60.372 526.361 62.22 529.199 62.22C532.191 62.22 533.577 60.526 534.281 58.81H532.169C531.685 59.712 530.981 60.57 529.419 60.57C527.901 60.57 527.087 59.514 527.087 57.754C527.087 57.402 527.131 57.16 527.175 56.764H534.721ZM527.505 55.268C528.033 53.332 529.199 52.21 530.827 52.21C532.389 52.21 533.049 53.09 533.049 54.52C533.049 54.74 533.027 55.004 532.983 55.268H527.505ZM546.215 54.476C546.809 51.748 545.071 50.582 542.475 50.582C539.263 50.582 538.031 52.188 537.635 53.86H539.725C540.033 53.068 540.495 52.122 542.299 52.122C544.323 52.122 544.389 53.42 544.191 54.432L544.059 55.158C543.465 55.18 542.497 55.18 541.375 55.268C539.087 55.51 536.139 56.214 536.139 59.404C536.139 60.724 536.997 62.22 539.241 62.22C541.485 62.22 542.387 61.23 542.959 60.372C542.849 60.944 542.717 61.626 542.695 62H544.697C544.741 61.582 545.005 60.218 545.203 59.25L546.215 54.476ZM543.707 56.808C543.267 58.722 542.387 60.57 540.011 60.57C538.845 60.57 538.295 59.888 538.295 59.074C538.295 57.446 539.747 56.94 541.529 56.742C542.409 56.654 543.113 56.632 543.751 56.632L543.707 56.808ZM548.314 52.452H550.14L548.688 59.316C548.292 61.208 548.82 62.154 550.69 62.154C551.196 62.154 551.79 62.132 552.318 61.956L552.67 60.372C552.34 60.438 551.922 60.46 551.592 60.46C550.646 60.46 550.602 59.976 550.8 59.008L552.164 52.452H554.496L554.87 50.802H552.538L553.22 47.612H551.174L550.492 50.802H548.688L548.314 52.452ZM564.476 56.764C564.674 56.038 564.762 55.378 564.762 54.652C564.762 52.562 563.728 50.582 560.67 50.582C556.49 50.582 554.774 54.63 554.774 57.754C554.774 60.372 556.116 62.22 558.954 62.22C561.946 62.22 563.332 60.526 564.036 58.81H561.924C561.44 59.712 560.736 60.57 559.174 60.57C557.656 60.57 556.842 59.514 556.842 57.754C556.842 57.402 556.886 57.16 556.93 56.764H564.476ZM557.26 55.268C557.788 53.332 558.954 52.21 560.582 52.21C562.144 52.21 562.804 53.09 562.804 54.52C562.804 54.74 562.782 55.004 562.738 55.268H557.26ZM576.672 45.874L575.33 52.232C575.088 51.528 574.098 50.582 572.25 50.582C568.356 50.582 566.376 54.542 566.376 57.864C566.376 60.438 567.608 62.22 570.006 62.22C571.81 62.22 572.91 61.472 573.636 60.328C573.504 61.01 573.394 61.67 573.372 62H575.352C575.528 61.01 575.748 59.954 575.968 58.898L578.718 45.874H576.672ZM572.338 52.364C574.406 52.364 575.066 53.772 574.604 56.038C574.142 58.48 572.976 60.46 570.754 60.46C569.324 60.46 568.51 59.536 568.51 57.644C568.51 55.29 569.83 52.364 572.338 52.364ZM578.917 64.398C579.907 63.276 581.139 61.098 581.733 58.656H579.643C579.357 59.778 578.565 62.22 577.113 64.398H578.917ZM588.975 62H594.497C599.931 62 603.121 58.216 603.121 53.178C603.121 49.174 600.657 46.732 596.719 46.732H592.209L588.975 62ZM593.969 48.492H596.433C599.293 48.492 600.877 50.23 600.855 53.222C600.855 57.446 598.501 60.24 594.497 60.24H591.483L593.969 48.492ZM604.18 62H606.226L607.326 56.83C607.854 54.344 609.416 52.826 611.55 52.694L611.99 50.582C610.23 50.582 608.888 51.572 608.096 53.112C608.294 52.166 608.47 51.088 608.492 50.802H606.512C606.336 51.836 606.094 53.024 605.874 54.124L604.18 62ZM621.84 56.764C622.038 56.038 622.126 55.378 622.126 54.652C622.126 52.562 621.092 50.582 618.034 50.582C613.854 50.582 612.138 54.63 612.138 57.754C612.138 60.372 613.48 62.22 616.318 62.22C619.31 62.22 620.696 60.526 621.4 58.81H619.288C618.804 59.712 618.1 60.57 616.538 60.57C615.02 60.57 614.206 59.514 614.206 57.754C614.206 57.402 614.25 57.16 614.294 56.764H621.84ZM614.624 55.268C615.152 53.332 616.318 52.21 617.946 52.21C619.508 52.21 620.168 53.09 620.168 54.52C620.168 54.74 620.146 55.004 620.102 55.268H614.624ZM633.334 54.476C633.928 51.748 632.19 50.582 629.594 50.582C626.382 50.582 625.15 52.188 624.754 53.86H626.844C627.152 53.068 627.614 52.122 629.418 52.122C631.442 52.122 631.508 53.42 631.31 54.432L631.178 55.158C630.584 55.18 629.616 55.18 628.494 55.268C626.206 55.51 623.258 56.214 623.258 59.404C623.258 60.724 624.116 62.22 626.36 62.22C628.604 62.22 629.506 61.23 630.078 60.372C629.968 60.944 629.836 61.626 629.814 62H631.816C631.86 61.582 632.124 60.218 632.322 59.25L633.334 54.476ZM630.826 56.808C630.386 58.722 629.506 60.57 627.13 60.57C625.964 60.57 625.414 59.888 625.414 59.074C625.414 57.446 626.866 56.94 628.648 56.742C629.528 56.654 630.232 56.632 630.87 56.632L630.826 56.808ZM634.967 62H636.991L638.289 55.84C638.707 53.882 639.719 52.364 641.435 52.364C642.997 52.364 643.173 53.53 642.843 55.136L641.369 62H643.393L644.735 55.642C645.131 53.794 646.077 52.364 647.749 52.364C649.487 52.364 649.531 53.728 649.245 54.982L647.771 62H649.773L651.313 54.74C651.973 51.682 650.499 50.582 648.629 50.582C646.803 50.582 645.703 51.506 644.911 52.584C644.735 51.286 643.899 50.582 642.337 50.582C640.643 50.582 639.741 51.44 639.015 52.474C639.147 51.924 639.279 51.11 639.301 50.802H637.299C637.123 51.88 636.903 52.892 636.683 53.948L634.967 62ZM652.664 58.634C652.642 60.768 654.072 62.22 656.954 62.22C659.616 62.22 661.53 60.966 661.53 58.656C661.53 57.094 660.562 56.148 658.164 55.312C656.624 54.762 655.986 54.41 655.986 53.662C655.986 52.694 656.822 52.188 657.9 52.188C659.616 52.188 659.968 53.09 660.034 53.86H662.102C662.168 52.21 661.002 50.582 658.054 50.582C655.304 50.582 653.918 52.1 653.918 53.904C653.918 55.202 654.688 56.082 657.13 56.918C658.692 57.468 659.396 57.93 659.396 58.898C659.396 59.91 658.67 60.614 657.24 60.614C655.568 60.614 654.864 59.756 654.754 58.634H652.664ZM678.795 54.476C679.389 51.748 677.651 50.582 675.055 50.582C671.843 50.582 670.611 52.188 670.215 53.86H672.305C672.613 53.068 673.075 52.122 674.879 52.122C676.903 52.122 676.969 53.42 676.771 54.432L676.639 55.158C676.045 55.18 675.077 55.18 673.955 55.268C671.667 55.51 668.719 56.214 668.719 59.404C668.719 60.724 669.577 62.22 671.821 62.22C674.065 62.22 674.967 61.23 675.539 60.372C675.429 60.944 675.297 61.626 675.275 62H677.277C677.321 61.582 677.585 60.218 677.783 59.25L678.795 54.476ZM676.287 56.808C675.847 58.722 674.967 60.57 672.591 60.57C671.425 60.57 670.875 59.888 670.875 59.074C670.875 57.446 672.327 56.94 674.109 56.742C674.989 56.654 675.693 56.632 676.331 56.632L676.287 56.808ZM680.428 62H682.474L683.574 56.83C684.102 54.344 685.664 52.826 687.798 52.694L688.238 50.582C686.478 50.582 685.136 51.572 684.344 53.112C684.542 52.166 684.718 51.088 684.74 50.802H682.76C682.584 51.836 682.342 53.024 682.122 54.124L680.428 62ZM698.088 56.764C698.286 56.038 698.374 55.378 698.374 54.652C698.374 52.562 697.34 50.582 694.282 50.582C690.102 50.582 688.386 54.63 688.386 57.754C688.386 60.372 689.728 62.22 692.566 62.22C695.558 62.22 696.944 60.526 697.648 58.81H695.536C695.052 59.712 694.348 60.57 692.786 60.57C691.268 60.57 690.454 59.514 690.454 57.754C690.454 57.402 690.498 57.16 690.542 56.764H698.088ZM690.872 55.268C691.4 53.332 692.566 52.21 694.194 52.21C695.756 52.21 696.416 53.09 696.416 54.52C696.416 54.74 696.394 55.004 696.35 55.268H690.872ZM717.832 62H719.944L723.178 46.732H719.922C717.436 51.264 713.806 57.644 713.124 59.25H713.08C713.014 57.204 712.288 51.11 711.76 46.732H708.504L705.27 62H707.316L708.57 56.016C709.12 53.398 709.802 49.9 710.044 48.228H710.132C710.176 50.23 711.122 58.216 711.518 62H713.454C716.028 57.292 719.614 50.758 720.736 48.25H720.824C720.406 49.9 719.746 52.848 719.174 55.642L717.832 62ZM730.563 55.29C732.763 55.29 733.335 56.302 732.895 58.37C732.477 60.196 732.323 61.34 732.389 62H734.413C734.347 61.362 734.611 60.086 734.985 58.326C735.535 55.73 734.325 54.85 733.489 54.542C735.469 54.08 736.811 52.738 736.811 50.494C736.811 48.206 735.271 46.732 732.411 46.732H727.153L723.919 62H726.053L727.461 55.29H730.563ZM728.891 48.492H731.971C733.709 48.492 734.611 49.218 734.611 50.714C734.611 52.716 733.115 53.508 730.761 53.508H727.835L728.891 48.492ZM746.467 46.512C741.077 46.512 738.371 51.572 738.371 56.082C738.371 59.646 740.395 62.22 744.201 62.22C749.833 62.22 752.363 57.336 752.363 52.826C752.363 49.064 750.361 46.512 746.467 46.512ZM746.335 48.272C748.931 48.272 750.163 50.12 750.163 52.782C750.163 56.412 748.359 60.46 744.487 60.46C741.825 60.46 740.593 58.546 740.593 55.994C740.593 52.496 742.463 48.272 746.335 48.272ZM755.632 62H757.766L760.604 48.536H765.312L765.708 46.732H754.18L753.784 48.536H758.47L755.632 62ZM775.913 53.068H768.829L769.797 48.536H777.255L777.629 46.732H768.059L764.825 62H774.747L775.407 60.218H767.311L768.433 54.872H775.517L775.913 53.068ZM777.479 62H783.001C788.435 62 791.625 58.216 791.625 53.178C791.625 49.174 789.161 46.732 785.223 46.732H780.713L777.479 62ZM782.473 48.492H784.937C787.797 48.492 789.381 50.23 789.359 53.222C789.359 57.446 787.005 60.24 783.001 60.24H779.987L782.473 48.492ZM794.722 62.022L795.448 58.656H793.27L792.544 62.022H794.722Z" fill="#F7F7F3"/>
<path d="M580.387 93.556C579.763 95.051 578.645 95.935 576.526 95.935C573.874 95.935 572.249 93.855 572.249 91.346C572.249 88.59 574.017 86.744 576.604 86.744C578.775 86.744 579.958 87.875 580.387 89.188H580.673C580.218 87.654 578.931 86.497 576.604 86.497C573.822 86.497 571.963 88.499 571.963 91.359C571.963 93.998 573.614 96.195 576.5 96.195C578.814 96.195 580.023 95.233 580.673 93.569L580.387 93.556ZM588.993 90.891H583.195V86.926H589.266V86.679H582.922V96H589.448L589.513 95.753H583.195V91.138H588.993V90.891ZM595.382 86.497C592.587 86.497 590.65 88.72 590.65 91.333C590.65 94.063 592.561 96.182 595.33 96.182C598.281 96.182 600.049 94.011 600.049 91.255C600.049 88.59 598.06 86.497 595.382 86.497ZM595.369 86.744C597.956 86.744 599.763 88.837 599.763 91.281C599.763 94.024 597.93 95.935 595.343 95.935C592.652 95.935 590.936 93.764 590.936 91.32C590.936 88.733 592.912 86.744 595.369 86.744Z" fill="#F7F7F3"/>
<path fill-rule="evenodd" clip-rule="evenodd" d="M26.9413 0H42L40.5839 5.04381C38.3163 13.1203 36.097 23.2958 35.6386 32.2273L35.4449 36H18.0545L18.4462 31.6688C19.2508 22.772 22.8088 9.17343 25.8824 2.35071L26.9413 0ZM8.89583 0H24.0059L22.5282 5.0795C20.2762 12.8204 18.0522 23.2835 17.5931 32.2273L17.3994 36H0L0.401441 31.6607C1.20551 22.9694 4.75997 9.18091 7.83687 2.35071L8.89583 0ZM22.4296 32.0247H31.6443C32.0497 24.1269 33.7564 15.4121 35.6652 7.95053C36.0161 6.5788 36.3739 5.24942 36.7316 3.97526H29.5326C27.0727 9.43582 24.1925 19.8395 22.9265 28.0495C22.7105 29.4502 22.5415 30.7871 22.4296 32.0247ZM4.38408 32.0247H13.5988C14.0025 24.1609 15.6962 15.2847 17.595 7.95053C17.9538 6.56464 18.32 5.2338 18.6861 3.97526H11.4871C9.03334 9.4222 6.1614 19.9262 4.89053 28.0495C4.66997 29.4592 4.49764 30.7973 4.38408 32.0247Z" fill="#F7F7F3"/>
<path fill-rule="evenodd" clip-rule="evenodd" d="M1136.06 0H1121L1122.42 5.04381C1124.68 13.1203 1126.9 23.2958 1127.36 32.2273L1127.56 36H1144.95L1144.55 31.6688C1143.75 22.772 1140.19 9.17343 1137.12 2.35071L1136.06 0ZM1154.1 0H1138.99L1140.47 5.0795C1142.72 12.8204 1144.95 23.2835 1145.41 32.2273L1145.6 36H1163L1162.6 31.6607C1161.79 22.9694 1158.24 9.18091 1155.16 2.35071L1154.1 0ZM1140.57 32.0247H1131.36C1130.95 24.1269 1129.24 15.4121 1127.33 7.95053C1126.98 6.5788 1126.63 5.24942 1126.27 3.97526H1133.47C1135.93 9.43582 1138.81 19.8395 1140.07 28.0495C1140.29 29.4502 1140.46 30.7871 1140.57 32.0247ZM1158.62 32.0247H1149.4C1149 24.1609 1147.3 15.2847 1145.4 7.95053C1145.05 6.56464 1144.68 5.2338 1144.31 3.97526H1151.51C1153.97 9.4222 1156.84 19.9262 1158.11 28.0495C1158.33 29.4592 1158.5 30.7973 1158.62 32.0247Z" fill="#F7F7F3"/>
</svg>
