<svg width="100%" height="100%" viewBox="0 0 1920 3331" fill="none" xmlns="http://www.w3.org/2000/svg">
<path d="M1615.21 537.234C1674.59 510.153 1735.04 482.588 1799.1 464.499C1799.72 464.324 1800.52 464.088 1801.48 463.803C1815.51 459.644 1864.72 445.062 1922 457.423C1917.44 456.785 1912.86 456.295 1908.27 455.953L1920.5 457.827H1921L1920.32 4211H2.31827L1.50131 726.472L5.60081 723.052C4.39884 722.809 3.21132 722.528 2.04183 722.211C-0.298152 721.44 -2.02771 720.074 -0.298152 718.358C23.2081 694.897 60.0035 633.746 71.5377 606.372C97.9941 538.678 114.466 497.184 127.693 463.865C154.483 396.38 167.96 362.431 224.117 212.251C233.461 187.628 261.07 133.663 279.646 108.903C322.5 45.1947 380.407 -5.45328 481.841 4.17985C577.627 13.1825 632.329 97.0033 659.343 159.076C693.629 246.054 713.703 316.393 734.864 405.614C740.918 431.361 753.635 483.485 770.473 508.426C800.13 552.423 859.392 558.798 915.959 508.601C953.042 475.673 998.265 436.23 1051.02 425.195C1137.95 406.945 1205.3 444.322 1249.86 498.582C1357.35 629.768 1446.07 612.744 1571 557.222C1585.7 550.692 1600.42 543.978 1615.21 537.234Z" fill="#262626" stroke="#262626" stroke-width="5"/>
</svg>
