<svg width="100%" height="100%" viewBox="0 0 1798 226" fill="none" xmlns="http://www.w3.org/2000/svg">
<g id="weGroup">
<g id="createText">
<path id="CREATE" d="M122.2 118.084V114.084H119.645L118.571 116.402L122.2 118.084ZM122.388 63.376L118.699 64.9215L119.727 67.376H122.388V63.376ZM141.752 63.376V67.376H146.822L145.642 62.445L141.752 63.376ZM141.376 118.084L145.164 119.368L146.955 114.084H141.376V118.084ZM118.571 116.402C115.142 123.801 111.193 129.62 105.43 133.654C99.6991 137.666 91.7331 140.216 79.712 140.216V148.216C92.8829 148.216 102.589 145.408 110.018 140.208C117.415 135.03 122.114 127.783 125.829 119.766L118.571 116.402ZM79.712 140.216C65.3217 140.216 54.1306 134.674 46.4829 125.791C38.7795 116.843 34.456 104.24 34.456 89.884H26.456C26.456 105.796 31.2505 120.359 40.4201 131.01C49.6454 141.726 63.0824 148.216 79.712 148.216V140.216ZM34.456 89.884C34.456 75.2465 38.8248 62.9074 46.4885 54.283C54.1053 45.7115 65.2501 40.492 79.524 40.492V32.492C63.1539 32.492 49.7647 38.5525 40.5085 48.969C31.2992 59.3326 26.456 73.6895 26.456 89.884H34.456ZM79.524 40.492C91.9963 40.492 100.372 43.5519 106.253 47.9264C112.173 52.3302 115.945 58.3478 118.699 64.9215L126.077 61.8305C123.003 54.4922 118.503 47.0678 111.028 41.5076C103.514 35.9181 93.3717 32.492 79.524 32.492V40.492ZM122.388 67.376H141.752V59.376H122.388V67.376ZM145.642 62.445C142.836 50.7181 136.585 39.2156 125.79 30.6553C114.976 22.0809 99.908 16.7 79.9 16.7V24.7C98.432 24.7 111.658 29.6591 120.819 36.9237C129.999 44.2024 135.404 54.0379 137.862 64.307L145.642 62.445ZM79.9 16.7C34.824 16.7 6.34 50.2707 6.34 90.636H14.34C14.34 54.2973 39.624 24.7 79.9 24.7V16.7ZM6.34 90.636C6.34 110.543 12.6215 128.866 24.9788 142.253C37.3806 155.688 55.5995 163.82 78.772 163.82V155.82C57.5765 155.82 41.5794 148.442 30.8572 136.826C20.0905 125.162 14.34 108.893 14.34 90.636H6.34ZM78.772 163.82C98.5396 163.82 113.172 158.89 123.926 150.659C134.654 142.448 141.14 131.244 145.164 119.368L137.588 116.8C133.904 127.672 128.17 137.336 119.064 144.306C109.984 151.256 97.1684 155.82 78.772 155.82V163.82ZM141.376 114.084H122.2V122.084H141.376V114.084ZM256.785 157L252.978 158.228L253.872 161H256.785V157ZM276.148 157V161H281.578L279.969 155.814L276.148 157ZM253.777 91.576L252.796 87.6981L238.309 91.3614L252.689 95.4252L253.777 91.576ZM168.613 23.52V19.52H164.613V23.52H168.613ZM168.613 157H164.613V161H168.613V157ZM187.413 157V161H191.413V157H187.413ZM187.413 99.472V95.472H183.413V99.472H187.413ZM187.413 38.936V34.936H183.413V38.936H187.413ZM187.413 84.056H183.413V88.056H187.413V84.056ZM224.072 103.472C235.644 103.472 242.103 105.076 245.77 108.119C249.202 110.969 251.092 115.896 251.092 125.416H259.092C259.092 115.196 257.129 107.151 250.879 101.964C244.864 96.9701 235.813 95.472 224.072 95.472V103.472ZM251.092 125.416V129.928H259.092V125.416H251.092ZM251.092 129.928C251.092 135.505 251.045 140.936 251.237 145.671C251.427 150.351 251.86 154.763 252.978 158.228L260.591 155.772C259.829 153.409 259.416 149.925 259.23 145.346C259.046 140.822 259.092 135.631 259.092 129.928H251.092ZM256.785 161H276.148V153H256.785V161ZM279.969 155.814C279.3 153.659 278.925 149.97 278.76 145.16C278.598 140.455 278.645 135.155 278.645 129.928H270.645C270.645 135.041 270.597 140.551 270.764 145.434C270.928 150.212 271.305 154.889 272.328 158.186L279.969 155.814ZM278.645 129.928V124.1H270.645V129.928H278.645ZM278.645 124.1C278.645 111.719 275.383 103.219 270.513 97.436C265.678 91.6945 259.628 89.0731 254.864 87.7268L252.689 95.4252C256.573 96.5229 260.957 98.5075 264.394 102.589C267.796 106.629 270.645 113.169 270.645 124.1H278.645ZM254.757 95.4539C263.663 93.2018 270.585 88.858 275.246 82.5886C279.891 76.341 282.029 68.5358 282.029 59.804H274.029C274.029 67.2402 272.218 73.253 268.826 77.8154C265.45 82.3559 260.246 85.8142 252.796 87.6981L254.757 95.4539ZM282.029 59.804C282.029 46.8132 276.965 36.5266 267.909 29.6016C258.996 22.7858 246.613 19.52 232.344 19.52V27.52C245.524 27.52 255.983 30.5522 263.05 35.9564C269.974 41.2514 274.029 49.1068 274.029 59.804H282.029ZM232.344 19.52H168.613V27.52H232.344V19.52ZM164.613 23.52V157H172.613V23.52H164.613ZM168.613 161H187.413V153H168.613V161ZM191.413 157V99.472H183.413V157H191.413ZM187.413 103.472H224.072V95.472H187.413V103.472ZM187.413 42.936H228.396V34.936H187.413V42.936ZM228.396 42.936C238.086 42.936 244.66 44.7229 248.725 47.6725C252.554 50.4509 254.665 54.6323 254.665 60.932H262.665C262.665 52.5677 259.699 45.7511 253.423 41.1974C247.383 36.8151 238.823 34.936 228.396 34.936V42.936ZM254.665 60.932C254.665 67.8924 252.487 72.3256 248.601 75.2002C244.469 78.257 237.743 80.056 227.645 80.056V88.056C238.414 88.056 247.198 86.189 253.359 81.6318C259.766 76.8924 262.665 69.7636 262.665 60.932H254.665ZM227.645 80.056H187.413V88.056H227.645V80.056ZM191.413 84.056V38.936H183.413V84.056H191.413ZM409.969 78.98H413.969V74.98H409.969V78.98ZM329.881 78.98H325.881V82.98H329.881V78.98ZM329.881 39.5V35.5H325.881V39.5H329.881ZM414.293 39.5V43.5H418.293V39.5H414.293ZM414.293 23.52H418.293V19.52H414.293V23.52ZM311.081 23.52V19.52H307.081V23.52H311.081ZM311.081 157H307.081V161H311.081V157ZM415.797 157V161H419.226L419.75 157.612L415.797 157ZM418.241 141.208L422.194 141.82L422.908 137.208H418.241V141.208ZM329.881 141.208H325.881V145.208H329.881V141.208ZM329.881 94.96V90.96H325.881V94.96H329.881ZM409.969 94.96V98.96H413.969V94.96H409.969ZM409.969 74.98H329.881V82.98H409.969V74.98ZM333.881 78.98V39.5H325.881V78.98H333.881ZM329.881 43.5H414.293V35.5H329.881V43.5ZM418.293 39.5V23.52H410.293V39.5H418.293ZM414.293 19.52H311.081V27.52H414.293V19.52ZM307.081 23.52V157H315.081V23.52H307.081ZM311.081 161H415.797V153H311.081V161ZM419.75 157.612L422.194 141.82L414.288 140.596L411.844 156.388L419.75 157.612ZM418.241 137.208H329.881V145.208H418.241V137.208ZM333.881 141.208V94.96H325.881V141.208H333.881ZM329.881 98.96H409.969V90.96H329.881V98.96ZM413.969 94.96V78.98H405.969V94.96H413.969ZM534.666 116.58L538.319 114.949L537.261 112.58H534.666V116.58ZM552.714 157L549.062 158.631L550.12 161H552.714V157ZM573.206 157V161H579.381L576.857 155.365L573.206 157ZM513.422 23.52L517.073 21.885L516.013 19.52H513.422V23.52ZM490.674 23.52V19.52H488.042L487.001 21.9368L490.674 23.52ZM433.146 157L429.473 155.417L427.066 161H433.146V157ZM452.886 157V161H455.525L456.564 158.574L452.886 157ZM470.182 116.58V112.58H467.543L466.505 115.006L470.182 116.58ZM476.01 100.6L472.322 99.0507L469.991 104.6H476.01V100.6ZM501.39 37.244V33.244H498.487L497.587 36.0039L501.39 37.244ZM501.578 37.244L505.373 35.9791L504.461 33.244H501.578V37.244ZM528.65 100.6V104.6H534.802L532.306 98.9772L528.65 100.6ZM531.014 118.211L549.062 158.631L556.367 155.369L538.319 114.949L531.014 118.211ZM552.714 161H573.206V153H552.714V161ZM576.857 155.365L517.073 21.885L509.772 25.155L569.556 158.635L576.857 155.365ZM513.422 19.52H490.674V27.52H513.422V19.52ZM487.001 21.9368L429.473 155.417L436.819 158.583L494.347 25.1032L487.001 21.9368ZM433.146 161H452.886V153H433.146V161ZM456.564 158.574L473.86 118.154L466.505 115.006L449.209 155.426L456.564 158.574ZM470.182 120.58H534.666V112.58H470.182V120.58ZM479.698 102.149C493.022 70.4344 502.31 47.3247 505.193 38.4841L497.587 36.0039C494.83 44.4593 485.694 67.2216 472.322 99.0507L479.698 102.149ZM501.39 41.244H501.578V33.244H501.39V41.244ZM497.783 38.5089C500.87 47.769 508.695 65.5039 524.994 102.223L532.306 98.9772C515.893 62.0001 508.302 44.767 505.373 35.9791L497.783 38.5089ZM528.65 96.6H476.01V104.6H528.65V96.6ZM609.663 157H605.663V161H609.663V157ZM628.651 157V161H632.651V157H628.651ZM628.651 39.5V35.5H624.651V39.5H628.651ZM679.599 39.5V43.5H683.599V39.5H679.599ZM679.599 23.52H683.599V19.52H679.599V23.52ZM558.715 23.52V19.52H554.715V23.52H558.715ZM558.715 39.5H554.715V43.5H558.715V39.5ZM609.663 39.5H613.663V35.5H609.663V39.5ZM609.663 161H628.651V153H609.663V161ZM632.651 157V39.5H624.651V157H632.651ZM628.651 43.5H679.599V35.5H628.651V43.5ZM683.599 39.5V23.52H675.599V39.5H683.599ZM679.599 19.52H558.715V27.52H679.599V19.52ZM554.715 23.52V39.5H562.715V23.52H554.715ZM558.715 43.5H609.663V35.5H558.715V43.5ZM605.663 39.5V157H613.663V39.5H605.663ZM800.84 78.98H804.84V74.98H800.84V78.98ZM720.752 78.98H716.752V82.98H720.752V78.98ZM720.752 39.5V35.5H716.752V39.5H720.752ZM805.164 39.5V43.5H809.164V39.5H805.164ZM805.164 23.52H809.164V19.52H805.164V23.52ZM701.952 23.52V19.52H697.952V23.52H701.952ZM701.952 157H697.952V161H701.952V157ZM806.668 157V161H810.097L810.621 157.612L806.668 157ZM809.112 141.208L813.065 141.82L813.779 137.208H809.112V141.208ZM720.752 141.208H716.752V145.208H720.752V141.208ZM720.752 94.96V90.96H716.752V94.96H720.752ZM800.84 94.96V98.96H804.84V94.96H800.84ZM800.84 74.98H720.752V82.98H800.84V74.98ZM724.752 78.98V39.5H716.752V78.98H724.752ZM720.752 43.5H805.164V35.5H720.752V43.5ZM809.164 39.5V23.52H801.164V39.5H809.164ZM805.164 19.52H701.952V27.52H805.164V19.52ZM697.952 23.52V157H705.952V23.52H697.952ZM701.952 161H806.668V153H701.952V161ZM810.621 157.612L813.065 141.82L805.159 140.596L802.715 156.388L810.621 157.612ZM809.112 137.208H720.752V145.208H809.112V137.208ZM724.752 141.208V94.96H716.752V141.208H724.752ZM720.752 98.96H800.84V90.96H720.752V98.96ZM804.84 94.96V78.98H796.84V94.96H804.84Z" fill="#2C2D2D"/>
<path id="," d="M857.296 182.756V186.756H859.51L860.686 184.88L857.296 182.756ZM875.72 126.356L879.698 126.772L880.16 122.356H875.72V126.356ZM857.296 126.356V122.356H853.643L853.312 125.994L857.296 126.356ZM841.692 182.756L838.055 181.092L835.463 186.756H841.692V182.756ZM860.686 184.88C870.863 168.635 877.96 143.383 879.698 126.772L871.742 125.94C870.096 141.665 863.281 165.669 853.906 180.632L860.686 184.88ZM875.72 122.356H857.296V130.356H875.72V122.356ZM853.312 125.994C851.848 142.097 848.014 159.328 838.055 181.092L845.329 184.421C855.674 161.816 859.736 143.703 861.28 126.718L853.312 125.994ZM841.692 186.756H857.296V178.756H841.692V186.756Z" fill="#2C2D2D"/>
</g>
<g id="mroteText">
<path id="." d="M1786.64 157V161H1790.64V157H1786.64ZM1786.64 126.356H1790.64V122.356H1786.64V126.356ZM1766.9 126.356V122.356H1762.9V126.356H1766.9ZM1766.9 157H1762.9V161H1766.9V157ZM1790.64 157V126.356H1782.64V157H1790.64ZM1786.64 122.356H1766.9V130.356H1786.64V122.356ZM1762.9 126.356V157H1770.9V126.356H1762.9ZM1766.9 161H1786.64V153H1766.9V161Z" fill="#2C2D2D"/>
<path id="MROTE" d="M1148.26 157H1144.26V161H1148.26V157ZM1166.69 157V161H1170.69V157H1166.69ZM1166.69 23.52H1170.69V19.52H1166.69V23.52ZM1139.24 23.52V19.52H1136.56L1135.54 21.9936L1139.24 23.52ZM1092.99 134.252V138.252H1095.73L1096.72 135.694L1092.99 134.252ZM1092.8 134.252L1089 135.482L1089.89 138.252H1092.8V134.252ZM1047.87 23.52L1051.56 21.9827L1050.54 19.52H1047.87V23.52ZM1020.8 23.52V19.52H1016.8V23.52H1020.8ZM1020.8 157H1016.8V161H1020.8V157ZM1038.28 157V161H1042.28V157H1038.28ZM1036.4 36.868V32.868H1032.1L1032.41 37.1635L1036.4 36.868ZM1036.59 36.868L1040.37 35.5526L1039.43 32.868H1036.59V36.868ZM1083.59 157L1079.86 158.427L1080.84 161H1083.59V157ZM1099.95 157V161H1102.61L1103.64 158.543L1099.95 157ZM1148.83 36.68V32.68H1145.93L1145.03 35.4364L1148.83 36.68ZM1149.02 36.68L1153.01 36.8959L1153.24 32.68H1149.02V36.68ZM1148.26 161H1166.69V153H1148.26V161ZM1170.69 157V23.52H1162.69V157H1170.69ZM1166.69 19.52H1139.24V27.52H1166.69V19.52ZM1135.54 21.9936C1118.68 62.8311 1095.67 116.223 1089.26 132.81L1096.72 135.694C1103.1 119.193 1125.96 66.1769 1142.94 25.0464L1135.54 21.9936ZM1092.99 130.252H1092.8V138.252H1092.99V130.252ZM1096.61 133.022C1092.6 120.596 1069.74 65.6431 1051.56 21.9827L1044.18 25.0573C1062.47 69.0048 1085.12 123.468 1089 135.482L1096.61 133.022ZM1047.87 19.52H1020.8V27.52H1047.87V19.52ZM1016.8 23.52V157H1024.8V23.52H1016.8ZM1020.8 161H1038.28V153H1020.8V161ZM1042.28 157V102.856H1034.28V157H1042.28ZM1042.28 102.856C1042.28 80.2515 1041.53 51.941 1040.39 36.5725L1032.41 37.1635C1033.53 52.2509 1034.28 80.3405 1034.28 102.856H1042.28ZM1036.4 40.868H1036.59V32.868H1036.4V40.868ZM1032.81 38.1834C1040.16 59.2807 1065.66 121.263 1079.86 158.427L1087.33 155.573C1072.95 117.913 1047.69 56.5673 1040.37 35.5526L1032.81 38.1834ZM1083.59 161H1099.95V153H1083.59V161ZM1103.64 158.543C1122.75 112.82 1145.98 58.2404 1152.63 37.9236L1145.03 35.4364C1138.51 55.3515 1115.5 109.436 1096.26 155.457L1103.64 158.543ZM1148.83 40.68H1149.02V32.68H1148.83V40.68ZM1145.02 36.4641C1144.26 50.5125 1144.26 74.7151 1144.26 99.472H1152.26C1152.26 74.5969 1152.27 50.6715 1153.01 36.8959L1145.02 36.4641ZM1144.26 99.472V157H1152.26V99.472H1144.26ZM1293.85 157L1290.04 158.228L1290.94 161H1293.85V157ZM1313.21 157V161H1318.64L1317.04 155.814L1313.21 157ZM1290.84 91.576L1289.86 87.6981L1275.38 91.3614L1289.76 95.4252L1290.84 91.576ZM1205.68 23.52V19.52H1201.68V23.52H1205.68ZM1205.68 157H1201.68V161H1205.68V157ZM1224.48 157V161H1228.48V157H1224.48ZM1224.48 99.472V95.472H1220.48V99.472H1224.48ZM1224.48 38.936V34.936H1220.48V38.936H1224.48ZM1224.48 84.056H1220.48V88.056H1224.48V84.056ZM1261.14 103.472C1272.71 103.472 1279.17 105.076 1282.84 108.119C1286.27 110.969 1288.16 115.896 1288.16 125.416H1296.16C1296.16 115.196 1294.2 107.151 1287.95 101.964C1281.93 96.9701 1272.88 95.472 1261.14 95.472V103.472ZM1288.16 125.416V129.928H1296.16V125.416H1288.16ZM1288.16 129.928C1288.16 135.505 1288.11 140.936 1288.3 145.671C1288.49 150.351 1288.93 154.763 1290.04 158.228L1297.66 155.772C1296.9 153.409 1296.48 149.925 1296.3 145.346C1296.11 140.822 1296.16 135.631 1296.16 129.928H1288.16ZM1293.85 161H1313.21V153H1293.85V161ZM1317.04 155.814C1316.37 153.659 1315.99 149.97 1315.83 145.16C1315.66 140.455 1315.71 135.155 1315.71 129.928H1307.71C1307.71 135.041 1307.66 140.551 1307.83 145.434C1307.99 150.212 1308.37 154.889 1309.39 158.186L1317.04 155.814ZM1315.71 129.928V124.1H1307.71V129.928H1315.71ZM1315.71 124.1C1315.71 111.719 1312.45 103.219 1307.58 97.436C1302.74 91.6945 1296.69 89.0731 1291.93 87.7268L1289.76 95.4252C1293.64 96.5229 1298.02 98.5075 1301.46 102.589C1304.86 106.629 1307.71 113.169 1307.71 124.1H1315.71ZM1291.82 95.4539C1300.73 93.2018 1307.65 88.858 1312.31 82.5886C1316.96 76.341 1319.09 68.5358 1319.09 59.804H1311.09C1311.09 67.2402 1309.28 73.253 1305.89 77.8154C1302.52 82.3559 1297.31 85.8142 1289.86 87.6981L1291.82 95.4539ZM1319.09 59.804C1319.09 46.8132 1314.03 36.5266 1304.98 29.6016C1296.06 22.7858 1283.68 19.52 1269.41 19.52V27.52C1282.59 27.52 1293.05 30.5522 1300.12 35.9564C1307.04 41.2514 1311.09 49.1068 1311.09 59.804H1319.09ZM1269.41 19.52H1205.68V27.52H1269.41V19.52ZM1201.68 23.52V157H1209.68V23.52H1201.68ZM1205.68 161H1224.48V153H1205.68V161ZM1228.48 157V99.472H1220.48V157H1228.48ZM1224.48 103.472H1261.14V95.472H1224.48V103.472ZM1224.48 42.936H1265.46V34.936H1224.48V42.936ZM1265.46 42.936C1275.15 42.936 1281.73 44.7229 1285.79 47.6725C1289.62 50.4509 1291.73 54.6323 1291.73 60.932H1299.73C1299.73 52.5677 1296.77 45.7511 1290.49 41.1974C1284.45 36.8151 1275.89 34.936 1265.46 34.936V42.936ZM1291.73 60.932C1291.73 67.8924 1289.55 72.3256 1285.67 75.2002C1281.54 78.257 1274.81 80.056 1264.71 80.056V88.056C1275.48 88.056 1284.26 86.189 1290.43 81.6318C1296.83 76.8924 1299.73 69.7636 1299.73 60.932H1291.73ZM1264.71 80.056H1224.48V88.056H1264.71V80.056ZM1228.48 84.056V38.936H1220.48V84.056H1228.48ZM1409.64 16.7C1364.44 16.7 1335.14 50.7607 1335.14 89.884H1343.14C1343.14 54.9353 1369.1 24.7 1409.64 24.7V16.7ZM1335.14 89.884C1335.14 110.357 1342.18 128.869 1355.08 142.287C1367.99 155.73 1386.55 163.82 1409.07 163.82V155.82C1388.55 155.82 1372.13 148.494 1360.84 136.745C1349.53 124.971 1343.14 108.515 1343.14 89.884H1335.14ZM1409.07 163.82C1432.55 163.82 1451.22 155.392 1464 141.758C1476.74 128.166 1483.38 109.664 1483.38 89.884H1475.38C1475.38 107.892 1469.34 124.358 1458.16 136.287C1447.02 148.174 1430.53 155.82 1409.07 155.82V163.82ZM1483.38 89.884C1483.38 50.8125 1454.69 16.7 1409.64 16.7V24.7C1449.93 24.7 1475.38 54.8835 1475.38 89.884H1483.38ZM1408.51 40.492C1424.1 40.492 1435.72 46.5363 1443.49 55.6145C1451.34 64.7717 1455.46 77.2476 1455.46 90.26H1463.46C1463.46 75.6364 1458.84 61.2283 1449.57 50.4105C1440.24 39.5137 1426.38 32.492 1408.51 32.492V40.492ZM1455.46 90.26C1455.46 103.995 1451.44 116.458 1443.86 125.416C1436.34 134.289 1425.08 140.028 1409.82 140.028V148.028C1427.29 148.028 1440.84 141.359 1449.96 130.586C1459.01 119.898 1463.46 105.477 1463.46 90.26H1455.46ZM1409.82 140.028C1394.43 140.028 1382.91 134.037 1375.19 124.881C1367.39 115.642 1363.25 102.93 1363.25 89.32H1355.25C1355.25 104.474 1359.86 119.116 1369.07 130.04C1378.36 141.047 1392.13 148.028 1409.82 148.028V140.028ZM1363.25 89.32C1363.25 62.7941 1380.2 40.492 1408.51 40.492V32.492C1374.78 32.492 1355.25 59.4459 1355.25 89.32H1363.25ZM1541.35 157H1537.35V161H1541.35V157ZM1560.34 157V161H1564.34V157H1560.34ZM1560.34 39.5V35.5H1556.34V39.5H1560.34ZM1611.28 39.5V43.5H1615.28V39.5H1611.28ZM1611.28 23.52H1615.28V19.52H1611.28V23.52ZM1490.4 23.52V19.52H1486.4V23.52H1490.4ZM1490.4 39.5H1486.4V43.5H1490.4V39.5ZM1541.35 39.5H1545.35V35.5H1541.35V39.5ZM1541.35 161H1560.34V153H1541.35V161ZM1564.34 157V39.5H1556.34V157H1564.34ZM1560.34 43.5H1611.28V35.5H1560.34V43.5ZM1615.28 39.5V23.52H1607.28V39.5H1615.28ZM1611.28 19.52H1490.4V27.52H1611.28V19.52ZM1486.4 23.52V39.5H1494.4V23.52H1486.4ZM1490.4 43.5H1541.35V35.5H1490.4V43.5ZM1537.35 39.5V157H1545.35V39.5H1537.35ZM1732.52 78.98H1736.52V74.98H1732.52V78.98ZM1652.44 78.98H1648.44V82.98H1652.44V78.98ZM1652.44 39.5V35.5H1648.44V39.5H1652.44ZM1736.85 39.5V43.5H1740.85V39.5H1736.85ZM1736.85 23.52H1740.85V19.52H1736.85V23.52ZM1633.64 23.52V19.52H1629.64V23.52H1633.64ZM1633.64 157H1629.64V161H1633.64V157ZM1738.35 157V161H1741.78L1742.3 157.612L1738.35 157ZM1740.8 141.208L1744.75 141.82L1745.46 137.208H1740.8V141.208ZM1652.44 141.208H1648.44V145.208H1652.44V141.208ZM1652.44 94.96V90.96H1648.44V94.96H1652.44ZM1732.52 94.96V98.96H1736.52V94.96H1732.52ZM1732.52 74.98H1652.44V82.98H1732.52V74.98ZM1656.44 78.98V39.5H1648.44V78.98H1656.44ZM1652.44 43.5H1736.85V35.5H1652.44V43.5ZM1740.85 39.5V23.52H1732.85V39.5H1740.85ZM1736.85 19.52H1633.64V27.52H1736.85V19.52ZM1629.64 23.52V157H1637.64V23.52H1629.64ZM1633.64 161H1738.35V153H1633.64V161ZM1742.3 157.612L1744.75 141.82L1736.84 140.596L1734.4 156.388L1742.3 157.612ZM1740.8 137.208H1652.44V145.208H1740.8V137.208ZM1656.44 141.208V94.96H1648.44V141.208H1656.44ZM1652.44 98.96H1732.52V90.96H1652.44V98.96ZM1736.52 94.96V78.98H1728.52V94.96H1736.52Z" fill="#2C2D2D"/>
</g>
</g>
</svg>
