<svg width="493" height="18" viewBox="0 0 493 18" fill="none" xmlns="http://www.w3.org/2000/svg">
<g id="craftingDreams" clip-path="url(#clip0_21_1197)">
<g id="Layer 2">
<g id="Layer 1">
<path id="Vector" d="M17.7499 13.1008C16.7106 15.877 14.1703 17.9818 9.50188 17.9818C3.24989 17.9818 -0.0493164 13.9717 -0.0493164 9.03626C-0.0493164 4.10078 3.2004 0.0906982 9.58436 0.0906982C14.2857 0.0906982 17.0571 2.19554 17.8324 5.11691H16.1828C15.1765 2.84876 13.3455 1.34271 9.58436 1.34271C4.17367 1.34271 1.89721 5.3165 1.89721 9.10884C1.89721 12.9012 4.14067 16.8205 9.71633 16.8205C13.263 16.8205 15.0775 15.3508 16.1663 13.1915L17.7499 13.1008Z" fill="#696E71"/>
<path id="Vector_2" d="M39.4915 9.59874V17.7822H37.8419V0.23584H45.661C49.95 0.23584 52.2594 2.05036 52.2594 4.84471C52.2594 7.07657 50.6098 8.47374 48.1849 8.96366C48.7097 8.97621 49.2264 9.10735 49.7031 9.34892C50.1798 9.59049 50.6062 9.93734 50.9559 10.3679C51.3056 10.7985 51.571 11.3035 51.7356 11.8517C51.9003 12.3999 51.9607 12.9794 51.913 13.5544V14.2258C51.7749 15.4437 51.8705 16.68 52.1935 17.8548H50.5439C50.2038 16.6839 50.0969 15.4462 50.2304 14.2258V13.6814C50.2304 10.7963 49.1747 9.59874 45.0012 9.59874H39.4915ZM39.4915 8.32858H44.7538C48.5808 8.32858 50.3624 7.18544 50.3624 4.881C50.3624 2.57657 48.6138 1.506 45.2156 1.506H39.4915V8.32858Z" fill="#696E71"/>
<path id="Vector_3" d="M75.1723 11.7217L72.4835 17.7822H70.8339L78.8344 0.23584H80.7315L88.9795 17.7822H87.1979L84.3606 11.7217H75.1723ZM83.7997 10.4697C81.3748 5.26205 80.1376 2.75802 79.6922 1.57858C79.0819 2.90318 77.7292 6.006 75.7827 10.4697H83.7997Z" fill="#696E71"/>
<path id="Vector_4" d="M108.164 0.23584H121.361V1.506H109.814V8.11084H120.652V9.36286H109.847V17.7822H108.197L108.164 0.23584Z" fill="#696E71"/>
<path id="Vector_5" d="M146.105 1.506H138.781V0.23584H155.162V1.506H147.804V17.8366H146.155L146.105 1.506Z" fill="#696E71"/>
<path id="Vector_6" d="M175.353 0.23584V17.7822H173.703V0.23584H175.353Z" fill="#696E71"/>
<path id="Vector_7" d="M197.028 17.7822V0.23584H199.503C202.802 4.44552 210.869 14.2439 212.238 16.1491C212.04 13.627 212.073 11.0504 212.073 8.18342V0.23584H213.722V17.7822H211.413C208.114 13.7177 200.08 3.52011 198.53 1.59673C198.678 3.90116 198.662 6.45963 198.662 9.63503V17.7822H197.028Z" fill="#696E71"/>
<path id="Vector_8" d="M252.026 17.7822H250.641C250.444 16.8614 250.371 15.9137 250.426 14.9697C249.634 16.1855 247.935 17.9818 243.382 17.9818C237.13 17.9818 233.914 14.1532 233.914 9.16328C233.914 4.17336 237.345 0.0906982 243.811 0.0906982C248.414 0.0906982 251.531 1.90521 252.29 5.20763H250.641C249.717 2.72175 247.556 1.25199 243.762 1.25199C238.203 1.25199 235.794 4.64513 235.794 9.16328C235.794 13.1734 238.186 16.8024 243.514 16.8024C248.842 16.8024 250.492 13.9536 250.492 10.0705V9.79836H243.448V8.54634H252.109L252.026 17.7822Z" fill="#696E71"/>
<path id="Vector_9" d="M296.038 0.23584H303.263C309.234 0.23584 313.375 3.59269 313.375 8.85479C313.375 14.1169 309.333 17.7822 303.23 17.7822H296.038V0.23584ZM297.687 16.5665H302.949C308.707 16.5665 311.544 13.3185 311.544 8.98181C311.544 5.11689 308.987 1.54229 302.949 1.54229H297.687V16.5665Z" fill="#696E71"/>
<path id="Vector_10" d="M335.15 9.59874V17.7822H333.5V0.23584H341.303C345.608 0.23584 347.901 2.05036 347.901 4.84471C347.901 7.07657 346.251 8.47374 343.81 8.96366C344.335 8.9764 344.853 9.10751 345.33 9.34888C345.808 9.59026 346.235 9.93677 346.586 10.367C346.937 10.7972 347.204 11.3021 347.371 11.8503C347.537 12.3985 347.6 12.9785 347.555 13.5544V14.2258C347.408 15.4435 347.504 16.6818 347.835 17.8548H346.185C345.853 16.6821 345.747 15.4463 345.872 14.2258V13.6814C345.872 10.7963 344.816 9.59874 340.643 9.59874H335.15ZM335.15 8.32858H340.412C344.255 8.32858 346.02 7.18544 346.02 4.881C346.02 2.57657 344.272 1.506 340.89 1.506H335.15V8.32858Z" fill="#696E71"/>
<path id="Vector_11" d="M381.223 9.16326H370.105V16.5302H382.279L382.031 17.7822H368.422V0.23584H381.784V1.506H370.105V7.91124H381.223V9.16326Z" fill="#696E71"/>
<path id="Vector_12" d="M404.548 11.7217L401.777 17.7822H400.127L408.128 0.23584H410.124L418.471 17.7822H416.64L413.803 11.7217H404.548ZM413.176 10.4697C410.751 5.26205 409.497 2.75802 409.068 1.57858C408.54 2.90318 407.138 6.006 405.175 10.4697H413.176Z" fill="#696E71"/>
<path id="Vector_13" d="M456.395 9.70761C456.395 6.27818 456.395 2.9939 456.527 1.25197H456.428C455.554 3.59269 451.133 12.2479 448.362 17.7822H446.712C444.634 13.5 440.114 3.88302 439.058 1.21568C439.223 3.22979 439.289 7.31245 439.289 10.2883V17.7459H437.639V0.23584H440.163C443.149 6.26003 446.91 14.1169 447.718 16.1129C448.213 14.8245 452.568 6.07858 455.62 0.23584H458.111V17.7822H456.461L456.395 9.70761Z" fill="#696E71"/>
<path id="Vector_14" d="M479.523 13.0826C480.166 15.4052 482.096 16.7117 485.692 16.7117C489.668 16.7117 491.202 15.0967 491.202 13.2096C491.202 11.3226 490.113 9.99796 485.313 9.03626C480.513 8.07457 478.714 6.91328 478.714 4.37296C478.714 1.83263 480.793 0.0906982 485.461 0.0906982C490.13 0.0906982 492.291 2.43142 492.571 4.57255H490.823C490.328 2.75804 488.793 1.34271 485.379 1.34271C482.228 1.34271 480.513 2.52215 480.513 4.46368C480.513 6.40521 481.948 7.14917 485.973 7.94755C492.093 9.18142 493 11.1592 493 13.2641C493 15.8407 490.658 18.0726 485.626 18.0726C480.166 18.0726 478.187 15.5141 477.774 13.1734L479.523 13.0826Z" fill="#696E71"/>
</g>
</g>
</g>
<defs>
<clipPath id="clip0_21_1197">
<rect width="493" height="18" fill="white"/>
</clipPath>
</defs>
</svg>
