<svg width="1614" height="313" viewBox="0 0 1614 313" fill="none" xmlns="http://www.w3.org/2000/svg">
<g id="elipses">
<path id="Ellipse 1" d="M121.5 69C121.5 102.413 94.4132 129.5 61 129.5C27.5868 129.5 0.5 102.413 0.5 69C0.5 35.5868 27.5868 8.5 61 8.5C94.4132 8.5 121.5 35.5868 121.5 69Z" fill="#F7F7F3" stroke="#2C2D2D"/>
<circle id="Ellipse 2" cx="108" cy="84" r="60.5" stroke="#2C2D2D"/>
<circle id="Ellipse 3" cx="145" cy="109" r="60.5" stroke="#2C2D2D"/>
<circle id="Ellipse 4" cx="173" cy="144" r="60.5" stroke="#2C2D2D"/>
<circle id="Ellipse 5" cx="191" cy="183" r="60.5" stroke="#2C2D2D"/>
<circle id="Ellipse 6" cx="218" cy="210" r="60.5" stroke="#2C2D2D"/>
<circle id="Ellipse 7" cx="252" cy="244" r="60.5" stroke="#2C2D2D"/>
<circle id="Ellipse 8" cx="299" cy="244" r="60.5" stroke="#2C2D2D"/>
<circle id="Ellipse 9" cx="340" cy="219" r="60.5" stroke="#2C2D2D"/>
<circle id="Ellipse 10" cx="374" cy="191" r="60.5" stroke="#2C2D2D"/>
<circle id="Ellipse 11" cx="401" cy="158" r="60.5" stroke="#2C2D2D"/>
<circle id="Ellipse 12" cx="421" cy="122" r="60.5" stroke="#2C2D2D"/>
<circle id="Ellipse 13" cx="462" cy="88" r="60.5" stroke="#2C2D2D"/>
<circle id="Ellipse 14" cx="508" cy="84" r="60.5" stroke="#2C2D2D"/>
<circle id="Ellipse 15" cx="556" cy="97" r="60.5" stroke="#2C2D2D"/>
<circle id="Ellipse 16" cx="592" cy="130" r="60.5" stroke="#2C2D2D"/>
<circle id="Ellipse 17" cx="629" cy="149" r="60.5" stroke="#2C2D2D"/>
<circle id="Ellipse 18" cx="664" cy="191" r="60.5" stroke="#2C2D2D"/>
<circle id="Ellipse 19" cx="697" cy="212" r="60.5" stroke="#2C2D2D"/>
<circle id="Ellipse 20" cx="755" cy="206" r="60.5" stroke="#2C2D2D"/>
<circle id="Ellipse 21" cx="786" cy="183" r="60.5" stroke="#2C2D2D"/>
<circle id="Ellipse 22" cx="820" cy="151" r="60.5" stroke="#2C2D2D"/>
<circle id="Ellipse 23" cx="838" cy="109" r="60.5" stroke="#2C2D2D"/>
<circle id="Ellipse 24" cx="872" cy="84" r="60.5" stroke="#2C2D2D"/>
<circle id="Ellipse 25" cx="918" cy="61" r="60.5" stroke="#2C2D2D"/>
<circle id="Ellipse 26" cx="968" cy="64" r="60.5" stroke="#2C2D2D"/>
<circle id="Ellipse 27" cx="1002" cy="97" r="60.5" stroke="#2C2D2D"/>
<circle id="Ellipse 28" cx="1039" cy="122" r="60.5" stroke="#2C2D2D"/>
<circle id="Ellipse 29" cx="1059" cy="162" r="60.5" stroke="#2C2D2D"/>
<circle id="Ellipse 30" cx="1088" cy="205" r="60.5" stroke="#2C2D2D"/>
<circle id="Ellipse 31" cx="1127" cy="219" r="60.5" stroke="#2C2D2D"/>
<circle id="Ellipse 32" cx="1172" cy="223" r="60.5" stroke="#2C2D2D"/>
<circle id="Ellipse 33" cx="1219" cy="210" r="60.5" stroke="#2C2D2D"/>
<circle id="Ellipse 34" cx="1249" cy="183" r="60.5" stroke="#2C2D2D"/>
<circle id="Ellipse 35" cx="1280" cy="144" r="60.5" stroke="#2C2D2D"/>
<circle id="Ellipse 36" cx="1310" cy="109" r="60.5" stroke="#2C2D2D"/>
<circle id="Ellipse 37" cx="1351" cy="84" r="60.5" stroke="#2C2D2D"/>
<circle id="Ellipse 38" cx="1384" cy="69" r="60.5" stroke="#2C2D2D"/>
<circle id="Ellipse 39" cx="1440" cy="83" r="60.5" stroke="#2C2D2D"/>
<circle id="Ellipse 40" cx="1471" cy="109" r="60.5" stroke="#2C2D2D"/>
<circle id="Ellipse 41" cx="1499" cy="130" r="60.5" stroke="#2C2D2D"/>
<circle id="Ellipse 42" cx="1519" cy="183" r="60.5" stroke="#2C2D2D"/>
<circle id="Ellipse 43" cx="1538" cy="212" r="60.5" stroke="#2C2D2D"/>
<circle id="Ellipse 44" cx="1553" cy="252" r="60.5" stroke="#2C2D2D"/>
</g>
</svg>
