<svg width="1075" height="447" viewBox="0 0 1075 447" fill="none" xmlns="http://www.w3.org/2000/svg">
<path d="M87.84 150V154H91.84V150H87.84ZM87.84 118.86V114.86H83.84V118.86H87.84ZM104.22 118.86V122.86H107.719L108.185 119.392L104.22 118.86ZM106.2 104.1L110.164 104.632L110.772 100.1H106.2V104.1ZM87.84 104.1H83.84V108.1H87.84V104.1ZM87.84 28.32H91.84V24.32H87.84V28.32ZM68.58 28.32V24.32H66.6682L65.4674 25.8077L68.58 28.32ZM7.56 103.92L4.4474 101.408L3.56 102.507V103.92H7.56ZM7.56 118.86H3.56V122.86H7.56V118.86ZM71.46 118.86H75.46V114.86H71.46V118.86ZM71.46 150H67.46V154H71.46V150ZM71.46 104.1V108.1H75.46V104.1H71.46ZM25.92 104.1L22.814 101.58L17.5228 108.1H25.92V104.1ZM71.82 45.24L75.8138 45.4619L76.6099 31.1336L68.5168 42.9841L71.82 45.24ZM91.84 150V118.86H83.84V150H91.84ZM87.84 122.86H104.22V114.86H87.84V122.86ZM108.185 119.392L110.164 104.632L102.236 103.568L100.256 118.328L108.185 119.392ZM106.2 100.1H87.84V108.1H106.2V100.1ZM91.84 104.1V28.32H83.84V104.1H91.84ZM87.84 24.32H68.58V32.32H87.84V24.32ZM65.4674 25.8077L4.4474 101.408L10.6726 106.432L71.6926 30.8323L65.4674 25.8077ZM3.56 103.92V118.86H11.56V103.92H3.56ZM7.56 122.86H71.46V114.86H7.56V122.86ZM67.46 118.86V150H75.46V118.86H67.46ZM71.46 154H87.84V146H71.46V154ZM71.46 100.1H25.92V108.1H71.46V100.1ZM29.026 106.62C46.8216 84.6906 69.9725 55.0379 75.1232 47.4958L68.5168 42.9841C63.5875 50.2021 40.6584 79.5894 22.814 101.58L29.026 106.62ZM67.8262 45.0181C67.4583 51.6395 67.46 67.0871 67.46 73.86H75.46C75.46 66.9529 75.4617 51.8005 75.8138 45.4619L67.8262 45.0181ZM67.46 73.86V104.1H75.46V73.86H67.46ZM141.84 150V154H145.84V150H141.84ZM141.84 120.66H145.84V116.66H141.84V120.66ZM122.94 120.66V116.66H118.94V120.66H122.94ZM122.94 150H118.94V154H122.94V150ZM145.84 150V120.66H137.84V150H145.84ZM141.84 116.66H122.94V124.66H141.84V116.66ZM118.94 120.66V150H126.94V120.66H118.94ZM122.94 154H141.84V146H122.94V154Z" fill="#F7F7F3"/>
<path d="M179.8 89H183.6V76.156H199.864V89H203.664V62.02H199.864V72.926H183.6V62.02H179.8V89ZM219.105 69.24C212.607 69.24 208.769 73.914 208.769 79.424C208.769 84.744 212.417 89.532 218.915 89.532C225.793 89.532 229.251 84.744 229.251 79.386C229.251 74.294 225.755 69.24 219.105 69.24ZM218.953 72.204C223.209 72.204 225.527 75.586 225.527 79.462C225.527 83.3 223.437 86.606 219.029 86.606C214.811 86.606 212.455 83.072 212.455 79.424C212.455 75.548 214.583 72.204 218.953 72.204ZM231.867 69.772L238.175 89H242.089C244.787 81.552 246.725 75.738 247.219 73.876H247.257C247.903 76.118 250.107 82.274 252.387 89H256.149L262.799 69.772H259.189C255.997 79.614 254.781 83.718 254.363 85.58H254.325C253.983 84.022 253.033 81.134 249.157 69.772H245.699C241.709 81.286 240.911 83.794 240.379 85.77H240.341C239.885 83.68 239.125 81.02 235.629 69.772H231.867ZM277.825 89H281.435V78.74C281.435 75.092 282.841 72.242 286.451 72.242C289.871 72.242 290.631 74.826 290.631 77.106V89H294.241V78.474C294.241 74.332 296.217 72.242 299.295 72.242C302.715 72.242 303.437 75.016 303.437 77.258V89H307.009V77.144C307.009 71.444 303.931 69.24 300.131 69.24C296.331 69.24 294.545 71.292 293.519 72.926C292.683 70.76 290.783 69.24 287.629 69.24C284.247 69.24 282.385 71.026 281.397 72.66C281.435 71.672 281.397 70.57 281.283 69.772H277.787C277.825 71.444 277.825 73.078 277.825 74.75V89ZM331.011 69.772H327.401V78.474C327.401 84.098 325.615 86.492 321.473 86.492C318.015 86.492 316.875 83.946 316.875 81.058V69.772H313.265V81.704C313.265 87.328 316.419 89.532 320.485 89.532C324.703 89.532 326.451 87.936 327.401 85.77C327.401 87.138 327.477 88.468 327.553 89H331.011C330.973 87.138 331.011 85.276 331.011 83.414V69.772ZM351.642 82.996C350.692 85.2 348.982 86.606 345.866 86.606C341.686 86.606 339.406 83.414 339.406 79.386C339.406 75.206 341.8 72.166 345.828 72.166C349.438 72.166 350.958 74.142 351.604 75.928H355.214C354.796 73.382 352.364 69.24 345.904 69.24C339.444 69.24 335.72 73.99 335.72 79.462C335.72 84.934 339.026 89.532 345.828 89.532C351.3 89.532 354.34 86.492 355.29 82.996H351.642ZM359.985 60.462V89H363.633V79.576C363.633 75.548 365.571 72.28 369.637 72.28C373.209 72.28 374.387 74.712 374.387 77.942V89H377.997V77.41C377.997 71.938 375.109 69.24 370.701 69.24C366.065 69.24 364.279 71.824 363.595 73.23V60.462H359.985ZM392.921 69.772L399.229 89H403.143C405.841 81.552 407.779 75.738 408.273 73.876H408.311C408.957 76.118 411.161 82.274 413.441 89H417.203L423.853 69.772H420.243C417.051 79.614 415.835 83.718 415.417 85.58H415.379C415.037 84.022 414.087 81.134 410.211 69.772H406.753C402.763 81.286 401.965 83.794 401.433 85.77H401.395C400.939 83.68 400.179 81.02 396.683 69.772H392.921ZM436.529 69.24C430.031 69.24 426.193 73.914 426.193 79.424C426.193 84.744 429.841 89.532 436.339 89.532C443.217 89.532 446.675 84.744 446.675 79.386C446.675 74.294 443.179 69.24 436.529 69.24ZM436.377 72.204C440.633 72.204 442.951 75.586 442.951 79.462C442.951 83.3 440.861 86.606 436.453 86.606C432.235 86.606 429.879 83.072 429.879 79.424C429.879 75.548 432.007 72.204 436.377 72.204ZM469.095 69.772H465.485V78.474C465.485 84.098 463.699 86.492 459.557 86.492C456.099 86.492 454.959 83.946 454.959 81.058V69.772H451.349V81.704C451.349 87.328 454.503 89.532 458.569 89.532C462.787 89.532 464.535 87.936 465.485 85.77C465.485 87.138 465.561 88.468 465.637 89H469.095C469.057 87.138 469.095 85.276 469.095 83.414V69.772ZM478.858 89V60.462H475.21V89H478.858ZM499.942 60.462V72.204C499.41 71.292 497.852 69.24 493.33 69.24C488.314 69.24 483.564 73.23 483.564 79.576C483.564 85.39 487.326 89.532 492.874 89.532C497.32 89.532 498.992 87.746 499.942 86.074C499.942 87.062 499.98 88.202 500.094 89H503.628C503.59 87.176 503.59 85.276 503.59 83.414V60.462H499.942ZM493.786 72.28C498.612 72.28 500.094 75.092 500.094 79.348C500.094 83.566 498.232 86.53 493.634 86.53C489.454 86.53 487.288 83.034 487.288 79.5C487.288 75.852 489.416 72.28 493.786 72.28ZM518.458 69.772L527.35 89.912C525.602 93.674 524.614 94.738 522.03 94.738C521.536 94.738 520.662 94.7 519.902 94.586V97.778C520.586 97.892 521.726 97.968 522.41 97.968C527.236 97.968 528.49 96.296 531.91 88.05L539.434 69.772H535.672C532.024 78.816 530.048 84.364 529.364 86.226H529.326C528.756 84.63 526.514 79.234 522.448 69.772H518.458ZM551.865 69.24C545.367 69.24 541.529 73.914 541.529 79.424C541.529 84.744 545.177 89.532 551.675 89.532C558.553 89.532 562.011 84.744 562.011 79.386C562.011 74.294 558.515 69.24 551.865 69.24ZM551.713 72.204C555.969 72.204 558.287 75.586 558.287 79.462C558.287 83.3 556.197 86.606 551.789 86.606C547.571 86.606 545.215 83.072 545.215 79.424C545.215 75.548 547.343 72.204 551.713 72.204ZM584.431 69.772H580.821V78.474C580.821 84.098 579.035 86.492 574.893 86.492C571.435 86.492 570.295 83.946 570.295 81.058V69.772H566.685V81.704C566.685 87.328 569.839 89.532 573.905 89.532C578.123 89.532 579.871 87.936 580.821 85.77C580.821 87.138 580.897 88.468 580.973 89H584.431C584.393 87.138 584.431 85.276 584.431 83.414V69.772ZM605.438 89V60.462H601.79V89H605.438ZM611.699 89H615.309V69.772H611.699V89ZM611.699 64.794H615.309V60.462H611.699V64.794ZM625.254 60.462H621.606V89H625.254V82.198L628.864 79.31L636.768 89H641.366L631.524 77.258L640.416 69.772H635.856C632.854 72.394 627.268 77.144 625.254 79.006V60.462ZM662.19 80.26C662.19 79.88 662.19 79.614 662.19 79.31C662.19 74.598 659.606 69.24 652.31 69.24C646.268 69.24 642.392 73.648 642.392 79.462C642.392 84.516 645.508 89.532 652.424 89.532C658.162 89.532 660.898 86.416 661.924 83.528H658.314C657.288 85.428 655.616 86.644 652.614 86.644C648.7 86.644 646.23 83.946 646.002 80.26H662.19ZM646.078 77.676C646.42 74.522 648.358 72.052 652.31 72.052C657.06 72.052 658.276 75.396 658.428 77.676H646.078ZM675.618 72.622H679.418V83.642C679.418 87.404 680.634 89.19 684.624 89.19C685.726 89.19 686.714 89.152 687.588 88.848V86.188C687.018 86.34 686.258 86.34 685.688 86.34C683.598 86.34 683.028 85.352 683.028 83.148V72.622H688.044V69.772H683.028V63.578H679.418V69.772H675.618V72.622ZM700.747 69.24C694.249 69.24 690.411 73.914 690.411 79.424C690.411 84.744 694.059 89.532 700.557 89.532C707.435 89.532 710.893 84.744 710.893 79.386C710.893 74.294 707.397 69.24 700.747 69.24ZM700.595 72.204C704.851 72.204 707.169 75.586 707.169 79.462C707.169 83.3 705.079 86.606 700.671 86.606C696.453 86.606 694.097 83.072 694.097 79.424C694.097 75.548 696.225 72.204 700.595 72.204ZM726.887 89H730.497V69.772H726.887V89ZM726.887 64.794H730.497V60.462H726.887V64.794ZM736.608 89H740.256V79.804C740.256 75.358 742.232 72.28 746.222 72.28C749.794 72.28 751.01 74.788 751.01 77.98V89H754.658V77.296C754.658 72.052 751.732 69.24 747.21 69.24C743.068 69.24 741.092 71.482 740.256 73.344C740.218 72.052 740.18 70.456 740.104 69.772H736.57C736.608 71.216 736.608 73.002 736.608 74.636V89ZM757.589 69.772L766.063 89H770.015L778.451 69.772H774.727C770.015 80.792 768.723 84.06 768.191 85.694H768.153C767.431 83.604 763.251 74.218 761.503 69.772H757.589ZM800.088 80.26C800.088 79.88 800.088 79.614 800.088 79.31C800.088 74.598 797.504 69.24 790.208 69.24C784.166 69.24 780.29 73.648 780.29 79.462C780.29 84.516 783.406 89.532 790.322 89.532C796.06 89.532 798.796 86.416 799.822 83.528H796.212C795.186 85.428 793.514 86.644 790.512 86.644C786.598 86.644 784.128 83.946 783.9 80.26H800.088ZM783.976 77.676C784.318 74.522 786.256 72.052 790.208 72.052C794.958 72.052 796.174 75.396 796.326 77.676H783.976ZM803.289 83.186C803.973 87.176 807.241 89.532 812.827 89.532C819.059 89.532 821.681 86.986 821.681 83.528C821.681 80.678 820.313 78.436 813.093 77.448C808.685 76.878 807.811 76.042 807.811 74.598C807.811 73.496 808.533 71.976 812.105 71.976C816.323 71.976 817.121 73.838 817.425 75.016H821.035C820.845 72.698 818.983 69.24 812.295 69.24C806.177 69.24 804.163 72.432 804.163 74.902C804.163 77.296 805.455 79.652 812.219 80.526C817.083 81.096 818.071 82.198 818.071 83.794C818.071 85.504 816.741 86.796 813.055 86.796C809.597 86.796 807.621 85.466 806.937 83.186H803.289ZM823.684 72.622H827.484V83.642C827.484 87.404 828.7 89.19 832.69 89.19C833.792 89.19 834.78 89.152 835.654 88.848V86.188C835.084 86.34 834.324 86.34 833.754 86.34C831.664 86.34 831.094 85.352 831.094 83.148V72.622H836.11V69.772H831.094V63.578H827.484V69.772H823.684V72.622ZM852.519 80.83V80.64C852.519 78.93 853.279 77.714 855.673 75.928C859.131 73.344 860.271 71.786 860.271 68.708C860.271 65.212 857.611 61.412 851.189 61.412C843.551 61.412 841.765 66.466 841.423 69.05H845.033C845.641 65.972 847.655 64.3 851.075 64.3C854.913 64.3 856.585 66.466 856.585 68.822C856.547 70.798 855.749 71.786 852.975 73.876C849.327 76.65 848.795 78.398 848.795 80.412V80.83H852.519ZM852.519 89.038V83.794H848.795V89.038H852.519Z" fill="#F7F7F3"/>
<path d="M181.04 133H182.858V121.75H187.736V120.22H176.162V121.75H181.04V133ZM189.428 119.482V133H191.156V128.536C191.156 126.628 192.074 125.08 194 125.08C195.692 125.08 196.25 126.232 196.25 127.762V133H197.96V127.51C197.96 124.918 196.592 123.64 194.504 123.64C192.308 123.64 191.462 124.864 191.138 125.53V119.482H189.428ZM200.96 133H202.67V123.892H200.96V133ZM200.96 121.534H202.67V119.482H200.96V121.534ZM204.824 130.246C205.148 132.136 206.696 133.252 209.342 133.252C212.294 133.252 213.536 132.046 213.536 130.408C213.536 129.058 212.888 127.996 209.468 127.528C207.38 127.258 206.966 126.862 206.966 126.178C206.966 125.656 207.308 124.936 209 124.936C210.998 124.936 211.376 125.818 211.52 126.376H213.23C213.14 125.278 212.258 123.64 209.09 123.64C206.192 123.64 205.238 125.152 205.238 126.322C205.238 127.456 205.85 128.572 209.054 128.986C211.358 129.256 211.826 129.778 211.826 130.534C211.826 131.344 211.196 131.956 209.45 131.956C207.812 131.956 206.876 131.326 206.552 130.246H204.824ZM221.104 133H222.814V123.892H221.104V133ZM221.104 121.534H222.814V119.482H221.104V121.534ZM224.969 130.246C225.293 132.136 226.841 133.252 229.487 133.252C232.439 133.252 233.681 132.046 233.681 130.408C233.681 129.058 233.033 127.996 229.613 127.528C227.525 127.258 227.111 126.862 227.111 126.178C227.111 125.656 227.453 124.936 229.145 124.936C231.143 124.936 231.521 125.818 231.665 126.376H233.375C233.285 125.278 232.403 123.64 229.235 123.64C226.337 123.64 225.383 125.152 225.383 126.322C225.383 127.456 225.995 128.572 229.199 128.986C231.503 129.256 231.971 129.778 231.971 130.534C231.971 131.344 231.341 131.956 229.595 131.956C227.957 131.956 227.021 131.326 226.697 130.246H224.969ZM249.223 126.772C249.223 125.26 248.485 123.64 245.173 123.64C242.041 123.64 241.231 125.35 241.123 126.556H242.833C243.013 125.71 243.427 124.954 245.173 124.954C247.117 124.954 247.531 125.872 247.531 126.88V127.348C247.225 127.348 246.415 127.348 245.317 127.348C242.725 127.348 240.601 127.996 240.601 130.336C240.601 131.704 241.555 133.252 244.129 133.252C246.055 133.252 247.081 132.622 247.567 131.668C247.567 131.974 247.603 132.676 247.675 133H249.295C249.277 132.802 249.223 131.65 249.223 130.75V126.772ZM247.531 128.968C247.531 130.498 246.883 131.92 244.471 131.92C242.959 131.92 242.293 131.146 242.293 130.246C242.293 129.022 243.265 128.572 245.353 128.572C246.649 128.572 247.261 128.572 247.531 128.572V128.968ZM252.217 133H253.945V128.644C253.945 126.538 254.881 125.08 256.771 125.08C258.463 125.08 259.039 126.268 259.039 127.78V133H260.767V127.456C260.767 124.972 259.381 123.64 257.239 123.64C255.277 123.64 254.341 124.702 253.945 125.584C253.927 124.972 253.909 124.216 253.873 123.892H252.199C252.217 124.576 252.217 125.422 252.217 126.196V133ZM268.935 133H270.645V123.892H268.935V133ZM268.935 121.534H270.645V119.482H268.935V121.534ZM273.54 133H275.25V128.14C275.25 126.412 275.916 125.062 277.626 125.062C279.246 125.062 279.606 126.286 279.606 127.366V133H281.316V128.014C281.316 126.052 282.252 125.062 283.71 125.062C285.33 125.062 285.672 126.376 285.672 127.438V133H287.364V127.384C287.364 124.684 285.906 123.64 284.106 123.64C282.306 123.64 281.46 124.612 280.974 125.386C280.578 124.36 279.678 123.64 278.184 123.64C276.582 123.64 275.7 124.486 275.232 125.26C275.25 124.792 275.232 124.27 275.178 123.892H273.522C273.54 124.684 273.54 125.458 273.54 126.25V133ZM295.294 133.252C297.76 133.252 299.812 131.272 299.812 128.302C299.812 125.656 298.03 123.64 295.582 123.64C293.674 123.64 292.612 124.522 292.072 125.476C292.072 124.774 292.054 124.162 292.018 123.892H290.344C290.362 124.648 290.362 125.422 290.362 126.178V136.996H292.072V131.668C292.558 132.442 293.404 133.252 295.294 133.252ZM295.024 131.812C293.026 131.812 292.018 130.408 292.018 128.5C292.018 126.592 292.954 125.08 295.06 125.08C297.112 125.08 298.048 126.754 298.048 128.374C298.048 130.192 297.04 131.812 295.024 131.812ZM306.281 123.64C303.203 123.64 301.385 125.854 301.385 128.464C301.385 130.984 303.113 133.252 306.191 133.252C309.449 133.252 311.087 130.984 311.087 128.446C311.087 126.034 309.431 123.64 306.281 123.64ZM306.209 125.044C308.225 125.044 309.323 126.646 309.323 128.482C309.323 130.3 308.333 131.866 306.245 131.866C304.247 131.866 303.131 130.192 303.131 128.464C303.131 126.628 304.139 125.044 306.209 125.044ZM313.337 133H315.047V129.202C315.047 126.52 316.631 125.26 318.737 125.296V123.658C316.955 123.64 315.641 124.558 315.047 125.944C315.047 125.134 315.011 124.162 314.975 123.892H313.319C313.337 124.72 313.337 125.548 313.337 126.376V133ZM319.972 125.242H321.772V130.462C321.772 132.244 322.348 133.09 324.238 133.09C324.76 133.09 325.228 133.072 325.642 132.928V131.668C325.372 131.74 325.012 131.74 324.742 131.74C323.752 131.74 323.482 131.272 323.482 130.228V125.242H325.858V123.892H323.482V120.958H321.772V123.892H319.972V125.242ZM335.778 126.772C335.778 125.26 335.04 123.64 331.728 123.64C328.596 123.64 327.786 125.35 327.678 126.556H329.388C329.568 125.71 329.982 124.954 331.728 124.954C333.672 124.954 334.086 125.872 334.086 126.88V127.348C333.78 127.348 332.97 127.348 331.872 127.348C329.28 127.348 327.156 127.996 327.156 130.336C327.156 131.704 328.11 133.252 330.684 133.252C332.61 133.252 333.636 132.622 334.122 131.668C334.122 131.974 334.158 132.676 334.23 133H335.85C335.832 132.802 335.778 131.65 335.778 130.75V126.772ZM334.086 128.968C334.086 130.498 333.438 131.92 331.026 131.92C329.514 131.92 328.848 131.146 328.848 130.246C328.848 129.022 329.82 128.572 331.908 128.572C333.204 128.572 333.816 128.572 334.086 128.572V128.968ZM338.772 133H340.5V128.644C340.5 126.538 341.436 125.08 343.326 125.08C345.018 125.08 345.594 126.268 345.594 127.78V133H347.322V127.456C347.322 124.972 345.936 123.64 343.794 123.64C341.832 123.64 340.896 124.702 340.5 125.584C340.482 124.972 340.464 124.216 340.428 123.892H338.754C338.772 124.576 338.772 125.422 338.772 126.196V133ZM348.87 125.242H350.67V130.462C350.67 132.244 351.246 133.09 353.136 133.09C353.658 133.09 354.126 133.072 354.54 132.928V131.668C354.27 131.74 353.91 131.74 353.64 131.74C352.65 131.74 352.38 131.272 352.38 130.228V125.242H354.756V123.892H352.38V120.958H350.67V123.892H348.87V125.242ZM362.046 133H363.756V123.892H362.046V133ZM362.046 121.534H363.756V119.482H362.046V121.534ZM366.651 133H368.379V128.644C368.379 126.538 369.315 125.08 371.205 125.08C372.897 125.08 373.473 126.268 373.473 127.78V133H375.201V127.456C375.201 124.972 373.815 123.64 371.673 123.64C369.711 123.64 368.775 124.702 368.379 125.584C368.361 124.972 368.343 124.216 368.307 123.892H366.633C366.651 124.576 366.651 125.422 366.651 126.196V133ZM380.31 133V125.242H382.434V123.892H380.31V122.758C380.31 121.3 380.67 120.76 381.876 120.76C382.11 120.76 382.452 120.796 382.704 120.85V119.446C382.452 119.374 382.074 119.338 381.624 119.338C379.5 119.338 378.582 120.598 378.582 122.668V123.892H376.89V125.242H378.582V133H380.31ZM388.16 123.64C385.082 123.64 383.264 125.854 383.264 128.464C383.264 130.984 384.992 133.252 388.07 133.252C391.328 133.252 392.966 130.984 392.966 128.446C392.966 126.034 391.31 123.64 388.16 123.64ZM388.088 125.044C390.104 125.044 391.202 126.646 391.202 128.482C391.202 130.3 390.212 131.866 388.124 131.866C386.126 131.866 385.01 130.192 385.01 128.464C385.01 126.628 386.018 125.044 388.088 125.044ZM395.216 133H396.926V129.202C396.926 126.52 398.51 125.26 400.616 125.296V123.658C398.834 123.64 397.52 124.558 396.926 125.944C396.926 125.134 396.89 124.162 396.854 123.892H395.198C395.216 124.72 395.216 125.548 395.216 126.376V133ZM402.387 133H404.097V128.14C404.097 126.412 404.763 125.062 406.473 125.062C408.093 125.062 408.453 126.286 408.453 127.366V133H410.163V128.014C410.163 126.052 411.099 125.062 412.557 125.062C414.177 125.062 414.519 126.376 414.519 127.438V133H416.211V127.384C416.211 124.684 414.753 123.64 412.953 123.64C411.153 123.64 410.307 124.612 409.821 125.386C409.425 124.36 408.525 123.64 407.031 123.64C405.429 123.64 404.547 124.486 404.079 125.26C404.097 124.792 404.079 124.27 404.025 123.892H402.369C402.387 124.684 402.387 125.458 402.387 126.25V133ZM427.026 126.772C427.026 125.26 426.288 123.64 422.976 123.64C419.844 123.64 419.034 125.35 418.926 126.556H420.636C420.816 125.71 421.23 124.954 422.976 124.954C424.92 124.954 425.334 125.872 425.334 126.88V127.348C425.028 127.348 424.218 127.348 423.12 127.348C420.528 127.348 418.404 127.996 418.404 130.336C418.404 131.704 419.358 133.252 421.932 133.252C423.858 133.252 424.884 132.622 425.37 131.668C425.37 131.974 425.406 132.676 425.478 133H427.098C427.08 132.802 427.026 131.65 427.026 130.75V126.772ZM425.334 128.968C425.334 130.498 424.686 131.92 422.274 131.92C420.762 131.92 420.096 131.146 420.096 130.246C420.096 129.022 421.068 128.572 423.156 128.572C424.452 128.572 425.064 128.572 425.334 128.572V128.968ZM428.534 125.242H430.334V130.462C430.334 132.244 430.91 133.09 432.8 133.09C433.322 133.09 433.79 133.072 434.204 132.928V131.668C433.934 131.74 433.574 131.74 433.304 131.74C432.314 131.74 432.044 131.272 432.044 130.228V125.242H434.42V123.892H432.044V120.958H430.334V123.892H428.534V125.242ZM436.437 133H438.147V123.892H436.437V133ZM436.437 121.534H438.147V119.482H436.437V121.534ZM445.272 123.64C442.194 123.64 440.376 125.854 440.376 128.464C440.376 130.984 442.104 133.252 445.182 133.252C448.44 133.252 450.078 130.984 450.078 128.446C450.078 126.034 448.422 123.64 445.272 123.64ZM445.2 125.044C447.216 125.044 448.314 126.646 448.314 128.482C448.314 130.3 447.324 131.866 445.236 131.866C443.238 131.866 442.122 130.192 442.122 128.464C442.122 126.628 443.13 125.044 445.2 125.044ZM452.309 133H454.037V128.644C454.037 126.538 454.973 125.08 456.863 125.08C458.555 125.08 459.131 126.268 459.131 127.78V133H460.859V127.456C460.859 124.972 459.473 123.64 457.331 123.64C455.369 123.64 454.433 124.702 454.037 125.584C454.019 124.972 454.001 124.216 453.965 123.892H452.291C452.309 124.576 452.309 125.422 452.309 126.196V133ZM464.092 135.466C465.028 133.972 465.694 131.614 465.856 130.066H464.092C463.948 131.65 463.57 133.342 462.598 135.466H464.092ZM472.305 123.892L475.293 133H477.147C478.425 129.472 479.343 126.718 479.577 125.836H479.595C479.901 126.898 480.945 129.814 482.025 133H483.807L486.957 123.892H485.247C483.735 128.554 483.159 130.498 482.961 131.38H482.943C482.781 130.642 482.331 129.274 480.495 123.892H478.857C476.967 129.346 476.589 130.534 476.337 131.47H476.319C476.103 130.48 475.743 129.22 474.087 123.892H472.305ZM497.443 128.86C497.443 128.68 497.443 128.554 497.443 128.41C497.443 126.178 496.219 123.64 492.763 123.64C489.901 123.64 488.065 125.728 488.065 128.482C488.065 130.876 489.541 133.252 492.817 133.252C495.535 133.252 496.831 131.776 497.317 130.408H495.607C495.121 131.308 494.329 131.884 492.907 131.884C491.053 131.884 489.883 130.606 489.775 128.86H497.443ZM489.811 127.636C489.973 126.142 490.891 124.972 492.763 124.972C495.013 124.972 495.589 126.556 495.661 127.636H489.811ZM512.948 126.772C512.948 125.26 512.21 123.64 508.898 123.64C505.766 123.64 504.956 125.35 504.848 126.556H506.558C506.738 125.71 507.152 124.954 508.898 124.954C510.842 124.954 511.256 125.872 511.256 126.88V127.348C510.95 127.348 510.14 127.348 509.042 127.348C506.45 127.348 504.326 127.996 504.326 130.336C504.326 131.704 505.28 133.252 507.854 133.252C509.78 133.252 510.806 132.622 511.292 131.668C511.292 131.974 511.328 132.676 511.4 133H513.02C513.002 132.802 512.948 131.65 512.948 130.75V126.772ZM511.256 128.968C511.256 130.498 510.608 131.92 508.196 131.92C506.684 131.92 506.018 131.146 506.018 130.246C506.018 129.022 506.99 128.572 509.078 128.572C510.374 128.572 510.986 128.572 511.256 128.572V128.968ZM515.026 130.246C515.35 132.136 516.898 133.252 519.544 133.252C522.496 133.252 523.738 132.046 523.738 130.408C523.738 129.058 523.09 127.996 519.67 127.528C517.582 127.258 517.168 126.862 517.168 126.178C517.168 125.656 517.51 124.936 519.202 124.936C521.2 124.936 521.578 125.818 521.722 126.376H523.432C523.342 125.278 522.46 123.64 519.292 123.64C516.394 123.64 515.44 125.152 515.44 126.322C515.44 127.456 516.052 128.572 519.256 128.986C521.56 129.256 522.028 129.778 522.028 130.534C522.028 131.344 521.398 131.956 519.652 131.956C518.014 131.956 517.078 131.326 516.754 130.246H515.026ZM527.654 119.482H525.926V133H527.654V129.778L529.364 128.41L533.108 133H535.286L530.624 127.438L534.836 123.892H532.676C531.254 125.134 528.608 127.384 527.654 128.266V119.482ZM549.985 126.772C549.985 125.26 549.247 123.64 545.935 123.64C542.803 123.64 541.993 125.35 541.885 126.556H543.595C543.775 125.71 544.189 124.954 545.935 124.954C547.879 124.954 548.293 125.872 548.293 126.88V127.348C547.987 127.348 547.177 127.348 546.079 127.348C543.487 127.348 541.363 127.996 541.363 130.336C541.363 131.704 542.317 133.252 544.891 133.252C546.817 133.252 547.843 132.622 548.329 131.668C548.329 131.974 548.365 132.676 548.437 133H550.057C550.039 132.802 549.985 131.65 549.985 130.75V126.772ZM548.293 128.968C548.293 130.498 547.645 131.92 545.233 131.92C543.721 131.92 543.055 131.146 543.055 130.246C543.055 129.022 544.027 128.572 546.115 128.572C547.411 128.572 548.023 128.572 548.293 128.572V128.968ZM552.926 129.868C552.926 130.912 552.926 131.848 552.908 133H554.564C554.582 132.694 554.6 132.046 554.6 131.596C555.068 132.424 555.968 133.252 557.912 133.252C560.504 133.252 562.412 131.344 562.412 128.302C562.412 125.638 560.576 123.64 558.02 123.64C556.076 123.64 555.104 124.594 554.654 125.314V119.482H552.926V129.868ZM557.66 131.812C555.77 131.812 554.582 130.516 554.582 128.446C554.582 126.538 555.572 125.08 557.642 125.08C559.766 125.08 560.648 126.808 560.648 128.356C560.648 130.156 559.784 131.812 557.66 131.812ZM568.881 123.64C565.803 123.64 563.985 125.854 563.985 128.464C563.985 130.984 565.713 133.252 568.791 133.252C572.049 133.252 573.687 130.984 573.687 128.446C573.687 126.034 572.031 123.64 568.881 123.64ZM568.809 125.044C570.825 125.044 571.923 126.646 571.923 128.482C571.923 130.3 570.933 131.866 568.845 131.866C566.847 131.866 565.731 130.192 565.731 128.464C565.731 126.628 566.739 125.044 568.809 125.044ZM584.307 123.892H582.597V128.014C582.597 130.678 581.751 131.812 579.789 131.812C578.151 131.812 577.611 130.606 577.611 129.238V123.892H575.901V129.544C575.901 132.208 577.395 133.252 579.321 133.252C581.319 133.252 582.147 132.496 582.597 131.47C582.597 132.118 582.633 132.748 582.669 133H584.307C584.289 132.118 584.307 131.236 584.307 130.354V123.892ZM586.263 125.242H588.063V130.462C588.063 132.244 588.639 133.09 590.529 133.09C591.051 133.09 591.519 133.072 591.933 132.928V131.668C591.663 131.74 591.303 131.74 591.033 131.74C590.043 131.74 589.773 131.272 589.773 130.228V125.242H592.149V123.892H589.773V120.958H588.063V123.892H586.263V125.242ZM599.438 133H601.148V123.892H599.438V133ZM599.438 121.534H601.148V119.482H599.438V121.534ZM603.085 125.242H604.885V130.462C604.885 132.244 605.461 133.09 607.351 133.09C607.873 133.09 608.341 133.072 608.755 132.928V131.668C608.485 131.74 608.125 131.74 607.855 131.74C606.865 131.74 606.595 131.272 606.595 130.228V125.242H608.971V123.892H606.595V120.958H604.885V123.892H603.085V125.242ZM616.243 129.868C616.243 130.912 616.243 131.848 616.225 133H617.881C617.899 132.694 617.917 132.046 617.917 131.596C618.385 132.424 619.285 133.252 621.229 133.252C623.821 133.252 625.729 131.344 625.729 128.302C625.729 125.638 623.893 123.64 621.337 123.64C619.393 123.64 618.421 124.594 617.971 125.314V119.482H616.243V129.868ZM620.977 131.812C619.087 131.812 617.899 130.516 617.899 128.446C617.899 126.538 618.889 125.08 620.959 125.08C623.083 125.08 623.965 126.808 623.965 128.356C623.965 130.156 623.101 131.812 620.977 131.812ZM636.679 128.86C636.679 128.68 636.679 128.554 636.679 128.41C636.679 126.178 635.455 123.64 631.999 123.64C629.137 123.64 627.301 125.728 627.301 128.482C627.301 130.876 628.777 133.252 632.053 133.252C634.771 133.252 636.067 131.776 636.553 130.408H634.843C634.357 131.308 633.565 131.884 632.143 131.884C630.289 131.884 629.119 130.606 629.011 128.86H636.679ZM629.047 127.636C629.209 126.142 630.127 124.972 631.999 124.972C634.249 124.972 634.825 126.556 634.897 127.636H629.047ZM645.918 130.156C645.468 131.2 644.658 131.866 643.182 131.866C641.202 131.866 640.122 130.354 640.122 128.446C640.122 126.466 641.256 125.026 643.164 125.026C644.874 125.026 645.594 125.962 645.9 126.808H647.61C647.412 125.602 646.26 123.64 643.2 123.64C640.14 123.64 638.376 125.89 638.376 128.482C638.376 131.074 639.942 133.252 643.164 133.252C645.756 133.252 647.196 131.812 647.646 130.156H645.918ZM657.879 126.772C657.879 125.26 657.141 123.64 653.829 123.64C650.697 123.64 649.887 125.35 649.779 126.556H651.489C651.669 125.71 652.083 124.954 653.829 124.954C655.773 124.954 656.187 125.872 656.187 126.88V127.348C655.881 127.348 655.071 127.348 653.973 127.348C651.381 127.348 649.257 127.996 649.257 130.336C649.257 131.704 650.211 133.252 652.785 133.252C654.711 133.252 655.737 132.622 656.223 131.668C656.223 131.974 656.259 132.676 656.331 133H657.951C657.933 132.802 657.879 131.65 657.879 130.75V126.772ZM656.187 128.968C656.187 130.498 655.539 131.92 653.127 131.92C651.615 131.92 650.949 131.146 650.949 130.246C650.949 129.022 651.921 128.572 654.009 128.572C655.305 128.572 655.917 128.572 656.187 128.572V128.968ZM669.121 123.892H667.411V128.014C667.411 130.678 666.565 131.812 664.603 131.812C662.965 131.812 662.425 130.606 662.425 129.238V123.892H660.715V129.544C660.715 132.208 662.209 133.252 664.135 133.252C666.133 133.252 666.961 132.496 667.411 131.47C667.411 132.118 667.447 132.748 667.483 133H669.121C669.103 132.118 669.121 131.236 669.121 130.354V123.892ZM671.155 130.246C671.479 132.136 673.027 133.252 675.673 133.252C678.625 133.252 679.867 132.046 679.867 130.408C679.867 129.058 679.219 127.996 675.799 127.528C673.711 127.258 673.297 126.862 673.297 126.178C673.297 125.656 673.639 124.936 675.331 124.936C677.329 124.936 677.707 125.818 677.851 126.376H679.561C679.471 125.278 678.589 123.64 675.421 123.64C672.523 123.64 671.569 125.152 671.569 126.322C671.569 127.456 672.181 128.572 675.385 128.986C677.689 129.256 678.157 129.778 678.157 130.534C678.157 131.344 677.527 131.956 675.781 131.956C674.143 131.956 673.207 131.326 672.883 130.246H671.155ZM690.732 128.86C690.732 128.68 690.732 128.554 690.732 128.41C690.732 126.178 689.508 123.64 686.052 123.64C683.19 123.64 681.354 125.728 681.354 128.482C681.354 130.876 682.83 133.252 686.106 133.252C688.824 133.252 690.12 131.776 690.606 130.408H688.896C688.41 131.308 687.618 131.884 686.196 131.884C684.342 131.884 683.172 130.606 683.064 128.86H690.732ZM683.1 127.636C683.262 126.142 684.18 124.972 686.052 124.972C688.302 124.972 688.878 126.556 688.95 127.636H683.1ZM697.147 123.892L700.135 133H701.989C703.267 129.472 704.185 126.718 704.419 125.836H704.437C704.743 126.898 705.787 129.814 706.867 133H708.649L711.799 123.892H710.089C708.577 128.554 708.001 130.498 707.803 131.38H707.785C707.623 130.642 707.173 129.274 705.337 123.892H703.699C701.809 129.346 701.431 130.534 701.179 131.47H701.161C700.945 130.48 700.585 129.22 698.929 123.892H697.147ZM722.285 128.86C722.285 128.68 722.285 128.554 722.285 128.41C722.285 126.178 721.061 123.64 717.605 123.64C714.743 123.64 712.907 125.728 712.907 128.482C712.907 130.876 714.383 133.252 717.659 133.252C720.377 133.252 721.673 131.776 722.159 130.408H720.449C719.963 131.308 719.171 131.884 717.749 131.884C715.895 131.884 714.725 130.606 714.617 128.86H722.285ZM714.653 127.636C714.815 126.142 715.733 124.972 717.605 124.972C719.855 124.972 720.431 126.556 720.503 127.636H714.653ZM728.699 123.892L731.687 133H733.541C734.819 129.472 735.737 126.718 735.971 125.836H735.989C736.295 126.898 737.339 129.814 738.419 133H740.201L743.351 123.892H741.641C740.129 128.554 739.553 130.498 739.355 131.38H739.337C739.175 130.642 738.725 129.274 736.889 123.892H735.251C733.361 129.346 732.983 130.534 732.731 131.47H732.713C732.497 130.48 732.137 129.22 730.481 123.892H728.699ZM752.995 126.772C752.995 125.26 752.257 123.64 748.945 123.64C745.812 123.64 745.003 125.35 744.895 126.556H746.605C746.785 125.71 747.199 124.954 748.945 124.954C750.889 124.954 751.303 125.872 751.303 126.88V127.348C750.997 127.348 750.187 127.348 749.089 127.348C746.497 127.348 744.373 127.996 744.373 130.336C744.373 131.704 745.327 133.252 747.901 133.252C749.827 133.252 750.853 132.622 751.339 131.668C751.339 131.974 751.375 132.676 751.447 133H753.066C753.049 132.802 752.995 131.65 752.995 130.75V126.772ZM751.303 128.968C751.303 130.498 750.655 131.92 748.243 131.92C746.731 131.92 746.065 131.146 746.065 130.246C746.065 129.022 747.037 128.572 749.125 128.572C750.421 128.572 751.033 128.572 751.303 128.572V128.968ZM755.989 133H757.717V128.644C757.717 126.538 758.653 125.08 760.543 125.08C762.235 125.08 762.811 126.268 762.811 127.78V133H764.539V127.456C764.539 124.972 763.153 123.64 761.011 123.64C759.049 123.64 758.113 124.702 757.717 125.584C757.699 124.972 757.681 124.216 757.645 123.892H755.971C755.989 124.576 755.989 125.422 755.989 126.196V133ZM766.087 125.242H767.887V130.462C767.887 132.244 768.463 133.09 770.353 133.09C770.875 133.09 771.343 133.072 771.757 132.928V131.668C771.487 131.74 771.127 131.74 770.857 131.74C769.867 131.74 769.597 131.272 769.597 130.228V125.242H771.973V123.892H769.597V120.958H767.887V123.892H766.087V125.242ZM778.093 125.242H779.893V130.462C779.893 132.244 780.469 133.09 782.359 133.09C782.881 133.09 783.349 133.072 783.763 132.928V131.668C783.493 131.74 783.133 131.74 782.863 131.74C781.873 131.74 781.603 131.272 781.603 130.228V125.242H783.979V123.892H781.603V120.958H779.893V123.892H778.093V125.242ZM789.996 123.64C786.918 123.64 785.1 125.854 785.1 128.464C785.1 130.984 786.828 133.252 789.906 133.252C793.164 133.252 794.802 130.984 794.802 128.446C794.802 126.034 793.146 123.64 789.996 123.64ZM789.924 125.044C791.94 125.044 793.038 126.646 793.038 128.482C793.038 130.3 792.048 131.866 789.96 131.866C787.962 131.866 786.846 130.192 786.846 128.464C786.846 126.628 787.854 125.044 789.924 125.044ZM804.088 119.482H802.36V133H804.088V129.778L805.798 128.41L809.542 133H811.72L807.058 127.438L811.27 123.892H809.11C807.688 125.134 805.042 127.384 804.088 128.266V119.482ZM813.1 133H814.828V128.644C814.828 126.538 815.764 125.08 817.654 125.08C819.346 125.08 819.922 126.268 819.922 127.78V133H821.65V127.456C821.65 124.972 820.264 123.64 818.122 123.64C816.16 123.64 815.224 124.702 814.828 125.584C814.81 124.972 814.792 124.216 814.756 123.892H813.082C813.1 124.576 813.1 125.422 813.1 126.196V133ZM828.774 123.64C825.696 123.64 823.878 125.854 823.878 128.464C823.878 130.984 825.606 133.252 828.684 133.252C831.942 133.252 833.58 130.984 833.58 128.446C833.58 126.034 831.924 123.64 828.774 123.64ZM828.702 125.044C830.718 125.044 831.816 126.646 831.816 128.482C831.816 130.3 830.826 131.866 828.738 131.866C826.74 131.866 825.624 130.192 825.624 128.464C825.624 126.628 826.632 125.044 828.702 125.044ZM834.819 123.892L837.807 133H839.661C840.939 129.472 841.857 126.718 842.091 125.836H842.109C842.415 126.898 843.459 129.814 844.539 133H846.321L849.471 123.892H847.761C846.249 128.554 845.673 130.498 845.475 131.38H845.457C845.295 130.642 844.845 129.274 843.009 123.892H841.371C839.481 129.346 839.103 130.534 838.851 131.47H838.833C838.617 130.48 838.257 129.22 836.601 123.892H834.819ZM856.588 119.482V133H858.316V128.536C858.316 126.628 859.234 125.08 861.16 125.08C862.852 125.08 863.41 126.232 863.41 127.762V133H865.12V127.51C865.12 124.918 863.752 123.64 861.664 123.64C859.468 123.64 858.622 124.864 858.298 125.53V119.482H856.588ZM872.262 123.64C869.184 123.64 867.366 125.854 867.366 128.464C867.366 130.984 869.094 133.252 872.172 133.252C875.43 133.252 877.068 130.984 877.068 128.446C877.068 126.034 875.412 123.64 872.262 123.64ZM872.19 125.044C874.206 125.044 875.304 126.646 875.304 128.482C875.304 130.3 874.314 131.866 872.226 131.866C870.228 131.866 869.112 130.192 869.112 128.464C869.112 126.628 870.12 125.044 872.19 125.044ZM878.307 123.892L881.295 133H883.149C884.427 129.472 885.345 126.718 885.579 125.836H885.597C885.903 126.898 886.947 129.814 888.027 133H889.809L892.959 123.892H891.249C889.737 128.554 889.161 130.498 888.963 131.38H888.945C888.783 130.642 888.333 129.274 886.497 123.892H884.859C882.969 129.346 882.591 130.534 882.339 131.47H882.321C882.105 130.48 881.745 129.22 880.089 123.892H878.307ZM906.953 130.156C906.503 131.2 905.693 131.866 904.217 131.866C902.237 131.866 901.157 130.354 901.157 128.446C901.157 126.466 902.291 125.026 904.199 125.026C905.909 125.026 906.629 125.962 906.935 126.808H908.645C908.447 125.602 907.295 123.64 904.235 123.64C901.175 123.64 899.411 125.89 899.411 128.482C899.411 131.074 900.977 133.252 904.199 133.252C906.791 133.252 908.231 131.812 908.681 130.156H906.953ZM915.1 123.64C912.022 123.64 910.204 125.854 910.204 128.464C910.204 130.984 911.932 133.252 915.01 133.252C918.268 133.252 919.906 130.984 919.906 128.446C919.906 126.034 918.25 123.64 915.1 123.64ZM915.028 125.044C917.044 125.044 918.142 126.646 918.142 128.482C918.142 130.3 917.152 131.866 915.064 131.866C913.066 131.866 911.95 130.192 911.95 128.464C911.95 126.628 912.958 125.044 915.028 125.044ZM922.137 133H923.847V128.14C923.847 126.412 924.513 125.062 926.223 125.062C927.843 125.062 928.203 126.286 928.203 127.366V133H929.913V128.014C929.913 126.052 930.849 125.062 932.307 125.062C933.927 125.062 934.269 126.376 934.269 127.438V133H935.961V127.384C935.961 124.684 934.503 123.64 932.703 123.64C930.903 123.64 930.057 124.612 929.571 125.386C929.175 124.36 928.275 123.64 926.781 123.64C925.179 123.64 924.297 124.486 923.829 125.26C923.847 124.792 923.829 124.27 923.775 123.892H922.119C922.137 124.684 922.137 125.458 922.137 126.25V133ZM938.942 133H940.652V128.14C940.652 126.412 941.318 125.062 943.028 125.062C944.648 125.062 945.008 126.286 945.008 127.366V133H946.718V128.014C946.718 126.052 947.654 125.062 949.112 125.062C950.732 125.062 951.074 126.376 951.074 127.438V133H952.766V127.384C952.766 124.684 951.308 123.64 949.508 123.64C947.708 123.64 946.862 124.612 946.376 125.386C945.98 124.36 945.08 123.64 943.586 123.64C941.984 123.64 941.102 124.486 940.634 125.26C940.652 124.792 940.634 124.27 940.58 123.892H938.924C938.942 124.684 938.942 125.458 938.942 126.25V133ZM955.765 133H957.475V123.892H955.765V133ZM955.765 121.534H957.475V119.482H955.765V121.534ZM959.411 125.242H961.211V130.462C961.211 132.244 961.787 133.09 963.677 133.09C964.199 133.09 964.667 133.072 965.081 132.928V131.668C964.811 131.74 964.451 131.74 964.181 131.74C963.191 131.74 962.921 131.272 962.921 130.228V125.242H965.297V123.892H962.921V120.958H961.211V123.892H959.411V125.242ZM975.797 128.86C975.797 128.68 975.797 128.554 975.797 128.41C975.797 126.178 974.573 123.64 971.117 123.64C968.255 123.64 966.419 125.728 966.419 128.482C966.419 130.876 967.895 133.252 971.171 133.252C973.889 133.252 975.185 131.776 975.671 130.408H973.961C973.475 131.308 972.683 131.884 971.261 131.884C969.407 131.884 968.237 130.606 968.129 128.86H975.797ZM968.165 127.636C968.327 126.142 969.245 124.972 971.117 124.972C973.367 124.972 973.943 126.556 974.015 127.636H968.165ZM985.251 119.482V125.044C984.999 124.612 984.261 123.64 982.119 123.64C979.743 123.64 977.493 125.53 977.493 128.536C977.493 131.29 979.275 133.252 981.903 133.252C984.009 133.252 984.801 132.406 985.251 131.614C985.251 132.082 985.269 132.622 985.323 133H986.997C986.979 132.136 986.979 131.236 986.979 130.354V119.482H985.251ZM982.335 125.08C984.621 125.08 985.323 126.412 985.323 128.428C985.323 130.426 984.441 131.83 982.263 131.83C980.283 131.83 979.257 130.174 979.257 128.5C979.257 126.772 980.265 125.08 982.335 125.08ZM994.022 123.892L998.234 133.432C997.406 135.214 996.938 135.718 995.714 135.718C995.48 135.718 995.066 135.7 994.706 135.646V137.158C995.03 137.212 995.57 137.248 995.894 137.248C998.18 137.248 998.774 136.456 1000.39 132.55L1003.96 123.892H1002.18C1000.45 128.176 999.512 130.804 999.188 131.686H999.17C998.9 130.93 997.838 128.374 995.912 123.892H994.022ZM1009.85 123.64C1006.77 123.64 1004.95 125.854 1004.95 128.464C1004.95 130.984 1006.68 133.252 1009.76 133.252C1013.01 133.252 1014.65 130.984 1014.65 128.446C1014.65 126.034 1013 123.64 1009.85 123.64ZM1009.77 125.044C1011.79 125.044 1012.89 126.646 1012.89 128.482C1012.89 130.3 1011.9 131.866 1009.81 131.866C1007.81 131.866 1006.7 130.192 1006.7 128.464C1006.7 126.628 1007.7 125.044 1009.77 125.044ZM1025.27 123.892H1023.56V128.014C1023.56 130.678 1022.72 131.812 1020.75 131.812C1019.12 131.812 1018.58 130.606 1018.58 129.238V123.892H1016.87V129.544C1016.87 132.208 1018.36 133.252 1020.29 133.252C1022.28 133.252 1023.11 132.496 1023.56 131.47C1023.56 132.118 1023.6 132.748 1023.63 133H1025.27C1025.25 132.118 1025.27 131.236 1025.27 130.354V123.892ZM1041.49 126.772C1041.49 125.26 1040.75 123.64 1037.44 123.64C1034.3 123.64 1033.49 125.35 1033.39 126.556H1035.1C1035.28 125.71 1035.69 124.954 1037.44 124.954C1039.38 124.954 1039.79 125.872 1039.79 126.88V127.348C1039.49 127.348 1038.68 127.348 1037.58 127.348C1034.99 127.348 1032.86 127.996 1032.86 130.336C1032.86 131.704 1033.82 133.252 1036.39 133.252C1038.32 133.252 1039.34 132.622 1039.83 131.668C1039.83 131.974 1039.87 132.676 1039.94 133H1041.56C1041.54 132.802 1041.49 131.65 1041.49 130.75V126.772ZM1039.79 128.968C1039.79 130.498 1039.15 131.92 1036.73 131.92C1035.22 131.92 1034.56 131.146 1034.56 130.246C1034.56 129.022 1035.53 128.572 1037.62 128.572C1038.91 128.572 1039.52 128.572 1039.79 128.572V128.968ZM1044.5 133H1046.21V129.202C1046.21 126.52 1047.79 125.26 1049.9 125.296V123.658C1048.12 123.64 1046.8 124.558 1046.21 125.944C1046.21 125.134 1046.17 124.162 1046.14 123.892H1044.48C1044.5 124.72 1044.5 125.548 1044.5 126.376V133ZM1060.26 128.86C1060.26 128.68 1060.26 128.554 1060.26 128.41C1060.26 126.178 1059.04 123.64 1055.58 123.64C1052.72 123.64 1050.88 125.728 1050.88 128.482C1050.88 130.876 1052.36 133.252 1055.63 133.252C1058.35 133.252 1059.65 131.776 1060.13 130.408H1058.42C1057.94 131.308 1057.15 131.884 1055.72 131.884C1053.87 131.884 1052.7 130.606 1052.59 128.86H1060.26ZM1052.63 127.636C1052.79 126.142 1053.71 124.972 1055.58 124.972C1057.83 124.972 1058.41 126.556 1058.48 127.636H1052.63ZM176.342 145.892L179.33 155H181.184C182.462 151.472 183.38 148.718 183.614 147.836H183.632C183.938 148.898 184.982 151.814 186.062 155H187.844L190.994 145.892H189.284C187.772 150.554 187.196 152.498 186.998 153.38H186.98C186.818 152.642 186.368 151.274 184.532 145.892H182.894C181.004 151.346 180.626 152.534 180.374 153.47H180.356C180.14 152.48 179.78 151.22 178.124 145.892H176.342ZM192.874 155H194.584V145.892H192.874V155ZM192.874 143.534H194.584V141.482H192.874V143.534ZM196.52 147.242H198.32V152.462C198.32 154.244 198.896 155.09 200.786 155.09C201.308 155.09 201.776 155.072 202.19 154.928V153.668C201.92 153.74 201.56 153.74 201.29 153.74C200.3 153.74 200.03 153.272 200.03 152.228V147.242H202.406V145.892H200.03V142.958H198.32V145.892H196.52V147.242ZM204.352 141.482V155H206.08V150.536C206.08 148.628 206.998 147.08 208.924 147.08C210.616 147.08 211.174 148.232 211.174 149.762V155H212.884V149.51C212.884 146.918 211.516 145.64 209.428 145.64C207.232 145.64 206.386 146.864 206.062 147.53V141.482H204.352ZM219.863 145.892L224.075 155.432C223.247 157.214 222.779 157.718 221.555 157.718C221.321 157.718 220.907 157.7 220.547 157.646V159.158C220.871 159.212 221.411 159.248 221.735 159.248C224.021 159.248 224.615 158.456 226.235 154.55L229.799 145.892H228.017C226.289 150.176 225.353 152.804 225.029 153.686H225.011C224.741 152.93 223.679 150.374 221.753 145.892H219.863ZM235.688 145.64C232.61 145.64 230.792 147.854 230.792 150.464C230.792 152.984 232.52 155.252 235.598 155.252C238.856 155.252 240.494 152.984 240.494 150.446C240.494 148.034 238.838 145.64 235.688 145.64ZM235.616 147.044C237.632 147.044 238.73 148.646 238.73 150.482C238.73 152.3 237.74 153.866 235.652 153.866C233.654 153.866 232.538 152.192 232.538 150.464C232.538 148.628 233.546 147.044 235.616 147.044ZM251.114 145.892H249.404V150.014C249.404 152.678 248.558 153.812 246.596 153.812C244.958 153.812 244.418 152.606 244.418 151.238V145.892H242.708V151.544C242.708 154.208 244.202 155.252 246.128 155.252C248.126 155.252 248.954 154.496 249.404 153.47C249.404 154.118 249.44 154.748 249.476 155H251.114C251.096 154.118 251.114 153.236 251.114 152.354V145.892ZM254.028 155H255.738V151.202C255.738 148.52 257.322 147.26 259.428 147.296V145.658C257.646 145.64 256.332 146.558 255.738 147.944C255.738 147.134 255.702 146.162 255.666 145.892H254.01C254.028 146.72 254.028 147.548 254.028 148.376V155ZM271.476 155.252C273.942 155.252 275.994 153.272 275.994 150.302C275.994 147.656 274.212 145.64 271.764 145.64C269.856 145.64 268.794 146.522 268.254 147.476C268.254 146.774 268.236 146.162 268.2 145.892H266.526C266.544 146.648 266.544 147.422 266.544 148.178V158.996H268.254V153.668C268.74 154.442 269.586 155.252 271.476 155.252ZM271.206 153.812C269.208 153.812 268.2 152.408 268.2 150.5C268.2 148.592 269.136 147.08 271.242 147.08C273.294 147.08 274.23 148.754 274.23 150.374C274.23 152.192 273.222 153.812 271.206 153.812ZM278.251 155H279.961V151.202C279.961 148.52 281.545 147.26 283.651 147.296V145.658C281.869 145.64 280.555 146.558 279.961 147.944C279.961 147.134 279.925 146.162 279.889 145.892H278.233C278.251 146.72 278.251 147.548 278.251 148.376V155ZM289.529 145.64C286.451 145.64 284.633 147.854 284.633 150.464C284.633 152.984 286.361 155.252 289.439 155.252C292.697 155.252 294.335 152.984 294.335 150.446C294.335 148.034 292.679 145.64 289.529 145.64ZM289.457 147.044C291.473 147.044 292.571 148.646 292.571 150.482C292.571 152.3 291.581 153.866 289.493 153.866C287.495 153.866 286.379 152.192 286.379 150.464C286.379 148.628 287.387 147.044 289.457 147.044ZM296.745 145.892V155.702C296.745 157.124 296.367 157.844 295.089 157.844C295.035 157.844 294.963 157.844 294.909 157.844V159.248C294.945 159.248 295.053 159.248 295.161 159.248C297.987 159.248 298.455 157.556 298.455 155.324V145.892H296.745ZM298.455 143.534V141.482H296.763V143.534H298.455ZM310.078 150.86C310.078 150.68 310.078 150.554 310.078 150.41C310.078 148.178 308.854 145.64 305.398 145.64C302.536 145.64 300.7 147.728 300.7 150.482C300.7 152.876 302.176 155.252 305.452 155.252C308.17 155.252 309.466 153.776 309.952 152.408H308.242C307.756 153.308 306.964 153.884 305.542 153.884C303.688 153.884 302.518 152.606 302.41 150.86H310.078ZM302.446 149.636C302.608 148.142 303.526 146.972 305.398 146.972C307.648 146.972 308.224 148.556 308.296 149.636H302.446ZM319.316 152.156C318.866 153.2 318.056 153.866 316.58 153.866C314.6 153.866 313.52 152.354 313.52 150.446C313.52 148.466 314.654 147.026 316.562 147.026C318.272 147.026 318.992 147.962 319.298 148.808H321.008C320.81 147.602 319.658 145.64 316.598 145.64C313.538 145.64 311.774 147.89 311.774 150.482C311.774 153.074 313.34 155.252 316.562 155.252C319.154 155.252 320.594 153.812 321.044 152.156H319.316ZM322.151 147.242H323.951V152.462C323.951 154.244 324.527 155.09 326.417 155.09C326.939 155.09 327.407 155.072 327.821 154.928V153.668C327.551 153.74 327.191 153.74 326.921 153.74C325.931 153.74 325.661 153.272 325.661 152.228V147.242H328.037V145.892H325.661V142.958H323.951V145.892H322.151V147.242ZM331.846 155V152.066H329.956V155H331.846Z" fill="#F7F7F3"/>
<path d="M18.8781 438.008C19.2301 440.024 20.8301 441.208 23.2621 441.208C25.9661 441.208 27.4541 439.88 27.4541 438.024C27.4541 436.616 26.7981 435.32 23.5341 434.68C21.3901 434.264 20.7981 433.8 20.7981 432.872C20.7981 432.12 21.2781 431.288 22.9901 431.288C24.7341 431.288 25.4381 432.008 25.6461 432.92H27.1981C27.0381 431.576 25.9661 430.072 23.1021 430.072C20.3981 430.072 19.2461 431.576 19.2461 433.016C19.2461 434.616 20.1421 435.56 23.0381 436.136C25.4381 436.632 25.8381 437.288 25.8381 438.216C25.8381 439.352 24.9101 439.96 23.3901 439.96C21.8541 439.96 20.7821 439.32 20.4301 438.008H18.8781ZM23.8061 442.68V428.856H22.7501V442.68H23.8061ZM37.5221 441V430.184H36.3861C35.8101 430.776 34.7221 431.528 33.5061 431.88V433.096C34.0501 433.016 35.3781 432.52 36.0181 432.072V441H37.5221ZM40.4329 443.192C41.2649 441.864 41.8569 439.768 42.0009 438.392H40.4329C40.3049 439.8 39.9689 441.304 39.1049 443.192H40.4329ZM47.9266 429.96C45.0626 429.96 43.6066 432.44 43.6066 435.608C43.6066 438.744 45.0306 441.224 47.8946 441.224C50.9666 441.224 52.1826 438.584 52.1826 435.496C52.1826 432.456 50.7746 429.96 47.9266 429.96ZM47.9426 431.256C49.9906 431.256 50.5986 433.48 50.5986 435.496C50.5986 437.8 49.9906 439.928 47.9106 439.928C45.8946 439.928 45.2066 437.624 45.2066 435.592C45.2066 433.064 46.0226 431.256 47.9426 431.256ZM58.3016 429.96C55.4376 429.96 53.9816 432.44 53.9816 435.608C53.9816 438.744 55.4056 441.224 58.2696 441.224C61.3416 441.224 62.5576 438.584 62.5576 435.496C62.5576 432.456 61.1496 429.96 58.3016 429.96ZM58.3176 431.256C60.3656 431.256 60.9736 433.48 60.9736 435.496C60.9736 437.8 60.3656 439.928 58.2856 439.928C56.2696 439.928 55.5816 437.624 55.5816 435.592C55.5816 433.064 56.3976 431.256 58.3176 431.256ZM68.6766 429.96C65.8126 429.96 64.3566 432.44 64.3566 435.608C64.3566 438.744 65.7806 441.224 68.6446 441.224C71.7166 441.224 72.9326 438.584 72.9326 435.496C72.9326 432.456 71.5246 429.96 68.6766 429.96ZM68.6926 431.256C70.7406 431.256 71.3486 433.48 71.3486 435.496C71.3486 437.8 70.7406 439.928 68.6606 439.928C66.6446 439.928 65.9566 437.624 65.9566 435.592C65.9566 433.064 66.7726 431.256 68.6926 431.256ZM78.8419 434.104H80.4419V438.744C80.4419 440.328 80.9539 441.08 82.6339 441.08C83.0979 441.08 83.5139 441.064 83.8819 440.936V439.816C83.6419 439.88 83.3219 439.88 83.0819 439.88C82.2019 439.88 81.9619 439.464 81.9619 438.536V434.104H84.0739V432.904H81.9619V430.296H80.4419V432.904H78.8419V434.104ZM89.4228 432.68C86.6868 432.68 85.0708 434.648 85.0708 436.968C85.0708 439.208 86.6068 441.224 89.3428 441.224C92.2388 441.224 93.6948 439.208 93.6948 436.952C93.6948 434.808 92.2228 432.68 89.4228 432.68ZM89.3588 433.928C91.1508 433.928 92.1268 435.352 92.1268 436.984C92.1268 438.6 91.2468 439.992 89.3908 439.992C87.6148 439.992 86.6228 438.504 86.6228 436.968C86.6228 435.336 87.5188 433.928 89.3588 433.928ZM99.5968 438.008C99.9488 440.024 101.549 441.208 103.981 441.208C106.685 441.208 108.173 439.88 108.173 438.024C108.173 436.616 107.517 435.32 104.253 434.68C102.109 434.264 101.517 433.8 101.517 432.872C101.517 432.12 101.997 431.288 103.709 431.288C105.453 431.288 106.157 432.008 106.365 432.92H107.917C107.757 431.576 106.685 430.072 103.821 430.072C101.117 430.072 99.9648 431.576 99.9648 433.016C99.9648 434.616 100.861 435.56 103.757 436.136C106.157 436.632 106.557 437.288 106.557 438.216C106.557 439.352 105.629 439.96 104.109 439.96C102.573 439.96 101.501 439.32 101.149 438.008H99.5968ZM104.525 442.68V428.856H103.469V442.68H104.525ZM116.209 432.872C116.449 431.976 117.025 431.224 118.561 431.224C120.097 431.224 120.737 432.04 120.737 432.92C120.737 433.912 120.193 434.52 118.449 434.52H117.761V435.816H118.609C120.353 435.816 121.201 436.568 121.201 437.8C121.201 439.32 120.097 439.976 118.689 439.976C117.169 439.976 116.241 439.224 115.953 438.088H114.401C114.689 439.704 115.873 441.224 118.625 441.224C121.265 441.224 122.801 439.848 122.801 437.848C122.801 436.056 121.457 435.304 120.657 435.112V435.08C121.313 434.888 122.321 434.312 122.321 432.856C122.321 431.432 121.249 429.96 118.609 429.96C115.889 429.96 114.897 431.64 114.705 432.872H116.209ZM125.167 443.192C125.999 441.864 126.591 439.768 126.735 438.392H125.167C125.039 439.8 124.703 441.304 123.839 443.192H125.167ZM132.661 429.96C129.797 429.96 128.341 432.44 128.341 435.608C128.341 438.744 129.765 441.224 132.629 441.224C135.701 441.224 136.917 438.584 136.917 435.496C136.917 432.456 135.509 429.96 132.661 429.96ZM132.677 431.256C134.725 431.256 135.333 433.48 135.333 435.496C135.333 437.8 134.725 439.928 132.645 439.928C130.629 439.928 129.941 437.624 129.941 435.592C129.941 433.064 130.757 431.256 132.677 431.256ZM143.036 429.96C140.172 429.96 138.716 432.44 138.716 435.608C138.716 438.744 140.14 441.224 143.004 441.224C146.076 441.224 147.292 438.584 147.292 435.496C147.292 432.456 145.884 429.96 143.036 429.96ZM143.052 431.256C145.1 431.256 145.708 433.48 145.708 435.496C145.708 437.8 145.1 439.928 143.02 439.928C141.004 439.928 140.316 437.624 140.316 435.592C140.316 433.064 141.132 431.256 143.052 431.256ZM153.411 429.96C150.547 429.96 149.091 432.44 149.091 435.608C149.091 438.744 150.515 441.224 153.379 441.224C156.451 441.224 157.667 438.584 157.667 435.496C157.667 432.456 156.259 429.96 153.411 429.96ZM153.427 431.256C155.475 431.256 156.083 433.48 156.083 435.496C156.083 437.8 155.475 439.928 153.395 439.928C151.379 439.928 150.691 437.624 150.691 435.592C150.691 433.064 151.507 431.256 153.427 431.256Z" fill="#F7F7F3"/>
<rect x="2.5" y="228.5" width="171.328" height="171" rx="28.5" stroke="#F7F7F3" stroke-width="5"/>
<circle cx="88" cy="316" r="30" stroke="#F7F7F3" stroke-width="2"/>
<path d="M241.839 438.008C242.191 440.024 243.791 441.208 246.223 441.208C248.927 441.208 250.415 439.88 250.415 438.024C250.415 436.616 249.759 435.32 246.495 434.68C244.351 434.264 243.759 433.8 243.759 432.872C243.759 432.12 244.239 431.288 245.951 431.288C247.695 431.288 248.399 432.008 248.607 432.92H250.159C249.999 431.576 248.927 430.072 246.063 430.072C243.359 430.072 242.207 431.576 242.207 433.016C242.207 434.616 243.103 435.56 245.999 436.136C248.399 436.632 248.799 437.288 248.799 438.216C248.799 439.352 247.871 439.96 246.351 439.96C244.815 439.96 243.743 439.32 243.391 438.008H241.839ZM246.767 442.68V428.856H245.711V442.68H246.767ZM258.451 432.872C258.691 431.976 259.267 431.224 260.803 431.224C262.339 431.224 262.979 432.04 262.979 432.92C262.979 433.912 262.435 434.52 260.691 434.52H260.003V435.816H260.851C262.595 435.816 263.443 436.568 263.443 437.8C263.443 439.32 262.339 439.976 260.931 439.976C259.411 439.976 258.483 439.224 258.195 438.088H256.643C256.931 439.704 258.115 441.224 260.867 441.224C263.507 441.224 265.043 439.848 265.043 437.848C265.043 436.056 263.699 435.304 262.899 435.112V435.08C263.555 434.888 264.563 434.312 264.563 432.856C264.563 431.432 263.491 429.96 260.851 429.96C258.131 429.96 257.139 431.64 256.947 432.872H258.451ZM267.41 443.192C268.242 441.864 268.834 439.768 268.978 438.392H267.41C267.282 439.8 266.946 441.304 266.082 443.192H267.41ZM274.903 429.96C272.039 429.96 270.583 432.44 270.583 435.608C270.583 438.744 272.007 441.224 274.871 441.224C277.943 441.224 279.159 438.584 279.159 435.496C279.159 432.456 277.751 429.96 274.903 429.96ZM274.919 431.256C276.967 431.256 277.575 433.48 277.575 435.496C277.575 437.8 276.967 439.928 274.887 439.928C272.871 439.928 272.183 437.624 272.183 435.592C272.183 433.064 272.999 431.256 274.919 431.256ZM285.278 429.96C282.414 429.96 280.958 432.44 280.958 435.608C280.958 438.744 282.382 441.224 285.246 441.224C288.318 441.224 289.534 438.584 289.534 435.496C289.534 432.456 288.126 429.96 285.278 429.96ZM285.294 431.256C287.342 431.256 287.95 433.48 287.95 435.496C287.95 437.8 287.342 439.928 285.262 439.928C283.246 439.928 282.558 437.624 282.558 435.592C282.558 433.064 283.374 431.256 285.294 431.256ZM295.653 429.96C292.789 429.96 291.333 432.44 291.333 435.608C291.333 438.744 292.757 441.224 295.621 441.224C298.693 441.224 299.909 438.584 299.909 435.496C299.909 432.456 298.501 429.96 295.653 429.96ZM295.669 431.256C297.717 431.256 298.325 433.48 298.325 435.496C298.325 437.8 297.717 439.928 295.637 439.928C293.621 439.928 292.933 437.624 292.933 435.592C292.933 433.064 293.749 431.256 295.669 431.256ZM305.819 434.104H307.419V438.744C307.419 440.328 307.931 441.08 309.611 441.08C310.075 441.08 310.491 441.064 310.859 440.936V439.816C310.619 439.88 310.299 439.88 310.059 439.88C309.179 439.88 308.939 439.464 308.939 438.536V434.104H311.051V432.904H308.939V430.296H307.419V432.904H305.819V434.104ZM316.399 432.68C313.663 432.68 312.047 434.648 312.047 436.968C312.047 439.208 313.583 441.224 316.319 441.224C319.215 441.224 320.671 439.208 320.671 436.952C320.671 434.808 319.199 432.68 316.399 432.68ZM316.335 433.928C318.127 433.928 319.103 435.352 319.103 436.984C319.103 438.6 318.223 439.992 316.367 439.992C314.591 439.992 313.599 438.504 313.599 436.968C313.599 435.336 314.495 433.928 316.335 433.928ZM326.573 438.008C326.925 440.024 328.525 441.208 330.957 441.208C333.661 441.208 335.149 439.88 335.149 438.024C335.149 436.616 334.493 435.32 331.229 434.68C329.085 434.264 328.493 433.8 328.493 432.872C328.493 432.12 328.973 431.288 330.685 431.288C332.429 431.288 333.133 432.008 333.341 432.92H334.893C334.733 431.576 333.661 430.072 330.797 430.072C328.093 430.072 326.941 431.576 326.941 433.016C326.941 434.616 327.837 435.56 330.733 436.136C333.133 436.632 333.533 437.288 333.533 438.216C333.533 439.352 332.605 439.96 331.085 439.96C329.549 439.96 328.477 439.32 328.125 438.008H326.573ZM331.501 442.68V428.856H330.445V442.68H331.501ZM349.505 430.184H342.769C342.625 431.432 342.113 434.76 341.809 436.232L343.137 436.456C343.569 435.624 344.225 434.952 345.809 434.952C347.713 434.952 348.305 436.248 348.305 437.384C348.305 438.92 347.377 439.96 345.713 439.96C344.305 439.96 343.441 439.32 343.089 438.2H341.585C341.841 439.768 343.105 441.224 345.697 441.224C348.305 441.224 349.857 439.624 349.857 437.304C349.857 435.128 348.353 433.704 346.145 433.704C344.769 433.704 344.001 434.12 343.521 434.568C343.633 433.928 343.873 432.44 344.017 431.496H349.313L349.505 430.184ZM352.206 443.192C353.038 441.864 353.63 439.768 353.774 438.392H352.206C352.078 439.8 351.742 441.304 350.878 443.192H352.206ZM359.7 429.96C356.836 429.96 355.38 432.44 355.38 435.608C355.38 438.744 356.804 441.224 359.668 441.224C362.74 441.224 363.956 438.584 363.956 435.496C363.956 432.456 362.548 429.96 359.7 429.96ZM359.716 431.256C361.764 431.256 362.372 433.48 362.372 435.496C362.372 437.8 361.764 439.928 359.684 439.928C357.668 439.928 356.98 437.624 356.98 435.592C356.98 433.064 357.796 431.256 359.716 431.256ZM370.075 429.96C367.211 429.96 365.755 432.44 365.755 435.608C365.755 438.744 367.179 441.224 370.043 441.224C373.115 441.224 374.331 438.584 374.331 435.496C374.331 432.456 372.923 429.96 370.075 429.96ZM370.091 431.256C372.139 431.256 372.747 433.48 372.747 435.496C372.747 437.8 372.139 439.928 370.059 439.928C368.043 439.928 367.355 437.624 367.355 435.592C367.355 433.064 368.171 431.256 370.091 431.256ZM380.45 429.96C377.586 429.96 376.13 432.44 376.13 435.608C376.13 438.744 377.554 441.224 380.418 441.224C383.49 441.224 384.706 438.584 384.706 435.496C384.706 432.456 383.298 429.96 380.45 429.96ZM380.466 431.256C382.514 431.256 383.122 433.48 383.122 435.496C383.122 437.8 382.514 439.928 380.434 439.928C378.418 439.928 377.73 437.624 377.73 435.592C377.73 433.064 378.546 431.256 380.466 431.256Z" fill="#F7F7F3"/>
<rect x="226.5" y="228.5" width="171.328" height="171" rx="28.5" stroke="#F7F7F3" stroke-width="5"/>
<circle cx="312" cy="316" r="40" stroke="#F7F7F3" stroke-width="2"/>
<circle cx="312" cy="316" r="30" stroke="#F7F7F3" stroke-width="2"/>
<path d="M462.706 438.008C463.058 440.024 464.658 441.208 467.09 441.208C469.794 441.208 471.282 439.88 471.282 438.024C471.282 436.616 470.626 435.32 467.362 434.68C465.218 434.264 464.626 433.8 464.626 432.872C464.626 432.12 465.106 431.288 466.818 431.288C468.562 431.288 469.266 432.008 469.474 432.92H471.026C470.866 431.576 469.794 430.072 466.93 430.072C464.226 430.072 463.074 431.576 463.074 433.016C463.074 434.616 463.97 435.56 466.866 436.136C469.266 436.632 469.666 437.288 469.666 438.216C469.666 439.352 468.738 439.96 467.218 439.96C465.682 439.96 464.61 439.32 464.258 438.008H462.706ZM467.634 442.68V428.856H466.578V442.68H467.634ZM485.638 430.184H478.902C478.758 431.432 478.246 434.76 477.942 436.232L479.27 436.456C479.702 435.624 480.358 434.952 481.942 434.952C483.846 434.952 484.438 436.248 484.438 437.384C484.438 438.92 483.51 439.96 481.846 439.96C480.438 439.96 479.574 439.32 479.222 438.2H477.718C477.974 439.768 479.238 441.224 481.83 441.224C484.438 441.224 485.99 439.624 485.99 437.304C485.99 435.128 484.486 433.704 482.278 433.704C480.902 433.704 480.134 434.12 479.654 434.568C479.766 433.928 480.006 432.44 480.15 431.496H485.446L485.638 430.184ZM488.339 443.192C489.171 441.864 489.763 439.768 489.907 438.392H488.339C488.211 439.8 487.875 441.304 487.011 443.192H488.339ZM495.833 429.96C492.969 429.96 491.513 432.44 491.513 435.608C491.513 438.744 492.937 441.224 495.801 441.224C498.873 441.224 500.089 438.584 500.089 435.496C500.089 432.456 498.681 429.96 495.833 429.96ZM495.849 431.256C497.897 431.256 498.505 433.48 498.505 435.496C498.505 437.8 497.897 439.928 495.817 439.928C493.801 439.928 493.113 437.624 493.113 435.592C493.113 433.064 493.929 431.256 495.849 431.256ZM506.208 429.96C503.344 429.96 501.888 432.44 501.888 435.608C501.888 438.744 503.312 441.224 506.176 441.224C509.248 441.224 510.464 438.584 510.464 435.496C510.464 432.456 509.056 429.96 506.208 429.96ZM506.224 431.256C508.272 431.256 508.88 433.48 508.88 435.496C508.88 437.8 508.272 439.928 506.192 439.928C504.176 439.928 503.488 437.624 503.488 435.592C503.488 433.064 504.304 431.256 506.224 431.256ZM516.583 429.96C513.719 429.96 512.263 432.44 512.263 435.608C512.263 438.744 513.687 441.224 516.551 441.224C519.623 441.224 520.839 438.584 520.839 435.496C520.839 432.456 519.431 429.96 516.583 429.96ZM516.599 431.256C518.647 431.256 519.255 433.48 519.255 435.496C519.255 437.8 518.647 439.928 516.567 439.928C514.551 439.928 513.863 437.624 513.863 435.592C513.863 433.064 514.679 431.256 516.599 431.256ZM526.748 434.104H528.348V438.744C528.348 440.328 528.86 441.08 530.54 441.08C531.004 441.08 531.42 441.064 531.788 440.936V439.816C531.548 439.88 531.228 439.88 530.988 439.88C530.108 439.88 529.868 439.464 529.868 438.536V434.104H531.98V432.904H529.868V430.296H528.348V432.904H526.748V434.104ZM537.329 432.68C534.593 432.68 532.977 434.648 532.977 436.968C532.977 439.208 534.513 441.224 537.249 441.224C540.145 441.224 541.601 439.208 541.601 436.952C541.601 434.808 540.129 432.68 537.329 432.68ZM537.265 433.928C539.057 433.928 540.033 435.352 540.033 436.984C540.033 438.6 539.153 439.992 537.297 439.992C535.521 439.992 534.529 438.504 534.529 436.968C534.529 435.336 535.425 433.928 537.265 433.928ZM547.503 438.008C547.855 440.024 549.455 441.208 551.887 441.208C554.591 441.208 556.079 439.88 556.079 438.024C556.079 436.616 555.423 435.32 552.159 434.68C550.015 434.264 549.423 433.8 549.423 432.872C549.423 432.12 549.903 431.288 551.615 431.288C553.359 431.288 554.063 432.008 554.271 432.92H555.823C555.663 431.576 554.591 430.072 551.727 430.072C549.023 430.072 547.871 431.576 547.871 433.016C547.871 434.616 548.767 435.56 551.663 436.136C554.063 436.632 554.463 437.288 554.463 438.216C554.463 439.352 553.535 439.96 552.015 439.96C550.479 439.96 549.407 439.32 549.055 438.008H547.503ZM552.431 442.68V428.856H551.375V442.68H552.431ZM566.147 441V430.184H565.011C564.435 430.776 563.347 431.528 562.131 431.88V433.096C562.675 433.016 564.003 432.52 564.643 432.072V441H566.147ZM572.911 429.96C570.047 429.96 568.591 432.44 568.591 435.608C568.591 438.744 570.015 441.224 572.879 441.224C575.951 441.224 577.167 438.584 577.167 435.496C577.167 432.456 575.759 429.96 572.911 429.96ZM572.927 431.256C574.975 431.256 575.583 433.48 575.583 435.496C575.583 437.8 574.975 439.928 572.895 439.928C570.879 439.928 570.191 437.624 570.191 435.592C570.191 433.064 571.007 431.256 572.927 431.256ZM579.339 443.192C580.171 441.864 580.763 439.768 580.907 438.392H579.339C579.211 439.8 578.875 441.304 578.011 443.192H579.339ZM586.833 429.96C583.969 429.96 582.513 432.44 582.513 435.608C582.513 438.744 583.937 441.224 586.801 441.224C589.873 441.224 591.089 438.584 591.089 435.496C591.089 432.456 589.681 429.96 586.833 429.96ZM586.849 431.256C588.897 431.256 589.505 433.48 589.505 435.496C589.505 437.8 588.897 439.928 586.817 439.928C584.801 439.928 584.113 437.624 584.113 435.592C584.113 433.064 584.929 431.256 586.849 431.256ZM597.208 429.96C594.344 429.96 592.888 432.44 592.888 435.608C592.888 438.744 594.312 441.224 597.176 441.224C600.248 441.224 601.464 438.584 601.464 435.496C601.464 432.456 600.056 429.96 597.208 429.96ZM597.224 431.256C599.272 431.256 599.88 433.48 599.88 435.496C599.88 437.8 599.272 439.928 597.192 439.928C595.176 439.928 594.488 437.624 594.488 435.592C594.488 433.064 595.304 431.256 597.224 431.256ZM607.583 429.96C604.719 429.96 603.263 432.44 603.263 435.608C603.263 438.744 604.687 441.224 607.551 441.224C610.623 441.224 611.839 438.584 611.839 435.496C611.839 432.456 610.431 429.96 607.583 429.96ZM607.599 431.256C609.647 431.256 610.255 433.48 610.255 435.496C610.255 437.8 609.647 439.928 607.567 439.928C605.551 439.928 604.863 437.624 604.863 435.592C604.863 433.064 605.679 431.256 607.599 431.256Z" fill="#F7F7F3"/>
<rect x="451.5" y="228.5" width="171.328" height="171" rx="28.5" stroke="#F7F7F3" stroke-width="5"/>
<circle cx="537" cy="316" r="40" stroke="#F7F7F3" stroke-width="2"/>
<circle cx="537" cy="316" r="30" stroke="#F7F7F3" stroke-width="2"/>
<line x1="537" y1="275" x2="537" y2="286" stroke="#F7F7F3" stroke-width="2"/>
<line x1="537" y1="346" x2="537" y2="357" stroke="#F7F7F3" stroke-width="2"/>
<line x1="497" y1="316" x2="508" y2="316" stroke="#F7F7F3" stroke-width="2"/>
<line x1="566" y1="316" x2="577" y2="316" stroke="#F7F7F3" stroke-width="2"/>
<path d="M681.472 438.008C681.824 440.024 683.424 441.208 685.856 441.208C688.56 441.208 690.048 439.88 690.048 438.024C690.048 436.616 689.392 435.32 686.128 434.68C683.984 434.264 683.392 433.8 683.392 432.872C683.392 432.12 683.872 431.288 685.584 431.288C687.328 431.288 688.032 432.008 688.24 432.92H689.792C689.632 431.576 688.56 430.072 685.696 430.072C682.992 430.072 681.84 431.576 681.84 433.016C681.84 434.616 682.736 435.56 685.632 436.136C688.032 436.632 688.432 437.288 688.432 438.216C688.432 439.352 687.504 439.96 685.984 439.96C684.448 439.96 683.376 439.32 683.024 438.008H681.472ZM686.4 442.68V428.856H685.344V442.68H686.4ZM700.116 441V430.184H698.98C698.404 430.776 697.316 431.528 696.1 431.88V433.096C696.644 433.016 697.972 432.52 698.612 432.072V441H700.116ZM706.88 429.96C704.016 429.96 702.56 432.44 702.56 435.608C702.56 438.744 703.984 441.224 706.848 441.224C709.92 441.224 711.136 438.584 711.136 435.496C711.136 432.456 709.728 429.96 706.88 429.96ZM706.896 431.256C708.944 431.256 709.552 433.48 709.552 435.496C709.552 437.8 708.944 439.928 706.864 439.928C704.848 439.928 704.16 437.624 704.16 435.592C704.16 433.064 704.976 431.256 706.896 431.256ZM713.308 443.192C714.14 441.864 714.732 439.768 714.876 438.392H713.308C713.18 439.8 712.844 441.304 711.98 443.192H713.308ZM720.802 429.96C717.938 429.96 716.482 432.44 716.482 435.608C716.482 438.744 717.906 441.224 720.77 441.224C723.842 441.224 725.058 438.584 725.058 435.496C725.058 432.456 723.65 429.96 720.802 429.96ZM720.818 431.256C722.866 431.256 723.474 433.48 723.474 435.496C723.474 437.8 722.866 439.928 720.786 439.928C718.77 439.928 718.082 437.624 718.082 435.592C718.082 433.064 718.898 431.256 720.818 431.256ZM731.177 429.96C728.313 429.96 726.857 432.44 726.857 435.608C726.857 438.744 728.281 441.224 731.145 441.224C734.217 441.224 735.433 438.584 735.433 435.496C735.433 432.456 734.025 429.96 731.177 429.96ZM731.193 431.256C733.241 431.256 733.849 433.48 733.849 435.496C733.849 437.8 733.241 439.928 731.161 439.928C729.145 439.928 728.457 437.624 728.457 435.592C728.457 433.064 729.273 431.256 731.193 431.256ZM741.552 429.96C738.688 429.96 737.232 432.44 737.232 435.608C737.232 438.744 738.656 441.224 741.52 441.224C744.592 441.224 745.808 438.584 745.808 435.496C745.808 432.456 744.4 429.96 741.552 429.96ZM741.568 431.256C743.616 431.256 744.224 433.48 744.224 435.496C744.224 437.8 743.616 439.928 741.536 439.928C739.52 439.928 738.832 437.624 738.832 435.592C738.832 433.064 739.648 431.256 741.568 431.256ZM751.717 434.104H753.317V438.744C753.317 440.328 753.829 441.08 755.509 441.08C755.973 441.08 756.389 441.064 756.757 440.936V439.816C756.517 439.88 756.197 439.88 755.957 439.88C755.077 439.88 754.837 439.464 754.837 438.536V434.104H756.949V432.904H754.837V430.296H753.317V432.904H751.717V434.104ZM762.298 432.68C759.562 432.68 757.946 434.648 757.946 436.968C757.946 439.208 759.482 441.224 762.218 441.224C765.114 441.224 766.57 439.208 766.57 436.952C766.57 434.808 765.098 432.68 762.298 432.68ZM762.234 433.928C764.026 433.928 765.002 435.352 765.002 436.984C765.002 438.6 764.122 439.992 762.266 439.992C760.49 439.992 759.498 438.504 759.498 436.968C759.498 435.336 760.394 433.928 762.234 433.928ZM772.472 438.008C772.824 440.024 774.424 441.208 776.856 441.208C779.56 441.208 781.048 439.88 781.048 438.024C781.048 436.616 780.392 435.32 777.128 434.68C774.984 434.264 774.392 433.8 774.392 432.872C774.392 432.12 774.872 431.288 776.584 431.288C778.328 431.288 779.032 432.008 779.24 432.92H780.792C780.632 431.576 779.56 430.072 776.696 430.072C773.992 430.072 772.84 431.576 772.84 433.016C772.84 434.616 773.736 435.56 776.632 436.136C779.032 436.632 779.432 437.288 779.432 438.216C779.432 439.352 778.504 439.96 776.984 439.96C775.448 439.96 774.376 439.32 774.024 438.008H772.472ZM777.4 442.68V428.856H776.344V442.68H777.4ZM795.308 441L795.532 439.72H789.036C789.324 438.712 790.444 437.768 792.044 436.808C794.044 435.592 795.068 434.952 795.068 433.112C795.068 431.416 793.788 429.96 791.308 429.96C788.956 429.96 787.5 431.432 787.34 433.464H788.844C789.084 431.992 789.916 431.224 791.276 431.224C792.892 431.224 793.5 432.216 793.5 433.128C793.5 434.28 792.956 434.696 790.956 435.912C788.396 437.48 787.244 439.08 787.244 440.936V441H795.308ZM804.873 430.184H798.137C797.993 431.432 797.481 434.76 797.177 436.232L798.505 436.456C798.937 435.624 799.593 434.952 801.177 434.952C803.081 434.952 803.673 436.248 803.673 437.384C803.673 438.92 802.745 439.96 801.081 439.96C799.673 439.96 798.809 439.32 798.457 438.2H796.953C797.209 439.768 798.473 441.224 801.065 441.224C803.673 441.224 805.225 439.624 805.225 437.304C805.225 435.128 803.721 433.704 801.513 433.704C800.137 433.704 799.369 434.12 798.889 434.568C799.001 433.928 799.241 432.44 799.385 431.496H804.681L804.873 430.184ZM807.574 443.192C808.406 441.864 808.998 439.768 809.142 438.392H807.574C807.446 439.8 807.11 441.304 806.246 443.192H807.574ZM815.067 429.96C812.203 429.96 810.747 432.44 810.747 435.608C810.747 438.744 812.171 441.224 815.035 441.224C818.107 441.224 819.323 438.584 819.323 435.496C819.323 432.456 817.915 429.96 815.067 429.96ZM815.083 431.256C817.131 431.256 817.739 433.48 817.739 435.496C817.739 437.8 817.131 439.928 815.051 439.928C813.035 439.928 812.347 437.624 812.347 435.592C812.347 433.064 813.163 431.256 815.083 431.256ZM825.442 429.96C822.578 429.96 821.122 432.44 821.122 435.608C821.122 438.744 822.546 441.224 825.41 441.224C828.482 441.224 829.698 438.584 829.698 435.496C829.698 432.456 828.29 429.96 825.442 429.96ZM825.458 431.256C827.506 431.256 828.114 433.48 828.114 435.496C828.114 437.8 827.506 439.928 825.426 439.928C823.41 439.928 822.722 437.624 822.722 435.592C822.722 433.064 823.538 431.256 825.458 431.256ZM835.817 429.96C832.953 429.96 831.497 432.44 831.497 435.608C831.497 438.744 832.921 441.224 835.785 441.224C838.857 441.224 840.073 438.584 840.073 435.496C840.073 432.456 838.665 429.96 835.817 429.96ZM835.833 431.256C837.881 431.256 838.489 433.48 838.489 435.496C838.489 437.8 837.881 439.928 835.801 439.928C833.785 439.928 833.097 437.624 833.097 435.592C833.097 433.064 833.913 431.256 835.833 431.256Z" fill="#F7F7F3"/>
<rect x="675.5" y="228.5" width="171.328" height="171" rx="28.5" stroke="#F7F7F3" stroke-width="5"/>
<circle cx="761" cy="316" r="40" stroke="#F7F7F3" stroke-width="2"/>
<circle cx="761" cy="316" r="30" stroke="#F7F7F3" stroke-width="2"/>
<line x1="761" y1="275" x2="761" y2="286" stroke="#F7F7F3" stroke-width="2"/>
<line x1="761" y1="346" x2="761" y2="357" stroke="#F7F7F3" stroke-width="2"/>
<line x1="721" y1="316" x2="732" y2="316" stroke="#F7F7F3" stroke-width="2"/>
<line x1="790" y1="316" x2="801" y2="316" stroke="#F7F7F3" stroke-width="2"/>
<line x1="782.293" y1="296.071" x2="790.071" y2="288.293" stroke="#F7F7F3" stroke-width="2"/>
<line x1="733.293" y1="345.071" x2="741.071" y2="337.293" stroke="#F7F7F3" stroke-width="2"/>
<line y1="-1" x2="11" y2="-1" transform="matrix(-0.707107 -0.707107 -0.707107 0.707107 739.778 295.778)" stroke="#F7F7F3" stroke-width="2"/>
<line y1="-1" x2="11" y2="-1" transform="matrix(-0.707107 -0.707107 -0.707107 0.707107 789.778 343.778)" stroke="#F7F7F3" stroke-width="2"/>
<path d="M942.44 441V436.376C942.44 434.36 942.44 432.744 942.344 431.288H942.376C943.192 432.616 947.656 438.744 949.336 441H951.16V429.64H949.656V433.912C949.656 435.768 949.64 437.56 949.736 439.032H949.704C949.064 437.864 945.416 433.208 942.856 429.64H940.936V441H942.44ZM957.657 432.68C954.921 432.68 953.305 434.648 953.305 436.968C953.305 439.208 954.841 441.224 957.577 441.224C960.473 441.224 961.929 439.208 961.929 436.952C961.929 434.808 960.457 432.68 957.657 432.68ZM957.593 433.928C959.385 433.928 960.361 435.352 960.361 436.984C960.361 438.6 959.481 439.992 957.625 439.992C955.849 439.992 954.857 438.504 954.857 436.968C954.857 435.336 955.753 433.928 957.593 433.928ZM975.751 435.464C975.751 434.12 975.095 432.68 972.151 432.68C969.367 432.68 968.647 434.2 968.551 435.272H970.071C970.231 434.52 970.599 433.848 972.151 433.848C973.879 433.848 974.247 434.664 974.247 435.56V435.976C973.975 435.976 973.255 435.976 972.279 435.976C969.975 435.976 968.087 436.552 968.087 438.632C968.087 439.848 968.935 441.224 971.223 441.224C972.935 441.224 973.847 440.664 974.279 439.816C974.279 440.088 974.311 440.712 974.375 441H975.815C975.799 440.824 975.751 439.8 975.751 439V435.464ZM974.247 437.416C974.247 438.776 973.671 440.04 971.527 440.04C970.183 440.04 969.591 439.352 969.591 438.552C969.591 437.464 970.455 437.064 972.311 437.064C973.463 437.064 974.007 437.064 974.247 437.064V437.416ZM978.413 441H979.949V437.128C979.949 435.256 980.781 433.96 982.461 433.96C983.965 433.96 984.477 435.016 984.477 436.36V441H986.013V436.072C986.013 433.864 984.781 432.68 982.877 432.68C981.133 432.68 980.301 433.624 979.949 434.408C979.933 433.864 979.917 433.192 979.885 432.904H978.397C978.413 433.512 978.413 434.264 978.413 434.952V441ZM993.273 441H994.793V432.904H993.273V441ZM993.273 430.808H994.793V428.984H993.273V430.808ZM996.708 438.552C996.996 440.232 998.372 441.224 1000.72 441.224C1003.35 441.224 1004.45 440.152 1004.45 438.696C1004.45 437.496 1003.88 436.552 1000.84 436.136C998.98 435.896 998.612 435.544 998.612 434.936C998.612 434.472 998.916 433.832 1000.42 433.832C1002.2 433.832 1002.53 434.616 1002.66 435.112H1004.18C1004.1 434.136 1003.32 432.68 1000.5 432.68C997.924 432.68 997.076 434.024 997.076 435.064C997.076 436.072 997.62 437.064 1000.47 437.432C1002.52 437.672 1002.93 438.136 1002.93 438.808C1002.93 439.528 1002.37 440.072 1000.82 440.072C999.364 440.072 998.532 439.512 998.244 438.552H996.708ZM1005.77 438.552C1006.06 440.232 1007.43 441.224 1009.79 441.224C1012.41 441.224 1013.51 440.152 1013.51 438.696C1013.51 437.496 1012.94 436.552 1009.9 436.136C1008.04 435.896 1007.67 435.544 1007.67 434.936C1007.67 434.472 1007.98 433.832 1009.48 433.832C1011.26 433.832 1011.59 434.616 1011.72 435.112H1013.24C1013.16 434.136 1012.38 432.68 1009.56 432.68C1006.99 432.68 1006.14 434.024 1006.14 435.064C1006.14 436.072 1006.68 437.064 1009.53 437.432C1011.58 437.672 1011.99 438.136 1011.99 438.808C1011.99 439.528 1011.43 440.072 1009.88 440.072C1008.43 440.072 1007.59 439.512 1007.31 438.552H1005.77ZM1022.68 432.904H1021.16V436.568C1021.16 438.936 1020.41 439.944 1018.67 439.944C1017.21 439.944 1016.73 438.872 1016.73 437.656V432.904H1015.21V437.928C1015.21 440.296 1016.54 441.224 1018.25 441.224C1020.03 441.224 1020.76 440.552 1021.16 439.64C1021.16 440.216 1021.19 440.776 1021.23 441H1022.68C1022.67 440.216 1022.68 439.432 1022.68 438.648V432.904ZM1033 437.32C1033 437.16 1033 437.048 1033 436.92C1033 434.936 1031.91 432.68 1028.84 432.68C1026.3 432.68 1024.66 434.536 1024.66 436.984C1024.66 439.112 1025.98 441.224 1028.89 441.224C1031.3 441.224 1032.46 439.912 1032.89 438.696H1031.37C1030.94 439.496 1030.23 440.008 1028.97 440.008C1027.32 440.008 1026.28 438.872 1026.18 437.32H1033ZM1026.22 436.232C1026.36 434.904 1027.18 433.864 1028.84 433.864C1030.84 433.864 1031.35 435.272 1031.42 436.232H1026.22Z" fill="#F7F7F3"/>
<rect x="900.5" y="228.5" width="171.328" height="171" rx="28.5" stroke="#F7F7F3" stroke-width="5"/>
<circle cx="986" cy="316" r="40" stroke="#F7F7F3" stroke-width="2"/>
<circle cx="986" cy="316" r="30" stroke="#F7F7F3" stroke-width="2"/>
<line x1="986" y1="275" x2="986" y2="286" stroke="#F7F7F3" stroke-width="2"/>
<line x1="986" y1="346" x2="986" y2="357" stroke="#F7F7F3" stroke-width="2"/>
<line x1="946" y1="316" x2="957" y2="316" stroke="#F7F7F3" stroke-width="2"/>
<line x1="1015" y1="316" x2="1026" y2="316" stroke="#F7F7F3" stroke-width="2"/>
<line x1="1007.29" y1="296.071" x2="1015.07" y2="288.293" stroke="#F7F7F3" stroke-width="2"/>
<line x1="958.293" y1="345.071" x2="966.071" y2="337.293" stroke="#F7F7F3" stroke-width="2"/>
<line y1="-1" x2="11" y2="-1" transform="matrix(-0.707107 -0.707107 -0.707107 0.707107 964.778 295.778)" stroke="#F7F7F3" stroke-width="2"/>
<line y1="-1" x2="11" y2="-1" transform="matrix(-0.707107 -0.707107 -0.707107 0.707107 1014.78 343.778)" stroke="#F7F7F3" stroke-width="2"/>
<path d="M979 318.872C979.572 322.148 982.172 324.072 986.124 324.072C990.518 324.072 992.936 321.914 992.936 318.898C992.936 316.61 991.87 314.504 986.566 313.464C983.082 312.788 982.12 312.034 982.12 310.526C982.12 309.304 982.9 307.952 985.682 307.952C988.516 307.952 989.66 309.122 989.998 310.604H992.52C992.26 308.42 990.518 305.976 985.864 305.976C981.47 305.976 979.598 308.42 979.598 310.76C979.598 313.36 981.054 314.894 985.76 315.83C989.66 316.636 990.31 317.702 990.31 319.21C990.31 321.056 988.802 322.044 986.332 322.044C983.836 322.044 982.094 321.004 981.522 318.872H979ZM987.008 326.464V304H985.292V326.464H987.008Z" fill="#F7F7F3"/>
</svg>
