<svg width="1074" height="447" viewBox="0 0 1074 447" fill="none" xmlns="http://www.w3.org/2000/svg">
<path d="M28.98 58.56V62.56H32.0496L32.8438 59.5949L28.98 58.56ZM46.44 77.1V73.1H42.44V77.1H46.44ZM46.44 91.68H42.44V95.68H46.44V91.68ZM26.1 117.24L29.9773 116.257L29.2125 113.24H26.1V117.24ZM8.64 117.24V113.24H3.8641L4.70205 117.942L8.64 117.24ZM79.02 83.76H75.02V86.9136L78.0865 87.6495L79.02 83.76ZM79.02 83.4L77.8964 79.5611L75.02 80.4029V83.4H79.02ZM12.06 58.56L8.10771 57.9441L7.38834 62.56H12.06V58.56ZM32.8438 59.5949C34.0653 55.0348 36.0287 51.2671 39.2782 48.6036C42.5002 45.9626 47.4607 44.02 55.44 44.02V36.02C46.1393 36.02 39.2198 38.3074 34.2068 42.4164C29.2213 46.5029 26.5947 52.0052 25.1162 57.5251L32.8438 59.5949ZM55.44 44.02C63.3901 44.02 68.4623 46.1251 71.4973 48.8325C74.5046 51.5151 75.92 55.146 75.92 59.1H83.92C83.92 53.154 81.7354 47.2449 76.8227 42.8625C71.9377 38.5049 64.7699 36.02 55.44 36.02V44.02ZM75.92 59.1C75.92 63.9284 74.6333 67.0368 71.948 69.1305C69.0193 71.4139 63.68 73.1 54.18 73.1V81.1C64.3 81.1 71.8307 79.3661 76.867 75.4395C82.1467 71.3231 83.92 65.4316 83.92 59.1H75.92ZM54.18 73.1H46.44V81.1H54.18V73.1ZM42.44 77.1V91.68H50.44V77.1H42.44ZM46.44 95.68H55.98V87.68H46.44V95.68ZM55.98 95.68C65.2955 95.68 71.5631 97.6994 75.4276 100.773C79.1476 103.732 81.14 108.064 81.14 114H89.14C89.14 106.076 86.3624 99.2483 80.4074 94.5119C74.5969 89.8906 66.2845 87.68 55.98 87.68V95.68ZM81.14 114C81.14 121.475 78.485 126.37 74.4836 129.503C70.3334 132.754 64.2515 134.48 56.88 134.48V142.48C65.3485 142.48 73.3966 140.516 79.4164 135.802C85.585 130.97 89.14 123.625 89.14 114H81.14ZM56.88 134.48C48.9888 134.48 42.9692 132.533 38.6308 129.407C34.3141 126.297 31.3893 121.826 29.9773 116.257L22.2227 118.223C24.0507 125.434 27.9659 131.583 33.9542 135.898C39.9208 140.197 47.6712 142.48 56.88 142.48V134.48ZM26.1 113.24H8.64V121.24H26.1V113.24ZM4.70205 117.942C6.44826 127.74 10.9541 137.461 19.3952 144.729C27.8628 152.019 39.9195 156.52 56.16 156.52V148.52C41.4405 148.52 31.3572 144.471 24.6148 138.666C17.8459 132.839 14.0717 124.92 12.578 116.538L4.70205 117.942ZM56.16 156.52C71.6709 156.52 84.4092 152.477 93.3457 145.042C102.355 137.547 107.14 126.893 107.14 114.54H99.14C99.14 124.687 95.2846 133.023 88.2293 138.893C81.1008 144.823 70.3491 148.52 56.16 148.52V156.52ZM107.14 114.54C107.14 91.7921 89.918 82.2619 79.9535 79.8704L78.0865 87.6495C86.122 89.5781 99.14 96.9679 99.14 114.54H107.14ZM83.02 83.76V83.4H75.02V83.76H83.02ZM80.1436 87.2389C84.2824 86.0276 89.6587 83.5766 94.0413 78.984C98.5102 74.3011 101.74 67.5966 101.74 58.38H93.74C93.74 65.5434 91.2998 70.2689 88.2537 73.461C85.1214 76.7434 81.1376 78.6124 77.8964 79.5611L80.1436 87.2389ZM101.74 58.38C101.74 49.3566 98.3304 40.1004 90.6946 33.1285C83.0603 26.1581 71.5715 21.8 55.98 21.8V29.8C70.0885 29.8 79.4797 33.7219 85.3004 39.0364C91.1196 44.3496 93.74 51.3834 93.74 58.38H101.74ZM55.98 21.8C39.7983 21.8 28.3379 26.825 20.6186 34.0649C12.9675 41.241 9.29849 50.3032 8.10771 57.9441L16.0123 59.1759C16.9815 52.9568 19.9725 45.639 26.0914 39.9C32.1421 34.225 41.5617 29.8 55.98 29.8V21.8ZM12.06 62.56H28.98V54.56H12.06V62.56ZM142.543 150V154H146.543V150H142.543ZM142.543 120.66H146.543V116.66H142.543V120.66ZM123.643 120.66V116.66H119.643V120.66H123.643ZM123.643 150H119.643V154H123.643V150ZM146.543 150V120.66H138.543V150H146.543ZM142.543 116.66H123.643V124.66H142.543V116.66ZM119.643 120.66V150H127.643V120.66H119.643ZM123.643 154H142.543V146H123.643V154Z" fill="#F7F7F3"/>
<path d="M179.8 66H190.82C198.61 66 204.69 60.718 204.69 52.092C204.69 44.72 199.598 39.02 190.896 39.02H179.8V66ZM183.6 42.174H190.326C196.596 42.212 200.624 45.936 200.624 52.206C200.624 58.362 197.204 62.846 190.06 62.846H183.6V42.174ZM218.993 46.24C212.495 46.24 208.657 50.914 208.657 56.424C208.657 61.744 212.305 66.532 218.803 66.532C225.681 66.532 229.139 61.744 229.139 56.386C229.139 51.294 225.643 46.24 218.993 46.24ZM218.841 49.204C223.097 49.204 225.415 52.586 225.415 56.462C225.415 60.3 223.325 63.606 218.917 63.606C214.699 63.606 212.343 60.072 212.343 56.424C212.343 52.548 214.471 49.204 218.841 49.204ZM242.587 46.772L251.479 66.912C249.731 70.674 248.743 71.738 246.159 71.738C245.665 71.738 244.791 71.7 244.031 71.586V74.778C244.715 74.892 245.855 74.968 246.539 74.968C251.365 74.968 252.619 73.296 256.039 65.05L263.563 46.772H259.801C256.153 55.816 254.177 61.364 253.493 63.226H253.455C252.885 61.63 250.643 56.234 246.577 46.772H242.587ZM275.993 46.24C269.495 46.24 265.657 50.914 265.657 56.424C265.657 61.744 269.305 66.532 275.803 66.532C282.681 66.532 286.139 61.744 286.139 56.386C286.139 51.294 282.643 46.24 275.993 46.24ZM275.841 49.204C280.097 49.204 282.415 52.586 282.415 56.462C282.415 60.3 280.325 63.606 275.917 63.606C271.699 63.606 269.343 60.072 269.343 56.424C269.343 52.548 271.471 49.204 275.841 49.204ZM308.559 46.772H304.949V55.474C304.949 61.098 303.163 63.492 299.021 63.492C295.563 63.492 294.423 60.946 294.423 58.058V46.772H290.813V58.704C290.813 64.328 293.967 66.532 298.033 66.532C302.251 66.532 303.999 64.936 304.949 62.77C304.949 64.138 305.025 65.468 305.101 66H308.559C308.521 64.138 308.559 62.276 308.559 60.414V46.772ZM329.567 66V37.462H325.919V66H329.567ZM344.609 46.24C338.111 46.24 334.273 50.914 334.273 56.424C334.273 61.744 337.921 66.532 344.419 66.532C351.297 66.532 354.755 61.744 354.755 56.386C354.755 51.294 351.259 46.24 344.609 46.24ZM344.457 49.204C348.713 49.204 351.031 52.586 351.031 56.462C351.031 60.3 348.941 63.606 344.533 63.606C340.315 63.606 337.959 60.072 337.959 56.424C337.959 52.548 340.087 49.204 344.457 49.204ZM356.659 46.772L365.133 66H369.085L377.521 46.772H373.797C369.085 57.792 367.793 61.06 367.261 62.694H367.223C366.501 60.604 362.321 51.218 360.573 46.772H356.659ZM399.159 57.26C399.159 56.88 399.159 56.614 399.159 56.31C399.159 51.598 396.575 46.24 389.279 46.24C383.237 46.24 379.361 50.648 379.361 56.462C379.361 61.516 382.477 66.532 389.393 66.532C395.131 66.532 397.867 63.416 398.893 60.528H395.283C394.257 62.428 392.585 63.644 389.583 63.644C385.669 63.644 383.199 60.946 382.971 57.26H399.159ZM383.047 54.676C383.389 51.522 385.327 49.052 389.279 49.052C394.029 49.052 395.245 52.396 395.397 54.676H383.047ZM412.701 46.772L419.009 66H422.923C425.621 58.552 427.559 52.738 428.053 50.876H428.091C428.737 53.118 430.941 59.274 433.221 66H436.983L443.633 46.772H440.023C436.831 56.614 435.615 60.718 435.197 62.58H435.159C434.817 61.022 433.867 58.134 429.991 46.772H426.533C422.543 58.286 421.745 60.794 421.213 62.77H421.175C420.719 60.68 419.959 58.02 416.463 46.772H412.701ZM447.712 37.462V66H451.36V56.576C451.36 52.548 453.298 49.28 457.364 49.28C460.936 49.28 462.114 51.712 462.114 54.942V66H465.724V54.41C465.724 48.938 462.836 46.24 458.428 46.24C453.792 46.24 452.006 48.824 451.322 50.23V37.462H447.712ZM488.557 52.852C488.557 49.66 486.999 46.24 480.007 46.24C473.395 46.24 471.685 49.85 471.457 52.396H475.067C475.447 50.61 476.321 49.014 480.007 49.014C484.111 49.014 484.985 50.952 484.985 53.08V54.068C484.339 54.068 482.629 54.068 480.311 54.068C474.839 54.068 470.355 55.436 470.355 60.376C470.355 63.264 472.369 66.532 477.803 66.532C481.869 66.532 484.035 65.202 485.061 63.188C485.061 63.834 485.137 65.316 485.289 66H488.709C488.671 65.582 488.557 63.15 488.557 61.25V52.852ZM484.985 57.488C484.985 60.718 483.617 63.72 478.525 63.72C475.333 63.72 473.927 62.086 473.927 60.186C473.927 57.602 475.979 56.652 480.387 56.652C483.123 56.652 484.415 56.652 484.985 56.652V57.488ZM491.741 49.622H495.541V60.642C495.541 64.404 496.757 66.19 500.747 66.19C501.849 66.19 502.837 66.152 503.711 65.848V63.188C503.141 63.34 502.381 63.34 501.811 63.34C499.721 63.34 499.151 62.352 499.151 60.148V49.622H504.167V46.772H499.151V40.578H495.541V46.772H491.741V49.622ZM517.011 46.772L525.903 66.912C524.155 70.674 523.167 71.738 520.583 71.738C520.089 71.738 519.215 71.7 518.455 71.586V74.778C519.139 74.892 520.279 74.968 520.963 74.968C525.789 74.968 527.043 73.296 530.463 65.05L537.987 46.772H534.225C530.577 55.816 528.601 61.364 527.917 63.226H527.879C527.309 61.63 525.067 56.234 521.001 46.772H517.011ZM550.417 46.24C543.919 46.24 540.081 50.914 540.081 56.424C540.081 61.744 543.729 66.532 550.227 66.532C557.105 66.532 560.563 61.744 560.563 56.386C560.563 51.294 557.067 46.24 550.417 46.24ZM550.265 49.204C554.521 49.204 556.839 52.586 556.839 56.462C556.839 60.3 554.749 63.606 550.341 63.606C546.123 63.606 543.767 60.072 543.767 56.424C543.767 52.548 545.895 49.204 550.265 49.204ZM582.983 46.772H579.373V55.474C579.373 61.098 577.587 63.492 573.445 63.492C569.987 63.492 568.847 60.946 568.847 58.058V46.772H565.237V58.704C565.237 64.328 568.391 66.532 572.457 66.532C576.675 66.532 578.423 64.936 579.373 62.77C579.373 64.138 579.449 65.468 579.525 66H582.983C582.945 64.138 582.983 62.276 582.983 60.414V46.772ZM617.215 52.852C617.215 49.66 615.657 46.24 608.665 46.24C602.053 46.24 600.343 49.85 600.115 52.396H603.725C604.105 50.61 604.979 49.014 608.665 49.014C612.769 49.014 613.643 50.952 613.643 53.08V54.068C612.997 54.068 611.287 54.068 608.969 54.068C603.497 54.068 599.013 55.436 599.013 60.376C599.013 63.264 601.027 66.532 606.461 66.532C610.527 66.532 612.693 65.202 613.719 63.188C613.719 63.834 613.795 65.316 613.947 66H617.367C617.329 65.582 617.215 63.15 617.215 61.25V52.852ZM613.643 57.488C613.643 60.718 612.275 63.72 607.183 63.72C603.991 63.72 602.585 62.086 602.585 60.186C602.585 57.602 604.637 56.652 609.045 56.652C611.781 56.652 613.073 56.652 613.643 56.652V57.488ZM623.574 66H627.184V57.982C627.184 52.32 630.528 49.66 634.974 49.736V46.278C631.212 46.24 628.438 48.178 627.184 51.104C627.184 49.394 627.108 47.342 627.032 46.772H623.536C623.574 48.52 623.574 50.268 623.574 52.016V66ZM656.846 57.26C656.846 56.88 656.846 56.614 656.846 56.31C656.846 51.598 654.262 46.24 646.966 46.24C640.924 46.24 637.048 50.648 637.048 56.462C637.048 61.516 640.164 66.532 647.08 66.532C652.818 66.532 655.554 63.416 656.58 60.528H652.97C651.944 62.428 650.272 63.644 647.27 63.644C643.356 63.644 640.886 60.946 640.658 57.26H656.846ZM640.734 54.676C641.076 51.522 643.014 49.052 646.966 49.052C651.716 49.052 652.932 52.396 653.084 54.676H640.734ZM687.678 37.462V49.204C687.146 48.292 685.588 46.24 681.066 46.24C676.05 46.24 671.3 50.23 671.3 56.576C671.3 62.39 675.062 66.532 680.61 66.532C685.056 66.532 686.728 64.746 687.678 63.074C687.678 64.062 687.716 65.202 687.83 66H691.364C691.326 64.176 691.326 62.276 691.326 60.414V37.462H687.678ZM681.522 49.28C686.348 49.28 687.83 52.092 687.83 56.348C687.83 60.566 685.968 63.53 681.37 63.53C677.19 63.53 675.024 60.034 675.024 56.5C675.024 52.852 677.152 49.28 681.522 49.28ZM706.388 46.24C699.89 46.24 696.052 50.914 696.052 56.424C696.052 61.744 699.7 66.532 706.198 66.532C713.076 66.532 716.534 61.744 716.534 56.386C716.534 51.294 713.038 46.24 706.388 46.24ZM706.236 49.204C710.492 49.204 712.81 52.586 712.81 56.462C712.81 60.3 710.72 63.606 706.312 63.606C702.094 63.606 699.738 60.072 699.738 56.424C699.738 52.548 701.866 49.204 706.236 49.204ZM721.283 66H724.893V46.772H721.283V66ZM721.283 41.794H724.893V37.462H721.283V41.794ZM731.005 66H734.653V56.804C734.653 52.358 736.629 49.28 740.619 49.28C744.191 49.28 745.407 51.788 745.407 54.98V66H749.055V54.296C749.055 49.052 746.129 46.24 741.607 46.24C737.465 46.24 735.489 48.482 734.653 50.344C734.615 49.052 734.577 47.456 734.501 46.772H730.967C731.005 48.216 731.005 50.002 731.005 51.636V66ZM773.707 52.358C773.707 50.496 773.707 48.634 773.745 46.772H770.249C770.211 47.304 770.173 48.824 770.135 49.736C769.565 48.254 767.779 46.24 763.371 46.24C758.203 46.24 753.719 50.496 753.719 56.652C753.719 62.086 757.481 66.342 762.915 66.342C766.905 66.342 768.995 64.898 770.135 62.656V63.682C770.135 68.47 769.223 72.08 763.599 72.08C759.609 72.08 758.203 70.332 757.633 68.356H753.947C754.289 70.636 755.847 74.968 763.409 74.968C771.313 74.968 773.707 70.75 773.707 63.492V52.358ZM764.017 49.28C767.969 49.28 770.249 51.788 770.249 56.272C770.249 60.832 767.817 63.302 763.827 63.302C760.027 63.302 757.443 60.452 757.443 56.5C757.443 52.89 759.533 49.28 764.017 49.28ZM790.249 57.83V57.64C790.249 55.93 791.009 54.714 793.403 52.928C796.861 50.344 798.001 48.786 798.001 45.708C798.001 42.212 795.341 38.412 788.919 38.412C781.281 38.412 779.495 43.466 779.153 46.05H782.763C783.371 42.972 785.385 41.3 788.805 41.3C792.643 41.3 794.315 43.466 794.315 45.822C794.277 47.798 793.479 48.786 790.705 50.876C787.057 53.65 786.525 55.398 786.525 57.412V57.83H790.249ZM790.249 66.038V60.794H786.525V66.038H790.249Z" fill="#F7F7F3"/>
<path d="M182.282 110C183.344 106.742 185.288 100.784 185.612 99.146H185.63C185.954 100.658 187.988 107.102 188.906 110H190.886L195.134 97.22H193.316C192.344 100.208 190.364 106.31 189.95 108.218H189.932C189.644 106.814 187.556 100.082 186.638 97.22H184.838C183.812 100.316 181.796 106.454 181.454 108.272H181.436C181.166 106.562 179.222 100.37 178.286 97.22H176.378L180.338 110H182.282ZM204.785 105.86C204.785 105.68 204.785 105.554 204.785 105.41C204.785 103.178 203.561 100.64 200.105 100.64C197.243 100.64 195.407 102.728 195.407 105.482C195.407 107.876 196.883 110.252 200.159 110.252C202.877 110.252 204.173 108.776 204.659 107.408H202.949C202.463 108.308 201.671 108.884 200.249 108.884C198.395 108.884 197.225 107.606 197.117 105.86H204.785ZM197.153 104.636C197.315 103.142 198.233 101.972 200.105 101.972C202.355 101.972 202.931 103.556 203.003 104.636H197.153ZM214.025 110V96.482H212.297V110H214.025ZM221.15 100.64C218.072 100.64 216.254 102.854 216.254 105.464C216.254 107.984 217.982 110.252 221.06 110.252C224.318 110.252 225.956 107.984 225.956 105.446C225.956 103.034 224.3 100.64 221.15 100.64ZM221.078 102.044C223.094 102.044 224.192 103.646 224.192 105.482C224.192 107.3 223.202 108.866 221.114 108.866C219.116 108.866 218 107.192 218 105.464C218 103.628 219.008 102.044 221.078 102.044ZM226.859 100.892L230.873 110H232.745L236.741 100.892H234.977C232.745 106.112 232.133 107.66 231.881 108.434H231.863C231.521 107.444 229.541 102.998 228.713 100.892H226.859ZM246.99 105.86C246.99 105.68 246.99 105.554 246.99 105.41C246.99 103.178 245.766 100.64 242.31 100.64C239.448 100.64 237.612 102.728 237.612 105.482C237.612 107.876 239.088 110.252 242.364 110.252C245.082 110.252 246.378 108.776 246.864 107.408H245.154C244.668 108.308 243.876 108.884 242.454 108.884C240.6 108.884 239.43 107.606 239.322 105.86H246.99ZM239.358 104.636C239.52 103.142 240.438 101.972 242.31 101.972C244.56 101.972 245.136 103.556 245.208 104.636H239.358ZM253.405 100.892L256.393 110H258.247C259.525 106.472 260.443 103.718 260.677 102.836H260.695C261.001 103.898 262.045 106.814 263.125 110H264.907L268.057 100.892H266.347C264.835 105.554 264.259 107.498 264.061 108.38H264.043C263.881 107.642 263.431 106.274 261.595 100.892H259.957C258.067 106.346 257.688 107.534 257.437 108.47H257.419C257.203 107.48 256.843 106.22 255.187 100.892H253.405ZM269.989 96.482V110H271.717V105.536C271.717 103.628 272.635 102.08 274.561 102.08C276.253 102.08 276.811 103.232 276.811 104.762V110H278.521V104.51C278.521 101.918 277.153 100.64 275.065 100.64C272.869 100.64 272.023 101.864 271.699 102.53V96.482H269.989ZM289.336 103.772C289.336 102.26 288.598 100.64 285.286 100.64C282.154 100.64 281.344 102.35 281.236 103.556H282.946C283.126 102.71 283.54 101.954 285.286 101.954C287.23 101.954 287.644 102.872 287.644 103.88V104.348C287.338 104.348 286.528 104.348 285.43 104.348C282.838 104.348 280.714 104.996 280.714 107.336C280.714 108.704 281.668 110.252 284.242 110.252C286.168 110.252 287.194 109.622 287.68 108.668C287.68 108.974 287.716 109.676 287.788 110H289.408C289.39 109.802 289.336 108.65 289.336 107.75V103.772ZM287.644 105.968C287.644 107.498 286.996 108.92 284.584 108.92C283.072 108.92 282.406 108.146 282.406 107.246C282.406 106.022 283.378 105.572 285.466 105.572C286.762 105.572 287.374 105.572 287.644 105.572V105.968ZM290.845 102.242H292.645V107.462C292.645 109.244 293.221 110.09 295.111 110.09C295.633 110.09 296.101 110.072 296.515 109.928V108.668C296.245 108.74 295.885 108.74 295.615 108.74C294.625 108.74 294.355 108.272 294.355 107.228V102.242H296.731V100.892H294.355V97.958H292.645V100.892H290.845V102.242ZM302.905 100.892L305.893 110H307.747C309.025 106.472 309.943 103.718 310.177 102.836H310.195C310.501 103.898 311.545 106.814 312.625 110H314.407L317.557 100.892H315.847C314.335 105.554 313.759 107.498 313.561 108.38H313.543C313.381 107.642 312.931 106.274 311.095 100.892H309.457C307.567 106.346 307.188 107.534 306.937 108.47H306.919C306.703 107.48 306.343 106.22 304.687 100.892H302.905ZM328.043 105.86C328.043 105.68 328.043 105.554 328.043 105.41C328.043 103.178 326.819 100.64 323.363 100.64C320.501 100.64 318.665 102.728 318.665 105.482C318.665 107.876 320.141 110.252 323.417 110.252C326.135 110.252 327.431 108.776 327.917 107.408H326.207C325.721 108.308 324.929 108.884 323.507 108.884C321.653 108.884 320.483 107.606 320.375 105.86H328.043ZM320.411 104.636C320.573 103.142 321.491 101.972 323.363 101.972C325.613 101.972 326.189 103.556 326.261 104.636H320.411ZM342.647 96.482V102.044C342.395 101.612 341.657 100.64 339.515 100.64C337.139 100.64 334.889 102.53 334.889 105.536C334.889 108.29 336.671 110.252 339.299 110.252C341.405 110.252 342.197 109.406 342.647 108.614C342.647 109.082 342.665 109.622 342.719 110H344.393C344.375 109.136 344.375 108.236 344.375 107.354V96.482H342.647ZM339.731 102.08C342.017 102.08 342.719 103.412 342.719 105.428C342.719 107.426 341.837 108.83 339.659 108.83C337.679 108.83 336.653 107.174 336.653 105.5C336.653 103.772 337.661 102.08 339.731 102.08ZM351.51 100.64C348.432 100.64 346.614 102.854 346.614 105.464C346.614 107.984 348.342 110.252 351.42 110.252C354.678 110.252 356.316 107.984 356.316 105.446C356.316 103.034 354.66 100.64 351.51 100.64ZM351.438 102.044C353.454 102.044 354.552 103.646 354.552 105.482C354.552 107.3 353.562 108.866 351.474 108.866C349.476 108.866 348.36 107.192 348.36 105.464C348.36 103.628 349.368 102.044 351.438 102.044ZM371.866 103.772C371.866 102.26 371.128 100.64 367.816 100.64C364.684 100.64 363.874 102.35 363.766 103.556H365.476C365.656 102.71 366.07 101.954 367.816 101.954C369.76 101.954 370.174 102.872 370.174 103.88V104.348C369.868 104.348 369.058 104.348 367.96 104.348C365.368 104.348 363.244 104.996 363.244 107.336C363.244 108.704 364.198 110.252 366.772 110.252C368.698 110.252 369.724 109.622 370.21 108.668C370.21 108.974 370.246 109.676 370.318 110H371.938C371.92 109.802 371.866 108.65 371.866 107.75V103.772ZM370.174 105.968C370.174 107.498 369.526 108.92 367.114 108.92C365.602 108.92 364.936 108.146 364.936 107.246C364.936 106.022 365.908 105.572 367.996 105.572C369.292 105.572 369.904 105.572 370.174 105.572V105.968ZM374.86 110H376.588V105.644C376.588 103.538 377.524 102.08 379.414 102.08C381.106 102.08 381.682 103.268 381.682 104.78V110H383.41V104.456C383.41 101.972 382.024 100.64 379.882 100.64C377.92 100.64 376.984 101.702 376.588 102.584C376.57 101.972 376.552 101.216 376.516 100.892H374.842C374.86 101.576 374.86 102.422 374.86 103.196V110ZM393.395 96.482V102.044C393.143 101.612 392.405 100.64 390.263 100.64C387.887 100.64 385.637 102.53 385.637 105.536C385.637 108.29 387.419 110.252 390.047 110.252C392.153 110.252 392.945 109.406 393.395 108.614C393.395 109.082 393.413 109.622 393.467 110H395.141C395.123 109.136 395.123 108.236 395.123 107.354V96.482H393.395ZM390.479 102.08C392.765 102.08 393.467 103.412 393.467 105.428C393.467 107.426 392.585 108.83 390.407 108.83C388.427 108.83 387.401 107.174 387.401 105.5C387.401 103.772 388.409 102.08 390.479 102.08ZM402.256 100.892L405.244 110H407.098C408.376 106.472 409.294 103.718 409.528 102.836H409.546C409.852 103.898 410.896 106.814 411.976 110H413.758L416.908 100.892H415.198C413.686 105.554 413.11 107.498 412.912 108.38H412.894C412.732 107.642 412.282 106.274 410.446 100.892H408.808C406.918 106.346 406.54 107.534 406.288 108.47H406.27C406.054 107.48 405.694 106.22 404.038 100.892H402.256ZM427.394 105.86C427.394 105.68 427.394 105.554 427.394 105.41C427.394 103.178 426.17 100.64 422.714 100.64C419.852 100.64 418.016 102.728 418.016 105.482C418.016 107.876 419.492 110.252 422.768 110.252C425.486 110.252 426.782 108.776 427.268 107.408H425.558C425.072 108.308 424.28 108.884 422.858 108.884C421.004 108.884 419.834 107.606 419.726 105.86H427.394ZM419.762 104.636C419.924 103.142 420.842 101.972 422.714 101.972C424.964 101.972 425.54 103.556 425.612 104.636H419.762ZM441.999 96.482V102.044C441.747 101.612 441.009 100.64 438.867 100.64C436.491 100.64 434.241 102.53 434.241 105.536C434.241 108.29 436.023 110.252 438.651 110.252C440.757 110.252 441.549 109.406 441.999 108.614C441.999 109.082 442.017 109.622 442.071 110H443.745C443.727 109.136 443.727 108.236 443.727 107.354V96.482H441.999ZM439.083 102.08C441.369 102.08 442.071 103.412 442.071 105.428C442.071 107.426 441.189 108.83 439.011 108.83C437.031 108.83 436.005 107.174 436.005 105.5C436.005 103.772 437.013 102.08 439.083 102.08ZM455.343 105.86C455.343 105.68 455.343 105.554 455.343 105.41C455.343 103.178 454.119 100.64 450.663 100.64C447.801 100.64 445.965 102.728 445.965 105.482C445.965 107.876 447.441 110.252 450.717 110.252C453.435 110.252 454.731 108.776 455.217 107.408H453.507C453.021 108.308 452.229 108.884 450.807 108.884C448.953 108.884 447.783 107.606 447.675 105.86H455.343ZM447.711 104.636C447.873 103.142 448.791 101.972 450.663 101.972C452.913 101.972 453.489 103.556 453.561 104.636H447.711ZM464.798 96.482V102.044C464.546 101.612 463.808 100.64 461.666 100.64C459.29 100.64 457.04 102.53 457.04 105.536C457.04 108.29 458.822 110.252 461.45 110.252C463.556 110.252 464.348 109.406 464.798 108.614C464.798 109.082 464.816 109.622 464.87 110H466.544C466.526 109.136 466.526 108.236 466.526 107.354V96.482H464.798ZM461.882 102.08C464.168 102.08 464.87 103.412 464.87 105.428C464.87 107.426 463.988 108.83 461.81 108.83C459.83 108.83 458.804 107.174 458.804 105.5C458.804 103.772 459.812 102.08 461.882 102.08ZM469.501 110H471.211V100.892H469.501V110ZM469.501 98.534H471.211V96.482H469.501V98.534ZM480.982 107.156C480.532 108.2 479.722 108.866 478.246 108.866C476.266 108.866 475.186 107.354 475.186 105.446C475.186 103.466 476.32 102.026 478.228 102.026C479.938 102.026 480.658 102.962 480.964 103.808H482.674C482.476 102.602 481.324 100.64 478.264 100.64C475.204 100.64 473.44 102.89 473.44 105.482C473.44 108.074 475.006 110.252 478.228 110.252C480.82 110.252 482.26 108.812 482.71 107.156H480.982ZM492.944 103.772C492.944 102.26 492.206 100.64 488.894 100.64C485.762 100.64 484.952 102.35 484.844 103.556H486.554C486.734 102.71 487.148 101.954 488.894 101.954C490.838 101.954 491.252 102.872 491.252 103.88V104.348C490.946 104.348 490.136 104.348 489.038 104.348C486.446 104.348 484.322 104.996 484.322 107.336C484.322 108.704 485.276 110.252 487.85 110.252C489.776 110.252 490.802 109.622 491.288 108.668C491.288 108.974 491.324 109.676 491.396 110H493.016C492.998 109.802 492.944 108.65 492.944 107.75V103.772ZM491.252 105.968C491.252 107.498 490.604 108.92 488.192 108.92C486.68 108.92 486.014 108.146 486.014 107.246C486.014 106.022 486.986 105.572 489.074 105.572C490.37 105.572 490.982 105.572 491.252 105.572V105.968ZM494.452 102.242H496.252V107.462C496.252 109.244 496.828 110.09 498.718 110.09C499.24 110.09 499.708 110.072 500.122 109.928V108.668C499.852 108.74 499.492 108.74 499.222 108.74C498.232 108.74 497.962 108.272 497.962 107.228V102.242H500.338V100.892H497.962V97.958H496.252V100.892H494.452V102.242ZM510.838 105.86C510.838 105.68 510.838 105.554 510.838 105.41C510.838 103.178 509.614 100.64 506.158 100.64C503.296 100.64 501.46 102.728 501.46 105.482C501.46 107.876 502.936 110.252 506.212 110.252C508.93 110.252 510.226 108.776 510.712 107.408H509.002C508.516 108.308 507.724 108.884 506.302 108.884C504.448 108.884 503.278 107.606 503.17 105.86H510.838ZM503.206 104.636C503.368 103.142 504.286 101.972 506.158 101.972C508.408 101.972 508.984 103.556 509.056 104.636H503.206ZM522.58 100.64C519.502 100.64 517.684 102.854 517.684 105.464C517.684 107.984 519.412 110.252 522.49 110.252C525.748 110.252 527.386 107.984 527.386 105.446C527.386 103.034 525.73 100.64 522.58 100.64ZM522.508 102.044C524.524 102.044 525.622 103.646 525.622 105.482C525.622 107.3 524.632 108.866 522.544 108.866C520.546 108.866 519.43 107.192 519.43 105.464C519.43 103.628 520.438 102.044 522.508 102.044ZM538.006 100.892H536.296V105.014C536.296 107.678 535.45 108.812 533.488 108.812C531.85 108.812 531.31 107.606 531.31 106.238V100.892H529.6V106.544C529.6 109.208 531.094 110.252 533.02 110.252C535.018 110.252 535.846 109.496 536.296 108.47C536.296 109.118 536.332 109.748 536.368 110H538.006C537.988 109.118 538.006 108.236 538.006 107.354V100.892ZM540.921 110H542.631V106.202C542.631 103.52 544.215 102.26 546.321 102.296V100.658C544.539 100.64 543.225 101.558 542.631 102.944C542.631 102.134 542.595 101.162 542.559 100.892H540.903C540.921 101.72 540.921 102.548 540.921 103.376V110ZM547.44 107.246C547.764 109.136 549.312 110.252 551.958 110.252C554.91 110.252 556.152 109.046 556.152 107.408C556.152 106.058 555.504 104.996 552.084 104.528C549.996 104.258 549.582 103.862 549.582 103.178C549.582 102.656 549.924 101.936 551.616 101.936C553.614 101.936 553.992 102.818 554.136 103.376H555.846C555.756 102.278 554.874 100.64 551.706 100.64C548.808 100.64 547.854 102.152 547.854 103.322C547.854 104.456 548.466 105.572 551.67 105.986C553.974 106.256 554.442 106.778 554.442 107.534C554.442 108.344 553.812 108.956 552.066 108.956C550.428 108.956 549.492 108.326 549.168 107.246H547.44ZM567.017 105.86C567.017 105.68 567.017 105.554 567.017 105.41C567.017 103.178 565.793 100.64 562.337 100.64C559.475 100.64 557.639 102.728 557.639 105.482C557.639 107.876 559.115 110.252 562.391 110.252C565.109 110.252 566.405 108.776 566.891 107.408H565.181C564.695 108.308 563.903 108.884 562.481 108.884C560.627 108.884 559.457 107.606 559.349 105.86H567.017ZM559.385 104.636C559.547 103.142 560.465 101.972 562.337 101.972C564.587 101.972 565.163 103.556 565.235 104.636H559.385ZM570.932 110V96.482H569.204V110H570.932ZM572.726 100.892L576.74 110H578.612L582.608 100.892H580.844C578.612 106.112 578 107.66 577.748 108.434H577.73C577.388 107.444 575.408 102.998 574.58 100.892H572.726ZM592.857 105.86C592.857 105.68 592.857 105.554 592.857 105.41C592.857 103.178 591.633 100.64 588.177 100.64C585.315 100.64 583.479 102.728 583.479 105.482C583.479 107.876 584.955 110.252 588.231 110.252C590.949 110.252 592.245 108.776 592.731 107.408H591.021C590.535 108.308 589.743 108.884 588.321 108.884C586.467 108.884 585.297 107.606 585.189 105.86H592.857ZM585.225 104.636C585.387 103.142 586.305 101.972 588.177 101.972C590.427 101.972 591.003 103.556 591.075 104.636H585.225ZM594.373 107.246C594.697 109.136 596.245 110.252 598.891 110.252C601.843 110.252 603.085 109.046 603.085 107.408C603.085 106.058 602.437 104.996 599.017 104.528C596.929 104.258 596.515 103.862 596.515 103.178C596.515 102.656 596.857 101.936 598.549 101.936C600.547 101.936 600.925 102.818 601.069 103.376H602.779C602.689 102.278 601.807 100.64 598.639 100.64C595.741 100.64 594.787 102.152 594.787 103.322C594.787 104.456 595.399 105.572 598.603 105.986C600.907 106.256 601.375 106.778 601.375 107.534C601.375 108.344 600.745 108.956 598.999 108.956C597.361 108.956 596.425 108.326 596.101 107.246H594.373ZM614.379 110V97.832H613.101C612.453 98.498 611.229 99.344 609.861 99.74V101.108C610.473 101.018 611.967 100.46 612.687 99.956V110H614.379ZM621.989 97.58C618.767 97.58 617.129 100.37 617.129 103.934C617.129 107.462 618.731 110.252 621.953 110.252C625.409 110.252 626.777 107.282 626.777 103.808C626.777 100.388 625.193 97.58 621.989 97.58ZM622.007 99.038C624.311 99.038 624.995 101.54 624.995 103.808C624.995 106.4 624.311 108.794 621.971 108.794C619.703 108.794 618.929 106.202 618.929 103.916C618.929 101.072 619.847 99.038 622.007 99.038ZM633.661 97.58C630.439 97.58 628.801 100.37 628.801 103.934C628.801 107.462 630.403 110.252 633.625 110.252C637.081 110.252 638.449 107.282 638.449 103.808C638.449 100.388 636.865 97.58 633.661 97.58ZM633.679 99.038C635.983 99.038 636.667 101.54 636.667 103.808C636.667 106.4 635.983 108.794 633.643 108.794C631.375 108.794 630.601 106.202 630.601 103.916C630.601 101.072 631.519 99.038 633.679 99.038ZM643.424 97.58C641.264 97.58 640.184 99.272 640.184 101.09C640.184 103.106 641.3 104.618 643.388 104.618C645.62 104.618 646.682 102.98 646.682 101.072C646.682 98.894 645.458 97.58 643.424 97.58ZM643.406 98.786C644.684 98.786 645.314 99.65 645.314 101.072C645.314 102.458 644.666 103.43 643.442 103.43C642.254 103.43 641.588 102.476 641.588 101.072C641.588 99.614 642.326 98.786 643.406 98.786ZM644.432 110L652.874 97.832H651.398L642.974 110H644.432ZM652.478 103.196C650.318 103.196 649.238 104.87 649.238 106.706C649.238 108.722 650.3 110.234 652.46 110.234C654.674 110.234 655.754 108.596 655.754 106.688C655.754 104.51 654.512 103.196 652.478 103.196ZM652.478 104.402C653.738 104.402 654.368 105.248 654.368 106.688C654.368 108.074 653.72 109.046 652.496 109.046C651.326 109.046 650.66 108.128 650.66 106.688C650.66 105.23 651.38 104.402 652.478 104.402ZM662.077 102.242H663.877V107.462C663.877 109.244 664.453 110.09 666.343 110.09C666.865 110.09 667.333 110.072 667.747 109.928V108.668C667.477 108.74 667.117 108.74 666.847 108.74C665.857 108.74 665.587 108.272 665.587 107.228V102.242H667.963V100.892H665.587V97.958H663.877V100.892H662.077V102.242ZM673.981 100.64C670.903 100.64 669.085 102.854 669.085 105.464C669.085 107.984 670.813 110.252 673.891 110.252C677.149 110.252 678.787 107.984 678.787 105.446C678.787 103.034 677.131 100.64 673.981 100.64ZM673.909 102.044C675.925 102.044 677.023 103.646 677.023 105.482C677.023 107.3 676.033 108.866 673.945 108.866C671.947 108.866 670.831 107.192 670.831 105.464C670.831 103.628 671.839 102.044 673.909 102.044ZM695.056 105.86C695.056 105.68 695.056 105.554 695.056 105.41C695.056 103.178 693.832 100.64 690.376 100.64C687.514 100.64 685.678 102.728 685.678 105.482C685.678 107.876 687.154 110.252 690.43 110.252C693.148 110.252 694.444 108.776 694.93 107.408H693.22C692.734 108.308 691.942 108.884 690.52 108.884C688.666 108.884 687.496 107.606 687.388 105.86H695.056ZM687.424 104.636C687.586 103.142 688.504 101.972 690.376 101.972C692.626 101.972 693.202 103.556 693.274 104.636H687.424ZM695.966 100.892L699.98 110H701.852L705.848 100.892H704.084C701.852 106.112 701.24 107.66 700.988 108.434H700.97C700.628 107.444 698.648 102.998 697.82 100.892H695.966ZM716.097 105.86C716.097 105.68 716.097 105.554 716.097 105.41C716.097 103.178 714.873 100.64 711.417 100.64C708.555 100.64 706.719 102.728 706.719 105.482C706.719 107.876 708.195 110.252 711.471 110.252C714.189 110.252 715.485 108.776 715.971 107.408H714.261C713.775 108.308 712.983 108.884 711.561 108.884C709.707 108.884 708.537 107.606 708.429 105.86H716.097ZM708.465 104.636C708.627 103.142 709.545 101.972 711.417 101.972C713.667 101.972 714.243 103.556 714.315 104.636H708.465ZM718.354 110H720.064V106.202C720.064 103.52 721.648 102.26 723.754 102.296V100.658C721.972 100.64 720.658 101.558 720.064 102.944C720.064 102.134 720.028 101.162 719.992 100.892H718.336C718.354 101.72 718.354 102.548 718.354 103.376V110ZM725.006 100.892L729.218 110.432C728.39 112.214 727.922 112.718 726.698 112.718C726.464 112.718 726.05 112.7 725.69 112.646V114.158C726.014 114.212 726.554 114.248 726.878 114.248C729.164 114.248 729.758 113.456 731.378 109.55L734.942 100.892H733.16C731.432 105.176 730.496 107.804 730.172 108.686H730.154C729.884 107.93 728.822 105.374 726.896 100.892H725.006ZM746.947 110.252C749.413 110.252 751.465 108.272 751.465 105.302C751.465 102.656 749.683 100.64 747.235 100.64C745.327 100.64 744.265 101.522 743.725 102.476C743.725 101.774 743.707 101.162 743.671 100.892H741.997C742.015 101.648 742.015 102.422 742.015 103.178V113.996H743.725V108.668C744.211 109.442 745.057 110.252 746.947 110.252ZM746.677 108.812C744.679 108.812 743.671 107.408 743.671 105.5C743.671 103.592 744.607 102.08 746.713 102.08C748.765 102.08 749.701 103.754 749.701 105.374C749.701 107.192 748.693 108.812 746.677 108.812ZM753.722 110H755.432V106.202C755.432 103.52 757.016 102.26 759.122 102.296V100.658C757.34 100.64 756.026 101.558 755.432 102.944C755.432 102.134 755.396 101.162 755.36 100.892H753.704C753.722 101.72 753.722 102.548 753.722 103.376V110ZM765 100.64C761.922 100.64 760.104 102.854 760.104 105.464C760.104 107.984 761.832 110.252 764.91 110.252C768.168 110.252 769.806 107.984 769.806 105.446C769.806 103.034 768.15 100.64 765 100.64ZM764.928 102.044C766.944 102.044 768.042 103.646 768.042 105.482C768.042 107.3 767.052 108.866 764.964 108.866C762.966 108.866 761.85 107.192 761.85 105.464C761.85 103.628 762.858 102.044 764.928 102.044ZM772.216 100.892V110.702C772.216 112.124 771.838 112.844 770.56 112.844C770.506 112.844 770.434 112.844 770.38 112.844V114.248C770.416 114.248 770.524 114.248 770.632 114.248C773.458 114.248 773.926 112.556 773.926 110.324V100.892H772.216ZM773.926 98.534V96.482H772.234V98.534H773.926ZM785.548 105.86C785.548 105.68 785.548 105.554 785.548 105.41C785.548 103.178 784.324 100.64 780.868 100.64C778.006 100.64 776.17 102.728 776.17 105.482C776.17 107.876 777.646 110.252 780.922 110.252C783.64 110.252 784.936 108.776 785.422 107.408H783.712C783.226 108.308 782.434 108.884 781.012 108.884C779.158 108.884 777.988 107.606 777.88 105.86H785.548ZM777.916 104.636C778.078 103.142 778.996 101.972 780.868 101.972C783.118 101.972 783.694 103.556 783.766 104.636H777.916ZM794.787 107.156C794.337 108.2 793.527 108.866 792.051 108.866C790.071 108.866 788.991 107.354 788.991 105.446C788.991 103.466 790.125 102.026 792.033 102.026C793.743 102.026 794.463 102.962 794.769 103.808H796.479C796.281 102.602 795.129 100.64 792.069 100.64C789.009 100.64 787.245 102.89 787.245 105.482C787.245 108.074 788.811 110.252 792.033 110.252C794.625 110.252 796.065 108.812 796.515 107.156H794.787ZM797.622 102.242H799.422V107.462C799.422 109.244 799.998 110.09 801.888 110.09C802.41 110.09 802.878 110.072 803.292 109.928V108.668C803.022 108.74 802.662 108.74 802.392 108.74C801.402 108.74 801.132 108.272 801.132 107.228V102.242H803.508V100.892H801.132V97.958H799.422V100.892H797.622V102.242ZM809.682 100.892L812.67 110H814.524C815.802 106.472 816.72 103.718 816.954 102.836H816.972C817.278 103.898 818.322 106.814 819.402 110H821.184L824.334 100.892H822.624C821.112 105.554 820.536 107.498 820.338 108.38H820.32C820.158 107.642 819.708 106.274 817.872 100.892H816.234C814.344 106.346 813.966 107.534 813.714 108.47H813.696C813.48 107.48 813.12 106.22 811.464 100.892H809.682ZM834.82 105.86C834.82 105.68 834.82 105.554 834.82 105.41C834.82 103.178 833.596 100.64 830.14 100.64C827.278 100.64 825.442 102.728 825.442 105.482C825.442 107.876 826.918 110.252 830.194 110.252C832.912 110.252 834.208 108.776 834.694 107.408H832.984C832.498 108.308 831.706 108.884 830.284 108.884C828.43 108.884 827.26 107.606 827.152 105.86H834.82ZM827.188 104.636C827.35 103.142 828.268 101.972 830.14 101.972C832.39 101.972 832.966 103.556 833.038 104.636H827.188ZM851.117 103.538C851.117 102.656 851.117 101.774 851.135 100.892H849.479C849.461 101.144 849.443 101.864 849.425 102.296C849.155 101.594 848.309 100.64 846.221 100.64C843.773 100.64 841.649 102.656 841.649 105.572C841.649 108.146 843.431 110.162 846.005 110.162C847.895 110.162 848.885 109.478 849.425 108.416V108.902C849.425 111.17 848.993 112.88 846.329 112.88C844.439 112.88 843.773 112.052 843.503 111.116H841.757C841.919 112.196 842.657 114.248 846.239 114.248C849.983 114.248 851.117 112.25 851.117 108.812V103.538ZM846.527 102.08C848.399 102.08 849.479 103.268 849.479 105.392C849.479 107.552 848.327 108.722 846.437 108.722C844.637 108.722 843.413 107.372 843.413 105.5C843.413 103.79 844.403 102.08 846.527 102.08ZM862.752 105.86C862.752 105.68 862.752 105.554 862.752 105.41C862.752 103.178 861.528 100.64 858.072 100.64C855.21 100.64 853.374 102.728 853.374 105.482C853.374 107.876 854.85 110.252 858.126 110.252C860.844 110.252 862.14 108.776 862.626 107.408H860.916C860.43 108.308 859.638 108.884 858.216 108.884C856.362 108.884 855.192 107.606 855.084 105.86H862.752ZM855.12 104.636C855.282 103.142 856.2 101.972 858.072 101.972C860.322 101.972 860.898 103.556 860.97 104.636H855.12ZM863.786 102.242H865.586V107.462C865.586 109.244 866.162 110.09 868.052 110.09C868.574 110.09 869.042 110.072 869.456 109.928V108.668C869.186 108.74 868.826 108.74 868.556 108.74C867.566 108.74 867.296 108.272 867.296 107.228V102.242H869.672V100.892H867.296V97.958H865.586V100.892H863.786V102.242ZM876.962 110H878.672V100.892H876.962V110ZM876.962 98.534H878.672V96.482H876.962V98.534ZM881.567 110H883.295V105.644C883.295 103.538 884.231 102.08 886.121 102.08C887.813 102.08 888.389 103.268 888.389 104.78V110H890.117V104.456C890.117 101.972 888.731 100.64 886.589 100.64C884.627 100.64 883.691 101.702 883.295 102.584C883.277 101.972 883.259 101.216 883.223 100.892H881.549C881.567 101.576 881.567 102.422 881.567 103.196V110ZM891.505 100.892L895.519 110H897.391L901.387 100.892H899.623C897.391 106.112 896.779 107.66 896.527 108.434H896.509C896.167 107.444 894.187 102.998 893.359 100.892H891.505ZM907.154 100.64C904.076 100.64 902.258 102.854 902.258 105.464C902.258 107.984 903.986 110.252 907.064 110.252C910.322 110.252 911.96 107.984 911.96 105.446C911.96 103.034 910.304 100.64 907.154 100.64ZM907.082 102.044C909.098 102.044 910.196 103.646 910.196 105.482C910.196 107.3 909.206 108.866 907.118 108.866C905.12 108.866 904.004 107.192 904.004 105.464C904.004 103.628 905.012 102.044 907.082 102.044ZM915.973 110V96.482H914.245V110H915.973ZM917.767 100.892L921.781 110H923.653L927.649 100.892H925.885C923.653 106.112 923.041 107.66 922.789 108.434H922.771C922.429 107.444 920.449 102.998 919.621 100.892H917.767ZM937.898 105.86C937.898 105.68 937.898 105.554 937.898 105.41C937.898 103.178 936.674 100.64 933.218 100.64C930.356 100.64 928.52 102.728 928.52 105.482C928.52 107.876 929.996 110.252 933.272 110.252C935.99 110.252 937.286 108.776 937.772 107.408H936.062C935.576 108.308 934.784 108.884 933.362 108.884C931.508 108.884 930.338 107.606 930.23 105.86H937.898ZM930.266 104.636C930.428 103.142 931.346 101.972 933.218 101.972C935.468 101.972 936.044 103.556 936.116 104.636H930.266ZM947.352 96.482V102.044C947.1 101.612 946.362 100.64 944.22 100.64C941.844 100.64 939.594 102.53 939.594 105.536C939.594 108.29 941.376 110.252 944.004 110.252C946.11 110.252 946.902 109.406 947.352 108.614C947.352 109.082 947.37 109.622 947.424 110H949.098C949.08 109.136 949.08 108.236 949.08 107.354V96.482H947.352ZM944.436 102.08C946.722 102.08 947.424 103.412 947.424 105.428C947.424 107.426 946.542 108.83 944.364 108.83C942.384 108.83 941.358 107.174 941.358 105.5C941.358 103.772 942.366 102.08 944.436 102.08ZM957.329 110H959.039V100.892H957.329V110ZM957.329 98.534H959.039V96.482H957.329V98.534ZM961.934 110H963.662V105.644C963.662 103.538 964.598 102.08 966.488 102.08C968.18 102.08 968.756 103.268 968.756 104.78V110H970.484V104.456C970.484 101.972 969.098 100.64 966.956 100.64C964.994 100.64 964.058 101.702 963.662 102.584C963.644 101.972 963.626 101.216 963.59 100.892H961.916C961.934 101.576 961.934 102.422 961.934 103.196V110ZM975.03 110V107.066H973.14V110H975.03ZM987.606 110C988.668 106.742 990.612 100.784 990.936 99.146H990.954C991.278 100.658 993.312 107.102 994.23 110H996.21L1000.46 97.22H998.64C997.668 100.208 995.688 106.31 995.274 108.218H995.256C994.968 106.814 992.88 100.082 991.962 97.22H990.162C989.136 100.316 987.12 106.454 986.778 108.272H986.76C986.49 106.562 984.546 100.37 983.61 97.22H981.702L985.662 110H987.606ZM1010.11 105.86C1010.11 105.68 1010.11 105.554 1010.11 105.41C1010.11 103.178 1008.89 100.64 1005.43 100.64C1002.57 100.64 1000.73 102.728 1000.73 105.482C1000.73 107.876 1002.21 110.252 1005.48 110.252C1008.2 110.252 1009.5 108.776 1009.98 107.408H1008.27C1007.79 108.308 1007 108.884 1005.57 108.884C1003.72 108.884 1002.55 107.606 1002.44 105.86H1010.11ZM1002.48 104.636C1002.64 103.142 1003.56 101.972 1005.43 101.972C1007.68 101.972 1008.26 103.556 1008.33 104.636H1002.48ZM184.316 129.156C183.866 130.2 183.056 130.866 181.58 130.866C179.6 130.866 178.52 129.354 178.52 127.446C178.52 125.466 179.654 124.026 181.562 124.026C183.272 124.026 183.992 124.962 184.298 125.808H186.008C185.81 124.602 184.658 122.64 181.598 122.64C178.538 122.64 176.774 124.89 176.774 127.482C176.774 130.074 178.34 132.252 181.562 132.252C184.154 132.252 185.594 130.812 186.044 129.156H184.316ZM192.463 122.64C189.385 122.64 187.567 124.854 187.567 127.464C187.567 129.984 189.295 132.252 192.373 132.252C195.631 132.252 197.269 129.984 197.269 127.446C197.269 125.034 195.613 122.64 192.463 122.64ZM192.391 124.044C194.407 124.044 195.505 125.646 195.505 127.482C195.505 129.3 194.515 130.866 192.427 130.866C190.429 130.866 189.313 129.192 189.313 127.464C189.313 125.628 190.321 124.044 192.391 124.044ZM199.501 132H201.229V127.644C201.229 125.538 202.165 124.08 204.055 124.08C205.747 124.08 206.323 125.268 206.323 126.78V132H208.051V126.456C208.051 123.972 206.665 122.64 204.523 122.64C202.561 122.64 201.625 123.702 201.229 124.584C201.211 123.972 201.193 123.216 201.157 122.892H199.483C199.501 123.576 199.501 124.422 199.501 125.196V132ZM209.992 129.246C210.316 131.136 211.864 132.252 214.51 132.252C217.462 132.252 218.704 131.046 218.704 129.408C218.704 128.058 218.056 126.996 214.636 126.528C212.548 126.258 212.134 125.862 212.134 125.178C212.134 124.656 212.476 123.936 214.168 123.936C216.166 123.936 216.544 124.818 216.688 125.376H218.398C218.308 124.278 217.426 122.64 214.258 122.64C211.36 122.64 210.406 124.152 210.406 125.322C210.406 126.456 211.018 127.572 214.222 127.986C216.526 128.256 216.994 128.778 216.994 129.534C216.994 130.344 216.364 130.956 214.618 130.956C212.98 130.956 212.044 130.326 211.72 129.246H209.992ZM220.946 132H222.656V122.892H220.946V132ZM220.946 120.534H222.656V118.482H220.946V120.534ZM232.643 118.482V124.044C232.391 123.612 231.653 122.64 229.511 122.64C227.135 122.64 224.885 124.53 224.885 127.536C224.885 130.29 226.667 132.252 229.295 132.252C231.401 132.252 232.193 131.406 232.643 130.614C232.643 131.082 232.661 131.622 232.715 132H234.389C234.371 131.136 234.371 130.236 234.371 129.354V118.482H232.643ZM229.727 124.08C232.013 124.08 232.715 125.412 232.715 127.428C232.715 129.426 231.833 130.83 229.655 130.83C227.675 130.83 226.649 129.174 226.649 127.5C226.649 125.772 227.657 124.08 229.727 124.08ZM245.988 127.86C245.988 127.68 245.988 127.554 245.988 127.41C245.988 125.178 244.764 122.64 241.308 122.64C238.446 122.64 236.61 124.728 236.61 127.482C236.61 129.876 238.086 132.252 241.362 132.252C244.08 132.252 245.376 130.776 245.862 129.408H244.152C243.666 130.308 242.874 130.884 241.452 130.884C239.598 130.884 238.428 129.606 238.32 127.86H245.988ZM238.356 126.636C238.518 125.142 239.436 123.972 241.308 123.972C243.558 123.972 244.134 125.556 244.206 126.636H238.356ZM248.245 132H249.955V128.202C249.955 125.52 251.539 124.26 253.645 124.296V122.658C251.863 122.64 250.549 123.558 249.955 124.944C249.955 124.134 249.919 123.162 249.883 122.892H248.227C248.245 123.72 248.245 124.548 248.245 125.376V132ZM260.761 132H262.471V122.892H260.761V132ZM260.761 120.534H262.471V118.482H260.761V120.534ZM264.407 124.242H266.207V129.462C266.207 131.244 266.783 132.09 268.673 132.09C269.195 132.09 269.663 132.072 270.077 131.928V130.668C269.807 130.74 269.447 130.74 269.177 130.74C268.187 130.74 267.917 130.272 267.917 129.228V124.242H270.293V122.892H267.917V119.958H266.207V122.892H264.407V124.242ZM276.413 124.242H278.213V129.462C278.213 131.244 278.789 132.09 280.679 132.09C281.201 132.09 281.669 132.072 282.083 131.928V130.668C281.813 130.74 281.453 130.74 281.183 130.74C280.193 130.74 279.923 130.272 279.923 129.228V124.242H282.299V122.892H279.923V119.958H278.213V122.892H276.413V124.242ZM288.316 122.64C285.238 122.64 283.42 124.854 283.42 127.464C283.42 129.984 285.148 132.252 288.226 132.252C291.484 132.252 293.122 129.984 293.122 127.446C293.122 125.034 291.466 122.64 288.316 122.64ZM288.244 124.044C290.26 124.044 291.358 125.646 291.358 127.482C291.358 129.3 290.368 130.866 288.28 130.866C286.282 130.866 285.166 129.192 285.166 127.464C285.166 125.628 286.174 124.044 288.244 124.044ZM300.68 128.868C300.68 129.912 300.68 130.848 300.662 132H302.318C302.336 131.694 302.354 131.046 302.354 130.596C302.822 131.424 303.722 132.252 305.666 132.252C308.258 132.252 310.166 130.344 310.166 127.302C310.166 124.638 308.33 122.64 305.774 122.64C303.83 122.64 302.858 123.594 302.408 124.314V118.482H300.68V128.868ZM305.414 130.812C303.524 130.812 302.336 129.516 302.336 127.446C302.336 125.538 303.326 124.08 305.396 124.08C307.52 124.08 308.402 125.808 308.402 127.356C308.402 129.156 307.538 130.812 305.414 130.812ZM321.117 127.86C321.117 127.68 321.117 127.554 321.117 127.41C321.117 125.178 319.893 122.64 316.437 122.64C313.575 122.64 311.739 124.728 311.739 127.482C311.739 129.876 313.215 132.252 316.491 132.252C319.209 132.252 320.505 130.776 320.991 129.408H319.281C318.795 130.308 318.003 130.884 316.581 130.884C314.727 130.884 313.557 129.606 313.449 127.86H321.117ZM313.485 126.636C313.647 125.142 314.565 123.972 316.437 123.972C318.687 123.972 319.263 125.556 319.335 126.636H313.485ZM327.477 124.242H329.277V129.462C329.277 131.244 329.853 132.09 331.743 132.09C332.265 132.09 332.733 132.072 333.147 131.928V130.668C332.877 130.74 332.517 130.74 332.247 130.74C331.257 130.74 330.987 130.272 330.987 129.228V124.242H333.363V122.892H330.987V119.958H329.277V122.892H327.477V124.242ZM335.309 118.482V132H337.037V127.536C337.037 125.628 337.955 124.08 339.881 124.08C341.573 124.08 342.131 125.232 342.131 126.762V132H343.841V126.51C343.841 123.918 342.473 122.64 340.385 122.64C338.189 122.64 337.343 123.864 337.019 124.53V118.482H335.309ZM355.465 127.86C355.465 127.68 355.465 127.554 355.465 127.41C355.465 125.178 354.241 122.64 350.785 122.64C347.923 122.64 346.087 124.728 346.087 127.482C346.087 129.876 347.562 132.252 350.839 132.252C353.557 132.252 354.853 130.776 355.339 129.408H353.629C353.143 130.308 352.351 130.884 350.929 130.884C349.075 130.884 347.905 129.606 347.797 127.86H355.465ZM347.833 126.636C347.995 125.142 348.913 123.972 350.785 123.972C353.035 123.972 353.611 125.556 353.683 126.636H347.833ZM362.131 129.246C362.455 131.136 364.003 132.252 366.649 132.252C369.601 132.252 370.843 131.046 370.843 129.408C370.843 128.058 370.195 126.996 366.775 126.528C364.687 126.258 364.273 125.862 364.273 125.178C364.273 124.656 364.615 123.936 366.307 123.936C368.305 123.936 368.683 124.818 368.827 125.376H370.537C370.447 124.278 369.565 122.64 366.397 122.64C363.499 122.64 362.545 124.152 362.545 125.322C362.545 126.456 363.157 127.572 366.361 127.986C368.665 128.256 369.133 128.778 369.133 129.534C369.133 130.344 368.503 130.956 366.757 130.956C365.119 130.956 364.183 130.326 363.859 129.246H362.131ZM377.964 132.252C380.43 132.252 382.482 130.272 382.482 127.302C382.482 124.656 380.7 122.64 378.252 122.64C376.344 122.64 375.282 123.522 374.742 124.476C374.742 123.774 374.724 123.162 374.688 122.892H373.014C373.032 123.648 373.032 124.422 373.032 125.178V135.996H374.742V130.668C375.228 131.442 376.074 132.252 377.964 132.252ZM377.694 130.812C375.696 130.812 374.688 129.408 374.688 127.5C374.688 125.592 375.624 124.08 377.73 124.08C379.782 124.08 380.718 125.754 380.718 127.374C380.718 129.192 379.71 130.812 377.694 130.812ZM393.433 127.86C393.433 127.68 393.433 127.554 393.433 127.41C393.433 125.178 392.209 122.64 388.753 122.64C385.891 122.64 384.055 124.728 384.055 127.482C384.055 129.876 385.531 132.252 388.807 132.252C391.525 132.252 392.821 130.776 393.307 129.408H391.597C391.111 130.308 390.319 130.884 388.897 130.884C387.043 130.884 385.873 129.606 385.765 127.86H393.433ZM385.801 126.636C385.963 125.142 386.881 123.972 388.753 123.972C391.003 123.972 391.579 125.556 391.651 126.636H385.801ZM402.671 129.156C402.221 130.2 401.411 130.866 399.935 130.866C397.955 130.866 396.875 129.354 396.875 127.446C396.875 125.466 398.009 124.026 399.917 124.026C401.627 124.026 402.347 124.962 402.653 125.808H404.363C404.165 124.602 403.013 122.64 399.953 122.64C396.893 122.64 395.129 124.89 395.129 127.482C395.129 130.074 396.695 132.252 399.917 132.252C402.509 132.252 403.949 130.812 404.399 129.156H402.671ZM406.677 132H408.387V122.892H406.677V132ZM406.677 120.534H408.387V118.482H406.677V120.534ZM419.309 125.772C419.309 124.26 418.571 122.64 415.259 122.64C412.127 122.64 411.317 124.35 411.209 125.556H412.919C413.099 124.71 413.513 123.954 415.259 123.954C417.203 123.954 417.617 124.872 417.617 125.88V126.348C417.311 126.348 416.501 126.348 415.403 126.348C412.811 126.348 410.687 126.996 410.687 129.336C410.687 130.704 411.641 132.252 414.215 132.252C416.141 132.252 417.167 131.622 417.653 130.668C417.653 130.974 417.689 131.676 417.761 132H419.381C419.363 131.802 419.309 130.65 419.309 129.75V125.772ZM417.617 127.968C417.617 129.498 416.969 130.92 414.557 130.92C413.045 130.92 412.379 130.146 412.379 129.246C412.379 128.022 413.351 127.572 415.439 127.572C416.735 127.572 417.347 127.572 417.617 127.572V127.968ZM423.979 132V118.482H422.251V132H423.979ZM432.218 132H433.928V122.892H432.218V132ZM432.218 120.534H433.928V118.482H432.218V120.534ZM436.823 132H438.551V127.644C438.551 125.538 439.487 124.08 441.377 124.08C443.069 124.08 443.645 125.268 443.645 126.78V132H445.373V126.456C445.373 123.972 443.987 122.64 441.845 122.64C439.883 122.64 438.947 123.702 438.551 124.584C438.533 123.972 438.515 123.216 438.479 122.892H436.805C436.823 123.576 436.823 124.422 436.823 125.196V132ZM457.05 125.538C457.05 124.656 457.05 123.774 457.068 122.892H455.412C455.394 123.144 455.376 123.864 455.358 124.296C455.088 123.594 454.242 122.64 452.154 122.64C449.706 122.64 447.582 124.656 447.582 127.572C447.582 130.146 449.364 132.162 451.938 132.162C453.828 132.162 454.818 131.478 455.358 130.416V130.902C455.358 133.17 454.926 134.88 452.262 134.88C450.372 134.88 449.706 134.052 449.436 133.116H447.69C447.852 134.196 448.59 136.248 452.172 136.248C455.916 136.248 457.05 134.25 457.05 130.812V125.538ZM452.46 124.08C454.332 124.08 455.412 125.268 455.412 127.392C455.412 129.552 454.26 130.722 452.37 130.722C450.57 130.722 449.346 129.372 449.346 127.5C449.346 125.79 450.336 124.08 452.46 124.08ZM460.062 132H461.772V128.202C461.772 125.52 463.356 124.26 465.462 124.296V122.658C463.68 122.64 462.366 123.558 461.772 124.944C461.772 124.134 461.736 123.162 461.7 122.892H460.044C460.062 123.72 460.062 124.548 460.062 125.376V132ZM475.822 127.86C475.822 127.68 475.822 127.554 475.822 127.41C475.822 125.178 474.598 122.64 471.142 122.64C468.28 122.64 466.444 124.728 466.444 127.482C466.444 129.876 467.92 132.252 471.196 132.252C473.914 132.252 475.21 130.776 475.696 129.408H473.986C473.5 130.308 472.708 130.884 471.286 130.884C469.432 130.884 468.262 129.606 468.154 127.86H475.822ZM468.19 126.636C468.352 125.142 469.27 123.972 471.142 123.972C473.392 123.972 473.968 125.556 474.04 126.636H468.19ZM485.276 118.482V124.044C485.024 123.612 484.286 122.64 482.144 122.64C479.768 122.64 477.518 124.53 477.518 127.536C477.518 130.29 479.3 132.252 481.928 132.252C484.034 132.252 484.826 131.406 485.276 130.614C485.276 131.082 485.294 131.622 485.348 132H487.022C487.004 131.136 487.004 130.236 487.004 129.354V118.482H485.276ZM482.36 124.08C484.646 124.08 485.348 125.412 485.348 127.428C485.348 129.426 484.466 130.83 482.288 130.83C480.308 130.83 479.282 129.174 479.282 127.5C479.282 125.772 480.29 124.08 482.36 124.08ZM489.979 132H491.689V122.892H489.979V132ZM489.979 120.534H491.689V118.482H489.979V120.534ZM503.297 127.86C503.297 127.68 503.297 127.554 503.297 127.41C503.297 125.178 502.073 122.64 498.617 122.64C495.755 122.64 493.919 124.728 493.919 127.482C493.919 129.876 495.395 132.252 498.671 132.252C501.389 132.252 502.685 130.776 503.171 129.408H501.461C500.975 130.308 500.183 130.884 498.761 130.884C496.907 130.884 495.737 129.606 495.629 127.86H503.297ZM495.665 126.636C495.827 125.142 496.745 123.972 498.617 123.972C500.867 123.972 501.443 125.556 501.515 126.636H495.665ZM505.536 132H507.264V127.644C507.264 125.538 508.2 124.08 510.09 124.08C511.782 124.08 512.358 125.268 512.358 126.78V132H514.086V126.456C514.086 123.972 512.7 122.64 510.558 122.64C508.596 122.64 507.66 123.702 507.264 124.584C507.246 123.972 507.228 123.216 507.192 122.892H505.518C505.536 123.576 505.536 124.422 505.536 125.196V132ZM515.634 124.242H517.434V129.462C517.434 131.244 518.01 132.09 519.9 132.09C520.422 132.09 520.89 132.072 521.304 131.928V130.668C521.034 130.74 520.674 130.74 520.404 130.74C519.414 130.74 519.144 130.272 519.144 129.228V124.242H521.52V122.892H519.144V119.958H517.434V122.892H515.634V124.242ZM527.64 124.242H529.44V129.462C529.44 131.244 530.016 132.09 531.906 132.09C532.428 132.09 532.896 132.072 533.31 131.928V130.668C533.04 130.74 532.68 130.74 532.41 130.74C531.42 130.74 531.15 130.272 531.15 129.228V124.242H533.526V122.892H531.15V119.958H529.44V122.892H527.64V124.242ZM535.471 118.482V132H537.199V127.536C537.199 125.628 538.117 124.08 540.043 124.08C541.735 124.08 542.293 125.232 542.293 126.762V132H544.003V126.51C544.003 123.918 542.635 122.64 540.547 122.64C538.351 122.64 537.505 123.864 537.181 124.53V118.482H535.471ZM554.819 125.772C554.819 124.26 554.081 122.64 550.769 122.64C547.637 122.64 546.827 124.35 546.719 125.556H548.429C548.609 124.71 549.023 123.954 550.769 123.954C552.713 123.954 553.127 124.872 553.127 125.88V126.348C552.821 126.348 552.011 126.348 550.913 126.348C548.321 126.348 546.197 126.996 546.197 129.336C546.197 130.704 547.151 132.252 549.725 132.252C551.651 132.252 552.677 131.622 553.163 130.668C553.163 130.974 553.199 131.676 553.271 132H554.891C554.873 131.802 554.819 130.65 554.819 129.75V125.772ZM553.127 127.968C553.127 129.498 552.479 130.92 550.067 130.92C548.555 130.92 547.889 130.146 547.889 129.246C547.889 128.022 548.861 127.572 550.949 127.572C552.245 127.572 552.857 127.572 553.127 127.572V127.968ZM556.327 124.242H558.127V129.462C558.127 131.244 558.703 132.09 560.593 132.09C561.115 132.09 561.583 132.072 561.997 131.928V130.668C561.727 130.74 561.367 130.74 561.097 130.74C560.107 130.74 559.837 130.272 559.837 129.228V124.242H562.213V122.892H559.837V119.958H558.127V122.892H556.327V124.242ZM578.269 125.538C578.269 124.656 578.269 123.774 578.287 122.892H576.631C576.613 123.144 576.595 123.864 576.577 124.296C576.307 123.594 575.461 122.64 573.373 122.64C570.925 122.64 568.801 124.656 568.801 127.572C568.801 130.146 570.583 132.162 573.157 132.162C575.047 132.162 576.037 131.478 576.577 130.416V130.902C576.577 133.17 576.145 134.88 573.481 134.88C571.591 134.88 570.925 134.052 570.655 133.116H568.909C569.071 134.196 569.809 136.248 573.391 136.248C577.135 136.248 578.269 134.25 578.269 130.812V125.538ZM573.679 124.08C575.551 124.08 576.631 125.268 576.631 127.392C576.631 129.552 575.479 130.722 573.589 130.722C571.789 130.722 570.565 129.372 570.565 127.5C570.565 125.79 571.555 124.08 573.679 124.08ZM581.228 132H582.938V122.892H581.228V132ZM581.228 120.534H582.938V118.482H581.228V120.534ZM584.732 122.892L588.746 132H590.618L594.614 122.892H592.85C590.618 128.112 590.006 129.66 589.754 130.434H589.736C589.394 129.444 587.414 124.998 586.586 122.892H584.732ZM604.863 127.86C604.863 127.68 604.863 127.554 604.863 127.41C604.863 125.178 603.639 122.64 600.183 122.64C597.321 122.64 595.485 124.728 595.485 127.482C595.485 129.876 596.961 132.252 600.237 132.252C602.955 132.252 604.251 130.776 604.737 129.408H603.027C602.541 130.308 601.749 130.884 600.327 130.884C598.473 130.884 597.303 129.606 597.195 127.86H604.863ZM597.231 126.636C597.393 125.142 598.311 123.972 600.183 123.972C602.433 123.972 603.009 125.556 603.081 126.636H597.231ZM606.379 129.246C606.703 131.136 608.251 132.252 610.897 132.252C613.849 132.252 615.091 131.046 615.091 129.408C615.091 128.058 614.443 126.996 611.023 126.528C608.935 126.258 608.521 125.862 608.521 125.178C608.521 124.656 608.863 123.936 610.555 123.936C612.553 123.936 612.931 124.818 613.075 125.376H614.785C614.695 124.278 613.813 122.64 610.645 122.64C607.747 122.64 606.793 124.152 606.793 125.322C606.793 126.456 607.405 127.572 610.609 127.986C612.913 128.256 613.381 128.778 613.381 129.534C613.381 130.344 612.751 130.956 611.005 130.956C609.367 130.956 608.431 130.326 608.107 129.246H606.379ZM629.517 129.156C629.067 130.2 628.257 130.866 626.781 130.866C624.801 130.866 623.721 129.354 623.721 127.446C623.721 125.466 624.855 124.026 626.763 124.026C628.473 124.026 629.193 124.962 629.499 125.808H631.209C631.011 124.602 629.859 122.64 626.799 122.64C623.739 122.64 621.975 124.89 621.975 127.482C621.975 130.074 623.541 132.252 626.763 132.252C629.355 132.252 630.795 130.812 631.245 129.156H629.517ZM633.469 118.482V132H635.197V127.536C635.197 125.628 636.115 124.08 638.041 124.08C639.733 124.08 640.291 125.232 640.291 126.762V132H642.001V126.51C642.001 123.918 640.633 122.64 638.545 122.64C636.349 122.64 635.503 123.864 635.179 124.53V118.482H633.469ZM652.817 125.772C652.817 124.26 652.079 122.64 648.767 122.64C645.635 122.64 644.825 124.35 644.717 125.556H646.427C646.607 124.71 647.021 123.954 648.767 123.954C650.711 123.954 651.125 124.872 651.125 125.88V126.348C650.819 126.348 650.009 126.348 648.911 126.348C646.319 126.348 644.195 126.996 644.195 129.336C644.195 130.704 645.149 132.252 647.723 132.252C649.649 132.252 650.675 131.622 651.161 130.668C651.161 130.974 651.197 131.676 651.269 132H652.889C652.871 131.802 652.817 130.65 652.817 129.75V125.772ZM651.125 127.968C651.125 129.498 650.477 130.92 648.065 130.92C646.553 130.92 645.887 130.146 645.887 129.246C645.887 128.022 646.859 127.572 648.947 127.572C650.243 127.572 650.855 127.572 651.125 127.572V127.968ZM655.829 132H657.539V128.202C657.539 125.52 659.123 124.26 661.229 124.296V122.658C659.447 122.64 658.133 123.558 657.539 124.944C657.539 124.134 657.503 123.162 657.467 122.892H655.811C655.829 123.72 655.829 124.548 655.829 125.376V132ZM663.001 132H664.711V127.14C664.711 125.412 665.377 124.062 667.087 124.062C668.707 124.062 669.067 125.286 669.067 126.366V132H670.777V127.014C670.777 125.052 671.713 124.062 673.171 124.062C674.791 124.062 675.133 125.376 675.133 126.438V132H676.825V126.384C676.825 123.684 675.367 122.64 673.567 122.64C671.767 122.64 670.921 123.612 670.435 124.386C670.039 123.36 669.139 122.64 667.645 122.64C666.043 122.64 665.161 123.486 664.693 124.26C664.711 123.792 664.693 123.27 664.639 122.892H662.983C663.001 123.684 663.001 124.458 663.001 125.25V132ZM683.839 124.242H685.639V129.462C685.639 131.244 686.215 132.09 688.105 132.09C688.627 132.09 689.095 132.072 689.509 131.928V130.668C689.239 130.74 688.879 130.74 688.609 130.74C687.619 130.74 687.349 130.272 687.349 129.228V124.242H689.725V122.892H687.349V119.958H685.639V122.892H683.839V124.242ZM695.742 122.64C692.664 122.64 690.846 124.854 690.846 127.464C690.846 129.984 692.574 132.252 695.652 132.252C698.91 132.252 700.548 129.984 700.548 127.446C700.548 125.034 698.892 122.64 695.742 122.64ZM695.67 124.044C697.686 124.044 698.784 125.646 698.784 127.482C698.784 129.3 697.794 130.866 695.706 130.866C693.708 130.866 692.592 129.192 692.592 127.464C692.592 125.628 693.6 124.044 695.67 124.044ZM712.336 122.64C709.258 122.64 707.44 124.854 707.44 127.464C707.44 129.984 709.168 132.252 712.246 132.252C715.504 132.252 717.142 129.984 717.142 127.446C717.142 125.034 715.486 122.64 712.336 122.64ZM712.264 124.044C714.28 124.044 715.378 125.646 715.378 127.482C715.378 129.3 714.388 130.866 712.3 130.866C710.302 130.866 709.186 129.192 709.186 127.464C709.186 125.628 710.194 124.044 712.264 124.044ZM727.762 122.892H726.052V127.014C726.052 129.678 725.206 130.812 723.244 130.812C721.606 130.812 721.066 129.606 721.066 128.238V122.892H719.356V128.544C719.356 131.208 720.85 132.252 722.776 132.252C724.774 132.252 725.602 131.496 726.052 130.47C726.052 131.118 726.088 131.748 726.124 132H727.762C727.744 131.118 727.762 130.236 727.762 129.354V122.892ZM730.677 132H732.387V128.202C732.387 125.52 733.971 124.26 736.077 124.296V122.658C734.295 122.64 732.981 123.558 732.387 124.944C732.387 124.134 732.351 123.162 732.315 122.892H730.659C730.677 123.72 730.677 124.548 730.677 125.376V132ZM742.076 122.892L745.064 132H746.918C748.196 128.472 749.114 125.718 749.348 124.836H749.366C749.672 125.898 750.716 128.814 751.796 132H753.578L756.728 122.892H755.018C753.506 127.554 752.93 129.498 752.732 130.38H752.714C752.552 129.642 752.102 128.274 750.266 122.892H748.628C746.738 128.346 746.36 129.534 746.108 130.47H746.09C745.874 129.48 745.514 128.22 743.858 122.892H742.076ZM762.733 122.64C759.655 122.64 757.837 124.854 757.837 127.464C757.837 129.984 759.565 132.252 762.643 132.252C765.901 132.252 767.539 129.984 767.539 127.446C767.539 125.034 765.883 122.64 762.733 122.64ZM762.661 124.044C764.677 124.044 765.775 125.646 765.775 127.482C765.775 129.3 764.785 130.866 762.697 130.866C760.699 130.866 759.583 129.192 759.583 127.464C759.583 125.628 760.591 124.044 762.661 124.044ZM769.788 132H771.498V128.202C771.498 125.52 773.082 124.26 775.188 124.296V122.658C773.406 122.64 772.092 123.558 771.498 124.944C771.498 124.134 771.462 123.162 771.426 122.892H769.77C769.788 123.72 769.788 124.548 769.788 125.376V132ZM778.934 118.482H777.206V132H778.934V128.778L780.644 127.41L784.388 132H786.566L781.904 126.438L786.116 122.892H783.956C782.534 124.134 779.888 126.384 778.934 127.266V118.482ZM801.264 125.772C801.264 124.26 800.526 122.64 797.214 122.64C794.082 122.64 793.272 124.35 793.164 125.556H794.874C795.054 124.71 795.468 123.954 797.214 123.954C799.158 123.954 799.572 124.872 799.572 125.88V126.348C799.266 126.348 798.456 126.348 797.358 126.348C794.766 126.348 792.642 126.996 792.642 129.336C792.642 130.704 793.596 132.252 796.17 132.252C798.096 132.252 799.122 131.622 799.608 130.668C799.608 130.974 799.644 131.676 799.716 132H801.336C801.318 131.802 801.264 130.65 801.264 129.75V125.772ZM799.572 127.968C799.572 129.498 798.924 130.92 796.512 130.92C795 130.92 794.334 130.146 794.334 129.246C794.334 128.022 795.306 127.572 797.394 127.572C798.69 127.572 799.302 127.572 799.572 127.572V127.968ZM804.258 132H805.986V127.644C805.986 125.538 806.922 124.08 808.812 124.08C810.504 124.08 811.08 125.268 811.08 126.78V132H812.808V126.456C812.808 123.972 811.422 122.64 809.28 122.64C807.318 122.64 806.382 123.702 805.986 124.584C805.968 123.972 805.95 123.216 805.914 122.892H804.24C804.258 123.576 804.258 124.422 804.258 125.196V132ZM822.794 118.482V124.044C822.542 123.612 821.804 122.64 819.662 122.64C817.286 122.64 815.036 124.53 815.036 127.536C815.036 130.29 816.818 132.252 819.446 132.252C821.552 132.252 822.344 131.406 822.794 130.614C822.794 131.082 822.812 131.622 822.866 132H824.54C824.522 131.136 824.522 130.236 824.522 129.354V118.482H822.794ZM819.878 124.08C822.164 124.08 822.866 125.412 822.866 127.428C822.866 129.426 821.984 130.83 819.806 130.83C817.826 130.83 816.8 129.174 816.8 127.5C816.8 125.772 817.808 124.08 819.878 124.08ZM831.655 122.892L834.643 132H836.497C837.775 128.472 838.693 125.718 838.927 124.836H838.945C839.251 125.898 840.295 128.814 841.375 132H843.157L846.307 122.892H844.597C843.085 127.554 842.509 129.498 842.311 130.38H842.293C842.131 129.642 841.681 128.274 839.845 122.892H838.207C836.317 128.346 835.938 129.534 835.687 130.47H835.669C835.453 129.48 835.093 128.22 833.437 122.892H831.655ZM856.793 127.86C856.793 127.68 856.793 127.554 856.793 127.41C856.793 125.178 855.569 122.64 852.113 122.64C849.251 122.64 847.415 124.728 847.415 127.482C847.415 129.876 848.891 132.252 852.167 132.252C854.885 132.252 856.181 130.776 856.667 129.408H854.957C854.471 130.308 853.679 130.884 852.257 130.884C850.403 130.884 849.233 129.606 849.125 127.86H856.793ZM849.161 126.636C849.323 125.142 850.241 123.972 852.113 123.972C854.363 123.972 854.939 125.556 855.011 126.636H849.161ZM863.207 122.892L866.195 132H868.049C869.327 128.472 870.245 125.718 870.479 124.836H870.497C870.803 125.898 871.847 128.814 872.927 132H874.709L877.859 122.892H876.149C874.637 127.554 874.061 129.498 873.863 130.38H873.845C873.683 129.642 873.233 128.274 871.397 122.892H869.759C867.869 128.346 867.491 129.534 867.239 130.47H867.221C867.005 129.48 866.645 128.22 864.989 122.892H863.207ZM887.502 125.772C887.502 124.26 886.764 122.64 883.452 122.64C880.32 122.64 879.51 124.35 879.402 125.556H881.112C881.292 124.71 881.706 123.954 883.452 123.954C885.396 123.954 885.81 124.872 885.81 125.88V126.348C885.504 126.348 884.694 126.348 883.596 126.348C881.004 126.348 878.88 126.996 878.88 129.336C878.88 130.704 879.834 132.252 882.408 132.252C884.334 132.252 885.36 131.622 885.846 130.668C885.846 130.974 885.882 131.676 885.954 132H887.574C887.556 131.802 887.502 130.65 887.502 129.75V125.772ZM885.81 127.968C885.81 129.498 885.162 130.92 882.75 130.92C881.238 130.92 880.572 130.146 880.572 129.246C880.572 128.022 881.544 127.572 883.632 127.572C884.928 127.572 885.54 127.572 885.81 127.572V127.968ZM890.497 132H892.225V127.644C892.225 125.538 893.161 124.08 895.051 124.08C896.743 124.08 897.319 125.268 897.319 126.78V132H899.047V126.456C899.047 123.972 897.661 122.64 895.519 122.64C893.557 122.64 892.621 123.702 892.225 124.584C892.207 123.972 892.189 123.216 892.153 122.892H890.479C890.497 123.576 890.497 124.422 890.497 125.196V132ZM900.595 124.242H902.395V129.462C902.395 131.244 902.971 132.09 904.861 132.09C905.383 132.09 905.851 132.072 906.265 131.928V130.668C905.995 130.74 905.635 130.74 905.365 130.74C904.375 130.74 904.105 130.272 904.105 129.228V124.242H906.481V122.892H904.105V119.958H902.395V122.892H900.595V124.242ZM912.601 124.242H914.401V129.462C914.401 131.244 914.977 132.09 916.867 132.09C917.389 132.09 917.857 132.072 918.271 131.928V130.668C918.001 130.74 917.641 130.74 917.371 130.74C916.381 130.74 916.111 130.272 916.111 129.228V124.242H918.487V122.892H916.111V119.958H914.401V122.892H912.601V124.242ZM924.504 122.64C921.426 122.64 919.608 124.854 919.608 127.464C919.608 129.984 921.336 132.252 924.414 132.252C927.672 132.252 929.31 129.984 929.31 127.446C929.31 125.034 927.654 122.64 924.504 122.64ZM924.432 124.044C926.448 124.044 927.546 125.646 927.546 127.482C927.546 129.3 926.556 130.866 924.468 130.866C922.47 130.866 921.354 129.192 921.354 127.464C921.354 125.628 922.362 124.044 924.432 124.044ZM936.868 118.482V132H938.596V127.536C938.596 125.628 939.514 124.08 941.44 124.08C943.132 124.08 943.69 125.232 943.69 126.762V132H945.4V126.51C945.4 123.918 944.032 122.64 941.944 122.64C939.748 122.64 938.902 123.864 938.578 124.53V118.482H936.868ZM956.215 125.772C956.215 124.26 955.477 122.64 952.165 122.64C949.033 122.64 948.223 124.35 948.115 125.556H949.825C950.005 124.71 950.419 123.954 952.165 123.954C954.109 123.954 954.523 124.872 954.523 125.88V126.348C954.217 126.348 953.407 126.348 952.309 126.348C949.717 126.348 947.593 126.996 947.593 129.336C947.593 130.704 948.547 132.252 951.121 132.252C953.047 132.252 954.073 131.622 954.559 130.668C954.559 130.974 954.595 131.676 954.667 132H956.287C956.269 131.802 956.215 130.65 956.215 129.75V125.772ZM954.523 127.968C954.523 129.498 953.875 130.92 951.463 130.92C949.951 130.92 949.285 130.146 949.285 129.246C949.285 128.022 950.257 127.572 952.345 127.572C953.641 127.572 954.253 127.572 954.523 127.572V127.968ZM957.687 122.892L961.701 132H963.573L967.569 122.892H965.805C963.573 128.112 962.961 129.66 962.709 130.434H962.691C962.349 129.444 960.369 124.998 959.541 122.892H957.687ZM977.818 127.86C977.818 127.68 977.818 127.554 977.818 127.41C977.818 125.178 976.594 122.64 973.138 122.64C970.276 122.64 968.44 124.728 968.44 127.482C968.44 129.876 969.916 132.252 973.192 132.252C975.91 132.252 977.206 130.776 977.692 129.408H975.982C975.496 130.308 974.704 130.884 973.282 130.884C971.428 130.884 970.258 129.606 970.15 127.86H977.818ZM970.186 126.636C970.348 125.142 971.266 123.972 973.138 123.972C975.388 123.972 975.964 125.556 976.036 126.636H970.186ZM992.207 129.156C991.757 130.2 990.947 130.866 989.471 130.866C987.491 130.866 986.411 129.354 986.411 127.446C986.411 125.466 987.545 124.026 989.453 124.026C991.163 124.026 991.883 124.962 992.189 125.808H993.899C993.701 124.602 992.549 122.64 989.489 122.64C986.429 122.64 984.665 124.89 984.665 127.482C984.665 130.074 986.231 132.252 989.453 132.252C992.045 132.252 993.485 130.812 993.935 129.156H992.207ZM997.887 132V118.482H996.159V132H997.887ZM1000.85 132H1002.56V122.892H1000.85V132ZM1000.85 120.534H1002.56V118.482H1000.85V120.534ZM1014.17 127.86C1014.17 127.68 1014.17 127.554 1014.17 127.41C1014.17 125.178 1012.95 122.64 1009.49 122.64C1006.63 122.64 1004.79 124.728 1004.79 127.482C1004.79 129.876 1006.27 132.252 1009.54 132.252C1012.26 132.252 1013.56 130.776 1014.04 129.408H1012.33C1011.85 130.308 1011.06 130.884 1009.63 130.884C1007.78 130.884 1006.61 129.606 1006.5 127.86H1014.17ZM1006.54 126.636C1006.7 125.142 1007.62 123.972 1009.49 123.972C1011.74 123.972 1012.32 125.556 1012.39 126.636H1006.54ZM1016.41 132H1018.14V127.644C1018.14 125.538 1019.07 124.08 1020.96 124.08C1022.65 124.08 1023.23 125.268 1023.23 126.78V132H1024.96V126.456C1024.96 123.972 1023.57 122.64 1021.43 122.64C1019.47 122.64 1018.53 123.702 1018.14 124.584C1018.12 123.972 1018.1 123.216 1018.06 122.892H1016.39C1016.41 123.576 1016.41 124.422 1016.41 125.196V132ZM1026.51 124.242H1028.31V129.462C1028.31 131.244 1028.88 132.09 1030.77 132.09C1031.29 132.09 1031.76 132.072 1032.18 131.928V130.668C1031.91 130.74 1031.55 130.74 1031.28 130.74C1030.29 130.74 1030.02 130.272 1030.02 129.228V124.242H1032.39V122.892H1030.02V119.958H1028.31V122.892H1026.51V124.242ZM1033.67 129.246C1033.99 131.136 1035.54 132.252 1038.19 132.252C1041.14 132.252 1042.38 131.046 1042.38 129.408C1042.38 128.058 1041.73 126.996 1038.31 126.528C1036.22 126.258 1035.81 125.862 1035.81 125.178C1035.81 124.656 1036.15 123.936 1037.84 123.936C1039.84 123.936 1040.22 124.818 1040.36 125.376H1042.07C1041.98 124.278 1041.1 122.64 1037.93 122.64C1035.04 122.64 1034.08 124.152 1034.08 125.322C1034.08 126.456 1034.69 127.572 1037.9 127.986C1040.2 128.256 1040.67 128.778 1040.67 129.534C1040.67 130.344 1040.04 130.956 1038.29 130.956C1036.66 130.956 1035.72 130.326 1035.4 129.246H1033.67ZM176.594 151.246C176.918 153.136 178.466 154.252 181.112 154.252C184.064 154.252 185.306 153.046 185.306 151.408C185.306 150.058 184.658 148.996 181.238 148.528C179.15 148.258 178.736 147.862 178.736 147.178C178.736 146.656 179.078 145.936 180.77 145.936C182.768 145.936 183.146 146.818 183.29 147.376H185C184.91 146.278 184.028 144.64 180.86 144.64C177.962 144.64 177.008 146.152 177.008 147.322C177.008 148.456 177.62 149.572 180.824 149.986C183.128 150.256 183.596 150.778 183.596 151.534C183.596 152.344 182.966 152.956 181.22 152.956C179.582 152.956 178.646 152.326 178.322 151.246H176.594ZM187.548 154H189.258V144.892H187.548V154ZM187.548 142.534H189.258V140.482H187.548V142.534ZM192.153 154H193.863V149.14C193.863 147.412 194.529 146.062 196.239 146.062C197.859 146.062 198.219 147.286 198.219 148.366V154H199.929V149.014C199.929 147.052 200.865 146.062 202.323 146.062C203.943 146.062 204.285 147.376 204.285 148.438V154H205.977V148.384C205.977 145.684 204.519 144.64 202.719 144.64C200.919 144.64 200.073 145.612 199.587 146.386C199.191 145.36 198.291 144.64 196.797 144.64C195.195 144.64 194.313 145.486 193.845 146.26C193.863 145.792 193.845 145.27 193.791 144.892H192.135C192.153 145.684 192.153 146.458 192.153 147.25V154ZM208.976 154H210.686V144.892H208.976V154ZM208.976 142.534H210.686V140.482H208.976V142.534ZM215.397 154V140.482H213.669V154H215.397ZM226.319 147.772C226.319 146.26 225.581 144.64 222.269 144.64C219.137 144.64 218.327 146.35 218.219 147.556H219.929C220.109 146.71 220.523 145.954 222.269 145.954C224.213 145.954 224.627 146.872 224.627 147.88V148.348C224.321 148.348 223.511 148.348 222.413 148.348C219.821 148.348 217.697 148.996 217.697 151.336C217.697 152.704 218.651 154.252 221.225 154.252C223.151 154.252 224.177 153.622 224.663 152.668C224.663 152.974 224.699 153.676 224.771 154H226.391C226.373 153.802 226.319 152.65 226.319 151.75V147.772ZM224.627 149.968C224.627 151.498 223.979 152.92 221.567 152.92C220.055 152.92 219.389 152.146 219.389 151.246C219.389 150.022 220.361 149.572 222.449 149.572C223.745 149.572 224.357 149.572 224.627 149.572V149.968ZM229.331 154H231.041V150.202C231.041 147.52 232.625 146.26 234.731 146.296V144.658C232.949 144.64 231.635 145.558 231.041 146.944C231.041 146.134 231.005 145.162 230.969 144.892H229.313C229.331 145.72 229.331 146.548 229.331 147.376V154ZM240.677 146.242H242.477V151.462C242.477 153.244 243.053 154.09 244.943 154.09C245.465 154.09 245.933 154.072 246.347 153.928V152.668C246.077 152.74 245.717 152.74 245.447 152.74C244.457 152.74 244.187 152.272 244.187 151.228V146.242H246.563V144.892H244.187V141.958H242.477V144.892H240.677V146.242ZM252.58 144.64C249.502 144.64 247.684 146.854 247.684 149.464C247.684 151.984 249.412 154.252 252.49 154.252C255.748 154.252 257.386 151.984 257.386 149.446C257.386 147.034 255.73 144.64 252.58 144.64ZM252.508 146.044C254.524 146.044 255.622 147.646 255.622 149.482C255.622 151.3 254.632 152.866 252.544 152.866C250.546 152.866 249.43 151.192 249.43 149.464C249.43 147.628 250.438 146.044 252.508 146.044ZM273.35 144.892H271.64V149.014C271.64 151.678 270.794 152.812 268.832 152.812C267.194 152.812 266.654 151.606 266.654 150.238V144.892H264.944V150.544C264.944 153.208 266.438 154.252 268.364 154.252C270.362 154.252 271.19 153.496 271.64 152.47C271.64 153.118 271.676 153.748 271.712 154H273.35C273.332 153.118 273.35 152.236 273.35 151.354V144.892ZM275.383 151.246C275.707 153.136 277.255 154.252 279.901 154.252C282.853 154.252 284.095 153.046 284.095 151.408C284.095 150.058 283.447 148.996 280.027 148.528C277.939 148.258 277.525 147.862 277.525 147.178C277.525 146.656 277.867 145.936 279.559 145.936C281.557 145.936 281.935 146.818 282.079 147.376H283.789C283.699 146.278 282.817 144.64 279.649 144.64C276.751 144.64 275.797 146.152 275.797 147.322C275.797 148.456 276.409 149.572 279.613 149.986C281.917 150.256 282.385 150.778 282.385 151.534C282.385 152.344 281.755 152.956 280.009 152.956C278.371 152.956 277.435 152.326 277.111 151.246H275.383ZM288.147 154V151.066H286.257V154H288.147Z" fill="#F7F7F3"/>
<path d="M417.637 441V436.712C417.637 436.568 417.653 436.52 417.717 436.44L422.485 429.64H420.693C419.349 431.592 417.461 434.328 416.885 435.272C416.373 434.328 414.405 431.592 413.077 429.64H411.157L415.909 436.392C415.989 436.488 416.021 436.568 416.021 436.68V441H417.637ZM429.735 437.32C429.735 437.16 429.735 437.048 429.735 436.92C429.735 434.936 428.647 432.68 425.575 432.68C423.031 432.68 421.399 434.536 421.399 436.984C421.399 439.112 422.711 441.224 425.623 441.224C428.039 441.224 429.191 439.912 429.623 438.696H428.103C427.671 439.496 426.967 440.008 425.703 440.008C424.055 440.008 423.015 438.872 422.919 437.32H429.735ZM422.951 436.232C423.095 434.904 423.911 433.864 425.575 433.864C427.575 433.864 428.087 435.272 428.151 436.232H422.951ZM431.083 438.552C431.371 440.232 432.747 441.224 435.099 441.224C437.723 441.224 438.827 440.152 438.827 438.696C438.827 437.496 438.251 436.552 435.211 436.136C433.355 435.896 432.987 435.544 432.987 434.936C432.987 434.472 433.291 433.832 434.795 433.832C436.571 433.832 436.907 434.616 437.035 435.112H438.555C438.475 434.136 437.691 432.68 434.875 432.68C432.299 432.68 431.451 434.024 431.451 435.064C431.451 436.072 431.995 437.064 434.843 437.432C436.891 437.672 437.307 438.136 437.307 438.808C437.307 439.528 436.747 440.072 435.195 440.072C433.739 440.072 432.907 439.512 432.619 438.552H431.083Z" fill="#F7F7F3"/>
<rect x="339.5" y="228.5" width="171.328" height="171" rx="28.5" stroke="#F7F7F3" stroke-width="5"/>
<path d="M641.456 441V436.376C641.456 434.36 641.456 432.744 641.36 431.288H641.392C642.208 432.616 646.672 438.744 648.352 441H650.176V429.64H648.672V433.912C648.672 435.768 648.656 437.56 648.752 439.032H648.72C648.08 437.864 644.432 433.208 641.872 429.64H639.952V441H641.456ZM656.673 432.68C653.937 432.68 652.321 434.648 652.321 436.968C652.321 439.208 653.857 441.224 656.593 441.224C659.489 441.224 660.945 439.208 660.945 436.952C660.945 434.808 659.473 432.68 656.673 432.68ZM656.609 433.928C658.401 433.928 659.377 435.352 659.377 436.984C659.377 438.6 658.497 439.992 656.641 439.992C654.865 439.992 653.873 438.504 653.873 436.968C653.873 435.336 654.769 433.928 656.609 433.928Z" fill="#F7F7F3"/>
<rect x="564.5" y="228.5" width="171.328" height="171" rx="28.5" stroke="#F7F7F3" stroke-width="5"/>
<circle cx="425" cy="314" r="18" fill="#F7F7F3"/>
<circle cx="650" cy="314" r="17" stroke="#F7F7F3" stroke-width="2"/>
</svg>
