<svg width="1074" height="410" viewBox="0 0 1074 410" fill="none" xmlns="http://www.w3.org/2000/svg">
<path d="M100.08 28.32L104.038 28.8992L104.708 24.32H100.08V28.32ZM24.3 28.32V24.32H20.735L20.3264 27.8615L24.3 28.32ZM13.5 96.36L9.58267 95.551L8.74352 99.6142L12.8347 100.304L13.5 96.36ZM28.44 98.88L27.7747 102.824L30.6475 103.309L31.99 100.723L28.44 98.88ZM27.9 118.5L31.716 117.301L30.8358 114.5H27.9V118.5ZM10.98 118.5V114.5H6.27398L7.03227 119.145L10.98 118.5ZM32.76 77.64L28.8199 76.9505L26.762 88.7096L35.4893 80.5642L32.76 77.64ZM38.34 43.08V39.08H34.9039L34.3857 42.4768L38.34 43.08ZM97.92 43.08V47.08H101.377L101.878 43.6592L97.92 43.08ZM100.08 24.32H24.3V32.32H100.08V24.32ZM20.3264 27.8615C18.7177 41.8034 12.975 79.1247 9.58267 95.551L17.4173 97.169C20.865 80.4753 26.6423 42.9166 28.2736 28.7785L20.3264 27.8615ZM12.8347 100.304L27.7747 102.824L29.1053 94.9357L14.1653 92.4157L12.8347 100.304ZM31.99 100.723C34.2438 96.3826 36.9049 92.804 40.799 90.2579C44.6786 87.7212 50.1671 85.96 58.5 85.96V77.96C49.0129 77.96 41.9014 79.9788 36.421 83.5621C30.9551 87.136 27.4962 92.0173 24.89 97.0367L31.99 100.723ZM58.5 85.96C68.2185 85.96 74.0283 89.2175 77.4921 93.3991C81.0671 97.7151 82.58 103.548 82.58 109.32H90.58C90.58 102.312 88.7629 94.4648 83.653 88.2959C78.4317 81.9925 70.2016 77.96 58.5 77.96V85.96ZM82.58 109.32C82.58 117.159 80.224 123.319 76.1538 127.5C72.1018 131.662 65.9277 134.3 57.42 134.3V142.3C67.6323 142.3 76.0382 139.088 81.8862 133.08C87.716 127.091 90.58 118.761 90.58 109.32H82.58ZM57.42 134.3C50.1009 134.3 44.5568 132.64 40.4724 129.83C36.4143 127.037 33.4717 122.887 31.716 117.301L24.084 119.699C26.2883 126.713 30.1857 132.463 35.9376 136.42C41.6632 140.36 48.8991 142.3 57.42 142.3V134.3ZM27.9 114.5H10.98V122.5H27.9V114.5ZM7.03227 119.145C8.60948 128.805 13.3138 138.214 21.6943 145.198C30.0907 152.195 41.8897 156.52 57.24 156.52V148.52C43.4303 148.52 33.5393 144.655 26.8157 139.052C20.0762 133.436 16.2305 125.835 14.9277 117.855L7.03227 119.145ZM57.24 156.52C72.7346 156.52 85.5038 151.752 94.4222 143.134C103.349 134.507 108.04 122.384 108.04 108.42H100.04C100.04 120.556 96.0009 130.483 88.8628 137.381C81.7162 144.288 71.0855 148.52 57.24 148.52V156.52ZM108.04 108.42C108.04 95.2249 103.458 84.0148 95.2499 76.109C87.0573 68.218 75.5678 63.92 62.28 63.92V71.92C73.8322 71.92 83.2227 75.632 89.7001 81.8709C96.1622 88.0952 100.04 97.1351 100.04 108.42H108.04ZM62.28 63.92C45.8722 63.92 36.2316 68.9283 30.0307 74.7158L35.4893 80.5642C40.0884 76.2717 47.7278 71.92 62.28 71.92V63.92ZM36.7001 78.3295C37.967 71.09 40.6719 54.3187 42.2943 43.6832L34.3857 42.4768C32.7681 53.0813 30.073 69.79 28.8199 76.9505L36.7001 78.3295ZM38.34 47.08H97.92V39.08H38.34V47.08ZM101.878 43.6592L104.038 28.8992L96.1222 27.7408L93.9622 42.5008L101.878 43.6592ZM143.246 150V154H147.246V150H143.246ZM143.246 120.66H147.246V116.66H143.246V120.66ZM124.346 120.66V116.66H120.346V120.66H124.346ZM124.346 150H120.346V154H124.346V150ZM147.246 150V120.66H139.246V150H147.246ZM143.246 116.66H124.346V124.66H143.246V116.66ZM120.346 120.66V150H128.346V120.66H120.346ZM124.346 154H143.246V146H124.346V154Z" fill="#F7F7F3"/>
<path d="M200.7 101.134C199.256 104.25 197.204 106.416 192.112 106.416C185.842 106.416 182.156 101.552 182.156 95.434C182.156 89.202 185.88 84.642 192.074 84.642C197.394 84.642 199.56 87.264 200.738 90.076H204.652C203.588 85.63 199.94 81.45 192.15 81.45C183.524 81.45 178.09 87.834 178.09 95.586C178.09 103.3 182.954 109.57 191.922 109.57C199.636 109.57 203.018 105.732 204.576 101.134H200.7ZM226.342 95.852C226.342 92.66 224.784 89.24 217.792 89.24C211.18 89.24 209.47 92.85 209.242 95.396H212.852C213.232 93.61 214.106 92.014 217.792 92.014C221.896 92.014 222.77 93.952 222.77 96.08V97.068C222.124 97.068 220.414 97.068 218.096 97.068C212.624 97.068 208.14 98.436 208.14 103.376C208.14 106.264 210.154 109.532 215.588 109.532C219.654 109.532 221.82 108.202 222.846 106.188C222.846 106.834 222.922 108.316 223.074 109H226.494C226.456 108.582 226.342 106.15 226.342 104.25V95.852ZM222.77 100.488C222.77 103.718 221.402 106.72 216.31 106.72C213.118 106.72 211.712 105.086 211.712 103.186C211.712 100.602 213.764 99.652 218.172 99.652C220.908 99.652 222.2 99.652 222.77 99.652V100.488ZM232.663 109H236.311V99.804C236.311 95.358 238.287 92.28 242.277 92.28C245.849 92.28 247.065 94.788 247.065 97.98V109H250.713V97.296C250.713 92.052 247.787 89.24 243.265 89.24C239.123 89.24 237.147 91.482 236.311 93.344C236.273 92.052 236.235 90.456 236.159 89.772H232.625C232.663 91.216 232.663 93.002 232.663 94.636V109ZM258.045 91.634C259.223 88.974 260.591 83.73 260.857 80.462H257.133C256.905 84.148 256.069 88.442 255.081 91.634H258.045ZM264.038 92.622H267.838V103.642C267.838 107.404 269.054 109.19 273.044 109.19C274.146 109.19 275.134 109.152 276.008 108.848V106.188C275.438 106.34 274.678 106.34 274.108 106.34C272.018 106.34 271.448 105.352 271.448 103.148V92.622H276.464V89.772H271.448V83.578H267.838V89.772H264.038V92.622ZM289.497 89.772L295.805 109H299.719C302.417 101.552 304.355 95.738 304.849 93.876H304.887C305.533 96.118 307.737 102.274 310.017 109H313.779L320.429 89.772H316.819C313.627 99.614 312.411 103.718 311.993 105.58H311.955C311.613 104.022 310.663 101.134 306.787 89.772H303.329C299.339 101.286 298.541 103.794 298.009 105.77H297.971C297.515 103.68 296.755 101.02 293.259 89.772H289.497ZM340.787 95.852C340.787 92.66 339.229 89.24 332.237 89.24C325.625 89.24 323.915 92.85 323.687 95.396H327.297C327.677 93.61 328.551 92.014 332.237 92.014C336.341 92.014 337.215 93.952 337.215 96.08V97.068C336.569 97.068 334.859 97.068 332.541 97.068C327.069 97.068 322.585 98.436 322.585 103.376C322.585 106.264 324.599 109.532 330.033 109.532C334.099 109.532 336.265 108.202 337.291 106.188C337.291 106.834 337.367 108.316 337.519 109H340.939C340.901 108.582 340.787 106.15 340.787 104.25V95.852ZM337.215 100.488C337.215 103.718 335.847 106.72 330.755 106.72C327.563 106.72 326.157 105.086 326.157 103.186C326.157 100.602 328.209 99.652 332.617 99.652C335.353 99.652 336.645 99.652 337.215 99.652V100.488ZM347.072 109H350.682V89.772H347.072V109ZM347.072 84.794H350.682V80.462H347.072V84.794ZM354.77 92.622H358.57V103.642C358.57 107.404 359.786 109.19 363.776 109.19C364.878 109.19 365.866 109.152 366.74 108.848V106.188C366.17 106.34 365.41 106.34 364.84 106.34C362.75 106.34 362.18 105.352 362.18 103.148V92.622H367.196V89.772H362.18V83.578H358.57V89.772H354.77V92.622ZM380.116 92.622H383.916V103.642C383.916 107.404 385.132 109.19 389.122 109.19C390.224 109.19 391.212 109.152 392.086 108.848V106.188C391.516 106.34 390.756 106.34 390.186 106.34C388.096 106.34 387.526 105.352 387.526 103.148V92.622H392.542V89.772H387.526V83.578H383.916V89.772H380.116V92.622ZM405.245 89.24C398.747 89.24 394.909 93.914 394.909 99.424C394.909 104.744 398.557 109.532 405.055 109.532C411.933 109.532 415.391 104.744 415.391 99.386C415.391 94.294 411.895 89.24 405.245 89.24ZM405.093 92.204C409.349 92.204 411.667 95.586 411.667 99.462C411.667 103.3 409.577 106.606 405.169 106.606C400.951 106.606 398.595 103.072 398.595 99.424C398.595 95.548 400.723 92.204 405.093 92.204ZM445.863 102.996C444.913 105.2 443.203 106.606 440.087 106.606C435.907 106.606 433.627 103.414 433.627 99.386C433.627 95.206 436.021 92.166 440.049 92.166C443.659 92.166 445.179 94.142 445.825 95.928H449.435C449.017 93.382 446.585 89.24 440.125 89.24C433.665 89.24 429.941 93.99 429.941 99.462C429.941 104.934 433.247 109.532 440.049 109.532C445.521 109.532 448.561 106.492 449.511 102.996H445.863ZM463.062 89.24C456.564 89.24 452.726 93.914 452.726 99.424C452.726 104.744 456.374 109.532 462.872 109.532C469.75 109.532 473.208 104.744 473.208 99.386C473.208 94.294 469.712 89.24 463.062 89.24ZM462.91 92.204C467.166 92.204 469.484 95.586 469.484 99.462C469.484 103.3 467.394 106.606 462.986 106.606C458.768 106.606 456.412 103.072 456.412 99.424C456.412 95.548 458.54 92.204 462.91 92.204ZM477.919 109H481.567V99.804C481.567 95.358 483.543 92.28 487.533 92.28C491.105 92.28 492.321 94.788 492.321 97.98V109H495.969V97.296C495.969 92.052 493.043 89.24 488.521 89.24C484.379 89.24 482.403 91.482 481.567 93.344C481.529 92.052 481.491 90.456 481.415 89.772H477.881C477.919 91.216 477.919 93.002 477.919 94.636V109ZM502.226 109H505.874V99.804C505.874 95.358 507.85 92.28 511.84 92.28C515.412 92.28 516.628 94.788 516.628 97.98V109H520.276V97.296C520.276 92.052 517.35 89.24 512.828 89.24C508.686 89.24 506.71 91.482 505.874 93.344C505.836 92.052 505.798 90.456 505.722 89.772H502.188C502.226 91.216 502.226 93.002 502.226 94.636V109ZM544.776 100.26C544.776 99.88 544.776 99.614 544.776 99.31C544.776 94.598 542.192 89.24 534.896 89.24C528.854 89.24 524.978 93.648 524.978 99.462C524.978 104.516 528.094 109.532 535.01 109.532C540.748 109.532 543.484 106.416 544.51 103.528H540.9C539.874 105.428 538.202 106.644 535.2 106.644C531.286 106.644 528.816 103.946 528.588 100.26H544.776ZM528.664 97.676C529.006 94.522 530.944 92.052 534.896 92.052C539.646 92.052 540.862 95.396 541.014 97.676H528.664ZM564.279 102.996C563.329 105.2 561.619 106.606 558.503 106.606C554.323 106.606 552.043 103.414 552.043 99.386C552.043 95.206 554.437 92.166 558.465 92.166C562.075 92.166 563.595 94.142 564.241 95.928H567.851C567.433 93.382 565.001 89.24 558.541 89.24C552.081 89.24 548.357 93.99 548.357 99.462C548.357 104.934 551.663 109.532 558.465 109.532C563.937 109.532 566.977 106.492 567.927 102.996H564.279ZM570.264 92.622H574.064V103.642C574.064 107.404 575.28 109.19 579.27 109.19C580.372 109.19 581.36 109.152 582.234 108.848V106.188C581.664 106.34 580.904 106.34 580.334 106.34C578.244 106.34 577.674 105.352 577.674 103.148V92.622H582.69V89.772H577.674V83.578H574.064V89.772H570.264V92.622ZM595.724 89.772L602.032 109H605.946C608.644 101.552 610.582 95.738 611.076 93.876H611.114C611.76 96.118 613.964 102.274 616.244 109H620.006L626.656 89.772H623.046C619.854 99.614 618.638 103.718 618.22 105.58H618.182C617.84 104.022 616.89 101.134 613.014 89.772H609.556C605.566 101.286 604.768 103.794 604.236 105.77H604.198C603.742 103.68 602.982 101.02 599.486 89.772H595.724ZM630.625 109H634.235V89.772H630.625V109ZM630.625 84.794H634.235V80.462H630.625V84.794ZM638.323 92.622H642.123V103.642C642.123 107.404 643.339 109.19 647.329 109.19C648.431 109.19 649.419 109.152 650.293 108.848V106.188C649.723 106.34 648.963 106.34 648.393 106.34C646.303 106.34 645.733 105.352 645.733 103.148V92.622H650.749V89.772H645.733V83.578H642.123V89.772H638.323V92.622ZM654.856 80.462V109H658.504V99.576C658.504 95.548 660.442 92.28 664.508 92.28C668.08 92.28 669.258 94.712 669.258 97.942V109H672.868V97.41C672.868 91.938 669.98 89.24 665.572 89.24C660.936 89.24 659.15 91.824 658.466 93.23V80.462H654.856ZM687.602 89.772L696.494 109.912C694.746 113.674 693.758 114.738 691.174 114.738C690.68 114.738 689.806 114.7 689.046 114.586V117.778C689.73 117.892 690.87 117.968 691.554 117.968C696.38 117.968 697.634 116.296 701.054 108.05L708.578 89.772H704.816C701.168 98.816 699.192 104.364 698.508 106.226H698.47C697.9 104.63 695.658 99.234 691.592 89.772H687.602ZM721.009 89.24C714.511 89.24 710.673 93.914 710.673 99.424C710.673 104.744 714.321 109.532 720.819 109.532C727.697 109.532 731.155 104.744 731.155 99.386C731.155 94.294 727.659 89.24 721.009 89.24ZM720.857 92.204C725.113 92.204 727.431 95.586 727.431 99.462C727.431 103.3 725.341 106.606 720.933 106.606C716.715 106.606 714.359 103.072 714.359 99.424C714.359 95.548 716.487 92.204 720.857 92.204ZM753.575 89.772H749.965V98.474C749.965 104.098 748.179 106.492 744.037 106.492C740.579 106.492 739.439 103.946 739.439 101.058V89.772H735.829V101.704C735.829 107.328 738.983 109.532 743.049 109.532C747.267 109.532 749.015 107.936 749.965 105.77C749.965 107.138 750.041 108.468 750.117 109H753.575C753.537 107.138 753.575 105.276 753.575 103.414V89.772ZM765.346 99.462L765.688 86.352V82.02H761.812V86.39L762.154 99.462H765.346ZM765.498 109V103.262H762.002V109H765.498Z" fill="#F7F7F3"/>
<path d="M177.8 153H179.6V147.888H183.866C186.692 147.888 188.42 146.502 188.42 143.982C188.42 141.858 186.98 140.22 183.794 140.22H177.8V153ZM179.6 141.732H183.596C185.612 141.732 186.584 142.56 186.584 144.018C186.584 145.854 185.36 146.376 183.596 146.376H179.6V141.732ZM192.51 153V139.482H190.782V153H192.51ZM204.117 148.86C204.117 148.68 204.117 148.554 204.117 148.41C204.117 146.178 202.893 143.64 199.437 143.64C196.575 143.64 194.739 145.728 194.739 148.482C194.739 150.876 196.215 153.252 199.491 153.252C202.209 153.252 203.505 151.776 203.991 150.408H202.281C201.795 151.308 201.003 151.884 199.581 151.884C197.727 151.884 196.557 150.606 196.449 148.86H204.117ZM196.485 147.636C196.647 146.142 197.565 144.972 199.437 144.972C201.687 144.972 202.263 146.556 202.335 147.636H196.485ZM214.418 146.772C214.418 145.26 213.68 143.64 210.368 143.64C207.236 143.64 206.426 145.35 206.318 146.556H208.028C208.208 145.71 208.622 144.954 210.368 144.954C212.312 144.954 212.726 145.872 212.726 146.88V147.348C212.42 147.348 211.61 147.348 210.512 147.348C207.92 147.348 205.796 147.996 205.796 150.336C205.796 151.704 206.75 153.252 209.324 153.252C211.25 153.252 212.276 152.622 212.762 151.668C212.762 151.974 212.798 152.676 212.87 153H214.49C214.472 152.802 214.418 151.65 214.418 150.75V146.772ZM212.726 148.968C212.726 150.498 212.078 151.92 209.666 151.92C208.154 151.92 207.488 151.146 207.488 150.246C207.488 149.022 208.46 148.572 210.548 148.572C211.844 148.572 212.456 148.572 212.726 148.572V148.968ZM216.496 150.246C216.82 152.136 218.368 153.252 221.014 153.252C223.966 153.252 225.208 152.046 225.208 150.408C225.208 149.058 224.56 147.996 221.14 147.528C219.052 147.258 218.638 146.862 218.638 146.178C218.638 145.656 218.98 144.936 220.672 144.936C222.67 144.936 223.048 145.818 223.192 146.376H224.902C224.812 145.278 223.93 143.64 220.762 143.64C217.864 143.64 216.91 145.152 216.91 146.322C216.91 147.456 217.522 148.572 220.726 148.986C223.03 149.256 223.498 149.778 223.498 150.534C223.498 151.344 222.868 151.956 221.122 151.956C219.484 151.956 218.548 151.326 218.224 150.246H216.496ZM236.074 148.86C236.074 148.68 236.074 148.554 236.074 148.41C236.074 146.178 234.85 143.64 231.394 143.64C228.532 143.64 226.696 145.728 226.696 148.482C226.696 150.876 228.172 153.252 231.448 153.252C234.166 153.252 235.462 151.776 235.948 150.408H234.238C233.752 151.308 232.96 151.884 231.538 151.884C229.684 151.884 228.514 150.606 228.406 148.86H236.074ZM228.442 147.636C228.604 146.142 229.522 144.972 231.394 144.972C233.644 144.972 234.22 146.556 234.292 147.636H228.442ZM245.854 153V145.242H247.978V143.892H245.854V142.758C245.854 141.3 246.214 140.76 247.42 140.76C247.654 140.76 247.996 140.796 248.248 140.85V139.446C247.996 139.374 247.618 139.338 247.168 139.338C245.044 139.338 244.126 140.598 244.126 142.668V143.892H242.434V145.242H244.126V153H245.854ZM249.739 153H251.449V143.892H249.739V153ZM249.739 141.534H251.449V139.482H249.739V141.534ZM256.16 153V139.482H254.432V153H256.16ZM260.871 153V139.482H259.143V153H260.871ZM269.11 153H270.82V143.892H269.11V153ZM269.11 141.534H270.82V139.482H269.11V141.534ZM273.715 153H275.443V148.644C275.443 146.538 276.379 145.08 278.269 145.08C279.961 145.08 280.537 146.268 280.537 147.78V153H282.265V147.456C282.265 144.972 280.879 143.64 278.737 143.64C276.775 143.64 275.839 144.702 275.443 145.584C275.425 144.972 275.407 144.216 275.371 143.892H273.697C273.715 144.576 273.715 145.422 273.715 146.196V153ZM289.263 145.242H291.063V150.462C291.063 152.244 291.639 153.09 293.529 153.09C294.051 153.09 294.519 153.072 294.933 152.928V151.668C294.663 151.74 294.303 151.74 294.033 151.74C293.043 151.74 292.773 151.272 292.773 150.228V145.242H295.149V143.892H292.773V140.958H291.063V143.892H289.263V145.242ZM297.094 139.482V153H298.822V148.536C298.822 146.628 299.74 145.08 301.666 145.08C303.358 145.08 303.916 146.232 303.916 147.762V153H305.626V147.51C305.626 144.918 304.258 143.64 302.17 143.64C299.974 143.64 299.128 144.864 298.804 145.53V139.482H297.094ZM317.25 148.86C317.25 148.68 317.25 148.554 317.25 148.41C317.25 146.178 316.026 143.64 312.57 143.64C309.708 143.64 307.872 145.728 307.872 148.482C307.872 150.876 309.348 153.252 312.624 153.252C315.342 153.252 316.638 151.776 317.124 150.408H315.414C314.928 151.308 314.136 151.884 312.714 151.884C310.86 151.884 309.69 150.606 309.582 148.86H317.25ZM309.618 147.636C309.78 146.142 310.698 144.972 312.57 144.972C314.82 144.972 315.396 146.556 315.468 147.636H309.618ZM331.854 139.482V145.044C331.602 144.612 330.864 143.64 328.722 143.64C326.346 143.64 324.096 145.53 324.096 148.536C324.096 151.29 325.878 153.252 328.506 153.252C330.612 153.252 331.404 152.406 331.854 151.614C331.854 152.082 331.872 152.622 331.926 153H333.6C333.582 152.136 333.582 151.236 333.582 150.354V139.482H331.854ZM328.938 145.08C331.224 145.08 331.926 146.412 331.926 148.428C331.926 150.426 331.044 151.83 328.866 151.83C326.886 151.83 325.86 150.174 325.86 148.5C325.86 146.772 326.868 145.08 328.938 145.08ZM345.199 148.86C345.199 148.68 345.199 148.554 345.199 148.41C345.199 146.178 343.975 143.64 340.519 143.64C337.657 143.64 335.821 145.728 335.821 148.482C335.821 150.876 337.297 153.252 340.573 153.252C343.291 153.252 344.587 151.776 345.073 150.408H343.363C342.877 151.308 342.085 151.884 340.663 151.884C338.809 151.884 337.639 150.606 337.531 148.86H345.199ZM337.567 147.636C337.729 146.142 338.647 144.972 340.519 144.972C342.769 144.972 343.345 146.556 343.417 147.636H337.567ZM346.233 145.242H348.033V150.462C348.033 152.244 348.609 153.09 350.499 153.09C351.021 153.09 351.489 153.072 351.903 152.928V151.668C351.633 151.74 351.273 151.74 351.003 151.74C350.013 151.74 349.743 151.272 349.743 150.228V145.242H352.119V143.892H349.743V140.958H348.033V143.892H346.233V145.242ZM362.039 146.772C362.039 145.26 361.301 143.64 357.989 143.64C354.857 143.64 354.047 145.35 353.939 146.556H355.649C355.829 145.71 356.243 144.954 357.989 144.954C359.933 144.954 360.347 145.872 360.347 146.88V147.348C360.041 147.348 359.231 147.348 358.133 147.348C355.541 147.348 353.417 147.996 353.417 150.336C353.417 151.704 354.371 153.252 356.945 153.252C358.871 153.252 359.897 152.622 360.383 151.668C360.383 151.974 360.419 152.676 360.491 153H362.111C362.093 152.802 362.039 151.65 362.039 150.75V146.772ZM360.347 148.968C360.347 150.498 359.699 151.92 357.287 151.92C355.775 151.92 355.109 151.146 355.109 150.246C355.109 149.022 356.081 148.572 358.169 148.572C359.465 148.572 360.077 148.572 360.347 148.572V148.968ZM365.017 153H366.727V143.892H365.017V153ZM365.017 141.534H366.727V139.482H365.017V141.534ZM371.438 153V139.482H369.71V153H371.438ZM373.592 150.246C373.916 152.136 375.464 153.252 378.11 153.252C381.062 153.252 382.304 152.046 382.304 150.408C382.304 149.058 381.656 147.996 378.236 147.528C376.148 147.258 375.734 146.862 375.734 146.178C375.734 145.656 376.076 144.936 377.768 144.936C379.766 144.936 380.144 145.818 380.288 146.376H381.998C381.908 145.278 381.026 143.64 377.858 143.64C374.96 143.64 374.006 145.152 374.006 146.322C374.006 147.456 374.618 148.572 377.822 148.986C380.126 149.256 380.594 149.778 380.594 150.534C380.594 151.344 379.964 151.956 378.218 151.956C376.58 151.956 375.644 151.326 375.32 150.246H373.592ZM389.854 149.868C389.854 150.912 389.854 151.848 389.836 153H391.492C391.51 152.694 391.528 152.046 391.528 151.596C391.996 152.424 392.896 153.252 394.84 153.252C397.432 153.252 399.34 151.344 399.34 148.302C399.34 145.638 397.504 143.64 394.948 143.64C393.004 143.64 392.032 144.594 391.582 145.314V139.482H389.854V149.868ZM394.588 151.812C392.698 151.812 391.51 150.516 391.51 148.446C391.51 146.538 392.5 145.08 394.57 145.08C396.694 145.08 397.576 146.808 397.576 148.356C397.576 150.156 396.712 151.812 394.588 151.812ZM410.291 148.86C410.291 148.68 410.291 148.554 410.291 148.41C410.291 146.178 409.067 143.64 405.611 143.64C402.749 143.64 400.913 145.728 400.913 148.482C400.913 150.876 402.389 153.252 405.665 153.252C408.383 153.252 409.679 151.776 410.165 150.408H408.455C407.969 151.308 407.177 151.884 405.755 151.884C403.901 151.884 402.731 150.606 402.623 148.86H410.291ZM402.659 147.636C402.821 146.142 403.739 144.972 405.611 144.972C407.861 144.972 408.437 146.556 408.509 147.636H402.659ZM414.205 153V139.482H412.477V153H414.205ZM421.33 143.64C418.252 143.64 416.434 145.854 416.434 148.464C416.434 150.984 418.162 153.252 421.24 153.252C424.498 153.252 426.136 150.984 426.136 148.446C426.136 146.034 424.48 143.64 421.33 143.64ZM421.258 145.044C423.274 145.044 424.372 146.646 424.372 148.482C424.372 150.3 423.382 151.866 421.294 151.866C419.296 151.866 418.18 150.192 418.18 148.464C418.18 146.628 419.188 145.044 421.258 145.044ZM427.375 143.892L430.363 153H432.217C433.495 149.472 434.413 146.718 434.647 145.836H434.665C434.971 146.898 436.015 149.814 437.095 153H438.877L442.027 143.892H440.317C438.805 148.554 438.229 150.498 438.031 151.38H438.013C437.851 150.642 437.401 149.274 435.565 143.892H433.927C432.037 149.346 431.659 150.534 431.407 151.47H431.389C431.173 150.48 430.813 149.22 429.157 143.892H427.375ZM448.299 150.246C448.623 152.136 450.171 153.252 452.817 153.252C455.769 153.252 457.011 152.046 457.011 150.408C457.011 149.058 456.363 147.996 452.943 147.528C450.855 147.258 450.441 146.862 450.441 146.178C450.441 145.656 450.783 144.936 452.475 144.936C454.473 144.936 454.851 145.818 454.995 146.376H456.705C456.615 145.278 455.733 143.64 452.565 143.64C449.667 143.64 448.713 145.152 448.713 146.322C448.713 147.456 449.325 148.572 452.529 148.986C454.833 149.256 455.301 149.778 455.301 150.534C455.301 151.344 454.671 151.956 452.925 151.956C451.287 151.956 450.351 151.326 450.027 150.246H448.299ZM463.395 143.64C460.317 143.64 458.499 145.854 458.499 148.464C458.499 150.984 460.227 153.252 463.305 153.252C466.563 153.252 468.201 150.984 468.201 148.446C468.201 146.034 466.545 143.64 463.395 143.64ZM463.323 145.044C465.339 145.044 466.437 146.646 466.437 148.482C466.437 150.3 465.447 151.866 463.359 151.866C461.361 151.866 460.245 150.192 460.245 148.464C460.245 146.628 461.253 145.044 463.323 145.044ZM474.606 145.242H476.406V150.462C476.406 152.244 476.982 153.09 478.872 153.09C479.394 153.09 479.862 153.072 480.276 152.928V151.668C480.006 151.74 479.646 151.74 479.376 151.74C478.386 151.74 478.116 151.272 478.116 150.228V145.242H480.492V143.892H478.116V140.958H476.406V143.892H474.606V145.242ZM482.438 139.482V153H484.166V148.536C484.166 146.628 485.084 145.08 487.01 145.08C488.702 145.08 489.26 146.232 489.26 147.762V153H490.97V147.51C490.97 144.918 489.602 143.64 487.514 143.64C485.318 143.64 484.472 144.864 484.148 145.53V139.482H482.438ZM501.786 146.772C501.786 145.26 501.048 143.64 497.736 143.64C494.604 143.64 493.794 145.35 493.686 146.556H495.396C495.576 145.71 495.99 144.954 497.736 144.954C499.68 144.954 500.094 145.872 500.094 146.88V147.348C499.788 147.348 498.978 147.348 497.88 147.348C495.288 147.348 493.164 147.996 493.164 150.336C493.164 151.704 494.118 153.252 496.692 153.252C498.618 153.252 499.644 152.622 500.13 151.668C500.13 151.974 500.166 152.676 500.238 153H501.858C501.84 152.802 501.786 151.65 501.786 150.75V146.772ZM500.094 148.968C500.094 150.498 499.446 151.92 497.034 151.92C495.522 151.92 494.856 151.146 494.856 150.246C494.856 149.022 495.828 148.572 497.916 148.572C499.212 148.572 499.824 148.572 500.094 148.572V148.968ZM503.294 145.242H505.094V150.462C505.094 152.244 505.67 153.09 507.56 153.09C508.082 153.09 508.55 153.072 508.964 152.928V151.668C508.694 151.74 508.334 151.74 508.064 151.74C507.074 151.74 506.804 151.272 506.804 150.228V145.242H509.18V143.892H506.804V140.958H505.094V143.892H503.294V145.242ZM515.354 143.892L518.342 153H520.196C521.474 149.472 522.392 146.718 522.626 145.836H522.644C522.95 146.898 523.994 149.814 525.074 153H526.856L530.006 143.892H528.296C526.784 148.554 526.208 150.498 526.01 151.38H525.992C525.83 150.642 525.38 149.274 523.544 143.892H521.906C520.016 149.346 519.638 150.534 519.386 151.47H519.368C519.152 150.48 518.792 149.22 517.136 143.892H515.354ZM540.492 148.86C540.492 148.68 540.492 148.554 540.492 148.41C540.492 146.178 539.268 143.64 535.812 143.64C532.95 143.64 531.114 145.728 531.114 148.482C531.114 150.876 532.59 153.252 535.866 153.252C538.584 153.252 539.88 151.776 540.366 150.408H538.656C538.17 151.308 537.378 151.884 535.956 151.884C534.102 151.884 532.932 150.606 532.824 148.86H540.492ZM532.86 147.636C533.022 146.142 533.94 144.972 535.812 144.972C538.062 144.972 538.638 146.556 538.71 147.636H532.86ZM554.88 150.156C554.43 151.2 553.62 151.866 552.144 151.866C550.164 151.866 549.084 150.354 549.084 148.446C549.084 146.466 550.218 145.026 552.126 145.026C553.836 145.026 554.556 145.962 554.862 146.808H556.572C556.374 145.602 555.222 143.64 552.162 143.64C549.102 143.64 547.338 145.89 547.338 148.482C547.338 151.074 548.904 153.252 552.126 153.252C554.718 153.252 556.158 151.812 556.608 150.156H554.88ZM566.842 146.772C566.842 145.26 566.104 143.64 562.792 143.64C559.66 143.64 558.85 145.35 558.742 146.556H560.452C560.632 145.71 561.046 144.954 562.792 144.954C564.736 144.954 565.15 145.872 565.15 146.88V147.348C564.844 147.348 564.034 147.348 562.936 147.348C560.344 147.348 558.22 147.996 558.22 150.336C558.22 151.704 559.174 153.252 561.748 153.252C563.674 153.252 564.7 152.622 565.186 151.668C565.186 151.974 565.222 152.676 565.294 153H566.914C566.896 152.802 566.842 151.65 566.842 150.75V146.772ZM565.15 148.968C565.15 150.498 564.502 151.92 562.09 151.92C560.578 151.92 559.912 151.146 559.912 150.246C559.912 149.022 560.884 148.572 562.972 148.572C564.268 148.572 564.88 148.572 565.15 148.572V148.968ZM569.836 153H571.564V148.644C571.564 146.538 572.5 145.08 574.39 145.08C576.082 145.08 576.658 146.268 576.658 147.78V153H578.386V147.456C578.386 144.972 577 143.64 574.858 143.64C572.896 143.64 571.96 144.702 571.564 145.584C571.546 144.972 571.528 144.216 571.492 143.892H569.818C569.836 144.576 569.836 145.422 569.836 146.196V153ZM595.32 146.538C595.32 145.656 595.32 144.774 595.338 143.892H593.682C593.664 144.144 593.646 144.864 593.628 145.296C593.358 144.594 592.512 143.64 590.424 143.64C587.976 143.64 585.852 145.656 585.852 148.572C585.852 151.146 587.634 153.162 590.208 153.162C592.098 153.162 593.088 152.478 593.628 151.416V151.902C593.628 154.17 593.196 155.88 590.532 155.88C588.642 155.88 587.976 155.052 587.706 154.116H585.96C586.122 155.196 586.86 157.248 590.442 157.248C594.186 157.248 595.32 155.25 595.32 151.812V146.538ZM590.73 145.08C592.602 145.08 593.682 146.268 593.682 148.392C593.682 150.552 592.53 151.722 590.64 151.722C588.84 151.722 587.616 150.372 587.616 148.5C587.616 146.79 588.606 145.08 590.73 145.08ZM606.955 148.86C606.955 148.68 606.955 148.554 606.955 148.41C606.955 146.178 605.731 143.64 602.275 143.64C599.413 143.64 597.577 145.728 597.577 148.482C597.577 150.876 599.053 153.252 602.329 153.252C605.047 153.252 606.343 151.776 606.829 150.408H605.119C604.633 151.308 603.841 151.884 602.419 151.884C600.565 151.884 599.395 150.606 599.287 148.86H606.955ZM599.323 147.636C599.485 146.142 600.403 144.972 602.275 144.972C604.525 144.972 605.101 146.556 605.173 147.636H599.323ZM607.989 145.242H609.789V150.462C609.789 152.244 610.365 153.09 612.255 153.09C612.777 153.09 613.245 153.072 613.659 152.928V151.668C613.389 151.74 613.029 151.74 612.759 151.74C611.769 151.74 611.499 151.272 611.499 150.228V145.242H613.875V143.892H611.499V140.958H609.789V143.892H607.989V145.242ZM621.165 153H622.875V143.892H621.165V153ZM621.165 141.534H622.875V139.482H621.165V141.534ZM625.77 153H627.498V148.644C627.498 146.538 628.434 145.08 630.324 145.08C632.016 145.08 632.592 146.268 632.592 147.78V153H634.32V147.456C634.32 144.972 632.934 143.64 630.792 143.64C628.83 143.64 627.894 144.702 627.498 145.584C627.48 144.972 627.462 144.216 627.426 143.892H625.752C625.77 144.576 625.77 145.422 625.77 146.196V153ZM649.345 150.156C648.895 151.2 648.085 151.866 646.609 151.866C644.629 151.866 643.549 150.354 643.549 148.446C643.549 146.466 644.683 145.026 646.591 145.026C648.301 145.026 649.021 145.962 649.327 146.808H651.037C650.839 145.602 649.687 143.64 646.627 143.64C643.567 143.64 641.803 145.89 641.803 148.482C641.803 151.074 643.369 153.252 646.591 153.252C649.183 153.252 650.623 151.812 651.073 150.156H649.345ZM657.492 143.64C654.414 143.64 652.596 145.854 652.596 148.464C652.596 150.984 654.324 153.252 657.402 153.252C660.66 153.252 662.298 150.984 662.298 148.446C662.298 146.034 660.642 143.64 657.492 143.64ZM657.42 145.044C659.436 145.044 660.534 146.646 660.534 148.482C660.534 150.3 659.544 151.866 657.456 151.866C655.458 151.866 654.342 150.192 654.342 148.464C654.342 146.628 655.35 145.044 657.42 145.044ZM664.53 153H666.258V148.644C666.258 146.538 667.194 145.08 669.084 145.08C670.776 145.08 671.352 146.268 671.352 147.78V153H673.08V147.456C673.08 144.972 671.694 143.64 669.552 143.64C667.59 143.64 666.654 144.702 666.258 145.584C666.24 144.972 666.222 144.216 666.186 143.892H664.512C664.53 144.576 664.53 145.422 664.53 146.196V153ZM674.628 145.242H676.428V150.462C676.428 152.244 677.004 153.09 678.894 153.09C679.416 153.09 679.884 153.072 680.298 152.928V151.668C680.028 151.74 679.668 151.74 679.398 151.74C678.408 151.74 678.138 151.272 678.138 150.228V145.242H680.514V143.892H678.138V140.958H676.428V143.892H674.628V145.242ZM690.434 146.772C690.434 145.26 689.696 143.64 686.384 143.64C683.252 143.64 682.442 145.35 682.334 146.556H684.044C684.224 145.71 684.638 144.954 686.384 144.954C688.328 144.954 688.742 145.872 688.742 146.88V147.348C688.436 147.348 687.626 147.348 686.528 147.348C683.936 147.348 681.812 147.996 681.812 150.336C681.812 151.704 682.766 153.252 685.34 153.252C687.266 153.252 688.292 152.622 688.778 151.668C688.778 151.974 688.814 152.676 688.886 153H690.506C690.488 152.802 690.434 151.65 690.434 150.75V146.772ZM688.742 148.968C688.742 150.498 688.094 151.92 685.682 151.92C684.17 151.92 683.504 151.146 683.504 150.246C683.504 149.022 684.476 148.572 686.564 148.572C687.86 148.572 688.472 148.572 688.742 148.572V148.968ZM700.234 150.156C699.784 151.2 698.974 151.866 697.498 151.866C695.518 151.866 694.438 150.354 694.438 148.446C694.438 146.466 695.572 145.026 697.48 145.026C699.19 145.026 699.91 145.962 700.216 146.808H701.926C701.728 145.602 700.576 143.64 697.516 143.64C694.456 143.64 692.692 145.89 692.692 148.482C692.692 151.074 694.258 153.252 697.48 153.252C700.072 153.252 701.512 151.812 701.962 150.156H700.234ZM703.069 145.242H704.869V150.462C704.869 152.244 705.445 153.09 707.335 153.09C707.857 153.09 708.325 153.072 708.739 152.928V151.668C708.469 151.74 708.109 151.74 707.839 151.74C706.849 151.74 706.579 151.272 706.579 150.228V145.242H708.955V143.892H706.579V140.958H704.869V143.892H703.069V145.242ZM715.129 143.892L718.117 153H719.971C721.249 149.472 722.167 146.718 722.401 145.836H722.419C722.725 146.898 723.769 149.814 724.849 153H726.631L729.781 143.892H728.071C726.559 148.554 725.983 150.498 725.785 151.38H725.767C725.605 150.642 725.155 149.274 723.319 143.892H721.681C719.791 149.346 719.413 150.534 719.161 151.47H719.143C718.927 150.48 718.567 149.22 716.911 143.892H715.129ZM731.661 153H733.371V143.892H731.661V153ZM731.661 141.534H733.371V139.482H731.661V141.534ZM735.308 145.242H737.108V150.462C737.108 152.244 737.684 153.09 739.574 153.09C740.096 153.09 740.564 153.072 740.978 152.928V151.668C740.708 151.74 740.348 151.74 740.078 151.74C739.088 151.74 738.818 151.272 738.818 150.228V145.242H741.194V143.892H738.818V140.958H737.108V143.892H735.308V145.242ZM743.139 139.482V153H744.867V148.536C744.867 146.628 745.785 145.08 747.711 145.08C749.403 145.08 749.961 146.232 749.961 147.762V153H751.671V147.51C751.671 144.918 750.303 143.64 748.215 143.64C746.019 143.64 745.173 144.864 744.849 145.53V139.482H743.139ZM758.65 143.892L762.862 153.432C762.034 155.214 761.566 155.718 760.342 155.718C760.108 155.718 759.694 155.7 759.334 155.646V157.158C759.658 157.212 760.198 157.248 760.522 157.248C762.808 157.248 763.402 156.456 765.022 152.55L768.586 143.892H766.804C765.076 148.176 764.14 150.804 763.816 151.686H763.798C763.528 150.93 762.466 148.374 760.54 143.892H758.65ZM774.475 143.64C771.397 143.64 769.579 145.854 769.579 148.464C769.579 150.984 771.307 153.252 774.385 153.252C777.643 153.252 779.281 150.984 779.281 148.446C779.281 146.034 777.625 143.64 774.475 143.64ZM774.403 145.044C776.419 145.044 777.517 146.646 777.517 148.482C777.517 150.3 776.527 151.866 774.439 151.866C772.441 151.866 771.325 150.192 771.325 148.464C771.325 146.628 772.333 145.044 774.403 145.044ZM789.901 143.892H788.191V148.014C788.191 150.678 787.345 151.812 785.383 151.812C783.745 151.812 783.205 150.606 783.205 149.238V143.892H781.495V149.544C781.495 152.208 782.989 153.252 784.915 153.252C786.913 153.252 787.741 152.496 788.191 151.47C788.191 152.118 788.227 152.748 788.263 153H789.901C789.883 152.118 789.901 151.236 789.901 150.354V143.892ZM794.291 153V150.066H792.401V153H794.291Z" fill="#F7F7F3"/>
<rect x="1" y="253" width="514" height="43" stroke="#F7F7F3" stroke-width="2"/>
<path d="M3.492 230V224.798C3.492 222.53 3.492 220.712 3.384 219.074H3.42C4.338 220.568 9.36 227.462 11.25 230H13.302V217.22H11.61V222.026C11.61 224.114 11.592 226.13 11.7 227.786H11.664C10.944 226.472 6.84 221.234 3.96 217.22H1.8V230H3.492ZM24.4789 223.772C24.4789 222.26 23.7409 220.64 20.4289 220.64C17.2969 220.64 16.4869 222.35 16.3789 223.556H18.0889C18.2689 222.71 18.6829 221.954 20.4289 221.954C22.3729 221.954 22.7869 222.872 22.7869 223.88V224.348C22.4809 224.348 21.6709 224.348 20.5729 224.348C17.9809 224.348 15.8569 224.996 15.8569 227.336C15.8569 228.704 16.8109 230.252 19.3849 230.252C21.3109 230.252 22.3369 229.622 22.8229 228.668C22.8229 228.974 22.8589 229.676 22.9309 230H24.5509C24.5329 229.802 24.4789 228.65 24.4789 227.75V223.772ZM22.7869 225.968C22.7869 227.498 22.1389 228.92 19.7269 228.92C18.2149 228.92 17.5489 228.146 17.5489 227.246C17.5489 226.022 18.5209 225.572 20.6089 225.572C21.9049 225.572 22.5169 225.572 22.7869 225.572V225.968ZM27.4732 230H29.1832V225.14C29.1832 223.412 29.8492 222.062 31.5592 222.062C33.1792 222.062 33.5392 223.286 33.5392 224.366V230H35.2492V225.014C35.2492 223.052 36.1852 222.062 37.6432 222.062C39.2632 222.062 39.6052 223.376 39.6052 224.438V230H41.2972V224.384C41.2972 221.684 39.8392 220.64 38.0392 220.64C36.2392 220.64 35.3932 221.612 34.9072 222.386C34.5112 221.36 33.6112 220.64 32.1172 220.64C30.5152 220.64 29.6332 221.486 29.1652 222.26C29.1832 221.792 29.1652 221.27 29.1112 220.892H27.4552C27.4732 221.684 27.4732 222.458 27.4732 223.25V230ZM52.9196 225.86C52.9196 225.68 52.9196 225.554 52.9196 225.41C52.9196 223.178 51.6956 220.64 48.2396 220.64C45.3776 220.64 43.5416 222.728 43.5416 225.482C43.5416 227.876 45.0176 230.252 48.2936 230.252C51.0116 230.252 52.3076 228.776 52.7936 227.408H51.0836C50.5976 228.308 49.8056 228.884 48.3836 228.884C46.5296 228.884 45.3596 227.606 45.2516 225.86H52.9196ZM45.2876 224.636C45.4496 223.142 46.3676 221.972 48.2396 221.972C50.4896 221.972 51.0656 223.556 51.1376 224.636H45.2876Z" fill="#F7F7F3"/>
<rect x="1" y="366" width="514" height="43" stroke="#F7F7F3" stroke-width="2"/>
<path d="M11.268 335.53H3.6V331.75H11.682V330.22H1.8V343H11.826L12.06 341.488H3.6V337.06H11.268V335.53ZM14.1666 343H15.8766V338.14C15.8766 336.412 16.5426 335.062 18.2526 335.062C19.8726 335.062 20.2326 336.286 20.2326 337.366V343H21.9426V338.014C21.9426 336.052 22.8786 335.062 24.3366 335.062C25.9566 335.062 26.2986 336.376 26.2986 337.438V343H27.9906V337.384C27.9906 334.684 26.5326 333.64 24.7326 333.64C22.9326 333.64 22.0866 334.612 21.6006 335.386C21.2046 334.36 20.3046 333.64 18.8106 333.64C17.2086 333.64 16.3266 334.486 15.8586 335.26C15.8766 334.792 15.8586 334.27 15.8046 333.892H14.1486C14.1666 334.684 14.1666 335.458 14.1666 336.25V343ZM38.805 336.772C38.805 335.26 38.067 333.64 34.755 333.64C31.623 333.64 30.813 335.35 30.705 336.556H32.415C32.595 335.71 33.009 334.954 34.755 334.954C36.699 334.954 37.113 335.872 37.113 336.88V337.348C36.807 337.348 35.997 337.348 34.899 337.348C32.307 337.348 30.183 337.996 30.183 340.336C30.183 341.704 31.137 343.252 33.711 343.252C35.637 343.252 36.663 342.622 37.149 341.668C37.149 341.974 37.185 342.676 37.257 343H38.877C38.859 342.802 38.805 341.65 38.805 340.75V336.772ZM37.113 338.968C37.113 340.498 36.465 341.92 34.053 341.92C32.541 341.92 31.875 341.146 31.875 340.246C31.875 339.022 32.847 338.572 34.935 338.572C36.231 338.572 36.843 338.572 37.113 338.572V338.968ZM41.7822 343H43.4922V333.892H41.7822V343ZM41.7822 331.534H43.4922V329.482H41.7822V331.534ZM48.2032 343V329.482H46.4752V343H48.2032ZM64.4164 336.772C64.4164 335.26 63.6784 333.64 60.3664 333.64C57.2344 333.64 56.4244 335.35 56.3164 336.556H58.0264C58.2064 335.71 58.6204 334.954 60.3664 334.954C62.3104 334.954 62.7244 335.872 62.7244 336.88V337.348C62.4184 337.348 61.6084 337.348 60.5104 337.348C57.9184 337.348 55.7944 337.996 55.7944 340.336C55.7944 341.704 56.7484 343.252 59.3224 343.252C61.2484 343.252 62.2744 342.622 62.7604 341.668C62.7604 341.974 62.7964 342.676 62.8684 343H64.4884C64.4704 342.802 64.4164 341.65 64.4164 340.75V336.772ZM62.7244 338.968C62.7244 340.498 62.0764 341.92 59.6644 341.92C58.1524 341.92 57.4864 341.146 57.4864 340.246C57.4864 339.022 58.4584 338.572 60.5464 338.572C61.8424 338.572 62.4544 338.572 62.7244 338.572V338.968ZM74.4324 329.482V335.044C74.1804 334.612 73.4424 333.64 71.3004 333.64C68.9244 333.64 66.6744 335.53 66.6744 338.536C66.6744 341.29 68.4564 343.252 71.0844 343.252C73.1904 343.252 73.9824 342.406 74.4324 341.614C74.4324 342.082 74.4504 342.622 74.5044 343H76.1784C76.1604 342.136 76.1604 341.236 76.1604 340.354V329.482H74.4324ZM71.5164 335.08C73.8024 335.08 74.5044 336.412 74.5044 338.428C74.5044 340.426 73.6224 341.83 71.4444 341.83C69.4644 341.83 68.4384 340.174 68.4384 338.5C68.4384 336.772 69.4464 335.08 71.5164 335.08ZM86.157 329.482V335.044C85.905 334.612 85.167 333.64 83.025 333.64C80.649 333.64 78.399 335.53 78.399 338.536C78.399 341.29 80.181 343.252 82.809 343.252C84.915 343.252 85.707 342.406 86.157 341.614C86.157 342.082 86.175 342.622 86.229 343H87.903C87.885 342.136 87.885 341.236 87.885 340.354V329.482H86.157ZM83.241 335.08C85.527 335.08 86.229 336.412 86.229 338.428C86.229 340.426 85.347 341.83 83.169 341.83C81.189 341.83 80.163 340.174 80.163 338.5C80.163 336.772 81.171 335.08 83.241 335.08ZM90.8076 343H92.5176V339.202C92.5176 336.52 94.1016 335.26 96.2076 335.296V333.658C94.4256 333.64 93.1116 334.558 92.5176 335.944C92.5176 335.134 92.4816 334.162 92.4456 333.892H90.7896C90.8076 334.72 90.8076 335.548 90.8076 336.376V343ZM106.568 338.86C106.568 338.68 106.568 338.554 106.568 338.41C106.568 336.178 105.344 333.64 101.888 333.64C99.026 333.64 97.19 335.728 97.19 338.482C97.19 340.876 98.666 343.252 101.942 343.252C104.66 343.252 105.956 341.776 106.442 340.408H104.732C104.246 341.308 103.454 341.884 102.032 341.884C100.178 341.884 99.008 340.606 98.9 338.86H106.568ZM98.936 337.636C99.098 336.142 100.016 334.972 101.888 334.972C104.138 334.972 104.714 336.556 104.786 337.636H98.936ZM108.084 340.246C108.408 342.136 109.956 343.252 112.602 343.252C115.554 343.252 116.796 342.046 116.796 340.408C116.796 339.058 116.148 337.996 112.728 337.528C110.64 337.258 110.226 336.862 110.226 336.178C110.226 335.656 110.568 334.936 112.26 334.936C114.258 334.936 114.636 335.818 114.78 336.376H116.49C116.4 335.278 115.518 333.64 112.35 333.64C109.452 333.64 108.498 335.152 108.498 336.322C108.498 337.456 109.11 338.572 112.314 338.986C114.618 339.256 115.086 339.778 115.086 340.534C115.086 341.344 114.456 341.956 112.71 341.956C111.072 341.956 110.136 341.326 109.812 340.246H108.084ZM118.28 340.246C118.604 342.136 120.152 343.252 122.798 343.252C125.75 343.252 126.992 342.046 126.992 340.408C126.992 339.058 126.344 337.996 122.924 337.528C120.836 337.258 120.422 336.862 120.422 336.178C120.422 335.656 120.764 334.936 122.456 334.936C124.454 334.936 124.832 335.818 124.976 336.376H126.686C126.596 335.278 125.714 333.64 122.546 333.64C119.648 333.64 118.694 335.152 118.694 336.322C118.694 337.456 119.306 338.572 122.51 338.986C124.814 339.256 125.282 339.778 125.282 340.534C125.282 341.344 124.652 341.956 122.906 341.956C121.268 341.956 120.332 341.326 120.008 340.246H118.28Z" fill="#F7F7F3"/>
<rect x="559" y="253" width="514" height="43" stroke="#F7F7F3" stroke-width="2"/>
<path d="M559.8 230H561.6V224.888H565.866C568.692 224.888 570.42 223.502 570.42 220.982C570.42 218.858 568.98 217.22 565.794 217.22H559.8V230ZM561.6 218.732H565.596C567.612 218.732 568.584 219.56 568.584 221.018C568.584 222.854 567.36 223.376 565.596 223.376H561.6V218.732ZM572.782 216.482V230H574.51V225.536C574.51 223.628 575.428 222.08 577.354 222.08C579.046 222.08 579.604 223.232 579.604 224.762V230H581.314V224.51C581.314 221.918 579.946 220.64 577.858 220.64C575.662 220.64 574.816 221.864 574.492 222.53V216.482H572.782ZM588.455 220.64C585.377 220.64 583.559 222.854 583.559 225.464C583.559 227.984 585.287 230.252 588.365 230.252C591.623 230.252 593.261 227.984 593.261 225.446C593.261 223.034 591.605 220.64 588.455 220.64ZM588.383 222.044C590.399 222.044 591.497 223.646 591.497 225.482C591.497 227.3 590.507 228.866 588.419 228.866C586.421 228.866 585.305 227.192 585.305 225.464C585.305 223.628 586.313 222.044 588.383 222.044ZM595.493 230H597.221V225.644C597.221 223.538 598.157 222.08 600.047 222.08C601.739 222.08 602.315 223.268 602.315 224.78V230H604.043V224.456C604.043 221.972 602.657 220.64 600.515 220.64C598.553 220.64 597.617 221.702 597.221 222.584C597.203 221.972 597.185 221.216 597.149 220.892H595.475C595.493 221.576 595.493 222.422 595.493 223.196V230ZM615.648 225.86C615.648 225.68 615.648 225.554 615.648 225.41C615.648 223.178 614.424 220.64 610.968 220.64C608.106 220.64 606.27 222.728 606.27 225.482C606.27 227.876 607.746 230.252 611.022 230.252C613.74 230.252 615.036 228.776 615.522 227.408H613.812C613.326 228.308 612.534 228.884 611.112 228.884C609.258 228.884 608.088 227.606 607.98 225.86H615.648ZM608.016 224.636C608.178 223.142 609.096 221.972 610.968 221.972C613.218 221.972 613.794 223.556 613.866 224.636H608.016ZM623.161 230H624.889V225.644C624.889 223.538 625.825 222.08 627.715 222.08C629.407 222.08 629.983 223.268 629.983 224.78V230H631.711V224.456C631.711 221.972 630.325 220.64 628.183 220.64C626.221 220.64 625.285 221.702 624.889 222.584C624.871 221.972 624.853 221.216 624.817 220.892H623.143C623.161 221.576 623.161 222.422 623.161 223.196V230ZM643.063 220.892H641.353V225.014C641.353 227.678 640.507 228.812 638.545 228.812C636.907 228.812 636.367 227.606 636.367 226.238V220.892H634.657V226.544C634.657 229.208 636.151 230.252 638.077 230.252C640.075 230.252 640.903 229.496 641.353 228.47C641.353 229.118 641.389 229.748 641.425 230H643.063C643.045 229.118 643.063 228.236 643.063 227.354V220.892ZM645.96 230H647.67V225.14C647.67 223.412 648.336 222.062 650.046 222.062C651.666 222.062 652.026 223.286 652.026 224.366V230H653.736V225.014C653.736 223.052 654.672 222.062 656.13 222.062C657.75 222.062 658.092 223.376 658.092 224.438V230H659.784V224.384C659.784 221.684 658.326 220.64 656.526 220.64C654.726 220.64 653.88 221.612 653.394 222.386C652.998 221.36 652.098 220.64 650.604 220.64C649.002 220.64 648.12 221.486 647.652 222.26C647.67 221.792 647.652 221.27 647.598 220.892H645.942C645.96 221.684 645.96 222.458 645.96 223.25V230ZM662.747 226.868C662.747 227.912 662.747 228.848 662.729 230H664.385C664.403 229.694 664.421 229.046 664.421 228.596C664.889 229.424 665.789 230.252 667.733 230.252C670.325 230.252 672.233 228.344 672.233 225.302C672.233 222.638 670.397 220.64 667.841 220.64C665.897 220.64 664.925 221.594 664.475 222.314V216.482H662.747V226.868ZM667.481 228.812C665.591 228.812 664.403 227.516 664.403 225.446C664.403 223.538 665.393 222.08 667.463 222.08C669.587 222.08 670.469 223.808 670.469 225.356C670.469 227.156 669.605 228.812 667.481 228.812ZM683.183 225.86C683.183 225.68 683.183 225.554 683.183 225.41C683.183 223.178 681.959 220.64 678.503 220.64C675.641 220.64 673.805 222.728 673.805 225.482C673.805 227.876 675.281 230.252 678.557 230.252C681.275 230.252 682.571 228.776 683.057 227.408H681.347C680.861 228.308 680.069 228.884 678.647 228.884C676.793 228.884 675.623 227.606 675.515 225.86H683.183ZM675.551 224.636C675.713 223.142 676.631 221.972 678.503 221.972C680.753 221.972 681.329 223.556 681.401 224.636H675.551ZM685.44 230H687.15V226.202C687.15 223.52 688.734 222.26 690.84 222.296V220.658C689.058 220.64 687.744 221.558 687.15 222.944C687.15 222.134 687.114 221.162 687.078 220.892H685.422C685.44 221.72 685.44 222.548 685.44 223.376V230Z" fill="#F7F7F3"/>
<rect x="559" y="366" width="514" height="43" stroke="#F7F7F3" stroke-width="2"/>
<path d="M559.8 343H569.034L569.304 341.47H561.582V330.22H559.8V343ZM571.394 343H573.104V333.892H571.394V343ZM571.394 331.534H573.104V329.482H571.394V331.534ZM575.999 343H577.727V338.644C577.727 336.538 578.663 335.08 580.553 335.08C582.245 335.08 582.821 336.268 582.821 337.78V343H584.549V337.456C584.549 334.972 583.163 333.64 581.021 333.64C579.059 333.64 578.123 334.702 577.727 335.584C577.709 334.972 577.691 334.216 577.655 333.892H575.981C575.999 334.576 575.999 335.422 575.999 336.196V343ZM589.223 329.482H587.495V343H589.223V339.778L590.933 338.41L594.677 343H596.855L592.193 337.438L596.405 333.892H594.245C592.823 335.134 590.177 337.384 589.223 338.266V329.482ZM602.409 335.242H604.209V340.462C604.209 342.244 604.785 343.09 606.675 343.09C607.197 343.09 607.665 343.072 608.079 342.928V341.668C607.809 341.74 607.449 341.74 607.179 341.74C606.189 341.74 605.919 341.272 605.919 340.228V335.242H608.295V333.892H605.919V330.958H604.209V333.892H602.409V335.242ZM614.313 333.64C611.235 333.64 609.417 335.854 609.417 338.464C609.417 340.984 611.145 343.252 614.223 343.252C617.481 343.252 619.119 340.984 619.119 338.446C619.119 336.034 617.463 333.64 614.313 333.64ZM614.241 335.044C616.257 335.044 617.355 336.646 617.355 338.482C617.355 340.3 616.365 341.866 614.277 341.866C612.279 341.866 611.163 340.192 611.163 338.464C611.163 336.628 612.171 335.044 614.241 335.044ZM625.488 333.892L629.7 343.432C628.872 345.214 628.404 345.718 627.18 345.718C626.946 345.718 626.532 345.7 626.172 345.646V347.158C626.496 347.212 627.036 347.248 627.36 347.248C629.646 347.248 630.24 346.456 631.86 342.55L635.424 333.892H633.642C631.914 338.176 630.978 340.804 630.654 341.686H630.636C630.366 340.93 629.304 338.374 627.378 333.892H625.488ZM641.313 333.64C638.235 333.64 636.417 335.854 636.417 338.464C636.417 340.984 638.145 343.252 641.223 343.252C644.481 343.252 646.119 340.984 646.119 338.446C646.119 336.034 644.463 333.64 641.313 333.64ZM641.241 335.044C643.257 335.044 644.355 336.646 644.355 338.482C644.355 340.3 643.365 341.866 641.277 341.866C639.279 341.866 638.163 340.192 638.163 338.464C638.163 336.628 639.171 335.044 641.241 335.044ZM656.739 333.892H655.029V338.014C655.029 340.678 654.183 341.812 652.221 341.812C650.583 341.812 650.043 340.606 650.043 339.238V333.892H648.333V339.544C648.333 342.208 649.827 343.252 651.753 343.252C653.751 343.252 654.579 342.496 655.029 341.47C655.029 342.118 655.065 342.748 655.101 343H656.739C656.721 342.118 656.739 341.236 656.739 340.354V333.892ZM659.653 343H661.363V339.202C661.363 336.52 662.947 335.26 665.053 335.296V333.658C663.271 333.64 661.957 334.558 661.363 335.944C661.363 335.134 661.327 334.162 661.291 333.892H659.635C659.653 334.72 659.653 335.548 659.653 336.376V343ZM671.053 333.892L674.041 343H675.895C677.173 339.472 678.091 336.718 678.325 335.836H678.343C678.649 336.898 679.693 339.814 680.773 343H682.555L685.705 333.892H683.995C682.483 338.554 681.907 340.498 681.709 341.38H681.691C681.529 340.642 681.079 339.274 679.243 333.892H677.605C675.715 339.346 675.337 340.534 675.085 341.47H675.067C674.851 340.48 674.491 339.22 672.835 333.892H671.053ZM696.191 338.86C696.191 338.68 696.191 338.554 696.191 338.41C696.191 336.178 694.967 333.64 691.511 333.64C688.649 333.64 686.813 335.728 686.813 338.482C686.813 340.876 688.289 343.252 691.565 343.252C694.283 343.252 695.579 341.776 696.065 340.408H694.355C693.869 341.308 693.077 341.884 691.655 341.884C689.801 341.884 688.631 340.606 688.523 338.86H696.191ZM688.559 337.636C688.721 336.142 689.639 334.972 691.511 334.972C693.761 334.972 694.337 336.556 694.409 337.636H688.559ZM698.378 339.868C698.378 340.912 698.378 341.848 698.36 343H700.016C700.034 342.694 700.052 342.046 700.052 341.596C700.52 342.424 701.42 343.252 703.364 343.252C705.956 343.252 707.864 341.344 707.864 338.302C707.864 335.638 706.027 333.64 703.472 333.64C701.528 333.64 700.556 334.594 700.106 335.314V329.482H698.378V339.868ZM703.112 341.812C701.222 341.812 700.034 340.516 700.034 338.446C700.034 336.538 701.024 335.08 703.094 335.08C705.218 335.08 706.1 336.808 706.1 338.356C706.1 340.156 705.236 341.812 703.112 341.812ZM709.379 340.246C709.703 342.136 711.251 343.252 713.897 343.252C716.849 343.252 718.091 342.046 718.091 340.408C718.091 339.058 717.443 337.996 714.023 337.528C711.935 337.258 711.521 336.862 711.521 336.178C711.521 335.656 711.863 334.936 713.555 334.936C715.553 334.936 715.931 335.818 716.075 336.376H717.785C717.695 335.278 716.813 333.64 713.645 333.64C710.747 333.64 709.793 335.152 709.793 336.322C709.793 337.456 710.405 338.572 713.609 338.986C715.913 339.256 716.381 339.778 716.381 340.534C716.381 341.344 715.751 341.956 714.005 341.956C712.367 341.956 711.431 341.326 711.107 340.246H709.379ZM720.333 343H722.043V333.892H720.333V343ZM720.333 331.534H722.043V329.482H720.333V331.534ZM723.979 335.242H725.779V340.462C725.779 342.244 726.355 343.09 728.245 343.09C728.767 343.09 729.235 343.072 729.649 342.928V341.668C729.379 341.74 729.019 341.74 728.749 341.74C727.759 341.74 727.489 341.272 727.489 340.228V335.242H729.865V333.892H727.489V330.958H725.779V333.892H723.979V335.242ZM740.365 338.86C740.365 338.68 740.365 338.554 740.365 338.41C740.365 336.178 739.141 333.64 735.685 333.64C732.823 333.64 730.987 335.728 730.987 338.482C730.987 340.876 732.463 343.252 735.739 343.252C738.457 343.252 739.753 341.776 740.239 340.408H738.529C738.043 341.308 737.251 341.884 735.829 341.884C733.975 341.884 732.805 340.606 732.697 338.86H740.365ZM732.733 337.636C732.895 336.142 733.813 334.972 735.685 334.972C737.935 334.972 738.511 336.556 738.583 337.636H732.733ZM750.722 329.482C749.174 331.084 747.518 333.892 747.518 337.546C747.518 341.182 749.066 344.116 750.722 345.862H752.486C750.308 343.432 749.12 340.858 749.12 337.564C749.12 334.072 750.56 331.516 752.486 329.482H750.722ZM758.418 333.64C755.34 333.64 753.522 335.854 753.522 338.464C753.522 340.984 755.25 343.252 758.328 343.252C761.586 343.252 763.224 340.984 763.224 338.446C763.224 336.034 761.568 333.64 758.418 333.64ZM758.346 335.044C760.362 335.044 761.46 336.646 761.46 338.482C761.46 340.3 760.47 341.866 758.382 341.866C756.384 341.866 755.268 340.192 755.268 338.464C755.268 336.628 756.276 335.044 758.346 335.044ZM770.406 343.252C772.872 343.252 774.924 341.272 774.924 338.302C774.924 335.656 773.142 333.64 770.694 333.64C768.786 333.64 767.724 334.522 767.184 335.476C767.184 334.774 767.166 334.162 767.13 333.892H765.456C765.474 334.648 765.474 335.422 765.474 336.178V346.996H767.184V341.668C767.67 342.442 768.516 343.252 770.406 343.252ZM770.136 341.812C768.138 341.812 767.13 340.408 767.13 338.5C767.13 336.592 768.066 335.08 770.172 335.08C772.224 335.08 773.16 336.754 773.16 338.374C773.16 340.192 772.152 341.812 770.136 341.812ZM775.923 335.242H777.723V340.462C777.723 342.244 778.299 343.09 780.189 343.09C780.711 343.09 781.179 343.072 781.593 342.928V341.668C781.323 341.74 780.963 341.74 780.693 341.74C779.703 341.74 779.433 341.272 779.433 340.228V335.242H781.809V333.892H779.433V330.958H777.723V333.892H775.923V335.242ZM783.825 343H785.535V333.892H783.825V343ZM783.825 331.534H785.535V329.482H783.825V331.534ZM792.66 333.64C789.582 333.64 787.764 335.854 787.764 338.464C787.764 340.984 789.492 343.252 792.57 343.252C795.828 343.252 797.466 340.984 797.466 338.446C797.466 336.034 795.81 333.64 792.66 333.64ZM792.588 335.044C794.604 335.044 795.702 336.646 795.702 338.482C795.702 340.3 794.712 341.866 792.624 341.866C790.626 341.866 789.51 340.192 789.51 338.464C789.51 336.628 790.518 335.044 792.588 335.044ZM799.698 343H801.426V338.644C801.426 336.538 802.362 335.08 804.252 335.08C805.944 335.08 806.52 336.268 806.52 337.78V343H808.248V337.456C808.248 334.972 806.862 333.64 804.72 333.64C802.758 333.64 801.822 334.702 801.426 335.584C801.408 334.972 801.39 334.216 801.354 333.892H799.68C799.698 334.576 799.698 335.422 799.698 336.196V343ZM819.045 336.772C819.045 335.26 818.307 333.64 814.995 333.64C811.863 333.64 811.053 335.35 810.945 336.556H812.655C812.835 335.71 813.249 334.954 814.995 334.954C816.939 334.954 817.353 335.872 817.353 336.88V337.348C817.047 337.348 816.237 337.348 815.139 337.348C812.547 337.348 810.423 337.996 810.423 340.336C810.423 341.704 811.377 343.252 813.951 343.252C815.877 343.252 816.903 342.622 817.389 341.668C817.389 341.974 817.425 342.676 817.497 343H819.117C819.099 342.802 819.045 341.65 819.045 340.75V336.772ZM817.353 338.968C817.353 340.498 816.705 341.92 814.293 341.92C812.781 341.92 812.115 341.146 812.115 340.246C812.115 339.022 813.087 338.572 815.175 338.572C816.471 338.572 817.083 338.572 817.353 338.572V338.968ZM823.715 343V329.482H821.987V343H823.715ZM827.792 345.862C829.358 344.26 830.996 341.452 830.996 337.798C830.996 334.162 829.448 331.228 827.792 329.482H826.028C828.206 331.912 829.412 334.486 829.412 337.78C829.412 341.272 827.954 343.828 826.028 345.862H827.792Z" fill="#F7F7F3"/>
</svg>
