<svg width="1164" height="59" viewBox="0 0 1164 59" fill="none" xmlns="http://www.w3.org/2000/svg">
<path d="M77.4183 18.29C79.6183 18.29 80.1903 19.302 79.7503 21.37C79.3323 23.196 79.1783 24.34 79.2443 25H81.2683C81.2023 24.362 81.4663 23.086 81.8403 21.326C82.3903 18.73 81.1803 17.85 80.3443 17.542C82.3243 17.08 83.6663 15.738 83.6663 13.494C83.6663 11.206 82.1263 9.732 79.2663 9.732H74.0083L70.7743 25H72.9083L74.3163 18.29H77.4183ZM75.7463 11.492H78.8263C80.5643 11.492 81.4663 12.218 81.4663 13.714C81.4663 15.716 79.9703 16.508 77.6163 16.508H74.6903L75.7463 11.492ZM94.2068 19.764C94.4048 19.038 94.4928 18.378 94.4928 17.652C94.4928 15.562 93.4588 13.582 90.4008 13.582C86.2208 13.582 84.5048 17.63 84.5048 20.754C84.5048 23.372 85.8468 25.22 88.6848 25.22C91.6768 25.22 93.0628 23.526 93.7668 21.81H91.6548C91.1708 22.712 90.4668 23.57 88.9048 23.57C87.3868 23.57 86.5728 22.514 86.5728 20.754C86.5728 20.402 86.6168 20.16 86.6608 19.764H94.2068ZM86.9908 18.268C87.5188 16.332 88.6848 15.21 90.3128 15.21C91.8748 15.21 92.5348 16.09 92.5348 17.52C92.5348 17.74 92.5128 18.004 92.4688 18.268H86.9908ZM105.701 17.476C106.295 14.748 104.557 13.582 101.961 13.582C98.7495 13.582 97.5175 15.188 97.1215 16.86H99.2115C99.5195 16.068 99.9815 15.122 101.785 15.122C103.809 15.122 103.875 16.42 103.677 17.432L103.545 18.158C102.951 18.18 101.983 18.18 100.861 18.268C98.5735 18.51 95.6255 19.214 95.6255 22.404C95.6255 23.724 96.4835 25.22 98.7275 25.22C100.971 25.22 101.873 24.23 102.445 23.372C102.335 23.944 102.203 24.626 102.181 25H104.183C104.227 24.582 104.491 23.218 104.689 22.25L105.701 17.476ZM103.193 19.808C102.753 21.722 101.873 23.57 99.4975 23.57C98.3315 23.57 97.7815 22.888 97.7815 22.074C97.7815 20.446 99.2335 19.94 101.015 19.742C101.895 19.654 102.599 19.632 103.237 19.632L103.193 19.808ZM109.38 25L112.79 8.874H110.744L107.334 25H109.38ZM129.284 8.874L127.942 15.232C127.7 14.528 126.71 13.582 124.862 13.582C120.968 13.582 118.988 17.542 118.988 20.864C118.988 23.438 120.22 25.22 122.618 25.22C124.422 25.22 125.522 24.472 126.248 23.328C126.116 24.01 126.006 24.67 125.984 25H127.964C128.14 24.01 128.36 22.954 128.58 21.898L131.33 8.874H129.284ZM124.95 15.364C127.018 15.364 127.678 16.772 127.216 19.038C126.754 21.48 125.588 23.46 123.366 23.46C121.936 23.46 121.122 22.536 121.122 20.644C121.122 18.29 122.442 15.364 124.95 15.364ZM131.161 25H133.207L134.307 19.83C134.835 17.344 136.397 15.826 138.531 15.694L138.971 13.582C137.211 13.582 135.869 14.572 135.077 16.112C135.275 15.166 135.451 14.088 135.473 13.802H133.493C133.317 14.836 133.075 16.024 132.855 17.124L131.161 25ZM148.82 19.764C149.018 19.038 149.106 18.378 149.106 17.652C149.106 15.562 148.072 13.582 145.014 13.582C140.834 13.582 139.118 17.63 139.118 20.754C139.118 23.372 140.46 25.22 143.298 25.22C146.29 25.22 147.676 23.526 148.38 21.81H146.268C145.784 22.712 145.08 23.57 143.518 23.57C142 23.57 141.186 22.514 141.186 20.754C141.186 20.402 141.23 20.16 141.274 19.764H148.82ZM141.604 18.268C142.132 16.332 143.298 15.21 144.926 15.21C146.488 15.21 147.148 16.09 147.148 17.52C147.148 17.74 147.126 18.004 147.082 18.268H141.604ZM160.315 17.476C160.909 14.748 159.171 13.582 156.575 13.582C153.363 13.582 152.131 15.188 151.735 16.86H153.825C154.133 16.068 154.595 15.122 156.399 15.122C158.423 15.122 158.489 16.42 158.291 17.432L158.159 18.158C157.565 18.18 156.597 18.18 155.475 18.268C153.187 18.51 150.239 19.214 150.239 22.404C150.239 23.724 151.097 25.22 153.341 25.22C155.585 25.22 156.487 24.23 157.059 23.372C156.949 23.944 156.817 24.626 156.795 25H158.797C158.841 24.582 159.105 23.218 159.303 22.25L160.315 17.476ZM157.807 19.808C157.367 21.722 156.487 23.57 154.111 23.57C152.945 23.57 152.395 22.888 152.395 22.074C152.395 20.446 153.847 19.94 155.629 19.742C156.509 19.654 157.213 19.632 157.851 19.632L157.807 19.808ZM161.948 25H163.972L165.27 18.84C165.688 16.882 166.7 15.364 168.416 15.364C169.978 15.364 170.154 16.53 169.824 18.136L168.35 25H170.374L171.716 18.642C172.112 16.794 173.058 15.364 174.73 15.364C176.468 15.364 176.512 16.728 176.226 17.982L174.752 25H176.754L178.294 17.74C178.954 14.682 177.48 13.582 175.61 13.582C173.784 13.582 172.684 14.506 171.892 15.584C171.716 14.286 170.88 13.582 169.318 13.582C167.624 13.582 166.722 14.44 165.996 15.474C166.128 14.924 166.26 14.11 166.282 13.802H164.28C164.104 14.88 163.884 15.892 163.664 16.948L161.948 25ZM179.644 21.634C179.622 23.768 181.052 25.22 183.934 25.22C186.596 25.22 188.51 23.966 188.51 21.656C188.51 20.094 187.542 19.148 185.144 18.312C183.604 17.762 182.966 17.41 182.966 16.662C182.966 15.694 183.802 15.188 184.88 15.188C186.596 15.188 186.948 16.09 187.014 16.86H189.082C189.148 15.21 187.982 13.582 185.034 13.582C182.284 13.582 180.898 15.1 180.898 16.904C180.898 18.202 181.668 19.082 184.11 19.918C185.672 20.468 186.376 20.93 186.376 21.898C186.376 22.91 185.65 23.614 184.22 23.614C182.548 23.614 181.844 22.756 181.734 21.634H179.644ZM205.776 17.476C206.37 14.748 204.632 13.582 202.036 13.582C198.824 13.582 197.592 15.188 197.196 16.86H199.286C199.594 16.068 200.056 15.122 201.86 15.122C203.884 15.122 203.95 16.42 203.752 17.432L203.62 18.158C203.026 18.18 202.058 18.18 200.936 18.268C198.648 18.51 195.7 19.214 195.7 22.404C195.7 23.724 196.558 25.22 198.802 25.22C201.046 25.22 201.948 24.23 202.52 23.372C202.41 23.944 202.278 24.626 202.256 25H204.258C204.302 24.582 204.566 23.218 204.764 22.25L205.776 17.476ZM203.268 19.808C202.828 21.722 201.948 23.57 199.572 23.57C198.406 23.57 197.856 22.888 197.856 22.074C197.856 20.446 199.308 19.94 201.09 19.742C201.97 19.654 202.674 19.632 203.312 19.632L203.268 19.808ZM207.409 25H209.455L210.555 19.83C211.083 17.344 212.645 15.826 214.779 15.694L215.219 13.582C213.459 13.582 212.117 14.572 211.325 16.112C211.523 15.166 211.699 14.088 211.721 13.802H209.741C209.565 14.836 209.323 16.024 209.103 17.124L207.409 25ZM225.068 19.764C225.266 19.038 225.354 18.378 225.354 17.652C225.354 15.562 224.32 13.582 221.262 13.582C217.082 13.582 215.366 17.63 215.366 20.754C215.366 23.372 216.708 25.22 219.546 25.22C222.538 25.22 223.924 23.526 224.628 21.81H222.516C222.032 22.712 221.328 23.57 219.766 23.57C218.248 23.57 217.434 22.514 217.434 20.754C217.434 20.402 217.478 20.16 217.522 19.764H225.068ZM217.852 18.268C218.38 16.332 219.546 15.21 221.174 15.21C222.736 15.21 223.396 16.09 223.396 17.52C223.396 17.74 223.374 18.004 223.33 18.268H217.852ZM232.646 15.452H234.472L233.02 22.316C232.624 24.208 233.152 25.154 235.022 25.154C235.528 25.154 236.122 25.132 236.65 24.956L237.002 23.372C236.672 23.438 236.254 23.46 235.924 23.46C234.978 23.46 234.934 22.976 235.132 22.008L236.496 15.452H238.828L239.202 13.802H236.87L237.552 10.612H235.506L234.824 13.802H233.02L232.646 15.452ZM242.229 8.874L238.819 25H240.865L242.185 18.796C242.625 16.794 243.857 15.364 245.639 15.364C247.245 15.364 247.641 16.31 247.245 18.136L245.815 25H247.839L249.357 17.806C250.061 14.484 248.257 13.582 246.541 13.582C244.737 13.582 243.615 14.484 242.867 15.54L244.275 8.874H242.229ZM257.401 13.582C253.331 13.582 251.417 17.608 251.417 20.688C251.417 23.482 252.913 25.22 255.707 25.22C260.085 25.22 261.735 21.15 261.735 18.246C261.735 15.21 259.997 13.582 257.401 13.582ZM257.225 15.276C258.831 15.276 259.623 16.332 259.623 18.136C259.623 20.402 258.501 23.548 255.927 23.548C254.387 23.548 253.529 22.492 253.529 20.688C253.529 18.4 254.739 15.276 257.225 15.276ZM262.918 21.634C262.896 23.768 264.326 25.22 267.208 25.22C269.87 25.22 271.784 23.966 271.784 21.656C271.784 20.094 270.816 19.148 268.418 18.312C266.878 17.762 266.24 17.41 266.24 16.662C266.24 15.694 267.076 15.188 268.154 15.188C269.87 15.188 270.222 16.09 270.288 16.86H272.356C272.422 15.21 271.256 13.582 268.308 13.582C265.558 13.582 264.172 15.1 264.172 16.904C264.172 18.202 264.942 19.082 267.384 19.918C268.946 20.468 269.65 20.93 269.65 21.898C269.65 22.91 268.924 23.614 267.494 23.614C265.822 23.614 265.118 22.756 265.008 21.634H262.918ZM283.291 19.764C283.489 19.038 283.577 18.378 283.577 17.652C283.577 15.562 282.543 13.582 279.485 13.582C275.305 13.582 273.589 17.63 273.589 20.754C273.589 23.372 274.931 25.22 277.769 25.22C280.761 25.22 282.147 23.526 282.851 21.81H280.739C280.255 22.712 279.551 23.57 277.989 23.57C276.471 23.57 275.657 22.514 275.657 20.754C275.657 20.402 275.701 20.16 275.745 19.764H283.291ZM276.075 18.268C276.603 16.332 277.769 15.21 279.397 15.21C280.959 15.21 281.619 16.09 281.619 17.52C281.619 17.74 281.597 18.004 281.553 18.268H276.075ZM291.309 13.802L292.057 25H294.323C296.413 20.71 297.887 17.762 298.415 16.354H298.437C298.393 17.828 298.547 21.172 298.767 25H300.967L306.775 13.802H304.641C301.891 19.258 300.791 21.7 300.285 22.844H300.263C300.329 21.788 300.307 20.182 300.021 13.802H297.997C295.005 20.006 294.191 21.766 293.707 22.954H293.685C293.707 21.59 293.597 18.29 293.355 13.802H291.309ZM309.948 8.874L306.538 25H308.584L309.904 18.796C310.344 16.794 311.576 15.364 313.358 15.364C314.964 15.364 315.36 16.31 314.964 18.136L313.534 25H315.558L317.076 17.806C317.78 14.484 315.976 13.582 314.26 13.582C312.456 13.582 311.334 14.484 310.586 15.54L311.994 8.874H309.948ZM318.762 25H320.808L323.184 13.802H321.138L318.762 25ZM321.666 11.36H323.712L324.218 8.874H322.172L321.666 11.36ZM331.528 21.612C330.934 22.866 330.01 23.592 328.8 23.592C327.414 23.592 326.512 22.734 326.512 20.732C326.512 18.422 327.612 15.232 330.12 15.232C331.682 15.232 332.188 16.244 332.232 17.432H334.234C334.366 15.936 333.486 13.582 330.23 13.582C326.27 13.582 324.4 17.498 324.4 20.864C324.4 23.46 325.742 25.22 328.514 25.22C331.286 25.22 332.848 23.724 333.574 21.612H331.528ZM338.586 8.874L335.176 25H337.222L338.542 18.796C338.982 16.794 340.214 15.364 341.996 15.364C343.602 15.364 343.998 16.31 343.602 18.136L342.172 25H344.196L345.714 17.806C346.418 14.484 344.614 13.582 342.898 13.582C341.094 13.582 339.972 14.484 339.224 15.54L340.632 8.874H338.586ZM353.56 15.452H355.386L353.934 22.316C353.538 24.208 354.066 25.154 355.936 25.154C356.442 25.154 357.036 25.132 357.564 24.956L357.916 23.372C357.586 23.438 357.168 23.46 356.838 23.46C355.892 23.46 355.848 22.976 356.046 22.008L357.41 15.452H359.742L360.116 13.802H357.784L358.466 10.612H356.42L355.738 13.802H353.934L353.56 15.452ZM369.809 17.476C370.403 14.748 368.665 13.582 366.069 13.582C362.857 13.582 361.625 15.188 361.229 16.86H363.319C363.627 16.068 364.089 15.122 365.893 15.122C367.917 15.122 367.983 16.42 367.785 17.432L367.653 18.158C367.059 18.18 366.091 18.18 364.969 18.268C362.681 18.51 359.733 19.214 359.733 22.404C359.733 23.724 360.591 25.22 362.835 25.22C365.079 25.22 365.981 24.23 366.553 23.372C366.443 23.944 366.311 24.626 366.289 25H368.291C368.335 24.582 368.599 23.218 368.797 22.25L369.809 17.476ZM367.301 19.808C366.861 21.722 365.981 23.57 363.605 23.57C362.439 23.57 361.889 22.888 361.889 22.074C361.889 20.446 363.341 19.94 365.123 19.742C366.003 19.654 366.707 19.632 367.345 19.632L367.301 19.808ZM376.898 8.874H374.852L371.442 25H373.488L374.324 21.062L376.37 19.456L378.57 25H380.88L377.976 18.18C379.604 16.75 381.298 15.298 382.948 13.802H380.396C378.768 15.276 375.842 17.828 374.742 18.84L376.898 8.874ZM392.109 19.764C392.307 19.038 392.395 18.378 392.395 17.652C392.395 15.562 391.361 13.582 388.303 13.582C384.123 13.582 382.407 17.63 382.407 20.754C382.407 23.372 383.749 25.22 386.587 25.22C389.579 25.22 390.965 23.526 391.669 21.81H389.557C389.073 22.712 388.369 23.57 386.807 23.57C385.289 23.57 384.475 22.514 384.475 20.754C384.475 20.402 384.519 20.16 384.563 19.764H392.109ZM384.893 18.268C385.421 16.332 386.587 15.21 388.215 15.21C389.777 15.21 390.437 16.09 390.437 17.52C390.437 17.74 390.415 18.004 390.371 18.268H384.893ZM393.435 21.634C393.413 23.768 394.843 25.22 397.725 25.22C400.387 25.22 402.301 23.966 402.301 21.656C402.301 20.094 401.333 19.148 398.935 18.312C397.395 17.762 396.757 17.41 396.757 16.662C396.757 15.694 397.593 15.188 398.671 15.188C400.387 15.188 400.739 16.09 400.805 16.86H402.873C402.939 15.21 401.773 13.582 398.825 13.582C396.075 13.582 394.689 15.1 394.689 16.904C394.689 18.202 395.459 19.082 397.901 19.918C399.463 20.468 400.167 20.93 400.167 21.898C400.167 22.91 399.441 23.614 398.011 23.614C396.339 23.614 395.635 22.756 395.525 21.634H393.435ZM419.567 17.476C420.161 14.748 418.423 13.582 415.827 13.582C412.615 13.582 411.383 15.188 410.987 16.86H413.077C413.385 16.068 413.847 15.122 415.651 15.122C417.675 15.122 417.741 16.42 417.543 17.432L417.411 18.158C416.817 18.18 415.849 18.18 414.727 18.268C412.439 18.51 409.491 19.214 409.491 22.404C409.491 23.724 410.349 25.22 412.593 25.22C414.837 25.22 415.739 24.23 416.311 23.372C416.201 23.944 416.069 24.626 416.047 25H418.049C418.093 24.582 418.357 23.218 418.555 22.25L419.567 17.476ZM417.059 19.808C416.619 21.722 415.739 23.57 413.363 23.57C412.197 23.57 411.647 22.888 411.647 22.074C411.647 20.446 413.099 19.94 414.881 19.742C415.761 19.654 416.465 19.632 417.103 19.632L417.059 19.808ZM421.912 13.802L422.66 25H424.926C427.016 20.71 428.49 17.762 429.018 16.354H429.04C428.996 17.828 429.15 21.172 429.37 25H431.57L437.378 13.802H435.244C432.494 19.258 431.394 21.7 430.888 22.844H430.866C430.932 21.788 430.91 20.182 430.624 13.802H428.6C425.608 20.006 424.794 21.766 424.31 22.954H424.288C424.31 21.59 424.2 18.29 423.958 13.802H421.912ZM446.895 17.476C447.489 14.748 445.751 13.582 443.155 13.582C439.943 13.582 438.711 15.188 438.315 16.86H440.405C440.713 16.068 441.175 15.122 442.979 15.122C445.003 15.122 445.069 16.42 444.871 17.432L444.739 18.158C444.145 18.18 443.177 18.18 442.055 18.268C439.767 18.51 436.819 19.214 436.819 22.404C436.819 23.724 437.677 25.22 439.921 25.22C442.165 25.22 443.067 24.23 443.639 23.372C443.529 23.944 443.397 24.626 443.375 25H445.377C445.421 24.582 445.685 23.218 445.883 22.25L446.895 17.476ZM444.387 19.808C443.947 21.722 443.067 23.57 440.691 23.57C439.525 23.57 438.975 22.888 438.975 22.074C438.975 20.446 440.427 19.94 442.209 19.742C443.089 19.654 443.793 19.632 444.431 19.632L444.387 19.808ZM449.127 13.802L450.821 25.638C449.919 27.2 449.435 27.794 447.983 27.794C447.477 27.794 447.213 27.75 446.971 27.706L446.553 29.466C446.861 29.554 447.455 29.62 447.873 29.62C449.985 29.62 451.063 29.29 452.999 25.616L459.203 13.802H457.047C454.297 19.104 452.911 22.184 452.295 23.394H452.273C452.207 22.272 451.811 18.752 451.195 13.802H449.127ZM465.992 13.802L467.686 25.638C466.784 27.2 466.3 27.794 464.848 27.794C464.342 27.794 464.078 27.75 463.836 27.706L463.418 29.466C463.726 29.554 464.32 29.62 464.738 29.62C466.85 29.62 467.928 29.29 469.864 25.616L476.068 13.802H473.912C471.162 19.104 469.776 22.184 469.16 23.394H469.138C469.072 22.272 468.676 18.752 468.06 13.802H465.992ZM482.278 13.582C478.208 13.582 476.294 17.608 476.294 20.688C476.294 23.482 477.79 25.22 480.584 25.22C484.962 25.22 486.612 21.15 486.612 18.246C486.612 15.21 484.874 13.582 482.278 13.582ZM482.102 15.276C483.708 15.276 484.5 16.332 484.5 18.136C484.5 20.402 483.378 23.548 480.804 23.548C479.264 23.548 478.406 22.492 478.406 20.688C478.406 18.4 479.616 15.276 482.102 15.276ZM499.042 13.802H497.018L495.852 19.236C495.214 22.25 493.806 23.504 492.156 23.504C490.462 23.504 490.374 22.316 490.66 20.93L492.178 13.802H490.154L488.592 21.15C487.976 24.01 489.274 25.22 491.32 25.22C493.014 25.22 494.268 24.428 495.038 23.152C494.906 23.702 494.752 24.67 494.73 25H496.732C496.886 24.12 497.084 23.02 497.304 22.008L499.042 13.802ZM499.875 25H501.921L503.021 19.83C503.549 17.344 505.111 15.826 507.245 15.694L507.685 13.582C505.925 13.582 504.583 14.572 503.791 16.112C503.989 15.166 504.165 14.088 504.187 13.802H502.207C502.031 14.836 501.789 16.024 501.569 17.124L499.875 25ZM512.802 21.634C512.78 23.768 514.21 25.22 517.092 25.22C519.754 25.22 521.668 23.966 521.668 21.656C521.668 20.094 520.7 19.148 518.302 18.312C516.762 17.762 516.124 17.41 516.124 16.662C516.124 15.694 516.96 15.188 518.038 15.188C519.754 15.188 520.106 16.09 520.172 16.86H522.24C522.306 15.21 521.14 13.582 518.192 13.582C515.442 13.582 514.056 15.1 514.056 16.904C514.056 18.202 514.826 19.082 517.268 19.918C518.83 20.468 519.534 20.93 519.534 21.898C519.534 22.91 518.808 23.614 517.378 23.614C515.706 23.614 515.002 22.756 514.892 21.634H512.802ZM525.296 25L528.706 8.874H526.66L523.25 25H525.296ZM538.568 19.764C538.766 19.038 538.854 18.378 538.854 17.652C538.854 15.562 537.82 13.582 534.762 13.582C530.582 13.582 528.866 17.63 528.866 20.754C528.866 23.372 530.208 25.22 533.046 25.22C536.038 25.22 537.424 23.526 538.128 21.81H536.016C535.532 22.712 534.828 23.57 533.266 23.57C531.748 23.57 530.934 22.514 530.934 20.754C530.934 20.402 530.978 20.16 531.022 19.764H538.568ZM531.352 18.268C531.88 16.332 533.046 15.21 534.674 15.21C536.236 15.21 536.896 16.09 536.896 17.52C536.896 17.74 536.874 18.004 536.83 18.268H531.352ZM550.148 19.764C550.346 19.038 550.434 18.378 550.434 17.652C550.434 15.562 549.4 13.582 546.342 13.582C542.162 13.582 540.446 17.63 540.446 20.754C540.446 23.372 541.788 25.22 544.626 25.22C547.618 25.22 549.004 23.526 549.708 21.81H547.596C547.112 22.712 546.408 23.57 544.846 23.57C543.328 23.57 542.514 22.514 542.514 20.754C542.514 20.402 542.558 20.16 542.602 19.764H550.148ZM542.932 18.268C543.46 16.332 544.626 15.21 546.254 15.21C547.816 15.21 548.476 16.09 548.476 17.52C548.476 17.74 548.454 18.004 548.41 18.268H542.932ZM557.064 25.22C560.892 25.22 563.004 21.48 563.004 17.85C563.004 15.276 561.706 13.582 559.44 13.582C557.636 13.582 556.448 14.528 555.7 15.672C555.832 15.012 556.008 14.044 556.03 13.802H554.006C553.896 14.506 553.676 15.562 553.346 17.102L550.75 29.4H552.796L554.028 23.614C554.402 24.406 555.326 25.22 557.064 25.22ZM557.064 23.482C554.864 23.482 554.314 21.81 554.82 19.478C555.26 17.322 556.624 15.342 558.626 15.342C560.012 15.342 560.87 16.266 560.87 18.07C560.87 20.424 559.682 23.482 557.064 23.482ZM580.184 17.476C580.778 14.748 579.04 13.582 576.444 13.582C573.232 13.582 572 15.188 571.604 16.86H573.694C574.002 16.068 574.464 15.122 576.268 15.122C578.292 15.122 578.358 16.42 578.16 17.432L578.028 18.158C577.434 18.18 576.466 18.18 575.344 18.268C573.056 18.51 570.108 19.214 570.108 22.404C570.108 23.724 570.966 25.22 573.21 25.22C575.454 25.22 576.356 24.23 576.928 23.372C576.818 23.944 576.686 24.626 576.664 25H578.666C578.71 24.582 578.974 23.218 579.172 22.25L580.184 17.476ZM577.676 19.808C577.236 21.722 576.356 23.57 573.98 23.57C572.814 23.57 572.264 22.888 572.264 22.074C572.264 20.446 573.716 19.94 575.498 19.742C576.378 19.654 577.082 19.632 577.72 19.632L577.676 19.808ZM581.817 25H583.863L585.051 19.368C585.535 17.124 586.679 15.364 588.637 15.364C590.243 15.364 590.617 16.486 590.265 18.092L588.813 25H590.837L592.311 18.048C592.993 14.836 591.673 13.582 589.517 13.582C587.515 13.582 586.459 14.682 585.843 15.628C585.909 15.32 586.129 14.154 586.151 13.802H584.149C583.995 14.748 583.797 15.694 583.599 16.662L581.817 25ZM604.712 8.874L603.37 15.232C603.128 14.528 602.138 13.582 600.29 13.582C596.396 13.582 594.416 17.542 594.416 20.864C594.416 23.438 595.648 25.22 598.046 25.22C599.85 25.22 600.95 24.472 601.676 23.328C601.544 24.01 601.434 24.67 601.412 25H603.392C603.568 24.01 603.788 22.954 604.008 21.898L606.758 8.874H604.712ZM600.378 15.364C602.446 15.364 603.106 16.772 602.644 19.038C602.182 21.48 601.016 23.46 598.794 23.46C597.364 23.46 596.55 22.536 596.55 20.644C596.55 18.29 597.87 15.364 600.378 15.364ZM613.242 15.452H615.068L613.616 22.316C613.22 24.208 613.748 25.154 615.618 25.154C616.124 25.154 616.718 25.132 617.246 24.956L617.598 23.372C617.268 23.438 616.85 23.46 616.52 23.46C615.574 23.46 615.53 22.976 615.728 22.008L617.092 15.452H619.424L619.798 13.802H617.466L618.148 10.612H616.102L615.42 13.802H613.616L613.242 15.452ZM622.825 8.874L619.415 25H621.461L622.781 18.796C623.221 16.794 624.453 15.364 626.235 15.364C627.841 15.364 628.237 16.31 627.841 18.136L626.411 25H628.435L629.953 17.806C630.657 14.484 628.853 13.582 627.137 13.582C625.333 13.582 624.211 14.484 623.463 15.54L624.871 8.874H622.825ZM641.693 19.764C641.891 19.038 641.979 18.378 641.979 17.652C641.979 15.562 640.945 13.582 637.887 13.582C633.707 13.582 631.991 17.63 631.991 20.754C631.991 23.372 633.333 25.22 636.171 25.22C639.163 25.22 640.549 23.526 641.253 21.81H639.141C638.657 22.712 637.953 23.57 636.391 23.57C634.873 23.57 634.059 22.514 634.059 20.754C634.059 20.402 634.103 20.16 634.147 19.764H641.693ZM634.477 18.268C635.005 16.332 636.171 15.21 637.799 15.21C639.361 15.21 640.021 16.09 640.021 17.52C640.021 17.74 639.999 18.004 639.955 18.268H634.477ZM654.023 25.22C657.851 25.22 659.963 21.48 659.963 17.85C659.963 15.276 658.665 13.582 656.399 13.582C654.595 13.582 653.407 14.528 652.659 15.672C652.791 15.012 652.967 14.044 652.989 13.802H650.965C650.855 14.506 650.635 15.562 650.305 17.102L647.709 29.4H649.755L650.987 23.614C651.361 24.406 652.285 25.22 654.023 25.22ZM654.023 23.482C651.823 23.482 651.273 21.81 651.779 19.478C652.219 17.322 653.583 15.342 655.585 15.342C656.971 15.342 657.829 16.266 657.829 18.07C657.829 20.424 656.641 23.482 654.023 23.482ZM672.4 13.802H670.376L669.21 19.236C668.572 22.25 667.164 23.504 665.514 23.504C663.82 23.504 663.732 22.316 664.018 20.93L665.536 13.802H663.512L661.95 21.15C661.334 24.01 662.632 25.22 664.678 25.22C666.372 25.22 667.626 24.428 668.396 23.152C668.264 23.702 668.11 24.67 668.088 25H670.09C670.244 24.12 670.442 23.02 670.662 22.008L672.4 13.802ZM673.233 25H675.279L676.379 19.83C676.907 17.344 678.469 15.826 680.603 15.694L681.043 13.582C679.283 13.582 677.941 14.572 677.149 16.112C677.347 15.166 677.523 14.088 677.545 13.802H675.565C675.389 14.836 675.147 16.024 674.927 17.124L673.233 25ZM686.164 25.22C689.992 25.22 692.104 21.48 692.104 17.85C692.104 15.276 690.806 13.582 688.54 13.582C686.736 13.582 685.548 14.528 684.8 15.672C684.932 15.012 685.108 14.044 685.13 13.802H683.106C682.996 14.506 682.776 15.562 682.446 17.102L679.85 29.4H681.896L683.128 23.614C683.502 24.406 684.426 25.22 686.164 25.22ZM686.164 23.482C683.964 23.482 683.414 21.81 683.92 19.478C684.36 17.322 685.724 15.342 687.726 15.342C689.112 15.342 689.97 16.266 689.97 18.07C689.97 20.424 688.782 23.482 686.164 23.482ZM699.743 13.582C695.673 13.582 693.759 17.608 693.759 20.688C693.759 23.482 695.255 25.22 698.049 25.22C702.427 25.22 704.077 21.15 704.077 18.246C704.077 15.21 702.339 13.582 699.743 13.582ZM699.567 15.276C701.173 15.276 701.965 16.332 701.965 18.136C701.965 20.402 700.843 23.548 698.269 23.548C696.729 23.548 695.871 22.492 695.871 20.688C695.871 18.4 697.081 15.276 699.567 15.276ZM705.259 21.634C705.237 23.768 706.667 25.22 709.549 25.22C712.211 25.22 714.125 23.966 714.125 21.656C714.125 20.094 713.157 19.148 710.759 18.312C709.219 17.762 708.581 17.41 708.581 16.662C708.581 15.694 709.417 15.188 710.495 15.188C712.211 15.188 712.563 16.09 712.629 16.86H714.697C714.763 15.21 713.597 13.582 710.649 13.582C707.899 13.582 706.513 15.1 706.513 16.904C706.513 18.202 707.283 19.082 709.725 19.918C711.287 20.468 711.991 20.93 711.991 21.898C711.991 22.91 711.265 23.614 709.835 23.614C708.163 23.614 707.459 22.756 707.349 21.634H705.259ZM725.633 19.764C725.831 19.038 725.919 18.378 725.919 17.652C725.919 15.562 724.885 13.582 721.827 13.582C717.647 13.582 715.931 17.63 715.931 20.754C715.931 23.372 717.273 25.22 720.111 25.22C723.103 25.22 724.489 23.526 725.193 21.81H723.081C722.597 22.712 721.893 23.57 720.331 23.57C718.813 23.57 717.999 22.514 717.999 20.754C717.999 20.402 718.043 20.16 718.087 19.764H725.633ZM718.417 18.268C718.945 16.332 720.111 15.21 721.739 15.21C723.301 15.21 723.961 16.09 723.961 17.52C723.961 17.74 723.939 18.004 723.895 18.268H718.417ZM738.931 13.582C734.861 13.582 732.947 17.608 732.947 20.688C732.947 23.482 734.443 25.22 737.237 25.22C741.615 25.22 743.265 21.15 743.265 18.246C743.265 15.21 741.527 13.582 738.931 13.582ZM738.755 15.276C740.361 15.276 741.153 16.332 741.153 18.136C741.153 20.402 740.031 23.548 737.457 23.548C735.917 23.548 735.059 22.492 735.059 20.688C735.059 18.4 736.269 15.276 738.755 15.276ZM746.913 25.022L748.915 15.474H751.071L751.423 13.824H749.289L749.597 12.35C749.861 11.096 750.433 10.458 751.467 10.458C751.731 10.458 752.127 10.48 752.325 10.546L752.699 8.83C752.457 8.742 751.907 8.676 751.379 8.676C749.135 8.676 748.035 10.216 747.573 12.328L747.243 13.824H745.505L745.131 15.474H746.869L744.867 25.022H746.913ZM758.445 25L761.855 8.874H759.809L756.399 25H758.445ZM761.727 25H763.773L766.149 13.802H764.103L761.727 25ZM764.631 11.36H766.677L767.183 8.874H765.137L764.631 11.36ZM769.58 25.022L771.582 15.474H773.738L774.09 13.824H771.956L772.264 12.35C772.528 11.096 773.1 10.458 774.134 10.458C774.398 10.458 774.794 10.48 774.992 10.546L775.366 8.83C775.124 8.742 774.574 8.676 774.046 8.676C771.802 8.676 770.702 10.216 770.24 12.328L769.91 13.824H768.172L767.798 15.474H769.536L767.534 25.022H769.58ZM783.597 19.764C783.795 19.038 783.883 18.378 783.883 17.652C783.883 15.562 782.849 13.582 779.791 13.582C775.611 13.582 773.895 17.63 773.895 20.754C773.895 23.372 775.237 25.22 778.075 25.22C781.067 25.22 782.453 23.526 783.157 21.81H781.045C780.561 22.712 779.857 23.57 778.295 23.57C776.777 23.57 775.963 22.514 775.963 20.754C775.963 20.402 776.007 20.16 776.051 19.764H783.597ZM776.381 18.268C776.909 16.332 778.075 15.21 779.703 15.21C781.265 15.21 781.925 16.09 781.925 17.52C781.925 17.74 781.903 18.004 781.859 18.268H776.381ZM790.538 25H792.584L794.96 13.802H792.914L790.538 25ZM793.442 11.36H795.488L795.994 8.874H793.948L793.442 11.36ZM795.623 21.634C795.601 23.768 797.031 25.22 799.913 25.22C802.575 25.22 804.489 23.966 804.489 21.656C804.489 20.094 803.521 19.148 801.123 18.312C799.583 17.762 798.945 17.41 798.945 16.662C798.945 15.694 799.781 15.188 800.859 15.188C802.575 15.188 802.927 16.09 802.993 16.86H805.061C805.127 15.21 803.961 13.582 801.013 13.582C798.263 13.582 796.877 15.1 796.877 16.904C796.877 18.202 797.647 19.082 800.089 19.918C801.651 20.468 802.355 20.93 802.355 21.898C802.355 22.91 801.629 23.614 800.199 23.614C798.527 23.614 797.823 22.756 797.713 21.634H795.623ZM812.316 15.452H814.142L812.69 22.316C812.294 24.208 812.822 25.154 814.692 25.154C815.198 25.154 815.792 25.132 816.32 24.956L816.672 23.372C816.342 23.438 815.924 23.46 815.594 23.46C814.648 23.46 814.604 22.976 814.802 22.008L816.166 15.452H818.498L818.872 13.802H816.54L817.222 10.612H815.176L814.494 13.802H812.69L812.316 15.452ZM824.782 13.582C820.712 13.582 818.798 17.608 818.798 20.688C818.798 23.482 820.294 25.22 823.088 25.22C827.466 25.22 829.116 21.15 829.116 18.246C829.116 15.21 827.378 13.582 824.782 13.582ZM824.606 15.276C826.212 15.276 827.004 16.332 827.004 18.136C827.004 20.402 825.882 23.548 823.308 23.548C821.768 23.548 820.91 22.492 820.91 20.688C820.91 18.4 822.12 15.276 824.606 15.276ZM846.883 8.874L845.541 15.232C845.299 14.528 844.309 13.582 842.461 13.582C838.567 13.582 836.587 17.542 836.587 20.864C836.587 23.438 837.819 25.22 840.217 25.22C842.021 25.22 843.121 24.472 843.847 23.328C843.715 24.01 843.605 24.67 843.583 25H845.563C845.739 24.01 845.959 22.954 846.179 21.898L848.929 8.874H846.883ZM842.549 15.364C844.617 15.364 845.277 16.772 844.815 19.038C844.353 21.48 843.187 23.46 840.965 23.46C839.535 23.46 838.721 22.536 838.721 20.644C838.721 18.29 840.041 15.364 842.549 15.364ZM858.814 19.764C859.012 19.038 859.1 18.378 859.1 17.652C859.1 15.562 858.066 13.582 855.008 13.582C850.828 13.582 849.112 17.63 849.112 20.754C849.112 23.372 850.454 25.22 853.292 25.22C856.284 25.22 857.67 23.526 858.374 21.81H856.262C855.778 22.712 855.074 23.57 853.512 23.57C851.994 23.57 851.18 22.514 851.18 20.754C851.18 20.402 851.224 20.16 851.268 19.764H858.814ZM851.598 18.268C852.126 16.332 853.292 15.21 854.92 15.21C856.482 15.21 857.142 16.09 857.142 17.52C857.142 17.74 857.12 18.004 857.076 18.268H851.598ZM860.14 21.634C860.118 23.768 861.548 25.22 864.43 25.22C867.092 25.22 869.006 23.966 869.006 21.656C869.006 20.094 868.038 19.148 865.64 18.312C864.1 17.762 863.462 17.41 863.462 16.662C863.462 15.694 864.298 15.188 865.376 15.188C867.092 15.188 867.444 16.09 867.51 16.86H869.578C869.644 15.21 868.478 13.582 865.53 13.582C862.78 13.582 861.394 15.1 861.394 16.904C861.394 18.202 862.164 19.082 864.606 19.918C866.168 20.468 866.872 20.93 866.872 21.898C866.872 22.91 866.146 23.614 864.716 23.614C863.044 23.614 862.34 22.756 862.23 21.634H860.14ZM870.717 25H872.763L875.139 13.802H873.093L870.717 25ZM873.621 11.36H875.667L876.173 8.874H874.127L873.621 11.36ZM886.979 16.75C887.177 15.76 887.419 14.682 887.639 13.802H885.681C885.571 14.11 885.351 14.836 885.219 15.32C884.999 14.506 884.009 13.582 882.095 13.582C878.465 13.582 876.441 17.322 876.441 20.622C876.441 23.35 877.827 24.934 880.093 24.934C881.743 24.934 882.865 24.23 883.613 23.042L883.415 23.922C882.821 26.518 882.095 27.992 879.851 27.992C878.135 27.992 877.497 27.134 877.475 26.188H875.407C875.407 27.486 875.847 29.62 879.653 29.62C883.613 29.62 884.713 27.376 885.461 23.812L886.979 16.75ZM882.271 15.32C884.537 15.32 884.955 17.08 884.515 19.104C884.031 21.392 882.799 23.196 880.819 23.196C879.367 23.196 878.597 22.272 878.597 20.49C878.597 17.982 879.873 15.32 882.271 15.32ZM888.442 25H890.488L891.676 19.368C892.16 17.124 893.304 15.364 895.262 15.364C896.868 15.364 897.242 16.486 896.89 18.092L895.438 25H897.462L898.936 18.048C899.618 14.836 898.298 13.582 896.142 13.582C894.14 13.582 893.084 14.682 892.468 15.628C892.534 15.32 892.754 14.154 892.776 13.802H890.774C890.62 14.748 890.422 15.694 890.224 16.662L888.442 25ZM906.826 15.452H908.652L907.2 22.316C906.804 24.208 907.332 25.154 909.202 25.154C909.708 25.154 910.302 25.132 910.83 24.956L911.182 23.372C910.852 23.438 910.434 23.46 910.104 23.46C909.158 23.46 909.114 22.976 909.312 22.008L910.676 15.452H913.008L913.382 13.802H911.05L911.732 10.612H909.686L909.004 13.802H907.2L906.826 15.452ZM916.409 8.874L912.999 25H915.045L916.365 18.796C916.805 16.794 918.037 15.364 919.819 15.364C921.425 15.364 921.821 16.31 921.425 18.136L919.995 25H922.019L923.537 17.806C924.241 14.484 922.437 13.582 920.721 13.582C918.917 13.582 917.795 14.484 917.047 15.54L918.455 8.874H916.409ZM935.277 19.764C935.475 19.038 935.563 18.378 935.563 17.652C935.563 15.562 934.529 13.582 931.471 13.582C927.291 13.582 925.575 17.63 925.575 20.754C925.575 23.372 926.917 25.22 929.755 25.22C932.747 25.22 934.133 23.526 934.837 21.81H932.725C932.241 22.712 931.537 23.57 929.975 23.57C928.457 23.57 927.643 22.514 927.643 20.754C927.643 20.402 927.687 20.16 927.731 19.764H935.277ZM928.061 18.268C928.589 16.332 929.755 15.21 931.383 15.21C932.945 15.21 933.605 16.09 933.605 17.52C933.605 17.74 933.583 18.004 933.539 18.268H928.061ZM936.803 25H938.827L940.125 18.84C940.543 16.882 941.555 15.364 943.271 15.364C944.833 15.364 945.009 16.53 944.679 18.136L943.205 25H945.229L946.571 18.642C946.967 16.794 947.913 15.364 949.585 15.364C951.323 15.364 951.367 16.728 951.081 17.982L949.607 25H951.609L953.149 17.74C953.809 14.682 952.335 13.582 950.465 13.582C948.639 13.582 947.539 14.506 946.747 15.584C946.571 14.286 945.735 13.582 944.173 13.582C942.479 13.582 941.577 14.44 940.851 15.474C940.983 14.924 941.115 14.11 941.137 13.802H939.135C938.959 14.88 938.739 15.892 938.519 16.948L936.803 25ZM961.45 13.802L962.198 25H964.464C966.554 20.71 968.028 17.762 968.556 16.354H968.578C968.534 17.828 968.688 21.172 968.908 25H971.108L976.916 13.802H974.782C972.032 19.258 970.932 21.7 970.426 22.844H970.404C970.47 21.788 970.448 20.182 970.162 13.802H968.138C965.146 20.006 964.332 21.766 963.848 22.954H963.826C963.848 21.59 963.738 18.29 963.496 13.802H961.45ZM980.088 8.874L976.678 25H978.724L980.044 18.796C980.484 16.794 981.716 15.364 983.498 15.364C985.104 15.364 985.5 16.31 985.104 18.136L983.674 25H985.698L987.216 17.806C987.92 14.484 986.116 13.582 984.4 13.582C982.596 13.582 981.474 14.484 980.726 15.54L982.134 8.874H980.088ZM988.903 25H990.949L993.325 13.802H991.279L988.903 25ZM991.807 11.36H993.853L994.359 8.874H992.313L991.807 11.36ZM996.255 25L999.665 8.874H997.619L994.209 25H996.255ZM1009.53 19.764C1009.73 19.038 1009.81 18.378 1009.81 17.652C1009.81 15.562 1008.78 13.582 1005.72 13.582C1001.54 13.582 999.825 17.63 999.825 20.754C999.825 23.372 1001.17 25.22 1004.01 25.22C1007 25.22 1008.38 23.526 1009.09 21.81H1006.98C1006.49 22.712 1005.79 23.57 1004.23 23.57C1002.71 23.57 1001.89 22.514 1001.89 20.754C1001.89 20.402 1001.94 20.16 1001.98 19.764H1009.53ZM1002.31 18.268C1002.84 16.332 1004.01 15.21 1005.63 15.21C1007.2 15.21 1007.86 16.09 1007.86 17.52C1007.86 17.74 1007.83 18.004 1007.79 18.268H1002.31ZM1017.28 13.802L1018.98 25.638C1018.07 27.2 1017.59 27.794 1016.14 27.794C1015.63 27.794 1015.37 27.75 1015.13 27.706L1014.71 29.466C1015.02 29.554 1015.61 29.62 1016.03 29.62C1018.14 29.62 1019.22 29.29 1021.15 25.616L1027.36 13.802H1025.2C1022.45 19.104 1021.07 22.184 1020.45 23.394H1020.43C1020.36 22.272 1019.97 18.752 1019.35 13.802H1017.28ZM1033.57 13.582C1029.5 13.582 1027.58 17.608 1027.58 20.688C1027.58 23.482 1029.08 25.22 1031.87 25.22C1036.25 25.22 1037.9 21.15 1037.9 18.246C1037.9 15.21 1036.16 13.582 1033.57 13.582ZM1033.39 15.276C1035 15.276 1035.79 16.332 1035.79 18.136C1035.79 20.402 1034.67 23.548 1032.09 23.548C1030.55 23.548 1029.7 22.492 1029.7 20.688C1029.7 18.4 1030.91 15.276 1033.39 15.276ZM1050.33 13.802H1048.31L1047.14 19.236C1046.5 22.25 1045.1 23.504 1043.45 23.504C1041.75 23.504 1041.66 22.316 1041.95 20.93L1043.47 13.802H1041.44L1039.88 21.15C1039.27 24.01 1040.56 25.22 1042.61 25.22C1044.3 25.22 1045.56 24.428 1046.33 23.152C1046.2 23.702 1046.04 24.67 1046.02 25H1048.02C1048.18 24.12 1048.37 23.02 1048.59 22.008L1050.33 13.802ZM1064.19 21.612C1063.59 22.866 1062.67 23.592 1061.46 23.592C1060.07 23.592 1059.17 22.734 1059.17 20.732C1059.17 18.422 1060.27 15.232 1062.78 15.232C1064.34 15.232 1064.85 16.244 1064.89 17.432H1066.89C1067.03 15.936 1066.15 13.582 1062.89 13.582C1058.93 13.582 1057.06 17.498 1057.06 20.864C1057.06 23.46 1058.4 25.22 1061.17 25.22C1063.95 25.22 1065.51 23.724 1066.23 21.612H1064.19ZM1077.91 17.476C1078.51 14.748 1076.77 13.582 1074.17 13.582C1070.96 13.582 1069.73 15.188 1069.33 16.86H1071.42C1071.73 16.068 1072.19 15.122 1074 15.122C1076.02 15.122 1076.09 16.42 1075.89 17.432L1075.76 18.158C1075.16 18.18 1074.19 18.18 1073.07 18.268C1070.78 18.51 1067.84 19.214 1067.84 22.404C1067.84 23.724 1068.69 25.22 1070.94 25.22C1073.18 25.22 1074.08 24.23 1074.66 23.372C1074.55 23.944 1074.41 24.626 1074.39 25H1076.39C1076.44 24.582 1076.7 23.218 1076.9 22.25L1077.91 17.476ZM1075.4 19.808C1074.96 21.722 1074.08 23.57 1071.71 23.57C1070.54 23.57 1069.99 22.888 1069.99 22.074C1069.99 20.446 1071.44 19.94 1073.23 19.742C1074.11 19.654 1074.81 19.632 1075.45 19.632L1075.4 19.808ZM1079.55 25H1081.59L1082.78 19.368C1083.26 17.124 1084.41 15.364 1086.37 15.364C1087.97 15.364 1088.35 16.486 1087.99 18.092L1086.54 25H1088.57L1090.04 18.048C1090.72 14.836 1089.4 13.582 1087.25 13.582C1085.24 13.582 1084.19 14.682 1083.57 15.628C1083.64 15.32 1083.86 14.154 1083.88 13.802H1081.88C1081.72 14.748 1081.53 15.694 1081.33 16.662L1079.55 25ZM1093.49 25.022L1094.21 21.656H1092.03L1091.31 25.022H1093.49ZM367.538 51H373.06C378.494 51 381.684 47.216 381.684 42.178C381.684 38.174 379.22 35.732 375.282 35.732H370.772L367.538 51ZM372.532 37.492H374.996C377.856 37.492 379.44 39.23 379.418 42.222C379.418 46.446 377.064 49.24 373.06 49.24H370.046L372.532 37.492ZM382.743 51H384.789L385.889 45.83C386.417 43.344 387.979 41.826 390.113 41.694L390.553 39.582C388.793 39.582 387.451 40.572 386.659 42.112C386.857 41.166 387.033 40.088 387.055 39.802H385.075C384.899 40.836 384.657 42.024 384.437 43.124L382.743 51ZM400.402 45.764C400.6 45.038 400.688 44.378 400.688 43.652C400.688 41.562 399.654 39.582 396.596 39.582C392.416 39.582 390.7 43.63 390.7 46.754C390.7 49.372 392.042 51.22 394.88 51.22C397.872 51.22 399.258 49.526 399.962 47.81H397.85C397.366 48.712 396.662 49.57 395.1 49.57C393.582 49.57 392.768 48.514 392.768 46.754C392.768 46.402 392.812 46.16 392.856 45.764H400.402ZM393.186 44.268C393.714 42.332 394.88 41.21 396.508 41.21C398.07 41.21 398.73 42.09 398.73 43.52C398.73 43.74 398.708 44.004 398.664 44.268H393.186ZM411.897 43.476C412.491 40.748 410.753 39.582 408.157 39.582C404.945 39.582 403.713 41.188 403.317 42.86H405.407C405.715 42.068 406.177 41.122 407.981 41.122C410.005 41.122 410.071 42.42 409.873 43.432L409.741 44.158C409.147 44.18 408.179 44.18 407.057 44.268C404.769 44.51 401.821 45.214 401.821 48.404C401.821 49.724 402.679 51.22 404.923 51.22C407.167 51.22 408.069 50.23 408.641 49.372C408.531 49.944 408.399 50.626 408.377 51H410.379C410.423 50.582 410.687 49.218 410.885 48.25L411.897 43.476ZM409.389 45.808C408.949 47.722 408.069 49.57 405.693 49.57C404.527 49.57 403.977 48.888 403.977 48.074C403.977 46.446 405.429 45.94 407.211 45.742C408.091 45.654 408.795 45.632 409.433 45.632L409.389 45.808ZM413.53 51H415.554L416.852 44.84C417.27 42.882 418.282 41.364 419.998 41.364C421.56 41.364 421.736 42.53 421.406 44.136L419.932 51H421.956L423.298 44.642C423.694 42.794 424.64 41.364 426.312 41.364C428.05 41.364 428.094 42.728 427.808 43.982L426.334 51H428.336L429.876 43.74C430.536 40.682 429.062 39.582 427.192 39.582C425.366 39.582 424.266 40.506 423.474 41.584C423.298 40.286 422.462 39.582 420.9 39.582C419.206 39.582 418.304 40.44 417.578 41.474C417.71 40.924 417.842 40.11 417.864 39.802H415.862C415.686 40.88 415.466 41.892 415.246 42.948L413.53 51ZM431.226 47.634C431.204 49.768 432.634 51.22 435.516 51.22C438.178 51.22 440.092 49.966 440.092 47.656C440.092 46.094 439.124 45.148 436.726 44.312C435.186 43.762 434.548 43.41 434.548 42.662C434.548 41.694 435.384 41.188 436.462 41.188C438.178 41.188 438.53 42.09 438.596 42.86H440.664C440.73 41.21 439.564 39.582 436.616 39.582C433.866 39.582 432.48 41.1 432.48 42.904C432.48 44.202 433.25 45.082 435.692 45.918C437.254 46.468 437.958 46.93 437.958 47.898C437.958 48.91 437.232 49.614 435.802 49.614C434.13 49.614 433.426 48.756 433.316 47.634H431.226ZM457.358 43.476C457.952 40.748 456.214 39.582 453.618 39.582C450.406 39.582 449.174 41.188 448.778 42.86H450.868C451.176 42.068 451.638 41.122 453.442 41.122C455.466 41.122 455.532 42.42 455.334 43.432L455.202 44.158C454.608 44.18 453.64 44.18 452.518 44.268C450.23 44.51 447.282 45.214 447.282 48.404C447.282 49.724 448.14 51.22 450.384 51.22C452.628 51.22 453.53 50.23 454.102 49.372C453.992 49.944 453.86 50.626 453.838 51H455.84C455.884 50.582 456.148 49.218 456.346 48.25L457.358 43.476ZM454.85 45.808C454.41 47.722 453.53 49.57 451.154 49.57C449.988 49.57 449.438 48.888 449.438 48.074C449.438 46.446 450.89 45.94 452.672 45.742C453.552 45.654 454.256 45.632 454.894 45.632L454.85 45.808ZM458.991 51H461.037L462.137 45.83C462.665 43.344 464.227 41.826 466.361 41.694L466.801 39.582C465.041 39.582 463.699 40.572 462.907 42.112C463.105 41.166 463.281 40.088 463.303 39.802H461.323C461.147 40.836 460.905 42.024 460.685 43.124L458.991 51ZM476.65 45.764C476.848 45.038 476.936 44.378 476.936 43.652C476.936 41.562 475.902 39.582 472.844 39.582C468.664 39.582 466.948 43.63 466.948 46.754C466.948 49.372 468.29 51.22 471.128 51.22C474.12 51.22 475.506 49.526 476.21 47.81H474.098C473.614 48.712 472.91 49.57 471.348 49.57C469.83 49.57 469.016 48.514 469.016 46.754C469.016 46.402 469.06 46.16 469.104 45.764H476.65ZM469.434 44.268C469.962 42.332 471.128 41.21 472.756 41.21C474.318 41.21 474.978 42.09 474.978 43.52C474.978 43.74 474.956 44.004 474.912 44.268H469.434ZM478.176 51H480.222L481.41 45.368C481.894 43.124 483.038 41.364 484.996 41.364C486.602 41.364 486.976 42.486 486.624 44.092L485.172 51H487.196L488.67 44.048C489.352 40.836 488.032 39.582 485.876 39.582C483.874 39.582 482.818 40.682 482.202 41.628C482.268 41.32 482.488 40.154 482.51 39.802H480.508C480.354 40.748 480.156 41.694 479.958 42.662L478.176 51ZM492.832 40.77C493.844 39.472 495.098 36.876 495.56 34.874H493.47C493.118 36.48 492.128 38.988 491.05 40.77H492.832ZM496.066 41.452H497.892L496.44 48.316C496.044 50.208 496.572 51.154 498.442 51.154C498.948 51.154 499.542 51.132 500.07 50.956L500.422 49.372C500.092 49.438 499.674 49.46 499.344 49.46C498.398 49.46 498.354 48.976 498.552 48.008L499.916 41.452H502.248L502.622 39.802H500.29L500.972 36.612H498.926L498.244 39.802H496.44L496.066 41.452ZM515.413 47.612C514.819 48.866 513.895 49.592 512.685 49.592C511.299 49.592 510.397 48.734 510.397 46.732C510.397 44.422 511.497 41.232 514.005 41.232C515.567 41.232 516.073 42.244 516.117 43.432H518.119C518.251 41.936 517.371 39.582 514.115 39.582C510.155 39.582 508.285 43.498 508.285 46.864C508.285 49.46 509.627 51.22 512.399 51.22C515.171 51.22 516.733 49.724 517.459 47.612H515.413ZM519.061 51H521.107L522.207 45.83C522.735 43.344 524.297 41.826 526.431 41.694L526.871 39.582C525.111 39.582 523.769 40.572 522.977 42.112C523.175 41.166 523.351 40.088 523.373 39.802H521.393C521.217 40.836 520.975 42.024 520.755 43.124L519.061 51ZM536.721 45.764C536.919 45.038 537.007 44.378 537.007 43.652C537.007 41.562 535.973 39.582 532.915 39.582C528.735 39.582 527.019 43.63 527.019 46.754C527.019 49.372 528.361 51.22 531.199 51.22C534.191 51.22 535.577 49.526 536.281 47.81H534.169C533.685 48.712 532.981 49.57 531.419 49.57C529.901 49.57 529.087 48.514 529.087 46.754C529.087 46.402 529.131 46.16 529.175 45.764H536.721ZM529.505 44.268C530.033 42.332 531.199 41.21 532.827 41.21C534.389 41.21 535.049 42.09 535.049 43.52C535.049 43.74 535.027 44.004 534.983 44.268H529.505ZM548.215 43.476C548.809 40.748 547.071 39.582 544.475 39.582C541.263 39.582 540.031 41.188 539.635 42.86H541.725C542.033 42.068 542.495 41.122 544.299 41.122C546.323 41.122 546.389 42.42 546.191 43.432L546.059 44.158C545.465 44.18 544.497 44.18 543.375 44.268C541.087 44.51 538.139 45.214 538.139 48.404C538.139 49.724 538.997 51.22 541.241 51.22C543.485 51.22 544.387 50.23 544.959 49.372C544.849 49.944 544.717 50.626 544.695 51H546.697C546.741 50.582 547.005 49.218 547.203 48.25L548.215 43.476ZM545.707 45.808C545.267 47.722 544.387 49.57 542.011 49.57C540.845 49.57 540.295 48.888 540.295 48.074C540.295 46.446 541.747 45.94 543.529 45.742C544.409 45.654 545.113 45.632 545.751 45.632L545.707 45.808ZM550.314 41.452H552.14L550.688 48.316C550.292 50.208 550.82 51.154 552.69 51.154C553.196 51.154 553.79 51.132 554.318 50.956L554.67 49.372C554.34 49.438 553.922 49.46 553.592 49.46C552.646 49.46 552.602 48.976 552.8 48.008L554.164 41.452H556.496L556.87 39.802H554.538L555.22 36.612H553.174L552.492 39.802H550.688L550.314 41.452ZM566.476 45.764C566.674 45.038 566.762 44.378 566.762 43.652C566.762 41.562 565.728 39.582 562.67 39.582C558.49 39.582 556.774 43.63 556.774 46.754C556.774 49.372 558.116 51.22 560.954 51.22C563.946 51.22 565.332 49.526 566.036 47.81H563.924C563.44 48.712 562.736 49.57 561.174 49.57C559.656 49.57 558.842 48.514 558.842 46.754C558.842 46.402 558.886 46.16 558.93 45.764H566.476ZM559.26 44.268C559.788 42.332 560.954 41.21 562.582 41.21C564.144 41.21 564.804 42.09 564.804 43.52C564.804 43.74 564.782 44.004 564.738 44.268H559.26ZM578.672 34.874L577.33 41.232C577.088 40.528 576.098 39.582 574.25 39.582C570.356 39.582 568.376 43.542 568.376 46.864C568.376 49.438 569.608 51.22 572.006 51.22C573.81 51.22 574.91 50.472 575.636 49.328C575.504 50.01 575.394 50.67 575.372 51H577.352C577.528 50.01 577.748 48.954 577.968 47.898L580.718 34.874H578.672ZM574.338 41.364C576.406 41.364 577.066 42.772 576.604 45.038C576.142 47.48 574.976 49.46 572.754 49.46C571.324 49.46 570.51 48.536 570.51 46.644C570.51 44.29 571.83 41.364 574.338 41.364ZM580.917 53.398C581.907 52.276 583.139 50.098 583.733 47.656H581.643C581.357 48.778 580.565 51.22 579.113 53.398H580.917ZM590.975 51H596.497C601.931 51 605.121 47.216 605.121 42.178C605.121 38.174 602.657 35.732 598.719 35.732H594.209L590.975 51ZM595.969 37.492H598.433C601.293 37.492 602.877 39.23 602.855 42.222C602.855 46.446 600.501 49.24 596.497 49.24H593.483L595.969 37.492ZM606.18 51H608.226L609.326 45.83C609.854 43.344 611.416 41.826 613.55 41.694L613.99 39.582C612.23 39.582 610.888 40.572 610.096 42.112C610.294 41.166 610.47 40.088 610.492 39.802H608.512C608.336 40.836 608.094 42.024 607.874 43.124L606.18 51ZM623.84 45.764C624.038 45.038 624.126 44.378 624.126 43.652C624.126 41.562 623.092 39.582 620.034 39.582C615.854 39.582 614.138 43.63 614.138 46.754C614.138 49.372 615.48 51.22 618.318 51.22C621.31 51.22 622.696 49.526 623.4 47.81H621.288C620.804 48.712 620.1 49.57 618.538 49.57C617.02 49.57 616.206 48.514 616.206 46.754C616.206 46.402 616.25 46.16 616.294 45.764H623.84ZM616.624 44.268C617.152 42.332 618.318 41.21 619.946 41.21C621.508 41.21 622.168 42.09 622.168 43.52C622.168 43.74 622.146 44.004 622.102 44.268H616.624ZM635.334 43.476C635.928 40.748 634.19 39.582 631.594 39.582C628.382 39.582 627.15 41.188 626.754 42.86H628.844C629.152 42.068 629.614 41.122 631.418 41.122C633.442 41.122 633.508 42.42 633.31 43.432L633.178 44.158C632.584 44.18 631.616 44.18 630.494 44.268C628.206 44.51 625.258 45.214 625.258 48.404C625.258 49.724 626.116 51.22 628.36 51.22C630.604 51.22 631.506 50.23 632.078 49.372C631.968 49.944 631.836 50.626 631.814 51H633.816C633.86 50.582 634.124 49.218 634.322 48.25L635.334 43.476ZM632.826 45.808C632.386 47.722 631.506 49.57 629.13 49.57C627.964 49.57 627.414 48.888 627.414 48.074C627.414 46.446 628.866 45.94 630.648 45.742C631.528 45.654 632.232 45.632 632.87 45.632L632.826 45.808ZM636.967 51H638.991L640.289 44.84C640.707 42.882 641.719 41.364 643.435 41.364C644.997 41.364 645.173 42.53 644.843 44.136L643.369 51H645.393L646.735 44.642C647.131 42.794 648.077 41.364 649.749 41.364C651.487 41.364 651.531 42.728 651.245 43.982L649.771 51H651.773L653.313 43.74C653.973 40.682 652.499 39.582 650.629 39.582C648.803 39.582 647.703 40.506 646.911 41.584C646.735 40.286 645.899 39.582 644.337 39.582C642.643 39.582 641.741 40.44 641.015 41.474C641.147 40.924 641.279 40.11 641.301 39.802H639.299C639.123 40.88 638.903 41.892 638.683 42.948L636.967 51ZM654.664 47.634C654.642 49.768 656.072 51.22 658.954 51.22C661.616 51.22 663.53 49.966 663.53 47.656C663.53 46.094 662.562 45.148 660.164 44.312C658.624 43.762 657.986 43.41 657.986 42.662C657.986 41.694 658.822 41.188 659.9 41.188C661.616 41.188 661.968 42.09 662.034 42.86H664.102C664.168 41.21 663.002 39.582 660.054 39.582C657.304 39.582 655.918 41.1 655.918 42.904C655.918 44.202 656.688 45.082 659.13 45.918C660.692 46.468 661.396 46.93 661.396 47.898C661.396 48.91 660.67 49.614 659.24 49.614C657.568 49.614 656.864 48.756 656.754 47.634H654.664ZM680.795 43.476C681.389 40.748 679.651 39.582 677.055 39.582C673.843 39.582 672.611 41.188 672.215 42.86H674.305C674.613 42.068 675.075 41.122 676.879 41.122C678.903 41.122 678.969 42.42 678.771 43.432L678.639 44.158C678.045 44.18 677.077 44.18 675.955 44.268C673.667 44.51 670.719 45.214 670.719 48.404C670.719 49.724 671.577 51.22 673.821 51.22C676.065 51.22 676.967 50.23 677.539 49.372C677.429 49.944 677.297 50.626 677.275 51H679.277C679.321 50.582 679.585 49.218 679.783 48.25L680.795 43.476ZM678.287 45.808C677.847 47.722 676.967 49.57 674.591 49.57C673.425 49.57 672.875 48.888 672.875 48.074C672.875 46.446 674.327 45.94 676.109 45.742C676.989 45.654 677.693 45.632 678.331 45.632L678.287 45.808ZM682.428 51H684.474L685.574 45.83C686.102 43.344 687.664 41.826 689.798 41.694L690.238 39.582C688.478 39.582 687.136 40.572 686.344 42.112C686.542 41.166 686.718 40.088 686.74 39.802H684.76C684.584 40.836 684.342 42.024 684.122 43.124L682.428 51ZM700.088 45.764C700.286 45.038 700.374 44.378 700.374 43.652C700.374 41.562 699.34 39.582 696.282 39.582C692.102 39.582 690.386 43.63 690.386 46.754C690.386 49.372 691.728 51.22 694.566 51.22C697.558 51.22 698.944 49.526 699.648 47.81H697.536C697.052 48.712 696.348 49.57 694.786 49.57C693.268 49.57 692.454 48.514 692.454 46.754C692.454 46.402 692.498 46.16 692.542 45.764H700.088ZM692.872 44.268C693.4 42.332 694.566 41.21 696.194 41.21C697.756 41.21 698.416 42.09 698.416 43.52C698.416 43.74 698.394 44.004 698.35 44.268H692.872ZM719.832 51H721.944L725.178 35.732H721.922C719.436 40.264 715.806 46.644 715.124 48.25H715.08C715.014 46.204 714.288 40.11 713.76 35.732H710.504L707.27 51H709.316L710.57 45.016C711.12 42.398 711.802 38.9 712.044 37.228H712.132C712.176 39.23 713.122 47.216 713.518 51H715.454C718.028 46.292 721.614 39.758 722.736 37.25H722.824C722.406 38.9 721.746 41.848 721.174 44.642L719.832 51ZM732.563 44.29C734.763 44.29 735.335 45.302 734.895 47.37C734.477 49.196 734.323 50.34 734.389 51H736.413C736.347 50.362 736.611 49.086 736.985 47.326C737.535 44.73 736.325 43.85 735.489 43.542C737.469 43.08 738.811 41.738 738.811 39.494C738.811 37.206 737.271 35.732 734.411 35.732H729.153L725.919 51H728.053L729.461 44.29H732.563ZM730.891 37.492H733.971C735.709 37.492 736.611 38.218 736.611 39.714C736.611 41.716 735.115 42.508 732.761 42.508H729.835L730.891 37.492ZM748.467 35.512C743.077 35.512 740.371 40.572 740.371 45.082C740.371 48.646 742.395 51.22 746.201 51.22C751.833 51.22 754.363 46.336 754.363 41.826C754.363 38.064 752.361 35.512 748.467 35.512ZM748.335 37.272C750.931 37.272 752.163 39.12 752.163 41.782C752.163 45.412 750.359 49.46 746.487 49.46C743.825 49.46 742.593 47.546 742.593 44.994C742.593 41.496 744.463 37.272 748.335 37.272ZM757.632 51H759.766L762.604 37.536H767.312L767.708 35.732H756.18L755.784 37.536H760.47L757.632 51ZM777.913 42.068H770.829L771.797 37.536H779.255L779.629 35.732H770.059L766.825 51H776.747L777.407 49.218H769.311L770.433 43.872H777.517L777.913 42.068ZM779.479 51H785.001C790.435 51 793.625 47.216 793.625 42.178C793.625 38.174 791.161 35.732 787.223 35.732H782.713L779.479 51ZM784.473 37.492H786.937C789.797 37.492 791.381 39.23 791.359 42.222C791.359 46.446 789.005 49.24 785.001 49.24H781.987L784.473 37.492ZM796.722 51.022L797.448 47.656H795.27L794.544 51.022H796.722Z" fill="#F7F7F3"/>
<path fill-rule="evenodd" clip-rule="evenodd" d="M27.1272 0.139389L42.1857 0.2173L40.7435 5.25372C38.4341 13.3183 36.1623 23.4823 35.6576 32.4112L35.4445 36.1829L18.0543 36.0929L18.4684 31.7639C19.319 22.8713 22.9474 9.29131 26.0561 2.48459L27.1272 0.139389ZM9.08199 0.0460253L24.1918 0.124202L22.6879 5.19599C20.3959 12.9251 18.1177 23.3766 17.6124 32.3179L17.3992 36.0895L2.2294e-05 35.9995L0.423908 31.6624C1.27293 22.9753 4.89869 9.20541 8.01088 2.39123L9.08199 0.0460253ZM22.4499 32.1404L31.6645 32.188C32.1107 24.2924 33.8625 15.5865 35.8099 8.13495C36.1679 6.76505 36.5325 5.43754 36.8968 4.16525L29.6979 4.12801C27.2098 9.57576 24.2758 19.9644 22.9674 28.1677C22.7441 29.5673 22.5682 30.9034 22.4499 32.1404ZM4.40462 32.047L13.6192 32.0947C14.0636 24.233 15.8032 15.3657 17.74 8.04146C18.1059 6.65744 18.4789 5.32852 18.8516 4.07189L11.6527 4.03464C9.17075 9.46881 6.2445 19.9578 4.93162 28.0744C4.70377 29.483 4.52452 30.8201 4.40462 32.047Z" fill="#F7F7F3"/>
<path fill-rule="evenodd" clip-rule="evenodd" d="M1136.23 5.8777L1121.17 5.79979L1122.56 10.8509C1124.79 18.939 1126.95 29.1259 1127.37 38.0596L1127.54 41.8332L1144.93 41.9232L1144.56 37.5901C1143.8 28.6892 1140.31 15.0724 1137.28 8.23386L1136.23 5.8777ZM1154.27 5.97106L1139.17 5.89289L1140.62 10.98C1142.83 18.7324 1145 29.2069 1145.41 38.1529L1145.59 41.9266L1162.98 42.0166L1162.61 37.6753C1161.85 28.9799 1158.36 15.1732 1155.32 8.32723L1154.27 5.97106ZM1140.58 37.9253L1131.36 37.8777C1131 29.9778 1129.33 21.2543 1127.46 13.783C1127.12 12.4095 1126.77 11.0783 1126.42 9.80226L1133.62 9.83951C1136.05 15.3127 1138.88 25.7312 1140.1 33.9476C1140.31 35.3494 1140.47 36.6872 1140.58 37.9253ZM1158.62 38.0187L1149.41 37.971C1149.04 30.1052 1147.4 21.2204 1145.53 13.8765C1145.18 12.4887 1144.82 11.156 1144.46 9.89562L1151.66 9.93287C1154.09 15.3924 1156.91 25.9112 1158.14 34.0409C1158.35 35.4518 1158.51 36.7907 1158.62 38.0187Z" fill="#F7F7F3"/>
</svg>
