<svg width="1075" height="447" viewBox="0 0 1075 447" fill="none" xmlns="http://www.w3.org/2000/svg">
<path d="M51.84 150V154H55.84V150H51.84ZM51.84 28.32H55.84V24.32H51.84V28.32ZM39.06 28.32V24.32H37.371L36.1931 25.5306L39.06 28.32ZM6.66 47.4L5.54777 43.5577L2.66 44.3937V47.4H6.66ZM6.66 61.08H2.66V65.7113L7.24198 65.0374L6.66 61.08ZM34.92 49.56H38.92V41.8774L32.6262 46.2831L34.92 49.56ZM34.92 150H30.92V154H34.92V150ZM55.84 150V28.32H47.84V150H55.84ZM51.84 24.32H39.06V32.32H51.84V24.32ZM36.1931 25.5306C30.1482 31.7434 18.4976 39.8091 5.54777 43.5577L7.77223 51.2422C22.1824 47.0709 35.0118 38.2166 41.9269 31.1094L36.1931 25.5306ZM2.66 47.4V61.08H10.66V47.4H2.66ZM7.24198 65.0374C10.7695 64.5187 16.3801 62.7597 21.8572 60.5917C27.3604 58.4134 33.2338 55.6229 37.2139 52.8369L32.6262 46.2831C29.4062 48.5371 24.2096 51.0566 18.9128 53.1533C13.5899 55.2603 8.67054 56.7413 6.07802 57.1226L7.24198 65.0374ZM30.92 49.56V150H38.92V49.56H30.92ZM34.92 154H51.84V146H34.92V154ZM98.7736 150V154H102.774V150H98.7736ZM98.7736 120.66H102.774V116.66H98.7736V120.66ZM79.8736 120.66V116.66H75.8736V120.66H79.8736ZM79.8736 150H75.8736V154H79.8736V150ZM102.774 150V120.66H94.7736V150H102.774ZM98.7736 116.66H79.8736V124.66H98.7736V116.66ZM75.8736 120.66V150H83.8736V120.66H75.8736ZM79.8736 154H98.7736V146H79.8736V154Z" fill="#F7F7F3"/>
<path d="M149.262 85C151.504 78.122 155.608 65.544 156.292 62.086H156.33C157.014 65.278 161.308 78.882 163.246 85H167.426L176.394 58.02H172.556C170.504 64.328 166.324 77.21 165.45 81.238H165.412C164.804 78.274 160.396 64.062 158.458 58.02H154.658C152.492 64.556 148.236 77.514 147.514 81.352H147.476C146.906 77.742 142.802 64.67 140.826 58.02H136.798L145.158 85H149.262ZM180.157 56.462V85H183.805V75.576C183.805 71.548 185.743 68.28 189.809 68.28C193.381 68.28 194.559 70.712 194.559 73.942V85H198.169V73.41C198.169 67.938 195.281 65.24 190.873 65.24C186.237 65.24 184.451 67.824 183.767 69.23V56.462H180.157ZM221.002 71.852C221.002 68.66 219.444 65.24 212.452 65.24C205.84 65.24 204.13 68.85 203.902 71.396H207.512C207.892 69.61 208.766 68.014 212.452 68.014C216.556 68.014 217.43 69.952 217.43 72.08V73.068C216.784 73.068 215.074 73.068 212.756 73.068C207.284 73.068 202.8 74.436 202.8 79.376C202.8 82.264 204.814 85.532 210.248 85.532C214.314 85.532 216.48 84.202 217.506 82.188C217.506 82.834 217.582 84.316 217.734 85H221.154C221.116 84.582 221.002 82.15 221.002 80.25V71.852ZM217.43 76.488C217.43 79.718 216.062 82.72 210.97 82.72C207.778 82.72 206.372 81.086 206.372 79.186C206.372 76.602 208.424 75.652 212.832 75.652C215.568 75.652 216.86 75.652 217.43 75.652V76.488ZM224.186 68.622H227.986V79.642C227.986 83.404 229.202 85.19 233.192 85.19C234.294 85.19 235.282 85.152 236.156 84.848V82.188C235.586 82.34 234.826 82.34 234.256 82.34C232.166 82.34 231.596 81.352 231.596 79.148V68.622H236.612V65.772H231.596V59.578H227.986V65.772H224.186V68.622ZM250.178 79.186C250.862 83.176 254.13 85.532 259.716 85.532C265.948 85.532 268.57 82.986 268.57 79.528C268.57 76.678 267.202 74.436 259.982 73.448C255.574 72.878 254.7 72.042 254.7 70.598C254.7 69.496 255.422 67.976 258.994 67.976C263.212 67.976 264.01 69.838 264.314 71.016H267.924C267.734 68.698 265.872 65.24 259.184 65.24C253.066 65.24 251.052 68.432 251.052 70.902C251.052 73.296 252.344 75.652 259.108 76.526C263.972 77.096 264.96 78.198 264.96 79.794C264.96 81.504 263.63 82.796 259.944 82.796C256.486 82.796 254.51 81.466 253.826 79.186H250.178ZM291.508 76.26C291.508 75.88 291.508 75.614 291.508 75.31C291.508 70.598 288.924 65.24 281.628 65.24C275.586 65.24 271.71 69.648 271.71 75.462C271.71 80.516 274.826 85.532 281.742 85.532C287.48 85.532 290.216 82.416 291.242 79.528H287.632C286.606 81.428 284.934 82.644 281.932 82.644C278.018 82.644 275.548 79.946 275.32 76.26H291.508ZM275.396 73.676C275.738 70.522 277.676 68.052 281.628 68.052C286.378 68.052 287.594 71.396 287.746 73.676H275.396ZM296.273 85H299.883V76.982C299.883 71.32 303.227 68.66 307.673 68.736V65.278C303.911 65.24 301.137 67.178 299.883 70.104C299.883 68.394 299.807 66.342 299.731 65.772H296.235C296.273 67.52 296.273 69.268 296.273 71.016V85ZM310.313 65.772L318.787 85H322.739L331.175 65.772H327.451C322.739 76.792 321.447 80.06 320.915 81.694H320.877C320.155 79.604 315.975 70.218 314.227 65.772H310.313ZM334.904 85H338.514V65.772H334.904V85ZM334.904 60.794H338.514V56.462H334.904V60.794ZM359.142 78.996C358.192 81.2 356.482 82.606 353.366 82.606C349.186 82.606 346.906 79.414 346.906 75.386C346.906 71.206 349.3 68.166 353.328 68.166C356.938 68.166 358.458 70.142 359.104 71.928H362.714C362.296 69.382 359.864 65.24 353.404 65.24C346.944 65.24 343.22 69.99 343.22 75.462C343.22 80.934 346.526 85.532 353.328 85.532C358.8 85.532 361.84 82.492 362.79 78.996H359.142ZM385.803 76.26C385.803 75.88 385.803 75.614 385.803 75.31C385.803 70.598 383.219 65.24 375.923 65.24C369.881 65.24 366.005 69.648 366.005 75.462C366.005 80.516 369.121 85.532 376.037 85.532C381.775 85.532 384.511 82.416 385.537 79.528H381.927C380.901 81.428 379.229 82.644 376.227 82.644C372.313 82.644 369.843 79.946 369.615 76.26H385.803ZM369.691 73.676C370.033 70.522 371.971 68.052 375.923 68.052C380.673 68.052 381.889 71.396 382.041 73.676H369.691ZM389.004 79.186C389.688 83.176 392.956 85.532 398.542 85.532C404.774 85.532 407.396 82.986 407.396 79.528C407.396 76.678 406.028 74.436 398.808 73.448C394.4 72.878 393.526 72.042 393.526 70.598C393.526 69.496 394.248 67.976 397.82 67.976C402.038 67.976 402.836 69.838 403.14 71.016H406.75C406.56 68.698 404.698 65.24 398.01 65.24C391.892 65.24 389.878 68.432 389.878 70.902C389.878 73.296 391.17 75.652 397.934 76.526C402.798 77.096 403.786 78.198 403.786 79.794C403.786 81.504 402.456 82.796 398.77 82.796C395.312 82.796 393.336 81.466 392.652 79.186H389.004ZM440.207 71.852C440.207 68.66 438.649 65.24 431.657 65.24C425.045 65.24 423.335 68.85 423.107 71.396H426.717C427.097 69.61 427.971 68.014 431.657 68.014C435.761 68.014 436.635 69.952 436.635 72.08V73.068C435.989 73.068 434.279 73.068 431.961 73.068C426.489 73.068 422.005 74.436 422.005 79.376C422.005 82.264 424.019 85.532 429.453 85.532C433.519 85.532 435.685 84.202 436.711 82.188C436.711 82.834 436.787 84.316 436.939 85H440.359C440.321 84.582 440.207 82.15 440.207 80.25V71.852ZM436.635 76.488C436.635 79.718 435.267 82.72 430.175 82.72C426.983 82.72 425.577 81.086 425.577 79.186C425.577 76.602 427.629 75.652 432.037 75.652C434.773 75.652 436.065 75.652 436.635 75.652V76.488ZM446.566 85H450.176V76.982C450.176 71.32 453.52 68.66 457.966 68.736V65.278C454.204 65.24 451.43 67.178 450.176 70.104C450.176 68.394 450.1 66.342 450.024 65.772H446.528C446.566 67.52 446.566 69.268 446.566 71.016V85ZM479.838 76.26C479.838 75.88 479.838 75.614 479.838 75.31C479.838 70.598 477.254 65.24 469.958 65.24C463.916 65.24 460.04 69.648 460.04 75.462C460.04 80.516 463.156 85.532 470.072 85.532C475.81 85.532 478.546 82.416 479.572 79.528H475.962C474.936 81.428 473.264 82.644 470.262 82.644C466.348 82.644 463.878 79.946 463.65 76.26H479.838ZM463.726 73.676C464.068 70.522 466.006 68.052 469.958 68.052C474.708 68.052 475.924 71.396 476.076 73.676H463.726ZM493.19 65.772L502.082 85.912C500.334 89.674 499.346 90.738 496.762 90.738C496.268 90.738 495.394 90.7 494.634 90.586V93.778C495.318 93.892 496.458 93.968 497.142 93.968C501.968 93.968 503.222 92.296 506.642 84.05L514.166 65.772H510.404C506.756 74.816 504.78 80.364 504.096 82.226H504.058C503.488 80.63 501.246 75.234 497.18 65.772H493.19ZM526.597 65.24C520.099 65.24 516.261 69.914 516.261 75.424C516.261 80.744 519.909 85.532 526.407 85.532C533.285 85.532 536.743 80.744 536.743 75.386C536.743 70.294 533.247 65.24 526.597 65.24ZM526.445 68.204C530.701 68.204 533.019 71.586 533.019 75.462C533.019 79.3 530.929 82.606 526.521 82.606C522.303 82.606 519.947 79.072 519.947 75.424C519.947 71.548 522.075 68.204 526.445 68.204ZM559.163 65.772H555.553V74.474C555.553 80.098 553.767 82.492 549.625 82.492C546.167 82.492 545.027 79.946 545.027 77.058V65.772H541.417V77.704C541.417 83.328 544.571 85.532 548.637 85.532C552.855 85.532 554.603 83.936 555.553 81.77C555.553 83.138 555.629 84.468 555.705 85H559.163C559.125 83.138 559.163 81.276 559.163 79.414V65.772ZM580.17 85V56.462H576.522V85H580.17ZM595.212 65.24C588.714 65.24 584.876 69.914 584.876 75.424C584.876 80.744 588.524 85.532 595.022 85.532C601.9 85.532 605.358 80.744 605.358 75.386C605.358 70.294 601.862 65.24 595.212 65.24ZM595.06 68.204C599.316 68.204 601.634 71.586 601.634 75.462C601.634 79.3 599.544 82.606 595.136 82.606C590.918 82.606 588.562 79.072 588.562 75.424C588.562 71.548 590.69 68.204 595.06 68.204ZM618.999 65.24C612.501 65.24 608.663 69.914 608.663 75.424C608.663 80.744 612.311 85.532 618.809 85.532C625.687 85.532 629.145 80.744 629.145 75.386C629.145 70.294 625.649 65.24 618.999 65.24ZM618.847 68.204C623.103 68.204 625.421 71.586 625.421 75.462C625.421 79.3 623.331 82.606 618.923 82.606C614.705 82.606 612.349 79.072 612.349 75.424C612.349 71.548 614.477 68.204 618.847 68.204ZM637.616 56.462H633.968V85H637.616V78.198L641.226 75.31L649.13 85H653.728L643.886 73.258L652.778 65.772H648.218C645.216 68.394 639.63 73.144 637.616 75.006V56.462ZM656.68 85H660.29V65.772H656.68V85ZM656.68 60.794H660.29V56.462H656.68V60.794ZM666.401 85H670.049V75.804C670.049 71.358 672.025 68.28 676.015 68.28C679.587 68.28 680.803 70.788 680.803 73.98V85H684.451V73.296C684.451 68.052 681.525 65.24 677.003 65.24C672.861 65.24 670.885 67.482 670.049 69.344C670.011 68.052 669.973 66.456 669.897 65.772H666.363C666.401 67.216 666.401 69.002 666.401 70.636V85ZM709.104 71.358C709.104 69.496 709.104 67.634 709.142 65.772H705.646C705.608 66.304 705.57 67.824 705.532 68.736C704.962 67.254 703.176 65.24 698.768 65.24C693.6 65.24 689.116 69.496 689.116 75.652C689.116 81.086 692.878 85.342 698.312 85.342C702.302 85.342 704.392 83.898 705.532 81.656V82.682C705.532 87.47 704.62 91.08 698.996 91.08C695.006 91.08 693.6 89.332 693.03 87.356H689.344C689.686 89.636 691.244 93.968 698.806 93.968C706.71 93.968 709.104 89.75 709.104 82.492V71.358ZM699.414 68.28C703.366 68.28 705.646 70.788 705.646 75.272C705.646 79.832 703.214 82.302 699.224 82.302C695.424 82.302 692.84 79.452 692.84 75.5C692.84 71.89 694.93 68.28 699.414 68.28ZM731.307 85V68.622H735.791V65.772H731.307V63.378C731.307 60.3 732.067 59.16 734.613 59.16C735.107 59.16 735.829 59.236 736.361 59.35V56.386C735.829 56.234 735.031 56.158 734.081 56.158C729.597 56.158 727.659 58.818 727.659 63.188V65.772H724.087V68.622H727.659V85H731.307ZM747.88 65.24C741.382 65.24 737.544 69.914 737.544 75.424C737.544 80.744 741.192 85.532 747.69 85.532C754.568 85.532 758.026 80.744 758.026 75.386C758.026 70.294 754.53 65.24 747.88 65.24ZM747.728 68.204C751.984 68.204 754.302 71.586 754.302 75.462C754.302 79.3 752.212 82.606 747.804 82.606C743.586 82.606 741.23 79.072 741.23 75.424C741.23 71.548 743.358 68.204 747.728 68.204ZM762.775 85H766.385V76.982C766.385 71.32 769.729 68.66 774.175 68.736V65.278C770.413 65.24 767.639 67.178 766.385 70.104C766.385 68.394 766.309 66.342 766.233 65.772H762.737C762.775 67.52 762.775 69.268 762.775 71.016V85ZM799.419 76.83V76.64C799.419 74.93 800.179 73.714 802.573 71.928C806.031 69.344 807.171 67.786 807.171 64.708C807.171 61.212 804.511 57.412 798.089 57.412C790.451 57.412 788.665 62.466 788.323 65.05H791.933C792.541 61.972 794.555 60.3 797.975 60.3C801.813 60.3 803.485 62.466 803.485 64.822C803.447 66.798 802.649 67.786 799.875 69.876C796.227 72.65 795.695 74.398 795.695 76.412V76.83H799.419ZM799.419 85.038V79.794H795.695V85.038H799.419Z" fill="#F7F7F3"/>
<path d="M137.8 129H139.6V123.888H143.866C146.692 123.888 148.42 122.502 148.42 119.982C148.42 117.858 146.98 116.22 143.794 116.22H137.8V129ZM139.6 117.732H143.596C145.612 117.732 146.584 118.56 146.584 120.018C146.584 121.854 145.36 122.376 143.596 122.376H139.6V117.732ZM152.51 129V115.482H150.782V129H152.51ZM164.117 124.86C164.117 124.68 164.117 124.554 164.117 124.41C164.117 122.178 162.893 119.64 159.437 119.64C156.575 119.64 154.739 121.728 154.739 124.482C154.739 126.876 156.215 129.252 159.491 129.252C162.209 129.252 163.505 127.776 163.991 126.408H162.281C161.795 127.308 161.003 127.884 159.581 127.884C157.727 127.884 156.557 126.606 156.449 124.86H164.117ZM156.485 123.636C156.647 122.142 157.565 120.972 159.437 120.972C161.687 120.972 162.263 122.556 162.335 123.636H156.485ZM174.418 122.772C174.418 121.26 173.68 119.64 170.368 119.64C167.236 119.64 166.426 121.35 166.318 122.556H168.028C168.208 121.71 168.622 120.954 170.368 120.954C172.312 120.954 172.726 121.872 172.726 122.88V123.348C172.42 123.348 171.61 123.348 170.512 123.348C167.92 123.348 165.796 123.996 165.796 126.336C165.796 127.704 166.75 129.252 169.324 129.252C171.25 129.252 172.276 128.622 172.762 127.668C172.762 127.974 172.798 128.676 172.87 129H174.49C174.472 128.802 174.418 127.65 174.418 126.75V122.772ZM172.726 124.968C172.726 126.498 172.078 127.92 169.666 127.92C168.154 127.92 167.488 127.146 167.488 126.246C167.488 125.022 168.46 124.572 170.548 124.572C171.844 124.572 172.456 124.572 172.726 124.572V124.968ZM176.496 126.246C176.82 128.136 178.368 129.252 181.014 129.252C183.966 129.252 185.208 128.046 185.208 126.408C185.208 125.058 184.56 123.996 181.14 123.528C179.052 123.258 178.638 122.862 178.638 122.178C178.638 121.656 178.98 120.936 180.672 120.936C182.67 120.936 183.048 121.818 183.192 122.376H184.902C184.812 121.278 183.93 119.64 180.762 119.64C177.864 119.64 176.91 121.152 176.91 122.322C176.91 123.456 177.522 124.572 180.726 124.986C183.03 125.256 183.498 125.778 183.498 126.534C183.498 127.344 182.868 127.956 181.122 127.956C179.484 127.956 178.548 127.326 178.224 126.246H176.496ZM196.074 124.86C196.074 124.68 196.074 124.554 196.074 124.41C196.074 122.178 194.85 119.64 191.394 119.64C188.532 119.64 186.696 121.728 186.696 124.482C186.696 126.876 188.172 129.252 191.448 129.252C194.166 129.252 195.462 127.776 195.948 126.408H194.238C193.752 127.308 192.96 127.884 191.538 127.884C189.684 127.884 188.514 126.606 188.406 124.86H196.074ZM188.442 123.636C188.604 122.142 189.522 120.972 191.394 120.972C193.644 120.972 194.22 122.556 194.292 123.636H188.442ZM202.74 126.246C203.064 128.136 204.612 129.252 207.258 129.252C210.21 129.252 211.452 128.046 211.452 126.408C211.452 125.058 210.804 123.996 207.384 123.528C205.296 123.258 204.882 122.862 204.882 122.178C204.882 121.656 205.224 120.936 206.916 120.936C208.914 120.936 209.292 121.818 209.436 122.376H211.146C211.056 121.278 210.174 119.64 207.006 119.64C204.108 119.64 203.154 121.152 203.154 122.322C203.154 123.456 203.766 124.572 206.97 124.986C209.274 125.256 209.742 125.778 209.742 126.534C209.742 127.344 209.112 127.956 207.366 127.956C205.728 127.956 204.792 127.326 204.468 126.246H202.74ZM222.318 124.86C222.318 124.68 222.318 124.554 222.318 124.41C222.318 122.178 221.094 119.64 217.638 119.64C214.776 119.64 212.94 121.728 212.94 124.482C212.94 126.876 214.416 129.252 217.692 129.252C220.41 129.252 221.706 127.776 222.192 126.408H220.482C219.996 127.308 219.204 127.884 217.782 127.884C215.928 127.884 214.758 126.606 214.65 124.86H222.318ZM214.686 123.636C214.848 122.142 215.766 120.972 217.638 120.972C219.888 120.972 220.464 122.556 220.536 123.636H214.686ZM226.232 129V115.482H224.504V129H226.232ZM237.84 124.86C237.84 124.68 237.84 124.554 237.84 124.41C237.84 122.178 236.616 119.64 233.16 119.64C230.298 119.64 228.462 121.728 228.462 124.482C228.462 126.876 229.938 129.252 233.214 129.252C235.932 129.252 237.228 127.776 237.714 126.408H236.004C235.518 127.308 234.726 127.884 233.304 127.884C231.45 127.884 230.28 126.606 230.172 124.86H237.84ZM230.208 123.636C230.37 122.142 231.288 120.972 233.16 120.972C235.41 120.972 235.986 122.556 236.058 123.636H230.208ZM247.078 126.156C246.628 127.2 245.818 127.866 244.342 127.866C242.362 127.866 241.282 126.354 241.282 124.446C241.282 122.466 242.416 121.026 244.324 121.026C246.034 121.026 246.754 121.962 247.06 122.808H248.77C248.572 121.602 247.42 119.64 244.36 119.64C241.3 119.64 239.536 121.89 239.536 124.482C239.536 127.074 241.102 129.252 244.324 129.252C246.916 129.252 248.356 127.812 248.806 126.156H247.078ZM249.913 121.242H251.713V126.462C251.713 128.244 252.289 129.09 254.179 129.09C254.701 129.09 255.169 129.072 255.583 128.928V127.668C255.313 127.74 254.953 127.74 254.683 127.74C253.693 127.74 253.423 127.272 253.423 126.228V121.242H255.799V119.892H253.423V116.958H251.713V119.892H249.913V121.242ZM267.301 119.64C264.223 119.64 262.405 121.854 262.405 124.464C262.405 126.984 264.133 129.252 267.211 129.252C270.469 129.252 272.107 126.984 272.107 124.446C272.107 122.034 270.451 119.64 267.301 119.64ZM267.229 121.044C269.245 121.044 270.343 122.646 270.343 124.482C270.343 126.3 269.353 127.866 267.265 127.866C265.267 127.866 264.151 126.192 264.151 124.464C264.151 122.628 265.159 121.044 267.229 121.044ZM274.338 129H276.066V124.644C276.066 122.538 277.002 121.08 278.892 121.08C280.584 121.08 281.16 122.268 281.16 123.78V129H282.888V123.456C282.888 120.972 281.502 119.64 279.36 119.64C277.398 119.64 276.462 120.702 276.066 121.584C276.048 120.972 276.03 120.216 275.994 119.892H274.32C274.338 120.576 274.338 121.422 274.338 122.196V129ZM294.494 124.86C294.494 124.68 294.494 124.554 294.494 124.41C294.494 122.178 293.27 119.64 289.814 119.64C286.952 119.64 285.116 121.728 285.116 124.482C285.116 126.876 286.592 129.252 289.868 129.252C292.586 129.252 293.882 127.776 294.368 126.408H292.658C292.172 127.308 291.38 127.884 289.958 127.884C288.104 127.884 286.934 126.606 286.826 124.86H294.494ZM286.862 123.636C287.024 122.142 287.942 120.972 289.814 120.972C292.064 120.972 292.64 122.556 292.712 123.636H286.862ZM306.236 119.64C303.158 119.64 301.34 121.854 301.34 124.464C301.34 126.984 303.068 129.252 306.146 129.252C309.404 129.252 311.042 126.984 311.042 124.446C311.042 122.034 309.386 119.64 306.236 119.64ZM306.164 121.044C308.18 121.044 309.278 122.646 309.278 124.482C309.278 126.3 308.288 127.866 306.2 127.866C304.202 127.866 303.086 126.192 303.086 124.464C303.086 122.628 304.094 121.044 306.164 121.044ZM313.292 129H315.002V125.202C315.002 122.52 316.586 121.26 318.692 121.296V119.658C316.91 119.64 315.596 120.558 315.002 121.944C315.002 121.134 314.966 120.162 314.93 119.892H313.274C313.292 120.72 313.292 121.548 313.292 122.376V129ZM325.79 129H327.5V124.14C327.5 122.412 328.166 121.062 329.876 121.062C331.496 121.062 331.856 122.286 331.856 123.366V129H333.566V124.014C333.566 122.052 334.502 121.062 335.96 121.062C337.58 121.062 337.922 122.376 337.922 123.438V129H339.614V123.384C339.614 120.684 338.156 119.64 336.356 119.64C334.556 119.64 333.71 120.612 333.224 121.386C332.828 120.36 331.928 119.64 330.434 119.64C328.832 119.64 327.95 120.486 327.482 121.26C327.5 120.792 327.482 120.27 327.428 119.892H325.772C325.79 120.684 325.79 121.458 325.79 122.25V129ZM346.754 119.64C343.676 119.64 341.858 121.854 341.858 124.464C341.858 126.984 343.586 129.252 346.664 129.252C349.922 129.252 351.56 126.984 351.56 124.446C351.56 122.034 349.904 119.64 346.754 119.64ZM346.682 121.044C348.698 121.044 349.796 122.646 349.796 124.482C349.796 126.3 348.806 127.866 346.718 127.866C344.72 127.866 343.604 126.192 343.604 124.464C343.604 122.628 344.612 121.044 346.682 121.044ZM353.81 129H355.52V125.202C355.52 122.52 357.104 121.26 359.21 121.296V119.658C357.428 119.64 356.114 120.558 355.52 121.944C355.52 121.134 355.484 120.162 355.448 119.892H353.792C353.81 120.72 353.81 121.548 353.81 122.376V129ZM369.57 124.86C369.57 124.68 369.57 124.554 369.57 124.41C369.57 122.178 368.346 119.64 364.89 119.64C362.028 119.64 360.192 121.728 360.192 124.482C360.192 126.876 361.668 129.252 364.944 129.252C367.662 129.252 368.958 127.776 369.444 126.408H367.734C367.248 127.308 366.456 127.884 365.034 127.884C363.18 127.884 362.01 126.606 361.902 124.86H369.57ZM361.938 123.636C362.1 122.142 363.018 120.972 364.89 120.972C367.14 120.972 367.716 122.556 367.788 123.636H361.938ZM381.313 119.64C378.235 119.64 376.417 121.854 376.417 124.464C376.417 126.984 378.145 129.252 381.223 129.252C384.481 129.252 386.119 126.984 386.119 124.446C386.119 122.034 384.463 119.64 381.313 119.64ZM381.241 121.044C383.257 121.044 384.355 122.646 384.355 124.482C384.355 126.3 383.365 127.866 381.277 127.866C379.279 127.866 378.163 126.192 378.163 124.464C378.163 122.628 379.171 121.044 381.241 121.044ZM393.3 129.252C395.766 129.252 397.818 127.272 397.818 124.302C397.818 121.656 396.036 119.64 393.588 119.64C391.68 119.64 390.618 120.522 390.078 121.476C390.078 120.774 390.06 120.162 390.024 119.892H388.35C388.368 120.648 388.368 121.422 388.368 122.178V132.996H390.078V127.668C390.564 128.442 391.41 129.252 393.3 129.252ZM393.03 127.812C391.032 127.812 390.024 126.408 390.024 124.5C390.024 122.592 390.96 121.08 393.066 121.08C395.118 121.08 396.054 122.754 396.054 124.374C396.054 126.192 395.046 127.812 393.03 127.812ZM398.817 121.242H400.617V126.462C400.617 128.244 401.193 129.09 403.083 129.09C403.605 129.09 404.073 129.072 404.487 128.928V127.668C404.217 127.74 403.857 127.74 403.587 127.74C402.597 127.74 402.327 127.272 402.327 126.228V121.242H404.703V119.892H402.327V116.958H400.617V119.892H398.817V121.242ZM406.72 129H408.43V119.892H406.72V129ZM406.72 117.534H408.43V115.482H406.72V117.534ZM415.555 119.64C412.477 119.64 410.659 121.854 410.659 124.464C410.659 126.984 412.387 129.252 415.465 129.252C418.723 129.252 420.361 126.984 420.361 124.446C420.361 122.034 418.705 119.64 415.555 119.64ZM415.483 121.044C417.499 121.044 418.597 122.646 418.597 124.482C418.597 126.3 417.607 127.866 415.519 127.866C413.521 127.866 412.405 126.192 412.405 124.464C412.405 122.628 413.413 121.044 415.483 121.044ZM422.592 129H424.32V124.644C424.32 122.538 425.256 121.08 427.146 121.08C428.838 121.08 429.414 122.268 429.414 123.78V129H431.142V123.456C431.142 120.972 429.756 119.64 427.614 119.64C425.652 119.64 424.716 120.702 424.32 121.584C424.302 120.972 424.284 120.216 424.248 119.892H422.574C422.592 120.576 422.592 121.422 422.592 122.196V129ZM433.084 126.246C433.408 128.136 434.956 129.252 437.602 129.252C440.554 129.252 441.796 128.046 441.796 126.408C441.796 125.058 441.148 123.996 437.728 123.528C435.64 123.258 435.226 122.862 435.226 122.178C435.226 121.656 435.568 120.936 437.26 120.936C439.258 120.936 439.636 121.818 439.78 122.376H441.49C441.4 121.278 440.518 119.64 437.35 119.64C434.452 119.64 433.498 121.152 433.498 122.322C433.498 123.456 434.11 124.572 437.314 124.986C439.618 125.256 440.086 125.778 440.086 126.534C440.086 127.344 439.456 127.956 437.71 127.956C436.072 127.956 435.136 127.326 434.812 126.246H433.084ZM448.194 121.242H449.994V126.462C449.994 128.244 450.57 129.09 452.46 129.09C452.982 129.09 453.45 129.072 453.864 128.928V127.668C453.594 127.74 453.234 127.74 452.964 127.74C451.974 127.74 451.704 127.272 451.704 126.228V121.242H454.08V119.892H451.704V116.958H449.994V119.892H448.194V121.242ZM456.026 115.482V129H457.754V124.536C457.754 122.628 458.672 121.08 460.598 121.08C462.29 121.08 462.848 122.232 462.848 123.762V129H464.558V123.51C464.558 120.918 463.19 119.64 461.102 119.64C458.906 119.64 458.06 120.864 457.736 121.53V115.482H456.026ZM475.373 122.772C475.373 121.26 474.635 119.64 471.323 119.64C468.191 119.64 467.381 121.35 467.273 122.556H468.983C469.163 121.71 469.577 120.954 471.323 120.954C473.267 120.954 473.681 121.872 473.681 122.88V123.348C473.375 123.348 472.565 123.348 471.467 123.348C468.875 123.348 466.751 123.996 466.751 126.336C466.751 127.704 467.705 129.252 470.279 129.252C472.205 129.252 473.231 128.622 473.717 127.668C473.717 127.974 473.753 128.676 473.825 129H475.445C475.427 128.802 475.373 127.65 475.373 126.75V122.772ZM473.681 124.968C473.681 126.498 473.033 127.92 470.621 127.92C469.109 127.92 468.443 127.146 468.443 126.246C468.443 125.022 469.415 124.572 471.503 124.572C472.799 124.572 473.411 124.572 473.681 124.572V124.968ZM476.882 121.242H478.682V126.462C478.682 128.244 479.258 129.09 481.148 129.09C481.67 129.09 482.138 129.072 482.552 128.928V127.668C482.282 127.74 481.922 127.74 481.652 127.74C480.662 127.74 480.392 127.272 480.392 126.228V121.242H482.768V119.892H480.392V116.958H478.682V119.892H476.882V121.242ZM488.942 119.892L491.93 129H493.784C495.062 125.472 495.98 122.718 496.214 121.836H496.232C496.538 122.898 497.582 125.814 498.662 129H500.444L503.594 119.892H501.884C500.372 124.554 499.796 126.498 499.598 127.38H499.58C499.418 126.642 498.968 125.274 497.132 119.892H495.494C493.604 125.346 493.226 126.534 492.974 127.47H492.956C492.74 126.48 492.38 125.22 490.724 119.892H488.942ZM505.474 129H507.184V119.892H505.474V129ZM505.474 117.534H507.184V115.482H505.474V117.534ZM511.895 129V115.482H510.167V129H511.895ZM516.606 129V115.482H514.878V129H516.606ZM529.777 129.252C532.243 129.252 534.295 127.272 534.295 124.302C534.295 121.656 532.513 119.64 530.065 119.64C528.157 119.64 527.095 120.522 526.555 121.476C526.555 120.774 526.537 120.162 526.501 119.892H524.827C524.845 120.648 524.845 121.422 524.845 122.178V132.996H526.555V127.668C527.041 128.442 527.887 129.252 529.777 129.252ZM529.507 127.812C527.509 127.812 526.501 126.408 526.501 124.5C526.501 122.592 527.437 121.08 529.543 121.08C531.595 121.08 532.531 122.754 532.531 124.374C532.531 126.192 531.523 127.812 529.507 127.812ZM545.246 124.86C545.246 124.68 545.246 124.554 545.246 124.41C545.246 122.178 544.022 119.64 540.566 119.64C537.704 119.64 535.868 121.728 535.868 124.482C535.868 126.876 537.344 129.252 540.62 129.252C543.338 129.252 544.634 127.776 545.12 126.408H543.41C542.924 127.308 542.132 127.884 540.71 127.884C538.856 127.884 537.686 126.606 537.578 124.86H545.246ZM537.614 123.636C537.776 122.142 538.694 120.972 540.566 120.972C542.816 120.972 543.392 122.556 543.464 123.636H537.614ZM547.503 129H549.213V125.202C549.213 122.52 550.797 121.26 552.903 121.296V119.658C551.121 119.64 549.807 120.558 549.213 121.944C549.213 121.134 549.177 120.162 549.141 119.892H547.485C547.503 120.72 547.503 121.548 547.503 122.376V129ZM557.558 129V121.242H559.682V119.892H557.558V118.758C557.558 117.3 557.918 116.76 559.124 116.76C559.358 116.76 559.7 116.796 559.952 116.85V115.446C559.7 115.374 559.322 115.338 558.872 115.338C556.748 115.338 555.83 116.598 555.83 118.668V119.892H554.138V121.242H555.83V129H557.558ZM569.89 124.86C569.89 124.68 569.89 124.554 569.89 124.41C569.89 122.178 568.666 119.64 565.21 119.64C562.348 119.64 560.512 121.728 560.512 124.482C560.512 126.876 561.988 129.252 565.264 129.252C567.982 129.252 569.278 127.776 569.764 126.408H568.054C567.568 127.308 566.776 127.884 565.354 127.884C563.5 127.884 562.33 126.606 562.222 124.86H569.89ZM562.258 123.636C562.42 122.142 563.338 120.972 565.21 120.972C567.46 120.972 568.036 122.556 568.108 123.636H562.258ZM579.129 126.156C578.679 127.2 577.869 127.866 576.393 127.866C574.413 127.866 573.333 126.354 573.333 124.446C573.333 122.466 574.467 121.026 576.375 121.026C578.085 121.026 578.805 121.962 579.111 122.808H580.821C580.623 121.602 579.471 119.64 576.411 119.64C573.351 119.64 571.587 121.89 571.587 124.482C571.587 127.074 573.153 129.252 576.375 129.252C578.967 129.252 580.407 127.812 580.857 126.156H579.129ZM581.964 121.242H583.764V126.462C583.764 128.244 584.34 129.09 586.23 129.09C586.752 129.09 587.22 129.072 587.634 128.928V127.668C587.364 127.74 587.004 127.74 586.734 127.74C585.744 127.74 585.474 127.272 585.474 126.228V121.242H587.85V119.892H585.474V116.958H583.764V119.892H581.964V121.242ZM591.523 129V115.482H589.795V129H591.523ZM593.459 119.892L597.671 129.432C596.843 131.214 596.375 131.718 595.151 131.718C594.917 131.718 594.503 131.7 594.143 131.646V133.158C594.467 133.212 595.007 133.248 595.331 133.248C597.617 133.248 598.211 132.456 599.831 128.55L603.395 119.892H601.613C599.885 124.176 598.949 126.804 598.625 127.686H598.607C598.337 126.93 597.275 124.374 595.349 119.892H593.459ZM612.718 129V121.242H614.842V119.892H612.718V118.758C612.718 117.3 613.078 116.76 614.284 116.76C614.518 116.76 614.86 116.796 615.112 116.85V115.446C614.86 115.374 614.482 115.338 614.032 115.338C611.908 115.338 610.99 116.598 610.99 118.668V119.892H609.298V121.242H610.99V129H612.718ZM616.603 129H618.313V119.892H616.603V129ZM616.603 117.534H618.313V115.482H616.603V117.534ZM620.249 121.242H622.049V126.462C622.049 128.244 622.625 129.09 624.515 129.09C625.037 129.09 625.505 129.072 625.919 128.928V127.668C625.649 127.74 625.289 127.74 625.019 127.74C624.029 127.74 623.759 127.272 623.759 126.228V121.242H626.135V119.892H623.759V116.958H622.049V119.892H620.249V121.242ZM632.255 121.242H634.055V126.462C634.055 128.244 634.631 129.09 636.521 129.09C637.043 129.09 637.511 129.072 637.925 128.928V127.668C637.655 127.74 637.295 127.74 637.025 127.74C636.035 127.74 635.765 127.272 635.765 126.228V121.242H638.141V119.892H635.765V116.958H634.055V119.892H632.255V121.242ZM644.158 119.64C641.08 119.64 639.262 121.854 639.262 124.464C639.262 126.984 640.99 129.252 644.068 129.252C647.326 129.252 648.964 126.984 648.964 124.446C648.964 122.034 647.308 119.64 644.158 119.64ZM644.086 121.044C646.102 121.044 647.2 122.646 647.2 124.482C647.2 126.3 646.21 127.866 644.122 127.866C642.124 127.866 641.008 126.192 641.008 124.464C641.008 122.628 642.016 121.044 644.086 121.044ZM655.334 119.892L659.546 129.432C658.718 131.214 658.25 131.718 657.026 131.718C656.792 131.718 656.378 131.7 656.018 131.646V133.158C656.342 133.212 656.882 133.248 657.206 133.248C659.492 133.248 660.086 132.456 661.706 128.55L665.27 119.892H663.488C661.76 124.176 660.824 126.804 660.5 127.686H660.482C660.212 126.93 659.15 124.374 657.224 119.892H655.334ZM671.158 119.64C668.08 119.64 666.262 121.854 666.262 124.464C666.262 126.984 667.99 129.252 671.068 129.252C674.326 129.252 675.964 126.984 675.964 124.446C675.964 122.034 674.308 119.64 671.158 119.64ZM671.086 121.044C673.102 121.044 674.2 122.646 674.2 124.482C674.2 126.3 673.21 127.866 671.122 127.866C669.124 127.866 668.008 126.192 668.008 124.464C668.008 122.628 669.016 121.044 671.086 121.044ZM686.584 119.892H684.874V124.014C684.874 126.678 684.028 127.812 682.066 127.812C680.428 127.812 679.888 126.606 679.888 125.238V119.892H678.178V125.544C678.178 128.208 679.672 129.252 681.598 129.252C683.596 129.252 684.424 128.496 684.874 127.47C684.874 128.118 684.91 128.748 684.946 129H686.584C686.566 128.118 686.584 127.236 686.584 126.354V119.892ZM689.499 129H691.209V125.202C691.209 122.52 692.793 121.26 694.899 121.296V119.658C693.117 119.64 691.803 120.558 691.209 121.944C691.209 121.134 691.173 120.162 691.137 119.892H689.481C689.499 120.72 689.499 121.548 689.499 122.376V129ZM701.997 125.868C701.997 126.912 701.997 127.848 701.979 129H703.635C703.653 128.694 703.671 128.046 703.671 127.596C704.139 128.424 705.039 129.252 706.983 129.252C709.575 129.252 711.483 127.344 711.483 124.302C711.483 121.638 709.647 119.64 707.091 119.64C705.147 119.64 704.175 120.594 703.725 121.314V115.482H701.997V125.868ZM706.731 127.812C704.841 127.812 703.653 126.516 703.653 124.446C703.653 122.538 704.643 121.08 706.713 121.08C708.837 121.08 709.719 122.808 709.719 124.356C709.719 126.156 708.855 127.812 706.731 127.812ZM722.11 119.892H720.4V124.014C720.4 126.678 719.554 127.812 717.592 127.812C715.954 127.812 715.414 126.606 715.414 125.238V119.892H713.704V125.544C713.704 128.208 715.198 129.252 717.124 129.252C719.122 129.252 719.95 128.496 720.4 127.47C720.4 128.118 720.436 128.748 720.472 129H722.11C722.092 128.118 722.11 127.236 722.11 126.354V119.892ZM724.143 126.246C724.467 128.136 726.015 129.252 728.661 129.252C731.613 129.252 732.855 128.046 732.855 126.408C732.855 125.058 732.207 123.996 728.787 123.528C726.699 123.258 726.285 122.862 726.285 122.178C726.285 121.656 726.627 120.936 728.319 120.936C730.317 120.936 730.695 121.818 730.839 122.376H732.549C732.459 121.278 731.577 119.64 728.409 119.64C725.511 119.64 724.557 121.152 724.557 122.322C724.557 123.456 725.169 124.572 728.373 124.986C730.677 125.256 731.145 125.778 731.145 126.534C731.145 127.344 730.515 127.956 728.769 127.956C727.131 127.956 726.195 127.326 725.871 126.246H724.143ZM735.097 129H736.807V119.892H735.097V129ZM735.097 117.534H736.807V115.482H735.097V117.534ZM739.702 129H741.43V124.644C741.43 122.538 742.366 121.08 744.256 121.08C745.948 121.08 746.524 122.268 746.524 123.78V129H748.252V123.456C748.252 120.972 746.866 119.64 744.724 119.64C742.762 119.64 741.826 120.702 741.43 121.584C741.412 120.972 741.394 120.216 741.358 119.892H739.684C739.702 120.576 739.702 121.422 739.702 122.196V129ZM759.857 124.86C759.857 124.68 759.857 124.554 759.857 124.41C759.857 122.178 758.633 119.64 755.177 119.64C752.315 119.64 750.479 121.728 750.479 124.482C750.479 126.876 751.955 129.252 755.231 129.252C757.949 129.252 759.245 127.776 759.731 126.408H758.021C757.535 127.308 756.743 127.884 755.321 127.884C753.467 127.884 752.297 126.606 752.189 124.86H759.857ZM752.225 123.636C752.387 122.142 753.305 120.972 755.177 120.972C757.427 120.972 758.003 122.556 758.075 123.636H752.225ZM761.373 126.246C761.697 128.136 763.245 129.252 765.891 129.252C768.843 129.252 770.085 128.046 770.085 126.408C770.085 125.058 769.437 123.996 766.017 123.528C763.929 123.258 763.515 122.862 763.515 122.178C763.515 121.656 763.857 120.936 765.549 120.936C767.547 120.936 767.925 121.818 768.069 122.376H769.779C769.689 121.278 768.807 119.64 765.639 119.64C762.741 119.64 761.787 121.152 761.787 122.322C761.787 123.456 762.399 124.572 765.603 124.986C767.907 125.256 768.375 125.778 768.375 126.534C768.375 127.344 767.745 127.956 765.999 127.956C764.361 127.956 763.425 127.326 763.101 126.246H761.373ZM771.569 126.246C771.893 128.136 773.441 129.252 776.087 129.252C779.039 129.252 780.281 128.046 780.281 126.408C780.281 125.058 779.633 123.996 776.213 123.528C774.125 123.258 773.711 122.862 773.711 122.178C773.711 121.656 774.053 120.936 775.745 120.936C777.743 120.936 778.121 121.818 778.265 122.376H779.975C779.885 121.278 779.003 119.64 775.835 119.64C772.937 119.64 771.983 121.152 771.983 122.322C771.983 123.456 772.595 124.572 775.799 124.986C778.103 125.256 778.571 125.778 778.571 126.534C778.571 127.344 777.941 127.956 776.195 127.956C774.557 127.956 773.621 127.326 773.297 126.246H771.569ZM787.831 129H789.559V124.644C789.559 122.538 790.495 121.08 792.385 121.08C794.077 121.08 794.653 122.268 794.653 123.78V129H796.381V123.456C796.381 120.972 794.995 119.64 792.853 119.64C790.891 119.64 789.955 120.702 789.559 121.584C789.541 120.972 789.523 120.216 789.487 119.892H787.813C787.831 120.576 787.831 121.422 787.831 122.196V129ZM807.986 124.86C807.986 124.68 807.986 124.554 807.986 124.41C807.986 122.178 806.762 119.64 803.306 119.64C800.444 119.64 798.608 121.728 798.608 124.482C798.608 126.876 800.084 129.252 803.36 129.252C806.078 129.252 807.374 127.776 807.86 126.408H806.15C805.664 127.308 804.872 127.884 803.45 127.884C801.596 127.884 800.426 126.606 800.318 124.86H807.986ZM800.354 123.636C800.516 122.142 801.434 120.972 803.306 120.972C805.556 120.972 806.132 122.556 806.204 123.636H800.354ZM819.06 124.86C819.06 124.68 819.06 124.554 819.06 124.41C819.06 122.178 817.836 119.64 814.38 119.64C811.518 119.64 809.682 121.728 809.682 124.482C809.682 126.876 811.158 129.252 814.434 129.252C817.152 129.252 818.448 127.776 818.934 126.408H817.224C816.738 127.308 815.946 127.884 814.524 127.884C812.67 127.884 811.5 126.606 811.392 124.86H819.06ZM811.428 123.636C811.59 122.142 812.508 120.972 814.38 120.972C816.63 120.972 817.206 122.556 817.278 123.636H811.428ZM828.514 115.482V121.044C828.262 120.612 827.524 119.64 825.382 119.64C823.006 119.64 820.756 121.53 820.756 124.536C820.756 127.29 822.538 129.252 825.166 129.252C827.272 129.252 828.064 128.406 828.514 127.614C828.514 128.082 828.532 128.622 828.586 129H830.26C830.242 128.136 830.242 127.236 830.242 126.354V115.482H828.514ZM825.598 121.08C827.884 121.08 828.586 122.412 828.586 124.428C828.586 126.426 827.704 127.83 825.526 127.83C823.546 127.83 822.52 126.174 822.52 124.5C822.52 122.772 823.528 121.08 825.598 121.08ZM832.406 126.246C832.731 128.136 834.279 129.252 836.925 129.252C839.877 129.252 841.119 128.046 841.119 126.408C841.119 125.058 840.471 123.996 837.051 123.528C834.963 123.258 834.549 122.862 834.549 122.178C834.549 121.656 834.891 120.936 836.583 120.936C838.581 120.936 838.959 121.818 839.103 122.376H840.812C840.723 121.278 839.841 119.64 836.673 119.64C833.775 119.64 832.821 121.152 832.821 122.322C832.821 123.456 833.433 124.572 836.637 124.986C838.941 125.256 839.409 125.778 839.409 126.534C839.409 127.344 838.779 127.956 837.033 127.956C835.395 127.956 834.458 127.326 834.135 126.246H832.406ZM845.17 129V126.066H843.28V129H845.17ZM856.505 129H858.323V117.75H863.201V116.22H851.627V117.75H856.505V129ZM864.893 115.482V129H866.621V124.536C866.621 122.628 867.539 121.08 869.465 121.08C871.157 121.08 871.715 122.232 871.715 123.762V129H873.425V123.51C873.425 120.918 872.057 119.64 869.969 119.64C867.773 119.64 866.927 120.864 866.603 121.53V115.482H864.893ZM885.048 124.86C885.048 124.68 885.048 124.554 885.048 124.41C885.048 122.178 883.824 119.64 880.368 119.64C877.506 119.64 875.67 121.728 875.67 124.482C875.67 126.876 877.146 129.252 880.422 129.252C883.14 129.252 884.436 127.776 884.922 126.408H883.212C882.726 127.308 881.934 127.884 880.512 127.884C878.658 127.884 877.488 126.606 877.38 124.86H885.048ZM877.416 123.636C877.578 122.142 878.496 120.972 880.368 120.972C882.618 120.972 883.194 122.556 883.266 123.636H877.416ZM886.565 126.246C886.889 128.136 888.437 129.252 891.083 129.252C894.035 129.252 895.277 128.046 895.277 126.408C895.277 125.058 894.629 123.996 891.209 123.528C889.121 123.258 888.707 122.862 888.707 122.178C888.707 121.656 889.049 120.936 890.741 120.936C892.739 120.936 893.117 121.818 893.261 122.376H894.971C894.881 121.278 893.999 119.64 890.831 119.64C887.933 119.64 886.979 121.152 886.979 122.322C886.979 123.456 887.591 124.572 890.795 124.986C893.099 125.256 893.567 125.778 893.567 126.534C893.567 127.344 892.937 127.956 891.191 127.956C889.553 127.956 888.617 127.326 888.293 126.246H886.565ZM906.142 124.86C906.142 124.68 906.142 124.554 906.142 124.41C906.142 122.178 904.918 119.64 901.462 119.64C898.6 119.64 896.764 121.728 896.764 124.482C896.764 126.876 898.24 129.252 901.516 129.252C904.234 129.252 905.53 127.776 906.016 126.408H904.306C903.82 127.308 903.028 127.884 901.606 127.884C899.752 127.884 898.582 126.606 898.474 124.86H906.142ZM898.51 123.636C898.672 122.142 899.59 120.972 901.462 120.972C903.712 120.972 904.288 122.556 904.36 123.636H898.51ZM917.885 119.64C914.807 119.64 912.989 121.854 912.989 124.464C912.989 126.984 914.717 129.252 917.795 129.252C921.053 129.252 922.691 126.984 922.691 124.446C922.691 122.034 921.035 119.64 917.885 119.64ZM917.813 121.044C919.829 121.044 920.927 122.646 920.927 124.482C920.927 126.3 919.937 127.866 917.849 127.866C915.851 127.866 914.735 126.192 914.735 124.464C914.735 122.628 915.743 121.044 917.813 121.044ZM929.872 129.252C932.338 129.252 934.39 127.272 934.39 124.302C934.39 121.656 932.608 119.64 930.16 119.64C928.252 119.64 927.19 120.522 926.65 121.476C926.65 120.774 926.632 120.162 926.596 119.892H924.922C924.94 120.648 924.94 121.422 924.94 122.178V132.996H926.65V127.668C927.136 128.442 927.982 129.252 929.872 129.252ZM929.602 127.812C927.604 127.812 926.596 126.408 926.596 124.5C926.596 122.592 927.532 121.08 929.638 121.08C931.69 121.08 932.626 122.754 932.626 124.374C932.626 126.192 931.618 127.812 929.602 127.812ZM935.39 121.242H937.19V126.462C937.19 128.244 937.766 129.09 939.656 129.09C940.178 129.09 940.646 129.072 941.06 128.928V127.668C940.79 127.74 940.43 127.74 940.16 127.74C939.17 127.74 938.9 127.272 938.9 126.228V121.242H941.276V119.892H938.9V116.958H937.19V119.892H935.39V121.242ZM943.292 129H945.002V119.892H943.292V129ZM943.292 117.534H945.002V115.482H943.292V117.534ZM952.127 119.64C949.049 119.64 947.231 121.854 947.231 124.464C947.231 126.984 948.959 129.252 952.037 129.252C955.295 129.252 956.933 126.984 956.933 124.446C956.933 122.034 955.277 119.64 952.127 119.64ZM952.055 121.044C954.071 121.044 955.169 122.646 955.169 124.482C955.169 126.3 954.179 127.866 952.091 127.866C950.093 127.866 948.977 126.192 948.977 124.464C948.977 122.628 949.985 121.044 952.055 121.044ZM959.165 129H960.893V124.644C960.893 122.538 961.829 121.08 963.719 121.08C965.411 121.08 965.987 122.268 965.987 123.78V129H967.715V123.456C967.715 120.972 966.329 119.64 964.187 119.64C962.225 119.64 961.289 120.702 960.893 121.584C960.875 120.972 960.857 120.216 960.821 119.892H959.147C959.165 120.576 959.165 121.422 959.165 122.196V129ZM969.656 126.246C969.981 128.136 971.529 129.252 974.175 129.252C977.127 129.252 978.369 128.046 978.369 126.408C978.369 125.058 977.721 123.996 974.301 123.528C972.213 123.258 971.799 122.862 971.799 122.178C971.799 121.656 972.141 120.936 973.833 120.936C975.831 120.936 976.209 121.818 976.353 122.376H978.062C977.973 121.278 977.091 119.64 973.923 119.64C971.025 119.64 970.071 121.152 970.071 122.322C970.071 123.456 970.683 124.572 973.887 124.986C976.191 125.256 976.659 125.778 976.659 126.534C976.659 127.344 976.029 127.956 974.283 127.956C972.645 127.956 971.708 127.326 971.385 126.246H969.656ZM984.821 119.892L987.809 129H989.663C990.941 125.472 991.859 122.718 992.093 121.836H992.111C992.417 122.898 993.461 125.814 994.541 129H996.323L999.473 119.892H997.763C996.251 124.554 995.675 126.498 995.477 127.38H995.459C995.297 126.642 994.847 125.274 993.011 119.892H991.373C989.483 125.346 989.105 126.534 988.853 127.47H988.835C988.619 126.48 988.259 125.22 986.603 119.892H984.821ZM1001.35 129H1003.06V119.892H1001.35V129ZM1001.35 117.534H1003.06V115.482H1001.35V117.534ZM1007.77 129V115.482H1006.05V129H1007.77ZM1012.48 129V115.482H1010.76V129H1012.48ZM1020.71 115.482V129H1022.43V124.536C1022.43 122.628 1023.35 121.08 1025.28 121.08C1026.97 121.08 1027.53 122.232 1027.53 123.762V129H1029.24V123.51C1029.24 120.918 1027.87 119.64 1025.78 119.64C1023.59 119.64 1022.74 120.864 1022.42 121.53V115.482H1020.71ZM1040.86 124.86C1040.86 124.68 1040.86 124.554 1040.86 124.41C1040.86 122.178 1039.64 119.64 1036.18 119.64C1033.32 119.64 1031.48 121.728 1031.48 124.482C1031.48 126.876 1032.96 129.252 1036.23 129.252C1038.95 129.252 1040.25 127.776 1040.73 126.408H1039.02C1038.54 127.308 1037.75 127.884 1036.32 127.884C1034.47 127.884 1033.3 126.606 1033.19 124.86H1040.86ZM1033.23 123.636C1033.39 122.142 1034.31 120.972 1036.18 120.972C1038.43 120.972 1039.01 122.556 1039.08 123.636H1033.23ZM1044.78 129V115.482H1043.05V129H1044.78ZM1052.62 129.252C1055.09 129.252 1057.14 127.272 1057.14 124.302C1057.14 121.656 1055.36 119.64 1052.91 119.64C1051 119.64 1049.94 120.522 1049.4 121.476C1049.4 120.774 1049.38 120.162 1049.34 119.892H1047.67C1047.69 120.648 1047.69 121.422 1047.69 122.178V132.996H1049.4V127.668C1049.88 128.442 1050.73 129.252 1052.62 129.252ZM1052.35 127.812C1050.35 127.812 1049.34 126.408 1049.34 124.5C1049.34 122.592 1050.28 121.08 1052.39 121.08C1054.44 121.08 1055.37 122.754 1055.37 124.374C1055.37 126.192 1054.37 127.812 1052.35 127.812ZM145.846 141.892H144.136V146.014C144.136 148.678 143.29 149.812 141.328 149.812C139.69 149.812 139.15 148.606 139.15 147.238V141.892H137.44V147.544C137.44 150.208 138.934 151.252 140.86 151.252C142.858 151.252 143.686 150.496 144.136 149.47C144.136 150.118 144.172 150.748 144.208 151H145.846C145.828 150.118 145.846 149.236 145.846 148.354V141.892ZM147.879 148.246C148.203 150.136 149.751 151.252 152.397 151.252C155.349 151.252 156.591 150.046 156.591 148.408C156.591 147.058 155.943 145.996 152.523 145.528C150.435 145.258 150.021 144.862 150.021 144.178C150.021 143.656 150.363 142.936 152.055 142.936C154.053 142.936 154.431 143.818 154.575 144.376H156.285C156.195 143.278 155.313 141.64 152.145 141.64C149.247 141.64 148.293 143.152 148.293 144.322C148.293 145.456 148.905 146.572 152.109 146.986C154.413 147.256 154.881 147.778 154.881 148.534C154.881 149.344 154.251 149.956 152.505 149.956C150.867 149.956 149.931 149.326 149.607 148.246H147.879ZM162.989 143.242H164.789V148.462C164.789 150.244 165.365 151.09 167.255 151.09C167.777 151.09 168.245 151.072 168.659 150.928V149.668C168.389 149.74 168.029 149.74 167.759 149.74C166.769 149.74 166.499 149.272 166.499 148.228V143.242H168.875V141.892H166.499V138.958H164.789V141.892H162.989V143.242ZM174.893 141.64C171.815 141.64 169.997 143.854 169.997 146.464C169.997 148.984 171.725 151.252 174.803 151.252C178.061 151.252 179.699 148.984 179.699 146.446C179.699 144.034 178.043 141.64 174.893 141.64ZM174.821 143.044C176.837 143.044 177.935 144.646 177.935 146.482C177.935 148.3 176.945 149.866 174.857 149.866C172.859 149.866 171.743 148.192 171.743 146.464C171.743 144.628 172.751 143.044 174.821 143.044ZM195.662 141.892H193.952V146.014C193.952 148.678 193.106 149.812 191.144 149.812C189.506 149.812 188.966 148.606 188.966 147.238V141.892H187.256V147.544C187.256 150.208 188.75 151.252 190.676 151.252C192.674 151.252 193.502 150.496 193.952 149.47C193.952 150.118 193.988 150.748 194.024 151H195.662C195.644 150.118 195.662 149.236 195.662 148.354V141.892ZM198.559 151H200.287V146.644C200.287 144.538 201.223 143.08 203.113 143.08C204.805 143.08 205.381 144.268 205.381 145.78V151H207.109V145.456C207.109 142.972 205.723 141.64 203.581 141.64C201.619 141.64 200.683 142.702 200.287 143.584C200.269 142.972 200.251 142.216 200.215 141.892H198.541C198.559 142.576 198.559 143.422 198.559 144.196V151ZM217.095 137.482V143.044C216.843 142.612 216.105 141.64 213.963 141.64C211.587 141.64 209.337 143.53 209.337 146.536C209.337 149.29 211.119 151.252 213.747 151.252C215.853 151.252 216.645 150.406 217.095 149.614C217.095 150.082 217.113 150.622 217.167 151H218.841C218.823 150.136 218.823 149.236 218.823 148.354V137.482H217.095ZM214.179 143.08C216.465 143.08 217.167 144.412 217.167 146.428C217.167 148.426 216.285 149.83 214.107 149.83C212.127 149.83 211.101 148.174 211.101 146.5C211.101 144.772 212.109 143.08 214.179 143.08ZM230.439 146.86C230.439 146.68 230.439 146.554 230.439 146.41C230.439 144.178 229.215 141.64 225.759 141.64C222.897 141.64 221.061 143.728 221.061 146.482C221.061 148.876 222.537 151.252 225.813 151.252C228.531 151.252 229.827 149.776 230.313 148.408H228.603C228.117 149.308 227.325 149.884 225.903 149.884C224.049 149.884 222.879 148.606 222.771 146.86H230.439ZM222.807 145.636C222.969 144.142 223.887 142.972 225.759 142.972C228.009 142.972 228.585 144.556 228.657 145.636H222.807ZM232.696 151H234.406V147.202C234.406 144.52 235.99 143.26 238.096 143.296V141.658C236.314 141.64 235 142.558 234.406 143.944C234.406 143.134 234.37 142.162 234.334 141.892H232.678C232.696 142.72 232.696 143.548 232.696 144.376V151ZM239.215 148.246C239.539 150.136 241.087 151.252 243.733 151.252C246.685 151.252 247.927 150.046 247.927 148.408C247.927 147.058 247.279 145.996 243.859 145.528C241.771 145.258 241.357 144.862 241.357 144.178C241.357 143.656 241.699 142.936 243.391 142.936C245.389 142.936 245.767 143.818 245.911 144.376H247.621C247.531 143.278 246.649 141.64 243.481 141.64C240.583 141.64 239.629 143.152 239.629 144.322C239.629 145.456 240.241 146.572 243.445 146.986C245.749 147.256 246.217 147.778 246.217 148.534C246.217 149.344 245.587 149.956 243.841 149.956C242.203 149.956 241.267 149.326 240.943 148.246H239.215ZM248.876 143.242H250.676V148.462C250.676 150.244 251.252 151.09 253.142 151.09C253.664 151.09 254.132 151.072 254.546 150.928V149.668C254.276 149.74 253.916 149.74 253.646 149.74C252.656 149.74 252.386 149.272 252.386 148.228V143.242H254.762V141.892H252.386V138.958H250.676V141.892H248.876V143.242ZM264.682 144.772C264.682 143.26 263.944 141.64 260.632 141.64C257.5 141.64 256.69 143.35 256.582 144.556H258.292C258.472 143.71 258.886 142.954 260.632 142.954C262.576 142.954 262.99 143.872 262.99 144.88V145.348C262.684 145.348 261.874 145.348 260.776 145.348C258.184 145.348 256.06 145.996 256.06 148.336C256.06 149.704 257.014 151.252 259.588 151.252C261.514 151.252 262.54 150.622 263.026 149.668C263.026 149.974 263.062 150.676 263.134 151H264.754C264.736 150.802 264.682 149.65 264.682 148.75V144.772ZM262.99 146.968C262.99 148.498 262.342 149.92 259.93 149.92C258.418 149.92 257.752 149.146 257.752 148.246C257.752 147.022 258.724 146.572 260.812 146.572C262.108 146.572 262.72 146.572 262.99 146.572V146.968ZM267.676 151H269.404V146.644C269.404 144.538 270.34 143.08 272.23 143.08C273.922 143.08 274.498 144.268 274.498 145.78V151H276.226V145.456C276.226 142.972 274.84 141.64 272.698 141.64C270.736 141.64 269.8 142.702 269.404 143.584C269.386 142.972 269.368 142.216 269.332 141.892H267.658C267.676 142.576 267.676 143.422 267.676 144.196V151ZM286.212 137.482V143.044C285.96 142.612 285.222 141.64 283.08 141.64C280.704 141.64 278.454 143.53 278.454 146.536C278.454 149.29 280.236 151.252 282.864 151.252C284.97 151.252 285.762 150.406 286.212 149.614C286.212 150.082 286.23 150.622 286.284 151H287.958C287.94 150.136 287.94 149.236 287.94 148.354V137.482H286.212ZM283.296 143.08C285.582 143.08 286.284 144.412 286.284 146.428C286.284 148.426 285.402 149.83 283.224 149.83C281.244 149.83 280.218 148.174 280.218 146.5C280.218 144.772 281.226 143.08 283.296 143.08ZM295.018 143.242H296.818V148.462C296.818 150.244 297.394 151.09 299.284 151.09C299.806 151.09 300.274 151.072 300.688 150.928V149.668C300.418 149.74 300.058 149.74 299.788 149.74C298.798 149.74 298.528 149.272 298.528 148.228V143.242H300.904V141.892H298.528V138.958H296.818V141.892H295.018V143.242ZM302.85 137.482V151H304.578V146.536C304.578 144.628 305.496 143.08 307.422 143.08C309.114 143.08 309.672 144.232 309.672 145.762V151H311.382V145.51C311.382 142.918 310.014 141.64 307.926 141.64C305.73 141.64 304.884 142.864 304.56 143.53V137.482H302.85ZM323.006 146.86C323.006 146.68 323.006 146.554 323.006 146.41C323.006 144.178 321.782 141.64 318.326 141.64C315.464 141.64 313.628 143.728 313.628 146.482C313.628 148.876 315.104 151.252 318.38 151.252C321.098 151.252 322.394 149.776 322.88 148.408H321.17C320.684 149.308 319.892 149.884 318.47 149.884C316.616 149.884 315.446 148.606 315.338 146.86H323.006ZM315.374 145.636C315.536 144.142 316.454 142.972 318.326 142.972C320.576 142.972 321.152 144.556 321.224 145.636H315.374ZM337.394 148.156C336.944 149.2 336.134 149.866 334.658 149.866C332.678 149.866 331.598 148.354 331.598 146.446C331.598 144.466 332.732 143.026 334.64 143.026C336.35 143.026 337.07 143.962 337.376 144.808H339.086C338.888 143.602 337.736 141.64 334.676 141.64C331.616 141.64 329.852 143.89 329.852 146.482C329.852 149.074 331.418 151.252 334.64 151.252C337.232 151.252 338.672 149.812 339.122 148.156H337.394ZM349.594 141.892H347.884V146.014C347.884 148.678 347.038 149.812 345.076 149.812C343.438 149.812 342.898 148.606 342.898 147.238V141.892H341.188V147.544C341.188 150.208 342.682 151.252 344.608 151.252C346.606 151.252 347.434 150.496 347.884 149.47C347.884 150.118 347.92 150.748 347.956 151H349.594C349.576 150.118 349.594 149.236 349.594 148.354V141.892ZM352.509 151H354.219V147.202C354.219 144.52 355.803 143.26 357.909 143.296V141.658C356.127 141.64 354.813 142.558 354.219 143.944C354.219 143.134 354.183 142.162 354.147 141.892H352.491C352.509 142.72 352.509 143.548 352.509 144.376V151ZM359.698 151H361.408V147.202C361.408 144.52 362.992 143.26 365.098 143.296V141.658C363.316 141.64 362.002 142.558 361.408 143.944C361.408 143.134 361.372 142.162 361.336 141.892H359.68C359.698 142.72 359.698 143.548 359.698 144.376V151ZM375.459 146.86C375.459 146.68 375.459 146.554 375.459 146.41C375.459 144.178 374.235 141.64 370.779 141.64C367.917 141.64 366.081 143.728 366.081 146.482C366.081 148.876 367.557 151.252 370.833 151.252C373.551 151.252 374.847 149.776 375.333 148.408H373.623C373.137 149.308 372.345 149.884 370.923 149.884C369.069 149.884 367.899 148.606 367.791 146.86H375.459ZM367.827 145.636C367.989 144.142 368.907 142.972 370.779 142.972C373.029 142.972 373.605 144.556 373.677 145.636H367.827ZM377.698 151H379.426V146.644C379.426 144.538 380.362 143.08 382.252 143.08C383.944 143.08 384.52 144.268 384.52 145.78V151H386.248V145.456C386.248 142.972 384.862 141.64 382.72 141.64C380.758 141.64 379.822 142.702 379.426 143.584C379.408 142.972 379.39 142.216 379.354 141.892H377.68C377.698 142.576 377.698 143.422 377.698 144.196V151ZM387.796 143.242H389.596V148.462C389.596 150.244 390.172 151.09 392.062 151.09C392.584 151.09 393.052 151.072 393.466 150.928V149.668C393.196 149.74 392.836 149.74 392.566 149.74C391.576 149.74 391.306 149.272 391.306 148.228V143.242H393.682V141.892H391.306V138.958H389.596V141.892H387.796V143.242ZM400.108 148.246C400.432 150.136 401.98 151.252 404.626 151.252C407.578 151.252 408.82 150.046 408.82 148.408C408.82 147.058 408.172 145.996 404.752 145.528C402.664 145.258 402.25 144.862 402.25 144.178C402.25 143.656 402.592 142.936 404.284 142.936C406.282 142.936 406.66 143.818 406.804 144.376H408.514C408.424 143.278 407.542 141.64 404.374 141.64C401.476 141.64 400.522 143.152 400.522 144.322C400.522 145.456 401.134 146.572 404.338 146.986C406.642 147.256 407.11 147.778 407.11 148.534C407.11 149.344 406.48 149.956 404.734 149.956C403.096 149.956 402.16 149.326 401.836 148.246H400.108ZM409.768 143.242H411.568V148.462C411.568 150.244 412.144 151.09 414.034 151.09C414.556 151.09 415.024 151.072 415.438 150.928V149.668C415.168 149.74 414.808 149.74 414.538 149.74C413.548 149.74 413.278 149.272 413.278 148.228V143.242H415.654V141.892H413.278V138.958H411.568V141.892H409.768V143.242ZM425.575 144.772C425.575 143.26 424.837 141.64 421.525 141.64C418.393 141.64 417.583 143.35 417.475 144.556H419.185C419.365 143.71 419.779 142.954 421.525 142.954C423.469 142.954 423.883 143.872 423.883 144.88V145.348C423.577 145.348 422.767 145.348 421.669 145.348C419.077 145.348 416.953 145.996 416.953 148.336C416.953 149.704 417.907 151.252 420.481 151.252C422.407 151.252 423.433 150.622 423.919 149.668C423.919 149.974 423.955 150.676 424.027 151H425.647C425.629 150.802 425.575 149.65 425.575 148.75V144.772ZM423.883 146.968C423.883 148.498 423.235 149.92 420.823 149.92C419.311 149.92 418.645 149.146 418.645 148.246C418.645 147.022 419.617 146.572 421.705 146.572C423.001 146.572 423.613 146.572 423.883 146.572V146.968ZM427.083 143.242H428.883V148.462C428.883 150.244 429.459 151.09 431.349 151.09C431.871 151.09 432.339 151.072 432.753 150.928V149.668C432.483 149.74 432.123 149.74 431.853 149.74C430.863 149.74 430.593 149.272 430.593 148.228V143.242H432.969V141.892H430.593V138.958H428.883V141.892H427.083V143.242ZM443.468 146.86C443.468 146.68 443.468 146.554 443.468 146.41C443.468 144.178 442.244 141.64 438.788 141.64C435.926 141.64 434.09 143.728 434.09 146.482C434.09 148.876 435.566 151.252 438.842 151.252C441.56 151.252 442.856 149.776 443.342 148.408H441.632C441.146 149.308 440.354 149.884 438.932 149.884C437.078 149.884 435.908 148.606 435.8 146.86H443.468ZM435.836 145.636C435.998 144.142 436.916 142.972 438.788 142.972C441.038 142.972 441.614 144.556 441.686 145.636H435.836ZM455.211 141.64C452.133 141.64 450.315 143.854 450.315 146.464C450.315 148.984 452.043 151.252 455.121 151.252C458.379 151.252 460.017 148.984 460.017 146.446C460.017 144.034 458.361 141.64 455.211 141.64ZM455.139 143.044C457.155 143.044 458.253 144.646 458.253 146.482C458.253 148.3 457.263 149.866 455.175 149.866C453.177 149.866 452.061 148.192 452.061 146.464C452.061 144.628 453.069 143.044 455.139 143.044ZM464.517 151V143.242H466.641V141.892H464.517V140.758C464.517 139.3 464.877 138.76 466.083 138.76C466.317 138.76 466.659 138.796 466.911 138.85V137.446C466.659 137.374 466.281 137.338 465.831 137.338C463.707 137.338 462.789 138.598 462.789 140.668V141.892H461.097V143.242H462.789V151H464.517ZM472.293 141.892L476.505 151.432C475.677 153.214 475.209 153.718 473.985 153.718C473.751 153.718 473.337 153.7 472.977 153.646V155.158C473.301 155.212 473.841 155.248 474.165 155.248C476.451 155.248 477.045 154.456 478.665 150.55L482.229 141.892H480.447C478.719 146.176 477.783 148.804 477.459 149.686H477.441C477.171 148.93 476.109 146.374 474.183 141.892H472.293ZM488.117 141.64C485.039 141.64 483.221 143.854 483.221 146.464C483.221 148.984 484.949 151.252 488.027 151.252C491.285 151.252 492.923 148.984 492.923 146.446C492.923 144.034 491.267 141.64 488.117 141.64ZM488.045 143.044C490.061 143.044 491.159 144.646 491.159 146.482C491.159 148.3 490.169 149.866 488.081 149.866C486.083 149.866 484.967 148.192 484.967 146.464C484.967 144.628 485.975 143.044 488.045 143.044ZM503.543 141.892H501.833V146.014C501.833 148.678 500.987 149.812 499.025 149.812C497.387 149.812 496.847 148.606 496.847 147.238V141.892H495.137V147.544C495.137 150.208 496.631 151.252 498.557 151.252C500.555 151.252 501.383 150.496 501.833 149.47C501.833 150.118 501.869 150.748 501.905 151H503.543C503.525 150.118 503.543 149.236 503.543 148.354V141.892ZM506.458 151H508.168V147.202C508.168 144.52 509.752 143.26 511.858 143.296V141.658C510.076 141.64 508.762 142.558 508.168 143.944C508.168 143.134 508.132 142.162 508.096 141.892H506.44C506.458 142.72 506.458 143.548 506.458 144.376V151ZM518.956 147.868C518.956 148.912 518.956 149.848 518.938 151H520.594C520.612 150.694 520.63 150.046 520.63 149.596C521.098 150.424 521.998 151.252 523.942 151.252C526.534 151.252 528.442 149.344 528.442 146.302C528.442 143.638 526.606 141.64 524.05 141.64C522.106 141.64 521.134 142.594 520.684 143.314V137.482H518.956V147.868ZM523.69 149.812C521.8 149.812 520.612 148.516 520.612 146.446C520.612 144.538 521.602 143.08 523.672 143.08C525.796 143.08 526.678 144.808 526.678 146.356C526.678 148.156 525.814 149.812 523.69 149.812ZM539.069 141.892H537.359V146.014C537.359 148.678 536.513 149.812 534.551 149.812C532.913 149.812 532.373 148.606 532.373 147.238V141.892H530.663V147.544C530.663 150.208 532.157 151.252 534.083 151.252C536.081 151.252 536.909 150.496 537.359 149.47C537.359 150.118 537.395 150.748 537.431 151H539.069C539.051 150.118 539.069 149.236 539.069 148.354V141.892ZM541.102 148.246C541.426 150.136 542.974 151.252 545.62 151.252C548.572 151.252 549.814 150.046 549.814 148.408C549.814 147.058 549.166 145.996 545.746 145.528C543.658 145.258 543.244 144.862 543.244 144.178C543.244 143.656 543.586 142.936 545.278 142.936C547.276 142.936 547.654 143.818 547.798 144.376H549.508C549.418 143.278 548.536 141.64 545.368 141.64C542.47 141.64 541.516 143.152 541.516 144.322C541.516 145.456 542.128 146.572 545.332 146.986C547.636 147.256 548.104 147.778 548.104 148.534C548.104 149.344 547.474 149.956 545.728 149.956C544.09 149.956 543.154 149.326 542.83 148.246H541.102ZM552.056 151H553.766V141.892H552.056V151ZM552.056 139.534H553.766V137.482H552.056V139.534ZM556.661 151H558.389V146.644C558.389 144.538 559.325 143.08 561.215 143.08C562.907 143.08 563.483 144.268 563.483 145.78V151H565.211V145.456C565.211 142.972 563.825 141.64 561.683 141.64C559.721 141.64 558.785 142.702 558.389 143.584C558.371 142.972 558.353 142.216 558.317 141.892H556.643C556.661 142.576 556.661 143.422 556.661 144.196V151ZM576.816 146.86C576.816 146.68 576.816 146.554 576.816 146.41C576.816 144.178 575.592 141.64 572.136 141.64C569.274 141.64 567.438 143.728 567.438 146.482C567.438 148.876 568.914 151.252 572.19 151.252C574.908 151.252 576.204 149.776 576.69 148.408H574.98C574.494 149.308 573.702 149.884 572.28 149.884C570.426 149.884 569.256 148.606 569.148 146.86H576.816ZM569.184 145.636C569.346 144.142 570.264 142.972 572.136 142.972C574.386 142.972 574.962 144.556 575.034 145.636H569.184ZM578.332 148.246C578.656 150.136 580.204 151.252 582.85 151.252C585.802 151.252 587.044 150.046 587.044 148.408C587.044 147.058 586.396 145.996 582.976 145.528C580.888 145.258 580.474 144.862 580.474 144.178C580.474 143.656 580.816 142.936 582.508 142.936C584.506 142.936 584.884 143.818 585.028 144.376H586.738C586.648 143.278 585.766 141.64 582.598 141.64C579.7 141.64 578.746 143.152 578.746 144.322C578.746 145.456 579.358 146.572 582.562 146.986C584.866 147.256 585.334 147.778 585.334 148.534C585.334 149.344 584.704 149.956 582.958 149.956C581.32 149.956 580.384 149.326 580.06 148.246H578.332ZM588.528 148.246C588.852 150.136 590.4 151.252 593.046 151.252C595.998 151.252 597.24 150.046 597.24 148.408C597.24 147.058 596.592 145.996 593.172 145.528C591.084 145.258 590.67 144.862 590.67 144.178C590.67 143.656 591.012 142.936 592.704 142.936C594.702 142.936 595.08 143.818 595.224 144.376H596.934C596.844 143.278 595.962 141.64 592.794 141.64C589.896 141.64 588.942 143.152 588.942 144.322C588.942 145.456 589.554 146.572 592.758 146.986C595.062 147.256 595.53 147.778 595.53 148.534C595.53 149.344 594.9 149.956 593.154 149.956C591.516 149.956 590.58 149.326 590.256 148.246H588.528ZM601.291 151V148.066H599.401V151H601.291Z" fill="#F7F7F3"/>
<path d="M32.9984 441H38.5664C40.7744 441 42.6464 439.96 42.6464 437.688C42.6464 435.928 41.3664 435.192 40.3264 434.92C41.2224 434.664 42.1824 433.912 42.1824 432.504C42.1824 430.728 40.9024 429.64 38.4704 429.64H32.9984V441ZM34.5824 434.328V430.952H38.1344C39.4464 430.952 40.5024 431.336 40.5024 432.648C40.5024 433.752 39.7024 434.328 38.0704 434.328H34.5824ZM34.5824 435.624H38.0544C39.8624 435.624 40.9344 436.312 40.9344 437.688C40.9344 439.304 39.5424 439.704 38.1984 439.704H34.5824V435.624ZM44.6476 441H46.1676V437.624C46.1676 435.24 47.5756 434.12 49.4476 434.152V432.696C47.8636 432.68 46.6956 433.496 46.1676 434.728C46.1676 434.008 46.1356 433.144 46.1036 432.904H44.6316C44.6476 433.64 44.6476 434.376 44.6476 435.112V441ZM57.8762 435.464C57.8762 434.12 57.2202 432.68 54.2762 432.68C51.4922 432.68 50.7722 434.2 50.6762 435.272H52.1962C52.3562 434.52 52.7242 433.848 54.2762 433.848C56.0042 433.848 56.3722 434.664 56.3722 435.56V435.976C56.1002 435.976 55.3802 435.976 54.4042 435.976C52.1002 435.976 50.2122 436.552 50.2122 438.632C50.2122 439.848 51.0602 441.224 53.3482 441.224C55.0602 441.224 55.9722 440.664 56.4042 439.816C56.4042 440.088 56.4362 440.712 56.5002 441H57.9402C57.9242 440.824 57.8762 439.8 57.8762 439V435.464ZM56.3722 437.416C56.3722 438.776 55.7962 440.04 53.6522 440.04C52.3082 440.04 51.7162 439.352 51.7162 438.552C51.7162 437.464 52.5802 437.064 54.4362 437.064C55.5882 437.064 56.1322 437.064 56.3722 437.064V437.416ZM60.5378 441H62.0738V437.128C62.0738 435.256 62.9058 433.96 64.5858 433.96C66.0898 433.96 66.6018 435.016 66.6018 436.36V441H68.1378V436.072C68.1378 433.864 66.9058 432.68 65.0018 432.68C63.2578 432.68 62.4258 433.624 62.0738 434.408C62.0578 433.864 62.0418 433.192 62.0098 432.904H60.5218C60.5378 433.512 60.5378 434.264 60.5378 434.952V441ZM77.0137 428.984V433.928C76.7897 433.544 76.1337 432.68 74.2297 432.68C72.1177 432.68 70.1177 434.36 70.1177 437.032C70.1177 439.48 71.7017 441.224 74.0377 441.224C75.9097 441.224 76.6137 440.472 77.0137 439.768C77.0137 440.184 77.0297 440.664 77.0777 441H78.5657C78.5497 440.232 78.5497 439.432 78.5497 438.648V428.984H77.0137ZM74.4217 433.96C76.4537 433.96 77.0777 435.144 77.0777 436.936C77.0777 438.712 76.2937 439.96 74.3577 439.96C72.5977 439.96 71.6857 438.488 71.6857 437C71.6857 435.464 72.5817 433.96 74.4217 433.96ZM85.8819 441H87.4019V432.904H85.8819V441ZM85.8819 430.808H87.4019V428.984H85.8819V430.808ZM96.2793 428.984V433.928C96.0553 433.544 95.3993 432.68 93.4953 432.68C91.3833 432.68 89.3833 434.36 89.3833 437.032C89.3833 439.48 90.9673 441.224 93.3033 441.224C95.1753 441.224 95.8793 440.472 96.2793 439.768C96.2793 440.184 96.2953 440.664 96.3433 441H97.8313C97.8153 440.232 97.8153 439.432 97.8153 438.648V428.984H96.2793ZM93.6873 433.96C95.7193 433.96 96.3433 435.144 96.3433 436.936C96.3433 438.712 95.5593 439.96 93.6233 439.96C91.8633 439.96 90.9513 438.488 90.9513 437C90.9513 435.464 91.8473 433.96 93.6873 433.96ZM108.141 437.32C108.141 437.16 108.141 437.048 108.141 436.92C108.141 434.936 107.053 432.68 103.981 432.68C101.437 432.68 99.8052 434.536 99.8052 436.984C99.8052 439.112 101.117 441.224 104.029 441.224C106.445 441.224 107.597 439.912 108.029 438.696H106.509C106.077 439.496 105.373 440.008 104.109 440.008C102.461 440.008 101.421 438.872 101.325 437.32H108.141ZM101.357 436.232C101.501 434.904 102.317 433.864 103.981 433.864C105.981 433.864 106.493 435.272 106.557 436.232H101.357ZM110.132 441H111.668V437.128C111.668 435.256 112.5 433.96 114.18 433.96C115.684 433.96 116.196 435.016 116.196 436.36V441H117.732V436.072C117.732 433.864 116.5 432.68 114.596 432.68C112.852 432.68 112.02 433.624 111.668 434.408C111.652 433.864 111.636 433.192 111.604 432.904H110.116C110.132 433.512 110.132 434.264 110.132 434.952V441ZM119.108 434.104H120.708V438.744C120.708 440.328 121.22 441.08 122.9 441.08C123.364 441.08 123.78 441.064 124.148 440.936V439.816C123.908 439.88 123.588 439.88 123.348 439.88C122.468 439.88 122.228 439.464 122.228 438.536V434.104H124.34V432.904H122.228V430.296H120.708V432.904H119.108V434.104ZM126.132 441H127.652V432.904H126.132V441ZM126.132 430.808H127.652V428.984H126.132V430.808ZM129.373 434.104H130.973V438.744C130.973 440.328 131.485 441.08 133.165 441.08C133.629 441.08 134.045 441.064 134.413 440.936V439.816C134.173 439.88 133.853 439.88 133.613 439.88C132.733 439.88 132.493 439.464 132.493 438.536V434.104H134.605V432.904H132.493V430.296H130.973V432.904H129.373V434.104ZM135.513 432.904L139.257 441.384C138.521 442.968 138.105 443.416 137.017 443.416C136.809 443.416 136.441 443.4 136.121 443.352V444.696C136.409 444.744 136.889 444.776 137.177 444.776C139.209 444.776 139.737 444.072 141.177 440.6L144.345 432.904H142.761C141.225 436.712 140.393 439.048 140.105 439.832H140.089C139.849 439.16 138.905 436.888 137.193 432.904H135.513Z" fill="#F7F7F3"/>
<path d="M257.854 441H259.422V429.64H257.086C255.646 433.128 253.694 437.656 253.15 439.064H253.134C252.798 438.024 250.862 433.368 249.31 429.64H247.006V441H248.494V436.392C248.494 434.472 248.43 432.072 248.334 430.776H248.35C248.974 432.568 251.134 437.816 252.35 441H253.742C255.374 437.096 257.342 432.472 257.902 430.76H257.918C257.854 431.944 257.854 433.992 257.854 436.104V441ZM269.852 437.32C269.852 437.16 269.852 437.048 269.852 436.92C269.852 434.936 268.764 432.68 265.692 432.68C263.148 432.68 261.516 434.536 261.516 436.984C261.516 439.112 262.828 441.224 265.74 441.224C268.156 441.224 269.308 439.912 269.74 438.696H268.22C267.788 439.496 267.084 440.008 265.82 440.008C264.172 440.008 263.132 438.872 263.036 437.32H269.852ZM263.068 436.232C263.212 434.904 264.028 433.864 265.692 433.864C267.692 433.864 268.204 435.272 268.268 436.232H263.068ZM278.256 428.984V433.928C278.032 433.544 277.376 432.68 275.472 432.68C273.36 432.68 271.36 434.36 271.36 437.032C271.36 439.48 272.944 441.224 275.28 441.224C277.152 441.224 277.856 440.472 278.256 439.768C278.256 440.184 278.272 440.664 278.32 441H279.808C279.792 440.232 279.792 439.432 279.792 438.648V428.984H278.256ZM275.664 433.96C277.696 433.96 278.32 435.144 278.32 436.936C278.32 438.712 277.536 439.96 275.6 439.96C273.84 439.96 272.928 438.488 272.928 437C272.928 435.464 273.824 433.96 275.664 433.96ZM282.437 441H283.957V432.904H282.437V441ZM282.437 430.808H283.957V428.984H282.437V430.808ZM293.665 435.464C293.665 434.12 293.009 432.68 290.065 432.68C287.281 432.68 286.561 434.2 286.465 435.272H287.985C288.145 434.52 288.513 433.848 290.065 433.848C291.793 433.848 292.161 434.664 292.161 435.56V435.976C291.889 435.976 291.169 435.976 290.193 435.976C287.889 435.976 286.001 436.552 286.001 438.632C286.001 439.848 286.849 441.224 289.137 441.224C290.849 441.224 291.761 440.664 292.193 439.816C292.193 440.088 292.225 440.712 292.289 441H293.729C293.713 440.824 293.665 439.8 293.665 439V435.464ZM292.161 437.416C292.161 438.776 291.585 440.04 289.441 440.04C288.097 440.04 287.505 439.352 287.505 438.552C287.505 437.464 288.369 437.064 290.225 437.064C291.377 437.064 291.921 437.064 292.161 437.064V437.416ZM300.999 441H302.519V436.68C302.519 435.144 303.111 433.944 304.631 433.944C306.071 433.944 306.391 435.032 306.391 435.992V441H307.911V436.568C307.911 434.824 308.743 433.944 310.039 433.944C311.479 433.944 311.783 435.112 311.783 436.056V441H313.287V436.008C313.287 433.608 311.991 432.68 310.391 432.68C308.791 432.68 308.039 433.544 307.607 434.232C307.255 433.32 306.455 432.68 305.127 432.68C303.703 432.68 302.919 433.432 302.503 434.12C302.519 433.704 302.503 433.24 302.455 432.904H300.983C300.999 433.608 300.999 434.296 300.999 435V441ZM322.9 435.464C322.9 434.12 322.244 432.68 319.3 432.68C316.516 432.68 315.796 434.2 315.7 435.272H317.22C317.38 434.52 317.748 433.848 319.3 433.848C321.028 433.848 321.396 434.664 321.396 435.56V435.976C321.124 435.976 320.404 435.976 319.428 435.976C317.124 435.976 315.236 436.552 315.236 438.632C315.236 439.848 316.084 441.224 318.372 441.224C320.084 441.224 320.996 440.664 321.428 439.816C321.428 440.088 321.46 440.712 321.524 441H322.964C322.948 440.824 322.9 439.8 322.9 439V435.464ZM321.396 437.416C321.396 438.776 320.82 440.04 318.676 440.04C317.332 440.04 316.74 439.352 316.74 438.552C316.74 437.464 317.604 437.064 319.46 437.064C320.612 437.064 321.156 437.064 321.396 437.064V437.416ZM325.577 441H327.097V437.624C327.097 435.24 328.505 434.12 330.377 434.152V432.696C328.793 432.68 327.625 433.496 327.097 434.728C327.097 434.008 327.065 433.144 327.033 432.904H325.561C325.577 433.64 325.577 434.376 325.577 435.112V441ZM333.707 428.984H332.171V441H333.707V438.136L335.227 436.92L338.555 441H340.491L336.347 436.056L340.091 432.904H338.171C336.907 434.008 334.555 436.008 333.707 436.792V428.984ZM349.258 437.32C349.258 437.16 349.258 437.048 349.258 436.92C349.258 434.936 348.17 432.68 345.098 432.68C342.554 432.68 340.922 434.536 340.922 436.984C340.922 439.112 342.234 441.224 345.146 441.224C347.562 441.224 348.714 439.912 349.146 438.696H347.626C347.194 439.496 346.49 440.008 345.226 440.008C343.578 440.008 342.538 438.872 342.442 437.32H349.258ZM342.474 436.232C342.618 434.904 343.434 433.864 345.098 433.864C347.098 433.864 347.61 435.272 347.674 436.232H342.474ZM350.178 434.104H351.778V438.744C351.778 440.328 352.29 441.08 353.97 441.08C354.434 441.08 354.85 441.064 355.218 440.936V439.816C354.978 439.88 354.658 439.88 354.418 439.88C353.538 439.88 353.298 439.464 353.298 438.536V434.104H355.41V432.904H353.298V430.296H351.778V432.904H350.178V434.104ZM357.202 441H358.722V432.904H357.202V441ZM357.202 430.808H358.722V428.984H357.202V430.808ZM361.296 441H362.832V437.128C362.832 435.256 363.664 433.96 365.344 433.96C366.848 433.96 367.36 435.016 367.36 436.36V441H368.896V436.072C368.896 433.864 367.664 432.68 365.76 432.68C364.016 432.68 363.184 433.624 362.832 434.408C362.816 433.864 362.8 433.192 362.768 432.904H361.28C361.296 433.512 361.296 434.264 361.296 434.952V441ZM379.276 435.256C379.276 434.472 379.276 433.688 379.292 432.904H377.82C377.804 433.128 377.788 433.768 377.772 434.152C377.532 433.528 376.78 432.68 374.924 432.68C372.748 432.68 370.86 434.472 370.86 437.064C370.86 439.352 372.444 441.144 374.732 441.144C376.412 441.144 377.292 440.536 377.772 439.592V440.024C377.772 442.04 377.388 443.56 375.02 443.56C373.34 443.56 372.748 442.824 372.508 441.992H370.956C371.1 442.952 371.756 444.776 374.94 444.776C378.267 444.776 379.276 443 379.276 439.944V435.256ZM375.196 433.96C376.86 433.96 377.82 435.016 377.82 436.904C377.82 438.824 376.796 439.864 375.116 439.864C373.516 439.864 372.428 438.664 372.428 437C372.428 435.48 373.308 433.96 375.196 433.96Z" fill="#F7F7F3"/>
<path d="M469.936 441C470.88 438.104 472.608 432.808 472.896 431.352H472.912C473.2 432.696 475.008 438.424 475.824 441H477.584L481.36 429.64H479.744C478.88 432.296 477.12 437.72 476.752 439.416H476.736C476.48 438.168 474.624 432.184 473.808 429.64H472.208C471.296 432.392 469.504 437.848 469.2 439.464H469.184C468.944 437.944 467.216 432.44 466.384 429.64H464.688L468.208 441H469.936ZM489.938 437.32C489.938 437.16 489.938 437.048 489.938 436.92C489.938 434.936 488.85 432.68 485.778 432.68C483.234 432.68 481.602 434.536 481.602 436.984C481.602 439.112 482.914 441.224 485.826 441.224C488.242 441.224 489.394 439.912 489.826 438.696H488.306C487.874 439.496 487.17 440.008 485.906 440.008C484.258 440.008 483.218 438.872 483.122 437.32H489.938ZM483.154 436.232C483.298 434.904 484.114 433.864 485.778 433.864C487.778 433.864 488.29 435.272 488.354 436.232H483.154ZM491.882 438.216C491.882 439.144 491.882 439.976 491.866 441H493.338C493.354 440.728 493.37 440.152 493.37 439.752C493.786 440.488 494.586 441.224 496.314 441.224C498.618 441.224 500.314 439.528 500.314 436.824C500.314 434.456 498.682 432.68 496.41 432.68C494.682 432.68 493.818 433.528 493.418 434.168V428.984H491.882V438.216ZM496.09 439.944C494.41 439.944 493.354 438.792 493.354 436.952C493.354 435.256 494.234 433.96 496.074 433.96C497.962 433.96 498.746 435.496 498.746 436.872C498.746 438.472 497.978 439.944 496.09 439.944ZM513.342 428.984V433.928C513.118 433.544 512.462 432.68 510.558 432.68C508.446 432.68 506.446 434.36 506.446 437.032C506.446 439.48 508.03 441.224 510.366 441.224C512.238 441.224 512.942 440.472 513.342 439.768C513.342 440.184 513.358 440.664 513.406 441H514.894C514.878 440.232 514.878 439.432 514.878 438.648V428.984H513.342ZM510.75 433.96C512.782 433.96 513.406 435.144 513.406 436.936C513.406 438.712 512.622 439.96 510.686 439.96C508.926 439.96 508.014 438.488 508.014 437C508.014 435.464 508.91 433.96 510.75 433.96ZM525.204 437.32C525.204 437.16 525.204 437.048 525.204 436.92C525.204 434.936 524.116 432.68 521.044 432.68C518.5 432.68 516.868 434.536 516.868 436.984C516.868 439.112 518.18 441.224 521.092 441.224C523.508 441.224 524.66 439.912 525.092 438.696H523.572C523.14 439.496 522.436 440.008 521.172 440.008C519.524 440.008 518.484 438.872 518.388 437.32H525.204ZM518.42 436.232C518.564 434.904 519.38 433.864 521.044 433.864C523.044 433.864 523.556 435.272 523.62 436.232H518.42ZM526.012 432.904L529.58 441H531.244L534.796 432.904H533.228C531.244 437.544 530.7 438.92 530.476 439.608H530.46C530.156 438.728 528.396 434.776 527.66 432.904H526.012ZM543.907 437.32C543.907 437.16 543.907 437.048 543.907 436.92C543.907 434.936 542.819 432.68 539.747 432.68C537.203 432.68 535.571 434.536 535.571 436.984C535.571 439.112 536.883 441.224 539.795 441.224C542.211 441.224 543.363 439.912 543.795 438.696H542.275C541.843 439.496 541.139 440.008 539.875 440.008C538.227 440.008 537.187 438.872 537.091 437.32H543.907ZM537.123 436.232C537.267 434.904 538.083 433.864 539.747 433.864C541.747 433.864 542.259 435.272 542.323 436.232H537.123ZM547.386 441V428.984H545.85V441H547.386ZM553.72 432.68C550.984 432.68 549.368 434.648 549.368 436.968C549.368 439.208 550.904 441.224 553.64 441.224C556.536 441.224 557.992 439.208 557.992 436.952C557.992 434.808 556.52 432.68 553.72 432.68ZM553.656 433.928C555.448 433.928 556.424 435.352 556.424 436.984C556.424 438.6 555.544 439.992 553.688 439.992C551.912 439.992 550.92 438.504 550.92 436.968C550.92 435.336 551.816 433.928 553.656 433.928ZM564.375 441.224C566.567 441.224 568.391 439.464 568.391 436.824C568.391 434.472 566.807 432.68 564.631 432.68C562.935 432.68 561.991 433.464 561.511 434.312C561.511 433.688 561.495 433.144 561.463 432.904H559.975C559.991 433.576 559.991 434.264 559.991 434.936V444.552H561.511V439.816C561.943 440.504 562.695 441.224 564.375 441.224ZM564.135 439.944C562.359 439.944 561.463 438.696 561.463 437C561.463 435.304 562.295 433.96 564.167 433.96C565.991 433.96 566.823 435.448 566.823 436.888C566.823 438.504 565.927 439.944 564.135 439.944ZM570.382 441H571.902V436.68C571.902 435.144 572.494 433.944 574.014 433.944C575.454 433.944 575.774 435.032 575.774 435.992V441H577.294V436.568C577.294 434.824 578.126 433.944 579.422 433.944C580.862 433.944 581.166 435.112 581.166 436.056V441H582.67V436.008C582.67 433.608 581.374 432.68 579.774 432.68C578.174 432.68 577.422 433.544 576.99 434.232C576.638 433.32 575.838 432.68 574.51 432.68C573.086 432.68 572.302 433.432 571.886 434.12C571.902 433.704 571.886 433.24 571.838 432.904H570.366C570.382 433.608 570.382 434.296 570.382 435V441ZM593.001 437.32C593.001 437.16 593.001 437.048 593.001 436.92C593.001 434.936 591.913 432.68 588.841 432.68C586.297 432.68 584.665 434.536 584.665 436.984C584.665 439.112 585.977 441.224 588.889 441.224C591.305 441.224 592.457 439.912 592.889 438.696H591.369C590.937 439.496 590.233 440.008 588.969 440.008C587.321 440.008 586.281 438.872 586.185 437.32H593.001ZM586.217 436.232C586.361 434.904 587.177 433.864 588.841 433.864C590.841 433.864 591.353 435.272 591.417 436.232H586.217ZM594.991 441H596.527V437.128C596.527 435.256 597.359 433.96 599.039 433.96C600.543 433.96 601.055 435.016 601.055 436.36V441H602.591V436.072C602.591 433.864 601.359 432.68 599.455 432.68C597.711 432.68 596.879 433.624 596.527 434.408C596.511 433.864 596.495 433.192 596.463 432.904H594.975C594.991 433.512 594.991 434.264 594.991 434.952V441ZM603.967 434.104H605.567V438.744C605.567 440.328 606.079 441.08 607.759 441.08C608.223 441.08 608.639 441.064 609.007 440.936V439.816C608.767 439.88 608.447 439.88 608.207 439.88C607.327 439.88 607.087 439.464 607.087 438.536V434.104H609.199V432.904H607.087V430.296H605.567V432.904H603.967V434.104Z" fill="#F7F7F3"/>
<path d="M737.808 429.64V436.2C737.808 439.752 739.792 441.24 742.832 441.24C745.904 441.24 747.84 439.784 747.84 436.088V429.64H746.24V436.104C746.24 438.92 744.976 439.896 742.896 439.896C741.168 439.896 739.424 439.08 739.424 436.104V429.64H737.808ZM750.554 441H752.074V432.904H750.554V441ZM750.554 430.808H752.074V428.984H750.554V430.808ZM755.543 441.816L760.999 429.64H759.559L754.103 441.816H755.543ZM763.246 429.64V436.2C763.246 439.752 765.23 441.24 768.27 441.24C771.342 441.24 773.278 439.784 773.278 436.088V429.64H771.678V436.104C771.678 438.92 770.414 439.896 768.334 439.896C766.606 439.896 764.862 439.08 764.862 436.104V429.64H763.246ZM785.75 441L781.11 435.144L785.494 429.64H783.67L780.23 434.056L780.214 434.072L776.806 429.64H774.87L779.19 435.176L774.678 441H776.534L780.102 436.28H780.15L783.83 441H785.75Z" fill="#F7F7F3"/>
<path d="M911.819 441H917.387C919.595 441 921.467 439.96 921.467 437.688C921.467 435.928 920.187 435.192 919.147 434.92C920.043 434.664 921.003 433.912 921.003 432.504C921.003 430.728 919.723 429.64 917.291 429.64H911.819V441ZM913.403 434.328V430.952H916.955C918.267 430.952 919.323 431.336 919.323 432.648C919.323 433.752 918.523 434.328 916.891 434.328H913.403ZM913.403 435.624H916.875C918.683 435.624 919.755 436.312 919.755 437.688C919.755 439.304 918.363 439.704 917.019 439.704H913.403V435.624ZM923.468 441H924.988V437.624C924.988 435.24 926.396 434.12 928.268 434.152V432.696C926.684 432.68 925.516 433.496 924.988 434.728C924.988 434.008 924.956 433.144 924.924 432.904H923.452C923.468 433.64 923.468 434.376 923.468 435.112V441ZM936.697 435.464C936.697 434.12 936.041 432.68 933.097 432.68C930.312 432.68 929.593 434.2 929.497 435.272H931.017C931.177 434.52 931.545 433.848 933.097 433.848C934.825 433.848 935.193 434.664 935.193 435.56V435.976C934.921 435.976 934.201 435.976 933.225 435.976C930.921 435.976 929.033 436.552 929.033 438.632C929.033 439.848 929.881 441.224 932.169 441.224C933.881 441.224 934.793 440.664 935.225 439.816C935.225 440.088 935.257 440.712 935.321 441H936.76C936.745 440.824 936.697 439.8 936.697 439V435.464ZM935.193 437.416C935.193 438.776 934.617 440.04 932.473 440.04C931.129 440.04 930.537 439.352 930.537 438.552C930.537 437.464 931.401 437.064 933.257 437.064C934.409 437.064 934.953 437.064 935.193 437.064V437.416ZM939.358 441H940.894V437.128C940.894 435.256 941.726 433.96 943.406 433.96C944.91 433.96 945.422 435.016 945.422 436.36V441H946.958V436.072C946.958 433.864 945.726 432.68 943.822 432.68C942.078 432.68 941.246 433.624 940.894 434.408C940.878 433.864 940.862 433.192 940.83 432.904H939.342C939.358 433.512 939.358 434.264 939.358 434.952V441ZM955.834 428.984V433.928C955.61 433.544 954.954 432.68 953.05 432.68C950.938 432.68 948.938 434.36 948.938 437.032C948.938 439.48 950.522 441.224 952.858 441.224C954.73 441.224 955.434 440.472 955.834 439.768C955.834 440.184 955.85 440.664 955.898 441H957.386C957.37 440.232 957.37 439.432 957.37 438.648V428.984H955.834ZM953.242 433.96C955.274 433.96 955.898 435.144 955.898 436.936C955.898 438.712 955.114 439.96 953.178 439.96C951.418 439.96 950.506 438.488 950.506 437C950.506 435.464 951.402 433.96 953.242 433.96ZM970.798 438.472C970.398 439.4 969.678 439.992 968.366 439.992C966.606 439.992 965.646 438.648 965.646 436.952C965.646 435.192 966.654 433.912 968.35 433.912C969.87 433.912 970.51 434.744 970.782 435.496H972.302C972.126 434.424 971.102 432.68 968.382 432.68C965.662 432.68 964.094 434.68 964.094 436.984C964.094 439.288 965.486 441.224 968.35 441.224C970.654 441.224 971.934 439.944 972.334 438.472H970.798ZM978.04 432.68C975.304 432.68 973.688 434.648 973.688 436.968C973.688 439.208 975.224 441.224 977.96 441.224C980.856 441.224 982.312 439.208 982.312 436.952C982.312 434.808 980.84 432.68 978.04 432.68ZM977.976 433.928C979.768 433.928 980.744 435.352 980.744 436.984C980.744 438.6 979.864 439.992 978.008 439.992C976.232 439.992 975.24 438.504 975.24 436.968C975.24 435.336 976.136 433.928 977.976 433.928ZM984.296 441H985.832V437.128C985.832 435.256 986.664 433.96 988.344 433.96C989.848 433.96 990.36 435.016 990.36 436.36V441H991.896V436.072C991.896 433.864 990.664 432.68 988.76 432.68C987.016 432.68 986.184 433.624 985.832 434.408C985.816 433.864 985.8 433.192 985.768 432.904H984.28C984.296 433.512 984.296 434.264 984.296 434.952V441ZM993.622 438.552C993.91 440.232 995.286 441.224 997.638 441.224C1000.26 441.224 1001.37 440.152 1001.37 438.696C1001.37 437.496 1000.79 436.552 997.75 436.136C995.894 435.896 995.526 435.544 995.526 434.936C995.526 434.472 995.83 433.832 997.334 433.832C999.11 433.832 999.446 434.616 999.574 435.112H1001.09C1001.01 434.136 1000.23 432.68 997.414 432.68C994.838 432.68 993.99 434.024 993.99 435.064C993.99 436.072 994.534 437.064 997.382 437.432C999.43 437.672 999.846 438.136 999.846 438.808C999.846 439.528 999.286 440.072 997.734 440.072C996.278 440.072 995.446 439.512 995.158 438.552H993.622ZM1010.53 432.904H1009.01V436.568C1009.01 438.936 1008.26 439.944 1006.52 439.944C1005.06 439.944 1004.58 438.872 1004.58 437.656V432.904H1003.06V437.928C1003.06 440.296 1004.39 441.224 1006.1 441.224C1007.88 441.224 1008.61 440.552 1009.01 439.64C1009.01 440.216 1009.05 440.776 1009.08 441H1010.53C1010.52 440.216 1010.53 439.432 1010.53 438.648V432.904ZM1014.64 441V428.984H1013.11V441H1014.64ZM1016.37 434.104H1017.97V438.744C1017.97 440.328 1018.48 441.08 1020.16 441.08C1020.62 441.08 1021.04 441.064 1021.41 440.936V439.816C1021.17 439.88 1020.85 439.88 1020.61 439.88C1019.73 439.88 1019.49 439.464 1019.49 438.536V434.104H1021.6V432.904H1019.49V430.296H1017.97V432.904H1016.37V434.104ZM1030.42 435.464C1030.42 434.12 1029.76 432.68 1026.82 432.68C1024.03 432.68 1023.31 434.2 1023.22 435.272H1024.74C1024.9 434.52 1025.26 433.848 1026.82 433.848C1028.54 433.848 1028.91 434.664 1028.91 435.56V435.976C1028.64 435.976 1027.92 435.976 1026.94 435.976C1024.64 435.976 1022.75 436.552 1022.75 438.632C1022.75 439.848 1023.6 441.224 1025.89 441.224C1027.6 441.224 1028.51 440.664 1028.94 439.816C1028.94 440.088 1028.98 440.712 1029.04 441H1030.48C1030.46 440.824 1030.42 439.8 1030.42 439V435.464ZM1028.91 437.416C1028.91 438.776 1028.34 440.04 1026.19 440.04C1024.85 440.04 1024.26 439.352 1024.26 438.552C1024.26 437.464 1025.12 437.064 1026.98 437.064C1028.13 437.064 1028.67 437.064 1028.91 437.064V437.416ZM1031.76 434.104H1033.36V438.744C1033.36 440.328 1033.87 441.08 1035.55 441.08C1036.01 441.08 1036.43 441.064 1036.8 440.936V439.816C1036.56 439.88 1036.24 439.88 1036 439.88C1035.12 439.88 1034.88 439.464 1034.88 438.536V434.104H1036.99V432.904H1034.88V430.296H1033.36V432.904H1031.76V434.104ZM1038.78 441H1040.3V432.904H1038.78V441ZM1038.78 430.808H1040.3V428.984H1038.78V430.808ZM1046.63 432.68C1043.9 432.68 1042.28 434.648 1042.28 436.968C1042.28 439.208 1043.82 441.224 1046.55 441.224C1049.45 441.224 1050.91 439.208 1050.91 436.952C1050.91 434.808 1049.43 432.68 1046.63 432.68ZM1046.57 433.928C1048.36 433.928 1049.34 435.352 1049.34 436.984C1049.34 438.6 1048.46 439.992 1046.6 439.992C1044.83 439.992 1043.83 438.504 1043.83 436.968C1043.83 435.336 1044.73 433.928 1046.57 433.928ZM1052.89 441H1054.43V437.128C1054.43 435.256 1055.26 433.96 1056.94 433.96C1058.44 433.96 1058.95 435.016 1058.95 436.36V441H1060.49V436.072C1060.49 433.864 1059.26 432.68 1057.35 432.68C1055.61 432.68 1054.78 433.624 1054.43 434.408C1054.41 433.864 1054.39 433.192 1054.36 432.904H1052.87C1052.89 433.512 1052.89 434.264 1052.89 434.952V441Z" fill="#F7F7F3"/>
<rect x="900.5" y="228.5" width="171.328" height="171" rx="28.5" stroke="#F7F7F3" stroke-width="5"/>
<rect x="951.097" y="288" width="48.0933" height="27" stroke="#F7F7F3" stroke-width="2"/>
<rect x="1008.2" y="288" width="14.0299" height="27" stroke="#F7F7F3" stroke-width="2"/>
<rect x="951.097" y="324" width="71.1362" height="19" stroke="#F7F7F3" stroke-width="2"/>
<rect x="675.5" y="228.5" width="171.328" height="171" rx="28.5" stroke="#F7F7F3" stroke-width="5"/>
<rect x="721.088" y="281" width="72.1381" height="59" stroke="#F7F7F3" stroke-width="2"/>
<rect x="729.103" y="288" width="72.1381" height="59" stroke="#F7F7F3" stroke-width="2"/>
<rect x="451.5" y="228.5" width="171.328" height="171" rx="28.5" stroke="#F7F7F3" stroke-width="5"/>
<rect x="501.095" y="285" width="71.1362" height="58" stroke="#F7F7F3" stroke-width="2"/>
<line y1="-1" x2="10.0379" y2="-1" transform="matrix(0.707765 -0.706447 0.707765 0.706448 523.843 351.229)" stroke="#F7F7F3" stroke-width="2"/>
<line y1="-1" x2="10.0379" y2="-1" transform="matrix(-0.707765 -0.706447 -0.707765 0.706448 550.145 351.229)" stroke="#F7F7F3" stroke-width="2"/>
<rect x="2.5" y="228.5" width="171.328" height="171" rx="28.5" stroke="#F7F7F3" stroke-width="5"/>
<rect x="52.0952" y="285" width="71.1362" height="58" stroke="#F7F7F3" stroke-width="2"/>
<line x1="74.1382" y1="315" x2="102.19" y2="315" stroke="#F7F7F3" stroke-width="2"/>
<line x1="61.1138" y1="331" x2="90.1679" y2="331" stroke="#F7F7F3" stroke-width="2"/>
<line x1="88.1641" y1="299" x2="116.216" y2="299" stroke="#F7F7F3" stroke-width="2"/>
<rect x="226.5" y="228.5" width="171.328" height="171" rx="28.5" stroke="#F7F7F3" stroke-width="5"/>
<rect x="276.095" y="285" width="71.1362" height="58" stroke="#F7F7F3" stroke-width="2"/>
<line y1="-1" x2="21.7518" y2="-1" transform="matrix(0.587251 -0.809405 0.908686 0.417479 312.954 333.379)" stroke="#F7F7F3" stroke-width="2"/>
<line y1="-1" x2="21.7518" y2="-1" transform="matrix(0.587251 -0.809405 0.908686 0.417479 288.063 333.379)" stroke="#F7F7F3" stroke-width="2"/>
</svg>
