<svg width="100%" height="100%" viewBox="0 0 1920 3331" fill="none" xmlns="http://www.w3.org/2000/svg">
<path fill-rule="evenodd" clip-rule="evenodd" d="M1615.21 956.573C1674.59 908.234 1735.04 859.033 1799.1 826.744C1799.72 826.432 1800.52 826.011 1801.48 825.503C1815.51 818.08 1864.72 792.052 1922 814.114C1917.44 812.976 1912.86 812.102 1908.27 811.492L1920.5 814.835H1921L1920.5 2906.65L1920.32 7514H2.31827L1.50131 1294.35L5.60061 1288.25C4.39871 1287.81 3.21125 1287.31 2.04183 1286.74C-0.298152 1285.37 -2.02771 1282.93 -0.298152 1279.87C23.2081 1237.99 60.0035 1128.84 71.5377 1079.98C97.9941 959.149 114.466 885.085 127.693 825.613C154.483 705.157 167.96 644.561 224.117 376.498C233.461 332.548 261.07 236.225 279.646 192.03C322.5 78.3147 380.407 -12.0885 481.841 5.10596C577.627 21.175 632.329 170.79 659.343 281.585C693.629 436.835 713.703 562.387 734.864 721.639C740.918 767.595 753.635 860.633 770.473 905.151C800.13 983.683 859.392 995.063 915.959 905.464C953.042 846.69 998.265 776.286 1051.02 756.591C1137.95 724.015 1205.3 790.73 1249.86 887.582C1357.35 1121.74 1446.07 1091.35 1571 992.249C1585.7 980.594 1600.42 968.61 1615.21 956.573Z" fill="#262626"/>
<path d="M1799.1 826.744L1797.98 824.51L1797.97 824.512L1799.1 826.744ZM1615.21 956.573L1616.79 958.511L1616.79 958.511L1615.21 956.573ZM1801.48 825.503L1802.65 827.713L1802.65 827.713L1801.48 825.503ZM1922 814.114L1921.39 816.54L1922.9 811.781L1922 814.114ZM1908.27 811.492L1908.6 809.013L1907.61 813.903L1908.27 811.492ZM1920.5 814.835L1919.84 817.246L1920.16 817.335H1920.5V814.835ZM1921 814.835L1923.5 814.835L1923.5 812.335H1921V814.835ZM1920.5 2906.65L1918 2906.64L1918 2906.64L1920.5 2906.65ZM1920.32 7514V7516.5H1922.82L1922.82 7514L1920.32 7514ZM2.31827 7514L-0.181734 7514L-0.181405 7516.5H2.31827V7514ZM1.50131 1294.35L-0.574035 1292.96L-0.998788 1293.59L-0.998687 1294.35L1.50131 1294.35ZM5.60061 1288.25L7.67596 1289.64L9.4595 1286.98L6.45173 1285.89L5.60061 1288.25ZM2.04183 1286.74L0.774866 1288.9L0.862013 1288.95L0.953012 1288.99L2.04183 1286.74ZM-0.298152 1279.87L1.8789 1281.1L1.88187 1281.09L-0.298152 1279.87ZM71.5377 1079.98L73.9709 1080.55L73.9755 1080.53L73.9799 1080.51L71.5377 1079.98ZM127.693 825.613L125.253 825.07L125.253 825.07L127.693 825.613ZM224.117 376.498L221.672 375.978L221.67 375.986L224.117 376.498ZM279.646 192.03L281.951 192.999L281.969 192.956L281.985 192.912L279.646 192.03ZM481.841 5.10596L481.423 7.5708L481.427 7.5715L481.841 5.10596ZM659.343 281.585L661.785 281.046L661.779 281.019L661.772 280.992L659.343 281.585ZM734.864 721.639L737.343 721.312L737.342 721.31L734.864 721.639ZM770.473 905.151L772.812 904.268L772.811 904.267L770.473 905.151ZM915.959 905.464L918.073 906.798L918.073 906.798L915.959 905.464ZM1051.02 756.591L1051.89 758.933L1051.89 758.932L1051.02 756.591ZM1249.86 887.582L1252.14 886.539L1252.14 886.537L1249.86 887.582ZM1571 992.249L1569.45 990.29L1569.45 990.291L1571 992.249ZM1797.97 824.512C1733.62 856.945 1672.96 906.335 1613.63 954.634L1616.79 958.511C1676.22 910.134 1736.45 861.12 1800.23 828.977L1797.97 824.512ZM1800.31 823.293C1799.34 823.806 1798.57 824.212 1797.98 824.51L1800.22 828.979C1800.87 828.651 1801.7 828.216 1802.65 827.713L1800.31 823.293ZM1922.9 811.781C1864.5 789.288 1814.39 815.847 1800.31 823.293L1802.65 827.713C1816.64 820.313 1864.94 794.815 1921.1 816.447L1922.9 811.781ZM1907.94 813.97C1912.44 814.568 1916.93 815.424 1921.39 816.54L1922.61 811.689C1917.96 810.528 1913.29 809.637 1908.6 809.013L1907.94 813.97ZM1921.16 812.423L1908.93 809.08L1907.61 813.903L1919.84 817.246L1921.16 812.423ZM1921 812.335H1920.5V817.335H1921V812.335ZM1923 2906.65L1923.5 814.835L1918.5 814.834L1918 2906.64L1923 2906.65ZM1922.82 7514L1923 2906.65L1918 2906.64L1917.82 7514L1922.82 7514ZM2.31827 7516.5H1920.32V7511.5H2.31827V7516.5ZM-0.998687 1294.35L-0.181734 7514L4.81827 7514L4.00131 1294.35L-0.998687 1294.35ZM3.52526 1286.85L-0.574035 1292.96L3.57666 1295.74L7.67596 1289.64L3.52526 1286.85ZM0.953012 1288.99C2.19905 1289.6 3.46582 1290.13 4.74949 1290.6L6.45173 1285.89C5.33161 1285.49 4.22345 1285.02 3.13065 1284.49L0.953012 1288.99ZM-2.4752 1278.64C-3.69972 1280.81 -3.78927 1283.01 -2.94519 1284.94C-2.15642 1286.74 -0.674186 1288.05 0.774866 1288.9L3.3088 1284.59C2.41787 1284.06 1.86533 1283.46 1.63672 1282.94C1.46341 1282.54 1.37386 1281.99 1.8789 1281.1L-2.4752 1278.64ZM69.1046 1079.4C63.3662 1103.71 51.3155 1143.12 37.7508 1181.71C24.1731 1220.34 9.15833 1257.91 -2.47818 1278.64L1.88187 1281.09C13.7516 1259.94 28.8877 1222 42.4678 1183.37C56.061 1144.7 68.1751 1105.1 73.9709 1080.55L69.1046 1079.4ZM125.253 825.07C112.026 884.543 95.5529 958.61 69.0956 1079.44L73.9799 1080.51C100.435 959.688 116.907 885.627 130.134 826.155L125.253 825.07ZM221.67 375.986C165.515 644.039 152.04 704.625 125.253 825.07L130.134 826.155C156.926 705.688 170.405 645.082 226.564 377.011L221.67 375.986ZM277.341 191.062C258.685 235.446 231.036 331.931 221.672 375.978L226.562 377.018C235.886 333.166 263.454 237.004 281.951 192.999L277.341 191.062ZM482.258 2.64112C430.563 -6.12202 389.924 12.6112 356.953 47.7666C324.093 82.8029 298.763 134.214 277.307 191.149L281.985 192.912C303.383 136.131 328.434 85.4827 360.6 51.1871C392.653 17.0105 431.685 -0.860564 481.423 7.57079L482.258 2.64112ZM661.772 280.992C648.244 225.506 627.753 160.164 598.577 106.627C569.466 53.2076 531.34 10.8749 482.254 2.64041L481.427 7.5715C528.128 15.406 565.247 55.9151 594.187 109.019C623.062 162.005 643.429 226.868 656.915 282.177L661.772 280.992ZM737.342 721.31C716.175 562.013 696.091 436.387 661.785 281.046L656.902 282.124C691.168 437.283 711.23 562.76 732.386 721.968L737.342 721.31ZM772.811 904.267C764.484 882.251 757.128 848.071 751.087 813.504C745.056 778.99 740.369 744.286 737.343 721.312L732.386 721.965C735.413 744.948 740.111 779.741 746.162 814.365C752.203 848.935 759.624 883.533 768.134 906.036L772.811 904.267ZM913.845 904.129C885.672 948.753 857.421 967.24 833.267 965.861C809.205 964.487 787.537 943.26 772.812 904.268L768.134 906.034C783.066 945.574 805.857 969.304 832.982 970.853C860.015 972.396 889.678 951.774 918.073 906.798L913.845 904.129ZM1050.14 754.249C1023.14 764.332 998.297 787.277 975.681 814.785C953.031 842.334 932.376 874.76 913.844 904.13L918.073 906.798C936.626 877.394 957.123 845.231 979.543 817.961C1002 790.649 1026.15 768.545 1051.89 758.933L1050.14 754.249ZM1252.14 886.537C1229.77 837.93 1201.57 796.612 1167.82 771.544C1133.94 746.38 1094.49 737.633 1050.14 754.25L1051.89 758.932C1094.48 742.973 1132.17 751.295 1164.84 775.558C1197.64 799.916 1225.4 840.381 1247.59 888.626L1252.14 886.537ZM1569.45 990.291C1538.25 1015.04 1509.46 1035.37 1482.16 1048.38C1454.88 1061.37 1429.26 1066.95 1404.34 1062.43C1379.42 1057.91 1354.82 1043.24 1329.69 1015C1304.53 986.726 1278.96 944.969 1252.14 886.539L1247.59 888.624C1274.51 947.273 1300.33 989.527 1325.95 1018.32C1351.59 1047.13 1377.12 1062.58 1403.44 1067.35C1429.75 1072.12 1456.46 1066.15 1484.31 1052.89C1512.14 1039.64 1541.29 1019.01 1572.56 994.208L1569.45 990.291ZM1613.63 954.634C1598.84 966.673 1584.13 978.646 1569.45 990.29L1572.56 994.208C1587.27 982.541 1602 970.547 1616.79 958.511L1613.63 954.634Z" fill="#262626"/>
</svg>
