<svg width="119" height="61" viewBox="0 0 119 61" fill="none" xmlns="http://www.w3.org/2000/svg">
<path d="M118.42 37.0391C116.509 36.6566 114.526 36.8881 112.754 37.7007C111.699 38.1533 110.68 38.6884 109.709 39.3009C106.752 41.0047 104.498 42.6973 102.838 43.8652C98.0339 47.2542 96.6664 48.5773 92.5715 50.7652C85.0876 54.7603 79.3739 49.2869 76.9569 45.9903C76.1549 44.8815 74.5953 42.4054 73.4237 40.8384C69.3288 35.3649 64.8532 36.3813 61.649 40.879C57.1734 47.1618 54.287 48.958 50.6837 48.6808C47.4314 48.4295 44.0904 45.8572 42.4532 38.4213C40.8714 31.2294 39.7257 23.945 38.1291 16.7604C36.9354 11.3757 35.3167 5.3516 28.9378 4.80832C22.5589 4.26504 20.2157 10.2596 18.8003 15.1232C15.038 28.0288 12.329 41.766 8.818 54.7345C8.44842 56.1315 8.18233 57.5543 7.61318 58.8885C7.40973 59.3855 7.0622 59.8103 6.61532 60.1081C5.35876 60.8473 3.97285 60.8842 2.54998 60.9249H2.40584C1.9734 60.9409 1.54043 60.9347 1.10863 60.9064C0.792419 60.9006 0.47969 60.8393 0.184683 60.7253C0.0405478 60.6551 -0.0629337 60.5331 0.0442436 60.3779C1.49218 58.28 2.59283 55.9627 3.30391 53.5149C8.05667 36.4478 8.2895 33.6945 13.9514 13.8001C14.5248 11.5997 15.4282 9.49886 16.6309 7.56906C19.6318 2.65738 23.6122 -0.735332 29.858 0.136869C35.7528 0.949938 39.334 4.94137 40.7421 10.1154C42.856 17.8766 44.0091 24.4292 45.31 32.4046C45.6796 34.6923 46.4668 39.3638 47.5053 41.596C49.331 45.532 52.9787 46.1011 56.4602 41.596C58.7478 38.6394 61.5308 35.1284 64.7793 34.1379C70.1456 32.5266 74.2849 35.875 77.0234 40.7275C83.6758 52.4579 89.1086 50.9389 96.7995 45.9718C101.338 43.041 105.884 39.689 110.792 37.6415C113.169 36.4916 115.891 36.2766 118.42 37.0391Z" fill="white"/>
</svg>
