<svg width="420" height="191" viewBox="0 0 420 191" fill="none" xmlns="http://www.w3.org/2000/svg">
<g id="mrotionSvg">
<g id="fade7Text">
<path id="Vector" d="M85.5037 1.00045H113.581C117.7 0.897043 121.778 1.83463 125.439 3.72639C128.658 5.44314 131.294 8.07899 133.011 11.2985C134.785 14.6338 135.686 18.3641 135.631 22.1416C135.759 26.3584 134.642 30.5195 132.42 34.1055C130.07 37.5089 126.63 40.009 122.667 41.1929L137.811 61.2892H127.695L113.581 43.2071H93.5452V61.2892H85.5037V1.00045ZM112.627 36.1651C114.616 36.253 116.603 35.9478 118.474 35.2669C120.345 34.5861 122.063 33.543 123.531 32.1973C124.898 30.9029 125.976 29.3336 126.694 27.5926C127.412 25.8517 127.753 23.9785 127.695 22.0962C127.75 20.2166 127.407 18.3466 126.69 16.6085C125.972 14.8705 124.896 13.3035 123.531 12.0102C122.063 10.6646 120.345 9.62147 118.474 8.94064C116.603 8.2598 114.616 7.95459 112.627 8.04247H93.5452V36.1651H112.627Z" fill="#292929"/>
<path id="Vector_2" d="M158.332 58.0634C153.64 55.3181 149.734 51.4119 146.989 46.7205C144.186 42.0139 142.725 36.6301 142.764 31.1523C142.723 25.6696 144.184 20.2804 146.989 15.569C149.734 10.8776 153.64 6.97142 158.332 4.22611C163.056 1.45896 168.433 0.000366211 173.908 0.000366211C179.383 0.000366211 184.759 1.45896 189.483 4.22611C194.177 6.97369 198.088 10.8791 200.841 15.569C203.635 20.2843 205.091 25.6718 205.052 31.1523C205.089 36.6278 203.633 42.0099 200.841 46.7205C198.088 51.4105 194.177 55.3159 189.483 58.0634C184.759 60.8306 179.383 62.2892 173.908 62.2892C168.433 62.2892 163.056 60.8306 158.332 58.0634V58.0634ZM185.591 52.0058C189.094 49.8381 191.967 46.7883 193.921 43.1616C195.938 39.4831 196.996 35.3554 196.996 31.1599C196.996 26.9645 195.938 22.8367 193.921 19.1582C191.967 15.5316 189.094 12.4817 185.591 10.314C182.062 8.174 178.013 7.04248 173.885 7.04248C169.757 7.04248 165.708 8.174 162.179 10.314C158.671 12.4808 155.793 15.5305 153.834 19.1582C151.827 22.8402 150.776 26.9666 150.776 31.1599C150.776 35.3533 151.827 39.4797 153.834 43.1616C155.793 46.7893 158.671 49.839 162.179 52.0058C165.708 54.1458 169.757 55.2774 173.885 55.2774C178.013 55.2774 182.062 54.1458 185.591 52.0058V52.0058Z" fill="#292929"/>
<path id="Vector_3" d="M227.162 8.0425H207.065V1.00049H255.284V8.0425H235.188V61.2892H227.162V8.0425Z" fill="#292929"/>
<path id="Vector_4" d="M264.325 1.00049H272.367V61.2892H264.325V1.00049Z" fill="#292929"/>
<path id="Vector_5" d="M297.991 58.0635C293.297 55.3159 289.387 51.4105 286.633 46.7205C283.83 42.0139 282.369 36.6301 282.408 31.1524C282.367 25.6696 283.828 20.2804 286.633 15.5691C289.387 10.8791 293.297 6.9737 297.991 4.22612C302.712 1.45878 308.086 0 313.559 0C319.032 0 324.406 1.45878 329.127 4.22612C333.821 6.9737 337.731 10.8791 340.485 15.5691C343.285 20.2816 344.741 25.6709 344.695 31.1524C344.739 36.6287 343.283 42.0127 340.485 46.7205C337.731 51.4105 333.821 55.3159 329.127 58.0635C324.406 60.8308 319.032 62.2896 313.559 62.2896C308.086 62.2896 302.712 60.8308 297.991 58.0635V58.0635ZM325.25 52.0058C328.753 49.8381 331.626 46.7883 333.58 43.1616C335.597 39.4831 336.655 35.3554 336.655 31.1599C336.655 26.9645 335.597 22.8367 333.58 19.1582C331.626 15.5316 328.753 12.4818 325.25 10.3141C321.721 8.17401 317.672 7.04249 313.544 7.04249C309.416 7.04249 305.367 8.17401 301.837 10.3141C298.33 12.4808 295.452 15.5305 293.493 19.1582C291.486 22.8402 290.435 26.9666 290.435 31.1599C290.435 35.3533 291.486 39.4797 293.493 43.1616C295.452 46.7893 298.33 49.8391 301.837 52.0058C305.367 54.1458 309.416 55.2774 313.544 55.2774C317.672 55.2774 321.721 54.1458 325.25 52.0058V52.0058Z" fill="#292929"/>
<path id="Vector_6" d="M393.883 3.51425C397.899 5.89488 401.195 9.31711 403.424 13.4185C405.864 17.9347 407.09 23.0066 406.983 28.1386V61.2891H398.957V28.1386C399.009 24.4151 398.184 20.7316 396.549 17.3863C395.059 14.3257 392.786 11.7134 389.961 9.8142C387.274 8.01136 384.111 7.0487 380.875 7.0487C377.638 7.0487 374.476 8.01136 371.788 9.8142C368.964 11.71 366.695 14.3235 365.216 17.3863C363.575 20.7305 362.745 24.414 362.792 28.1386V61.2891H354.766V28.1386C354.659 23.0066 355.885 17.9347 358.325 13.4185C360.554 9.31711 363.851 5.89488 367.866 3.51425C371.818 1.21297 376.309 0.000549316 380.882 0.000549316C385.455 0.000549316 389.947 1.21297 393.899 3.51425H393.883Z" fill="#292929"/>
<path id="Vector_7" d="M41.7676 29.7439L12.2063 0.182617V48.4166V61.2891H14.9322H20.0812V56.1401V48.4166V19.9003L38.1936 38.0126L63.4388 12.7522V19.9003V61.2891H71.3289V0.182617L41.7676 29.7439Z" fill="#292929"/>
</g>
<g id="fade6Text">
<path id="Vector_8" d="M83.2926 21.1117H111.93C116.136 20.9997 120.302 21.9475 124.045 23.868C127.316 25.6113 129.998 28.2827 131.754 31.546C133.563 34.941 134.48 38.7398 134.419 42.5861C134.544 46.8583 133.406 51.0725 131.148 54.7014C128.774 58.2497 125.241 60.8623 121.153 62.0917L136.494 82.5363H126.241L111.93 64.0605H91.4704V82.4606H83.2926V21.1117ZM110.9 56.8973C114.988 57.0744 118.979 55.626 122.001 52.869C123.391 51.5494 124.487 49.9516 125.218 48.1798C125.948 46.4079 126.297 44.5019 126.241 42.5861C126.297 40.6703 125.948 38.7643 125.218 36.9924C124.487 35.2206 123.391 33.6227 122.001 32.3032C118.979 29.5462 114.988 28.0978 110.9 28.2749H91.4704V56.8973H110.9Z" fill="#393939"/>
<path id="Vector_9" d="M157.499 79.1896C152.722 76.3892 148.744 72.4109 145.944 67.6346C143.136 62.8248 141.657 57.3555 141.657 51.7863C141.657 46.2171 143.136 40.7478 145.944 35.938C148.744 31.1617 152.722 27.1834 157.499 24.383C162.305 21.5665 167.776 20.0818 173.347 20.0818C178.918 20.0818 184.389 21.5665 189.195 24.383C193.975 27.179 197.954 31.1584 200.75 35.938C203.567 40.7447 205.051 46.2152 205.051 51.7863C205.051 57.3574 203.567 62.8279 200.75 67.6346C197.954 72.4142 193.975 76.3936 189.195 79.1896C184.389 82.0061 178.918 83.4908 173.347 83.4908C167.776 83.4908 162.305 82.0061 157.499 79.1896ZM185.258 73.0108C188.837 70.7789 191.767 67.6454 193.754 63.9243C195.8 60.1787 196.873 55.9789 196.873 51.7106C196.873 47.4423 195.8 43.2425 193.754 39.4969C191.756 35.8035 188.827 32.697 185.258 30.4861C181.664 28.3167 177.545 27.1701 173.347 27.1701C169.149 27.1701 165.03 28.3167 161.436 30.4861C157.871 32.6974 154.947 35.8041 152.955 39.4969C150.909 43.2425 149.836 47.4423 149.836 51.7106C149.836 55.9789 150.909 60.1787 152.955 63.9243C154.936 67.6448 157.861 70.7785 161.436 73.0108C165.03 75.1802 169.149 76.3268 173.347 76.3268C177.545 76.3268 181.664 75.1802 185.258 73.0108Z" fill="#393939"/>
<path id="Vector_10" d="M227.465 28.2749H207.02V21.1117H256.102V28.2749H235.658V82.4605H227.465V28.2749Z" fill="#393939"/>
<path id="Vector_11" d="M265.31 21.1117H273.488V82.4605H265.31V21.1117Z" fill="#393939"/>
<path id="Vector_12" d="M299.566 79.1896C294.786 76.3936 290.807 72.4142 288.011 67.6346C285.194 62.8279 283.71 57.3574 283.71 51.7863C283.71 46.2152 285.194 40.7447 288.011 35.938C290.807 31.1584 294.786 27.179 299.566 24.383C304.372 21.5665 309.843 20.0818 315.414 20.0818C320.985 20.0818 326.456 21.5665 331.262 24.383C336.039 27.1834 340.017 31.1617 342.817 35.938C345.625 40.7478 347.104 46.2171 347.104 51.7863C347.104 57.3555 345.625 62.8248 342.817 67.6346C340.017 72.4109 336.039 76.3892 331.262 79.1896C326.456 82.0061 320.985 83.4908 315.414 83.4908C309.843 83.4908 304.372 82.0061 299.566 79.1896V79.1896ZM327.325 73.0108C330.9 70.7785 333.825 67.6448 335.806 63.9243C337.852 60.1787 338.925 55.9789 338.925 51.7106C338.925 47.4423 337.852 43.2425 335.806 39.4969C333.814 35.8041 330.89 32.6974 327.325 30.4861C323.731 28.3167 319.612 27.1701 315.414 27.1701C311.216 27.1701 307.097 28.3167 303.503 30.4861C299.93 32.6926 297 35.8002 295.007 39.4969C292.961 43.2425 291.888 47.4423 291.888 51.7106C291.888 55.9789 292.961 60.1787 295.007 63.9243C296.989 67.6488 299.92 70.7834 303.503 73.0108C307.097 75.1802 311.216 76.3268 315.414 76.3268C319.612 76.3268 323.731 75.1802 327.325 73.0108Z" fill="#393939"/>
<path id="Vector_13" d="M397.17 23.6711C401.254 26.0911 404.609 29.5709 406.877 33.742C409.366 38.335 410.619 43.4963 410.512 48.7195V82.4606H402.334V48.7195C402.366 44.9591 401.527 41.2423 399.88 37.8612C398.364 34.7405 396.049 32.076 393.172 30.1377C390.432 28.308 387.212 27.3315 383.918 27.3315C380.625 27.3315 377.404 28.308 374.665 30.1377C371.798 32.0755 369.499 34.7412 368.002 37.8612C366.337 41.2628 365.497 45.0085 365.549 48.7952V82.4606H357.401V48.7195C357.296 43.4984 358.543 38.339 361.021 33.742C363.29 29.5667 366.65 26.0859 370.743 23.6711C374.761 21.3209 379.332 20.0822 383.987 20.0822C388.641 20.0822 393.212 21.3209 397.23 23.6711H397.17Z" fill="#393939"/>
<path id="Vector_14" d="M38.7688 50.3703L8.67749 20.2789V69.361V82.4607H11.464H16.7039V77.2208V69.361V40.3449L35.1343 58.7753L60.8338 33.0606V40.3449V82.4607H68.8602V20.2789L38.7688 50.3703Z" fill="#393939"/>
</g>
<g id="fade5Text">
<path id="Vector_15" d="M85.5037 129.438H113.581C117.699 129.33 121.777 130.262 125.439 132.149C128.658 133.865 131.294 136.501 133.011 139.721C134.783 143.062 135.684 146.797 135.631 150.579C135.76 154.791 134.644 158.948 132.42 162.528C130.07 165.931 126.63 168.431 122.667 169.615L137.811 189.711H127.695L113.581 171.629H93.5452V189.711H85.5037V129.438ZM112.627 164.602C116.642 164.77 120.562 163.344 123.531 160.635C126.199 157.95 127.698 154.319 127.698 150.534C127.698 146.748 126.199 143.117 123.531 140.432C120.562 137.723 116.642 136.297 112.627 136.465H93.5452V164.602H112.627Z" fill="#292929"/>
<path id="Vector_16" d="M158.332 186.501C153.642 183.747 149.736 179.836 146.989 175.143C144.221 170.421 142.763 165.047 142.763 159.575C142.763 154.102 144.221 148.728 146.989 144.006C149.736 139.313 153.642 135.402 158.332 132.648C163.056 129.881 168.432 128.423 173.907 128.423C179.383 128.423 184.759 129.881 189.483 132.648C194.176 135.403 198.086 139.313 200.841 144.006C203.598 148.732 205.051 154.104 205.051 159.575C205.051 165.045 203.598 170.418 200.841 175.143C198.086 179.836 194.176 183.746 189.483 186.501C184.755 189.257 179.38 190.71 173.907 190.71C168.435 190.71 163.06 189.257 158.332 186.501V186.501ZM185.591 180.443C189.094 178.281 191.966 175.237 193.92 171.614C195.938 167.933 196.996 163.803 196.996 159.605C196.996 155.407 195.938 151.277 193.92 147.596C191.962 143.972 189.091 140.923 185.591 138.751C182.056 136.626 178.009 135.503 173.885 135.503C169.76 135.503 165.713 136.626 162.178 138.751C158.674 140.923 155.798 143.971 153.834 147.596C151.827 151.28 150.776 155.409 150.776 159.605C150.776 163.801 151.827 167.929 153.834 171.614C155.794 175.238 158.671 178.282 162.178 180.443C165.708 182.583 169.757 183.715 173.885 183.715C178.013 183.715 182.061 182.583 185.591 180.443Z" fill="#292929"/>
<path id="Vector_17" d="M227.162 136.465H207.065V129.438H255.284V136.465H235.188V189.711H227.162V136.465Z" fill="#292929"/>
<path id="Vector_18" d="M264.325 129.438H272.367V189.711H264.325V129.438Z" fill="#292929"/>
<path id="Vector_19" d="M297.991 186.501C293.298 183.746 289.388 179.836 286.633 175.143C283.865 170.421 282.406 165.047 282.406 159.575C282.406 154.102 283.865 148.728 286.633 144.006C289.388 139.313 293.298 135.403 297.991 132.648C302.712 129.881 308.086 128.422 313.559 128.422C319.032 128.422 324.405 129.881 329.127 132.648C333.82 135.403 337.73 139.313 340.485 144.006C343.242 148.732 344.694 154.104 344.694 159.575C344.694 165.045 343.242 170.418 340.485 175.143C337.73 179.836 333.82 183.746 329.127 186.501C324.402 189.258 319.029 190.71 313.559 190.71C308.088 190.71 302.716 189.258 297.991 186.501V186.501ZM325.25 180.443C328.753 178.281 331.625 175.237 333.579 171.614C335.597 167.933 336.654 163.803 336.654 159.605C336.654 155.407 335.597 151.277 333.579 147.596C331.621 143.972 328.75 140.923 325.25 138.751C321.715 136.626 317.668 135.503 313.544 135.503C309.419 135.503 305.372 136.626 301.837 138.751C298.333 140.923 295.457 143.971 293.493 147.596C291.486 151.28 290.435 155.409 290.435 159.605C290.435 163.801 291.486 167.929 293.493 171.614C295.453 175.238 298.33 178.282 301.837 180.443C305.367 182.583 309.416 183.715 313.544 183.715C317.672 183.715 321.72 182.583 325.25 180.443V180.443Z" fill="#292929"/>
<path id="Vector_20" d="M393.883 131.952C397.901 134.323 401.199 137.741 403.424 141.841C405.864 146.357 407.09 151.429 406.983 156.561V189.711H398.957V156.561C399.009 152.837 398.184 149.154 396.549 145.808C395.054 142.751 392.783 140.139 389.961 138.236C387.27 136.443 384.108 135.486 380.875 135.486C377.641 135.486 374.479 136.443 371.788 138.236C368.967 140.136 366.7 142.748 365.216 145.808C363.575 149.153 362.745 152.836 362.792 156.561V189.711H354.766V156.561C354.659 151.429 355.885 146.357 358.325 141.841C360.551 137.741 363.848 134.323 367.866 131.952C371.814 129.638 376.307 128.419 380.882 128.419C385.458 128.419 389.951 129.638 393.899 131.952H393.883Z" fill="#292929"/>
<path id="Vector_21" d="M41.7676 158.181L12.2063 128.605V176.839V189.711H14.9322H20.0812V184.562V176.839V148.323L38.1936 166.435L63.4388 141.174V148.338V148.323V189.711H71.3289V128.605L41.7676 158.181Z" fill="#292929"/>
</g>
<g id="fade4Text">
<path id="Vector_22" d="M83.2926 108.251H111.93C116.138 108.136 120.306 109.09 124.045 111.022C127.318 112.756 130.001 115.423 131.754 118.685C133.563 122.08 134.48 125.879 134.419 129.725C134.538 133.997 133.401 138.21 131.148 141.841C128.759 145.358 125.228 147.942 121.153 149.155L136.464 169.615H126.241L111.93 151.2H91.4704V169.615H83.2926V108.251ZM110.9 144.052C112.926 144.14 114.948 143.828 116.853 143.134C118.758 142.441 120.507 141.378 122.001 140.008C124.717 137.278 126.242 133.584 126.242 129.733C126.242 125.882 124.717 122.188 122.001 119.458C120.507 118.088 118.758 117.025 116.853 116.332C114.948 115.638 112.926 115.326 110.9 115.414H91.4704V144.052H110.9Z" fill="#393939"/>
<path id="Vector_23" d="M157.499 166.329C152.726 163.53 148.749 159.558 145.944 154.789C143.137 149.976 141.657 144.505 141.657 138.933C141.657 133.361 143.137 127.89 145.944 123.077C148.748 118.304 152.726 114.327 157.499 111.522C162.309 108.715 167.778 107.235 173.347 107.235C178.916 107.235 184.386 108.715 189.195 111.522C193.972 114.323 197.95 118.301 200.75 123.077C203.567 127.887 205.051 133.36 205.051 138.933C205.051 144.506 203.567 149.979 200.75 154.789C197.95 159.561 193.971 163.534 189.195 166.329C184.389 169.145 178.918 170.63 173.347 170.63C167.776 170.63 162.305 169.145 157.499 166.329V166.329ZM185.258 160.15C188.83 157.949 191.76 154.846 193.754 151.154C195.8 147.406 196.873 143.204 196.873 138.933C196.873 134.662 195.8 130.46 193.754 126.712C191.76 123.02 188.83 119.917 185.258 117.716C181.667 115.537 177.547 114.385 173.347 114.385C169.147 114.385 165.027 115.537 161.436 117.716C157.868 119.918 154.943 123.02 152.955 126.712C150.909 130.46 149.836 134.662 149.836 138.933C149.836 143.204 150.909 147.406 152.955 151.154C154.943 154.846 157.868 157.948 161.436 160.15C165.03 162.319 169.149 163.466 173.347 163.466C177.545 163.466 181.664 162.319 185.258 160.15V160.15Z" fill="#393939"/>
<path id="Vector_24" d="M227.465 115.414H207.02V108.251H256.102V115.414H235.658V169.615H227.465V115.414Z" fill="#393939"/>
<path id="Vector_25" d="M265.31 108.251H273.488V169.615H265.31V108.251Z" fill="#393939"/>
<path id="Vector_26" d="M299.566 166.329C294.79 163.534 290.812 159.561 288.011 154.789C285.194 149.979 283.71 144.506 283.71 138.933C283.71 133.36 285.194 127.887 288.011 123.077C290.811 118.301 294.789 114.323 299.566 111.522C304.376 108.715 309.845 107.235 315.414 107.235C320.983 107.235 326.453 108.715 331.262 111.522C336.035 114.327 340.013 118.304 342.817 123.077C345.625 127.89 347.104 133.361 347.104 138.933C347.104 144.505 345.625 149.976 342.817 154.789C340.012 159.558 336.035 163.53 331.262 166.329C326.456 169.145 320.985 170.63 315.414 170.63C309.843 170.63 304.372 169.145 299.566 166.329V166.329ZM327.325 160.15C330.893 157.948 333.818 154.846 335.806 151.154C337.852 147.406 338.925 143.204 338.925 138.933C338.925 134.662 337.852 130.46 335.806 126.712C333.818 123.02 330.893 119.918 327.325 117.716C323.734 115.537 319.614 114.385 315.414 114.385C311.214 114.385 307.094 115.537 303.503 117.716C299.927 119.913 296.996 123.016 295.007 126.712C292.961 130.46 291.888 134.662 291.888 138.933C291.888 143.204 292.961 147.406 295.007 151.154C296.996 154.85 299.927 157.953 303.503 160.15C307.097 162.319 311.216 163.466 315.414 163.466C319.612 163.466 323.731 162.319 327.325 160.15V160.15Z" fill="#393939"/>
<path id="Vector_27" d="M397.17 110.81C401.251 113.234 404.604 116.713 406.877 120.881C409.365 125.475 410.617 130.636 410.512 135.859V169.615H402.334V135.859C402.378 132.073 401.538 128.329 399.88 124.925C398.364 121.804 396.049 119.139 393.172 117.201C390.432 115.372 387.212 114.395 383.918 114.395C380.625 114.395 377.404 115.372 374.665 117.201C371.787 119.135 369.477 121.801 367.972 124.925C366.307 128.326 365.467 132.072 365.518 135.859V169.615H357.401V135.859C357.296 130.638 358.543 125.478 361.021 120.881C363.294 116.709 366.654 113.229 370.743 110.81C374.764 108.469 379.334 107.236 383.987 107.236C388.639 107.236 393.209 108.469 397.23 110.81H397.17Z" fill="#393939"/>
<path id="Vector_28" d="M38.7688 137.51L8.67749 107.418V156.515V169.615H11.464H16.7039V164.36V156.515V127.484L35.1343 145.915L60.8338 120.215V127.499V127.484V169.615H68.8602V107.418L38.7688 137.51Z" fill="#393939"/>
</g>
<g id="fade3Text">
<path id="Vector_29" d="M80.4304 41.7078H109.719C114.006 41.5998 118.251 42.5737 122.062 44.5398C125.43 46.304 128.194 49.0361 129.997 52.3844C131.837 55.8355 132.775 59.6956 132.723 63.6062C132.855 67.9944 131.691 72.3242 129.376 76.0547C126.918 79.6383 123.296 82.2603 119.124 83.4753L134.783 104.495H124.348L109.719 85.6257H88.8051V104.495H80.4304V41.7078ZM108.674 78.3111C112.85 78.5009 116.93 77.0247 120.017 74.2071C121.452 72.8502 122.581 71.2026 123.328 69.3744C124.075 67.5463 124.423 65.5797 124.348 63.6062C124.41 61.6478 124.055 59.6987 123.309 57.8872C122.562 56.0756 121.44 54.4428 120.017 53.0962C116.929 50.2788 112.851 48.798 108.674 48.977H88.8051V78.3111H108.674Z" fill="#9B9B9B"/>
<path id="Vector_30" d="M156.242 101.103C151.355 98.2456 147.287 94.1774 144.429 89.2907C141.554 84.3719 140.038 78.7767 140.038 73.0789C140.038 67.3812 141.554 61.7859 144.429 56.8671C147.291 51.9838 151.358 47.9166 156.242 45.0547C161.161 42.179 166.756 40.6634 172.453 40.6634C178.151 40.6634 183.746 42.179 188.665 45.0547C193.549 47.9166 197.616 51.9838 200.478 56.8671C203.353 61.7859 204.869 67.3812 204.869 73.0789C204.869 78.7767 203.353 84.3719 200.478 89.2907C197.62 94.1774 193.552 98.2456 188.665 101.103C183.746 103.979 178.151 105.494 172.453 105.494C166.756 105.494 161.161 103.979 156.242 101.103V101.103ZM184.637 94.7729C188.288 92.526 191.282 89.355 193.315 85.5804C195.412 81.7472 196.511 77.4482 196.511 73.0789C196.511 68.7097 195.412 64.4106 193.315 60.5774C191.278 56.8058 188.285 53.6358 184.637 51.385C180.964 49.1565 176.75 47.9781 172.453 47.9781C168.157 47.9781 163.943 49.1565 160.27 51.385C156.622 53.6358 153.629 56.8058 151.592 60.5774C149.495 64.4106 148.396 68.7097 148.396 73.0789C148.396 77.4482 149.495 81.7472 151.592 85.5804C153.625 89.355 156.619 92.526 160.27 94.7729C163.943 97.0013 168.157 98.1797 172.453 98.1797C176.75 98.1797 180.964 97.0013 184.637 94.7729V94.7729Z" fill="#9B9B9B"/>
<path id="Vector_31" d="M227.874 49.0376H206.96V41.7079H257.147V49.0376H236.248V104.495H227.874V49.0376Z" fill="#9B9B9B"/>
<path id="Vector_32" d="M266.536 41.7079H274.896V104.495H266.536V41.7079Z" fill="#9B9B9B"/>
<path id="Vector_33" d="M301.595 101.103C296.708 98.2456 292.64 94.1774 289.783 89.2907C286.907 84.3719 285.391 78.7767 285.391 73.0789C285.391 67.3812 286.907 61.7859 289.783 56.8671C292.645 51.9838 296.712 47.9166 301.595 45.0547C306.514 42.179 312.109 40.6634 317.807 40.6634C323.505 40.6634 329.1 42.179 334.019 45.0547C338.895 47.9252 342.961 51.9904 345.831 56.8671C348.707 61.7859 350.222 67.3812 350.222 73.0789C350.222 78.7767 348.707 84.3719 345.831 89.2907C342.965 94.1707 338.899 98.2369 334.019 101.103C329.1 103.979 323.505 105.494 317.807 105.494C312.109 105.494 306.514 103.979 301.595 101.103V101.103ZM329.99 94.7729C333.634 92.5171 336.626 89.3483 338.668 85.5804C340.754 81.7438 341.847 77.4461 341.847 73.0789C341.847 68.7118 340.754 64.414 338.668 60.5774C336.622 56.8124 333.631 53.6445 329.99 51.385C326.317 49.1565 322.103 47.9781 317.807 47.9781C313.511 47.9781 309.297 49.1565 305.623 51.385C301.975 53.6358 298.983 56.8058 296.946 60.5774C294.849 64.4106 293.75 68.7097 293.75 73.0789C293.75 77.4482 294.849 81.7472 296.946 85.5804C298.979 89.355 301.972 92.526 305.623 94.7729C309.297 97.0013 313.511 98.1797 317.807 98.1797C322.103 98.1797 326.317 97.0013 329.99 94.7729V94.7729Z" fill="#9B9B9B"/>
<path id="Vector_34" d="M401.41 44.3277C405.588 46.8034 409.02 50.3613 411.344 54.6257C413.884 59.3229 415.162 64.598 415.055 69.9364V104.495H406.68V69.9364C406.733 66.0668 405.877 62.2387 404.181 58.7601C402.633 55.5653 400.266 52.8377 397.321 50.8549C394.524 48.9784 391.232 47.9765 387.863 47.9765C384.495 47.9765 381.203 48.9784 378.406 50.8549C375.457 52.8333 373.089 55.5621 371.546 58.7601C369.85 62.2387 368.994 66.0668 369.047 69.9364V104.495H360.672V69.9364C360.565 64.598 361.843 59.3229 364.383 54.6257C366.707 50.3613 370.139 46.8034 374.317 44.3277C378.428 41.9274 383.103 40.6625 387.863 40.6625C392.624 40.6625 397.299 41.9274 401.41 44.3277V44.3277Z" fill="#9B9B9B"/>
<path id="Vector_35" d="M34.9071 71.6325L4.13428 40.8597V91.0624V104.45H6.98137H12.3424V99.0888V91.0624V61.3648L31.1968 80.2192L57.4719 53.9291V61.38V61.3648V104.45H65.68V40.8597L34.9071 71.6325Z" fill="#9B9B9B"/>
</g>
<g id="fade2Text">
<path id="Vector_36" d="M80.4304 86.3224H109.719C114.005 86.2241 118.247 87.1975 122.062 89.1543C125.42 90.8984 128.182 93.603 129.997 96.9233C131.845 100.393 132.783 104.275 132.723 108.206C132.859 112.594 131.694 116.925 129.376 120.654C126.918 124.238 123.296 126.86 119.124 128.075L134.783 149.004H124.348L109.719 130.24H88.8051V149.004H80.4304V86.3224ZM108.674 122.865C110.744 122.955 112.811 122.636 114.757 121.927C116.703 121.217 118.491 120.131 120.017 118.731C122.792 115.936 124.348 112.158 124.348 108.221C124.348 104.283 122.792 100.505 120.017 97.7108C116.929 94.8934 112.851 93.4126 108.674 93.5916H88.8051V122.865H108.674Z" fill="#9B9B9B"/>
<path id="Vector_37" d="M156.242 145.657C151.355 142.799 147.287 138.731 144.429 133.845C141.553 128.929 140.038 123.336 140.038 117.64C140.038 111.945 141.553 106.352 144.429 101.436C147.29 96.5481 151.357 92.4758 156.242 89.6086C161.161 86.7329 166.756 85.2173 172.453 85.2173C178.151 85.2173 183.746 86.7329 188.665 89.6086C193.55 92.4758 197.617 96.5481 200.478 101.436C203.354 106.352 204.869 111.945 204.869 117.64C204.869 123.336 203.354 128.929 200.478 133.845C197.62 138.731 193.552 142.799 188.665 145.657C183.746 148.533 178.151 150.048 172.453 150.048C166.756 150.048 161.161 148.533 156.242 145.657V145.657ZM184.637 139.327C188.289 137.074 191.282 133.898 193.315 130.119C195.412 126.289 196.511 121.992 196.511 117.625C196.511 113.258 195.412 108.962 193.315 105.131C191.282 101.352 188.289 98.1765 184.637 95.9237C180.96 93.7049 176.748 92.5322 172.453 92.5322C168.159 92.5322 163.947 93.7049 160.27 95.9237C156.618 98.1765 153.625 101.352 151.592 105.131C149.495 108.962 148.396 113.258 148.396 117.625C148.396 121.992 149.495 126.289 151.592 130.119C153.625 133.898 156.618 137.074 160.27 139.327C163.947 141.546 168.159 142.718 172.453 142.718C176.748 142.718 180.96 141.546 184.637 139.327V139.327Z" fill="#9B9B9B"/>
<path id="Vector_38" d="M227.874 93.5916H206.96V86.3224H257.147V93.5916H236.248V149.004H227.874V93.5916Z" fill="#9B9B9B"/>
<path id="Vector_39" d="M266.536 86.3224H274.896V149.004H266.536V86.3224Z" fill="#9B9B9B"/>
<path id="Vector_40" d="M301.595 145.657C296.708 142.799 292.64 138.731 289.783 133.845C286.907 128.929 285.391 123.336 285.391 117.64C285.391 111.945 286.907 106.352 289.783 101.436C292.644 96.5481 296.711 92.4758 301.595 89.6086C306.514 86.7329 312.109 85.2173 317.807 85.2173C323.505 85.2173 329.1 86.7329 334.019 89.6086C338.897 92.4833 342.963 96.5539 345.831 101.436C348.707 106.352 350.223 111.945 350.223 117.64C350.223 123.336 348.707 128.929 345.831 133.845C342.965 138.725 338.899 142.791 334.019 145.657C329.1 148.533 323.505 150.048 317.807 150.048C312.109 150.048 306.514 148.533 301.595 145.657V145.657ZM329.99 139.327C333.635 137.065 336.626 133.891 338.668 130.119C340.754 126.285 341.847 121.99 341.847 117.625C341.847 113.26 340.754 108.965 338.668 105.131C336.626 101.359 333.635 98.1853 329.99 95.9237C326.314 93.7049 322.101 92.5322 317.807 92.5322C313.513 92.5322 309.3 93.7049 305.623 95.9237C301.972 98.1765 298.978 101.352 296.946 105.131C294.849 108.962 293.75 113.258 293.75 117.625C293.75 121.992 294.849 126.289 296.946 130.119C298.978 133.898 301.972 137.074 305.623 139.327C309.3 141.546 313.513 142.718 317.807 142.718C322.101 142.718 326.314 141.546 329.99 139.327V139.327Z" fill="#9B9B9B"/>
<path id="Vector_41" d="M401.41 88.8818C405.588 91.3575 409.021 94.9153 411.345 99.1798C413.882 103.883 415.16 109.163 415.055 114.506V149.004H406.68V114.506C406.735 110.631 405.879 106.798 404.181 103.314C402.639 100.115 400.271 97.3863 397.321 95.4089C394.524 93.5325 391.232 92.5306 387.864 92.5306C384.495 92.5306 381.203 93.5325 378.406 95.4089C375.455 97.3782 373.086 100.103 371.546 103.299C369.848 106.782 368.992 110.616 369.047 114.491V149.004H360.672V114.506C360.567 109.163 361.845 103.883 364.383 99.1798C366.707 94.9153 370.139 91.3575 374.317 88.8818C378.428 86.4815 383.103 85.2166 387.864 85.2166C392.624 85.2166 397.299 86.4815 401.41 88.8818V88.8818Z" fill="#9B9B9B"/>
<path id="Vector_42" d="M34.9071 116.187L4.13428 85.4138V135.617V149.004H6.98137H12.3424V143.643V135.617V105.934L31.1968 124.773L57.4719 98.4832V105.934V149.004H65.68V85.4138L34.9071 116.187Z" fill="#9B9B9B"/>
</g>
<g id="fullText">
<path id="Vector_43" d="M77.8408 63.3638H107.705C112.075 63.2537 116.402 64.2431 120.29 66.2412C123.719 68.0359 126.539 70.8082 128.392 74.207C130.278 77.7521 131.236 81.7166 131.178 85.7317C131.316 90.2119 130.125 94.6327 127.756 98.4376C125.254 102.095 121.561 104.771 117.306 106.01L133.268 127.363H122.667L107.705 108.16H86.3215V127.363H77.8408V63.3638ZM106.615 100.694C110.881 100.878 115.047 99.3645 118.2 96.484C119.66 95.1137 120.812 93.4497 121.582 91.6016C122.352 89.7535 122.722 87.7633 122.667 85.762C122.731 83.7636 122.369 81.7746 121.607 79.9263C120.845 78.078 119.699 76.4125 118.245 75.0399C116.686 73.6108 114.86 72.5034 112.872 71.7809C110.884 71.0585 108.773 70.7353 106.66 70.8299H86.3215V100.694H106.615Z" fill="#D8D8D8"/>
<path id="Vector_44" d="M155.167 123.956C150.161 121.016 145.991 116.846 143.051 111.84C140.115 106.824 138.568 101.116 138.568 95.3029C138.568 89.4902 140.115 83.7823 143.051 78.7655C145.986 73.757 150.158 69.5855 155.167 66.6502C160.183 63.7143 165.891 62.1669 171.704 62.1669C177.517 62.1669 183.225 63.7143 188.241 66.6502C193.253 69.5811 197.426 73.7536 200.357 78.7655C203.293 83.7823 204.84 89.4902 204.84 95.3029C204.84 101.116 203.293 106.824 200.357 111.84C197.421 116.849 193.25 121.02 188.241 123.956C183.221 126.881 177.514 128.422 171.704 128.422C165.893 128.422 160.187 126.881 155.167 123.956V123.956ZM184.137 117.489C187.859 115.191 190.91 111.952 192.981 108.1C195.118 104.192 196.238 99.8097 196.238 95.3559C196.238 90.9021 195.118 86.5199 192.981 82.6121C190.905 78.7627 187.856 75.5252 184.137 73.2228C180.39 70.9535 176.092 69.7537 171.711 69.7537C167.331 69.7537 163.033 70.9535 159.286 73.2228C155.559 75.5198 152.503 78.7583 150.426 82.6121C148.29 86.5199 147.17 90.9021 147.17 95.3559C147.17 99.8097 148.29 104.192 150.426 108.1C152.499 111.956 155.556 115.196 159.286 117.489C163.033 119.758 167.331 120.958 171.711 120.958C176.092 120.958 180.39 119.758 184.137 117.489Z" fill="#D8D8D8"/>
<path id="Vector_45" d="M228.252 70.8299H206.914V63.3638H258.116V70.8299H236.778V127.363H228.252V70.8299Z" fill="#D8D8D8"/>
<path id="Vector_46" d="M267.718 63.3638H276.244V127.363H267.718V63.3638Z" fill="#D8D8D8"/>
<path id="Vector_47" d="M303.443 123.956C298.437 121.016 294.267 116.846 291.327 111.84C288.391 106.824 286.844 101.116 286.844 95.3029C286.844 89.4902 288.391 83.7823 291.327 78.7655C294.263 73.757 298.434 69.5855 303.443 66.6502C308.459 63.7143 314.167 62.1669 319.98 62.1669C325.793 62.1669 331.501 63.7143 336.517 66.6502C341.529 69.5811 345.702 73.7536 348.633 78.7655C351.569 83.7823 353.116 89.4902 353.116 95.3029C353.116 101.116 351.569 106.824 348.633 111.84C345.697 116.849 341.526 121.02 336.517 123.956C331.497 126.881 325.791 128.422 319.98 128.422C314.17 128.422 308.463 126.881 303.443 123.956V123.956ZM332.413 117.489C336.136 115.191 339.186 111.952 341.258 108.1C343.394 104.192 344.514 99.8097 344.514 95.3559C344.514 90.9021 343.394 86.5199 341.258 82.6121C339.181 78.7627 336.132 75.5252 332.413 73.2228C328.666 70.9535 324.369 69.7537 319.988 69.7537C315.607 69.7537 311.309 70.9535 307.562 73.2228C303.835 75.5198 300.779 78.7583 298.703 82.6121C296.566 86.5199 295.446 90.9021 295.446 95.3559C295.446 99.8097 296.566 104.192 298.703 108.1C300.775 111.956 303.832 115.196 307.562 117.489C311.309 119.758 315.607 120.958 319.988 120.958C324.369 120.958 328.666 119.758 332.413 117.489V117.489Z" fill="#D8D8D8"/>
<path id="Vector_48" d="M405.272 65.8316C409.533 68.3523 413.034 71.9786 415.403 76.3264C417.996 81.1207 419.301 86.5058 419.189 91.9552V127.165H410.663V91.9552C410.714 88.0061 409.837 84.1003 408.104 80.5516C406.531 77.2904 404.116 74.5089 401.107 72.495C398.252 70.5789 394.891 69.5557 391.453 69.5557C388.014 69.5557 384.654 70.5789 381.798 72.495C378.791 74.5059 376.38 77.2886 374.817 80.5516C373.077 84.0978 372.2 88.0054 372.258 91.9552V127.165H363.716V91.9552C363.613 86.5066 364.917 81.1235 367.502 76.3264C369.871 71.9786 373.372 68.3523 377.634 65.8316C381.827 63.3819 386.596 62.0909 391.453 62.0909C396.309 62.0909 401.078 63.3819 405.272 65.8316V65.8316Z" fill="#D8D8D8"/>
<path id="Vector_49" d="M31.3938 93.8793L0 62.4855V113.703V127.363H2.90767H8.3747V121.896V113.703V83.4147L27.6077 102.648L54.3977 75.8275V83.4299L54.4128 83.4147V127.363H62.7875V62.4855L31.3938 93.8793Z" fill="#D8D8D8"/>
</g>
</g>
</svg>
