<svg width="96" height="32" viewBox="0 0 96 32" fill="none" xmlns="http://www.w3.org/2000/svg">
<g id="mrotionL">
<path id="Vector" d="M24.7361 10.9653H34.0822C35.4569 10.9286 36.8187 11.2379 38.0426 11.8649C39.1192 12.4316 40.004 13.3042 40.5856 14.3728C41.1732 15.4842 41.4718 16.7256 41.454 17.9827C41.497 19.3859 41.1244 20.7705 40.3831 21.9626C39.5981 23.1085 38.441 23.9478 37.108 24.3381L42.1238 31.0206H38.7786L34.1056 25.004H27.4114V31.0206H24.7361V10.9653ZM33.7629 22.648C35.0948 22.707 36.3962 22.2382 37.3845 21.3434C37.8397 20.9128 38.1985 20.3907 38.4375 19.8115C38.6764 19.2323 38.79 18.609 38.7709 17.9827C38.7897 17.357 38.6759 16.7345 38.437 16.1559C38.1981 15.5774 37.8394 15.0559 37.3845 14.6259C36.3986 13.7255 35.0969 13.251 33.7629 13.3058H27.4114V22.6519L33.7629 22.648Z" fill="#F7F7F3"/>
<path id="Vector_2" d="M48.9737 29.9732C47.4138 29.0558 46.1137 27.7557 45.1963 26.1958C44.2784 24.6227 43.7947 22.834 43.7947 21.0126C43.7947 19.1912 44.2784 17.4025 45.1963 15.8294C46.1137 14.2695 47.4138 12.9694 48.9737 12.052C50.5468 11.1341 52.3355 10.6504 54.1569 10.6504C55.9783 10.6504 57.767 11.1341 59.3401 12.052C60.9 12.9694 62.2001 14.2695 63.1175 15.8294C64.0354 17.4025 64.5191 19.1912 64.5191 21.0126C64.5191 22.834 64.0354 24.6227 63.1175 26.1958C62.2001 27.7557 60.9 29.0558 59.3401 29.9732C57.767 30.8911 55.9783 31.3748 54.1569 31.3748C52.3355 31.3748 50.5468 30.8911 48.9737 29.9732ZM58.0511 27.9482C59.2177 27.2277 60.1751 26.214 60.8277 25.0081C61.4947 23.782 61.8441 22.4084 61.8441 21.0126C61.8441 19.6168 61.4947 18.2432 60.8277 17.0171C60.1739 15.8121 59.2168 14.7986 58.0511 14.077C56.8765 13.3664 55.5298 12.9908 54.1569 12.9908C52.784 12.9908 51.4373 13.3664 50.2627 14.077C49.0961 14.7975 48.1387 15.8112 47.4861 17.0171C46.8191 18.2432 46.4696 19.6168 46.4696 21.0126C46.4696 22.4084 46.8191 23.782 47.4861 25.0081C48.1377 26.2147 49.0952 27.2287 50.2627 27.9482C51.4373 28.6588 52.784 29.0344 54.1569 29.0344C55.5298 29.0344 56.8765 28.6588 58.0511 27.9482Z" fill="#F7F7F3"/>
<path id="Vector_3" d="M71.8756 13.3058H65.1892V10.9692H81.2373V13.3058H74.5509V31.0206H71.8756V13.3058Z" fill="#F7F7F3"/>
<path id="n" d="M91.4556 0C89.0108 0 86.9153 1.9884 86.9153 5.06138V11.0266H88.3123V5.06138C88.3123 2.89221 89.7093 1.26534 91.4556 1.26534C93.2019 1.26534 94.599 2.89221 94.599 5.06138V11.0266H95.996V5.06138C95.996 1.9884 93.9004 0 91.4556 0Z" fill="#F7F7F3"/>
<path id="Vector_4" d="M10.0276 20.323L0 10.2954V26.655V31.0205H0.926824H2.67533V29.2758V26.655V16.9818L8.81651 23.1269L17.3799 14.5557V16.9857L17.3838 16.9818V31.0205H20.0591V10.2954L10.0276 20.323Z" fill="#F7F7F3"/>
</g>
</svg>
