<svg width="773" height="764" viewBox="0 0 773 764" fill="none" xmlns="http://www.w3.org/2000/svg">
<path d="M0 0H707C743.451 0 773 29.5492 773 66V698C773 734.451 743.451 764 707 764H0V0Z" fill="#2C2D2D"/>
<path d="M61.008 66.056C61.56 69.2 63.96 71.36 68.736 71.36C73.872 71.36 76.032 69.032 76.032 66.32C76.032 63.968 75.048 62.048 68.88 61.016C65.016 60.368 64.32 59.48 64.32 58.088C64.32 56.384 65.904 55.544 68.352 55.544C71.952 55.544 72.672 57.08 73.008 58.232H75.456C75.264 56.504 73.968 53.6 68.4 53.6C64.704 53.6 61.848 55.328 61.848 58.328C61.848 60.632 63.072 62.24 68.208 63.128C72.6 63.848 73.536 64.88 73.536 66.56C73.536 68.144 72.264 69.464 68.904 69.464C65.544 69.464 64.08 68.048 63.456 66.056H61.008ZM91.0673 65.48C91.0673 65.24 91.0673 65.072 91.0673 64.88C91.0673 61.904 89.4353 58.52 84.8273 58.52C81.0113 58.52 78.5633 61.304 78.5633 64.976C78.5633 68.168 80.5312 71.336 84.8993 71.336C88.5233 71.336 90.2513 69.368 90.8993 67.544H88.6193C87.9713 68.744 86.9153 69.512 85.0193 69.512C82.5473 69.512 80.9873 67.808 80.8433 65.48H91.0673ZM80.8913 63.848C81.1073 61.856 82.3313 60.296 84.8273 60.296C87.8273 60.296 88.5953 62.408 88.6913 63.848H80.8913ZM94.0768 71H96.3568V65.936C96.3568 62.36 98.4688 60.68 101.277 60.728V58.544C98.9008 58.52 97.1488 59.744 96.3568 61.592C96.3568 60.512 96.3088 59.216 96.2608 58.856H94.0528C94.0768 59.96 94.0768 61.064 94.0768 62.168V71ZM102.944 58.856L108.296 71H110.792L116.12 58.856H113.768C110.792 65.816 109.976 67.88 109.64 68.912H109.616C109.16 67.592 106.52 61.664 105.416 58.856H102.944ZM118.475 71H120.755V58.856H118.475V71ZM118.475 55.712H120.755V52.976H118.475V55.712ZM133.783 67.208C133.183 68.6 132.103 69.488 130.135 69.488C127.495 69.488 126.055 67.472 126.055 64.928C126.055 62.288 127.567 60.368 130.111 60.368C132.391 60.368 133.351 61.616 133.759 62.744H136.039C135.775 61.136 134.239 58.52 130.159 58.52C126.079 58.52 123.727 61.52 123.727 64.976C123.727 68.432 125.815 71.336 130.111 71.336C133.567 71.336 135.487 69.416 136.087 67.208H133.783ZM150.622 65.48C150.622 65.24 150.622 65.072 150.622 64.88C150.622 61.904 148.99 58.52 144.382 58.52C140.566 58.52 138.118 61.304 138.118 64.976C138.118 68.168 140.086 71.336 144.454 71.336C148.078 71.336 149.806 69.368 150.454 67.544H148.174C147.526 68.744 146.47 69.512 144.574 69.512C142.102 69.512 140.542 67.808 140.398 65.48H150.622ZM140.446 63.848C140.662 61.856 141.886 60.296 144.382 60.296C147.382 60.296 148.15 62.408 148.246 63.848H140.446ZM152.644 67.328C153.076 69.848 155.14 71.336 158.668 71.336C162.604 71.336 164.26 69.728 164.26 67.544C164.26 65.744 163.396 64.328 158.836 63.704C156.052 63.344 155.5 62.816 155.5 61.904C155.5 61.208 155.956 60.248 158.212 60.248C160.876 60.248 161.38 61.424 161.572 62.168H163.852C163.732 60.704 162.556 58.52 158.332 58.52C154.468 58.52 153.196 60.536 153.196 62.096C153.196 63.608 154.012 65.096 158.284 65.648C161.356 66.008 161.98 66.704 161.98 67.712C161.98 68.792 161.14 69.608 158.812 69.608C156.628 69.608 155.38 68.768 154.948 67.328H152.644Z" fill="#F7F7F3"/>
<path d="M62.898 228.856C63.168 227.848 63.816 227.002 65.544 227.002C67.272 227.002 67.992 227.92 67.992 228.91C67.992 230.026 67.38 230.71 65.418 230.71H64.644V232.168H65.598C67.56 232.168 68.514 233.014 68.514 234.4C68.514 236.11 67.272 236.848 65.688 236.848C63.978 236.848 62.934 236.002 62.61 234.724H60.864C61.188 236.542 62.52 238.252 65.616 238.252C68.586 238.252 70.314 236.704 70.314 234.454C70.314 232.438 68.802 231.592 67.902 231.376V231.34C68.64 231.124 69.774 230.476 69.774 228.838C69.774 227.236 68.568 225.58 65.598 225.58C62.538 225.58 61.422 227.47 61.206 228.856H62.898ZM77.2405 235.246C77.5645 237.136 79.1125 238.252 81.7585 238.252C84.7105 238.252 85.9525 237.046 85.9525 235.408C85.9525 234.058 85.3045 232.996 81.8845 232.528C79.7965 232.258 79.3825 231.862 79.3825 231.178C79.3825 230.656 79.7245 229.936 81.4165 229.936C83.4145 229.936 83.7925 230.818 83.9365 231.376H85.6465C85.5565 230.278 84.6745 228.64 81.5065 228.64C78.6085 228.64 77.6545 230.152 77.6545 231.322C77.6545 232.456 78.2665 233.572 81.4705 233.986C83.7745 234.256 84.2425 234.778 84.2425 235.534C84.2425 236.344 83.6125 236.956 81.8665 236.956C80.2285 236.956 79.2925 236.326 78.9685 235.246H77.2405ZM86.9013 230.242H88.7013V235.462C88.7013 237.244 89.2773 238.09 91.1673 238.09C91.6893 238.09 92.1573 238.072 92.5713 237.928V236.668C92.3013 236.74 91.9413 236.74 91.6713 236.74C90.6813 236.74 90.4113 236.272 90.4113 235.228V230.242H92.7873V228.892H90.4113V225.958H88.7013V228.892H86.9013V230.242ZM103.287 233.86C103.287 233.68 103.287 233.554 103.287 233.41C103.287 231.178 102.063 228.64 98.6068 228.64C95.7448 228.64 93.9088 230.728 93.9088 233.482C93.9088 235.876 95.3848 238.252 98.6608 238.252C101.379 238.252 102.675 236.776 103.161 235.408H101.451C100.965 236.308 100.173 236.884 98.7508 236.884C96.8968 236.884 95.7268 235.606 95.6188 233.86H103.287ZM95.6548 232.636C95.8168 231.142 96.7348 229.972 98.6068 229.972C100.857 229.972 101.433 231.556 101.505 232.636H95.6548ZM110.476 238.252C112.942 238.252 114.994 236.272 114.994 233.302C114.994 230.656 113.212 228.64 110.764 228.64C108.856 228.64 107.794 229.522 107.254 230.476C107.254 229.774 107.236 229.162 107.2 228.892H105.526C105.544 229.648 105.544 230.422 105.544 231.178V241.996H107.254V236.668C107.74 237.442 108.586 238.252 110.476 238.252ZM110.206 236.812C108.208 236.812 107.2 235.408 107.2 233.5C107.2 231.592 108.136 230.08 110.242 230.08C112.294 230.08 113.23 231.754 113.23 233.374C113.23 235.192 112.222 236.812 110.206 236.812ZM116.51 235.246C116.834 237.136 118.382 238.252 121.028 238.252C123.98 238.252 125.222 237.046 125.222 235.408C125.222 234.058 124.574 232.996 121.154 232.528C119.066 232.258 118.652 231.862 118.652 231.178C118.652 230.656 118.994 229.936 120.686 229.936C122.684 229.936 123.062 230.818 123.206 231.376H124.916C124.826 230.278 123.944 228.64 120.776 228.64C117.878 228.64 116.924 230.152 116.924 231.322C116.924 232.456 117.536 233.572 120.74 233.986C123.044 234.256 123.512 234.778 123.512 235.534C123.512 236.344 122.882 236.956 121.136 236.956C119.498 236.956 118.562 236.326 118.238 235.246H116.51ZM131.62 230.242H133.42V235.462C133.42 237.244 133.996 238.09 135.886 238.09C136.408 238.09 136.876 238.072 137.29 237.928V236.668C137.02 236.74 136.66 236.74 136.39 236.74C135.4 236.74 135.13 236.272 135.13 235.228V230.242H137.506V228.892H135.13V225.958H133.42V228.892H131.62V230.242ZM143.524 228.64C140.446 228.64 138.628 230.854 138.628 233.464C138.628 235.984 140.356 238.252 143.434 238.252C146.692 238.252 148.33 235.984 148.33 233.446C148.33 231.034 146.674 228.64 143.524 228.64ZM143.452 230.044C145.468 230.044 146.566 231.646 146.566 233.482C146.566 235.3 145.576 236.866 143.488 236.866C141.49 236.866 140.374 235.192 140.374 233.464C140.374 231.628 141.382 230.044 143.452 230.044ZM149.569 228.892L152.557 238H154.411C155.689 234.472 156.607 231.718 156.841 230.836H156.859C157.165 231.898 158.209 234.814 159.289 238H161.071L164.221 228.892H162.511C160.999 233.554 160.423 235.498 160.225 236.38H160.207C160.045 235.642 159.595 234.274 157.759 228.892H156.121C154.231 234.346 153.853 235.534 153.601 236.47H153.583C153.367 235.48 153.007 234.22 151.351 228.892H149.569ZM173.864 231.772C173.864 230.26 173.126 228.64 169.814 228.64C166.682 228.64 165.872 230.35 165.764 231.556H167.474C167.654 230.71 168.068 229.954 169.814 229.954C171.758 229.954 172.172 230.872 172.172 231.88V232.348C171.866 232.348 171.056 232.348 169.958 232.348C167.366 232.348 165.242 232.996 165.242 235.336C165.242 236.704 166.196 238.252 168.77 238.252C170.696 238.252 171.722 237.622 172.208 236.668C172.208 236.974 172.244 237.676 172.316 238H173.936C173.918 237.802 173.864 236.65 173.864 235.75V231.772ZM172.172 233.968C172.172 235.498 171.524 236.92 169.112 236.92C167.6 236.92 166.934 236.146 166.934 235.246C166.934 234.022 167.906 233.572 169.994 233.572C171.29 233.572 171.902 233.572 172.172 233.572V233.968ZM176.876 238H178.586V234.202C178.586 231.52 180.17 230.26 182.276 230.296V228.658C180.494 228.64 179.18 229.558 178.586 230.944C178.586 230.134 178.55 229.162 178.514 228.892H176.858C176.876 229.72 176.876 230.548 176.876 231.376V238ZM191.016 224.482V230.044C190.764 229.612 190.026 228.64 187.884 228.64C185.508 228.64 183.258 230.53 183.258 233.536C183.258 236.29 185.04 238.252 187.668 238.252C189.774 238.252 190.566 237.406 191.016 236.614C191.016 237.082 191.034 237.622 191.088 238H192.762C192.744 237.136 192.744 236.236 192.744 235.354V224.482H191.016ZM188.1 230.08C190.386 230.08 191.088 231.412 191.088 233.428C191.088 235.426 190.206 236.83 188.028 236.83C186.048 236.83 185.022 235.174 185.022 233.5C185.022 231.772 186.03 230.08 188.1 230.08ZM194.908 235.246C195.232 237.136 196.78 238.252 199.426 238.252C202.378 238.252 203.62 237.046 203.62 235.408C203.62 234.058 202.972 232.996 199.552 232.528C197.464 232.258 197.05 231.862 197.05 231.178C197.05 230.656 197.392 229.936 199.084 229.936C201.082 229.936 201.46 230.818 201.604 231.376H203.314C203.224 230.278 202.342 228.64 199.174 228.64C196.276 228.64 195.322 230.152 195.322 231.322C195.322 232.456 195.934 233.572 199.138 233.986C201.442 234.256 201.91 234.778 201.91 235.534C201.91 236.344 201.28 236.956 199.534 236.956C197.896 236.956 196.96 236.326 196.636 235.246H194.908ZM209.982 228.892L214.194 238.432C213.366 240.214 212.898 240.718 211.674 240.718C211.44 240.718 211.026 240.7 210.666 240.646V242.158C210.99 242.212 211.53 242.248 211.854 242.248C214.14 242.248 214.734 241.456 216.354 237.55L219.918 228.892H218.136C216.408 233.176 215.472 235.804 215.148 236.686H215.13C214.86 235.93 213.798 233.374 211.872 228.892H209.982ZM225.807 228.64C222.729 228.64 220.911 230.854 220.911 233.464C220.911 235.984 222.639 238.252 225.717 238.252C228.975 238.252 230.613 235.984 230.613 233.446C230.613 231.034 228.957 228.64 225.807 228.64ZM225.735 230.044C227.751 230.044 228.849 231.646 228.849 233.482C228.849 235.3 227.859 236.866 225.771 236.866C223.773 236.866 222.657 235.192 222.657 233.464C222.657 231.628 223.665 230.044 225.735 230.044ZM241.233 228.892H239.523V233.014C239.523 235.678 238.677 236.812 236.715 236.812C235.077 236.812 234.537 235.606 234.537 234.238V228.892H232.827V234.544C232.827 237.208 234.321 238.252 236.247 238.252C238.245 238.252 239.073 237.496 239.523 236.47C239.523 237.118 239.559 237.748 239.595 238H241.233C241.215 237.118 241.233 236.236 241.233 235.354V228.892ZM244.147 238H245.857V234.202C245.857 231.52 247.441 230.26 249.547 230.296V228.658C247.765 228.64 246.451 229.558 245.857 230.944C245.857 230.134 245.821 229.162 245.785 228.892H244.129C244.147 229.72 244.147 230.548 244.147 231.376V238ZM263.737 224.482V230.044C263.485 229.612 262.747 228.64 260.605 228.64C258.229 228.64 255.979 230.53 255.979 233.536C255.979 236.29 257.761 238.252 260.389 238.252C262.495 238.252 263.287 237.406 263.737 236.614C263.737 237.082 263.755 237.622 263.809 238H265.483C265.465 237.136 265.465 236.236 265.465 235.354V224.482H263.737ZM260.821 230.08C263.107 230.08 263.809 231.412 263.809 233.428C263.809 235.426 262.927 236.83 260.749 236.83C258.769 236.83 257.743 235.174 257.743 233.5C257.743 231.772 258.751 230.08 260.821 230.08ZM268.388 238H270.098V234.202C270.098 231.52 271.682 230.26 273.788 230.296V228.658C272.006 228.64 270.692 229.558 270.098 230.944C270.098 230.134 270.062 229.162 270.026 228.892H268.37C268.388 229.72 268.388 230.548 268.388 231.376V238ZM284.148 233.86C284.148 233.68 284.148 233.554 284.148 233.41C284.148 231.178 282.924 228.64 279.468 228.64C276.606 228.64 274.77 230.728 274.77 233.482C274.77 235.876 276.246 238.252 279.522 238.252C282.24 238.252 283.536 236.776 284.022 235.408H282.312C281.826 236.308 281.034 236.884 279.612 236.884C277.758 236.884 276.588 235.606 276.48 233.86H284.148ZM276.516 232.636C276.678 231.142 277.596 229.972 279.468 229.972C281.718 229.972 282.294 231.556 282.366 232.636H276.516ZM294.45 231.772C294.45 230.26 293.712 228.64 290.4 228.64C287.268 228.64 286.458 230.35 286.35 231.556H288.06C288.24 230.71 288.654 229.954 290.4 229.954C292.344 229.954 292.758 230.872 292.758 231.88V232.348C292.452 232.348 291.642 232.348 290.544 232.348C287.952 232.348 285.828 232.996 285.828 235.336C285.828 236.704 286.782 238.252 289.356 238.252C291.282 238.252 292.308 237.622 292.794 236.668C292.794 236.974 292.83 237.676 292.902 238H294.522C294.504 237.802 294.45 236.65 294.45 235.75V231.772ZM292.758 233.968C292.758 235.498 292.11 236.92 289.698 236.92C288.186 236.92 287.52 236.146 287.52 235.246C287.52 234.022 288.492 233.572 290.58 233.572C291.876 233.572 292.488 233.572 292.758 233.572V233.968ZM297.444 238H299.154V233.14C299.154 231.412 299.82 230.062 301.53 230.062C303.15 230.062 303.51 231.286 303.51 232.366V238H305.22V233.014C305.22 231.052 306.156 230.062 307.614 230.062C309.234 230.062 309.576 231.376 309.576 232.438V238H311.268V232.384C311.268 229.684 309.81 228.64 308.01 228.64C306.21 228.64 305.364 229.612 304.878 230.386C304.482 229.36 303.582 228.64 302.088 228.64C300.486 228.64 299.604 229.486 299.136 230.26C299.154 229.792 299.136 229.27 299.082 228.892H297.426C297.444 229.684 297.444 230.458 297.444 231.25V238ZM319.434 234.868C319.434 235.912 319.434 236.848 319.416 238H321.072C321.09 237.694 321.108 237.046 321.108 236.596C321.576 237.424 322.476 238.252 324.42 238.252C327.012 238.252 328.92 236.344 328.92 233.302C328.92 230.638 327.084 228.64 324.528 228.64C322.584 228.64 321.612 229.594 321.162 230.314V224.482H319.434V234.868ZM324.168 236.812C322.278 236.812 321.09 235.516 321.09 233.446C321.09 231.538 322.08 230.08 324.15 230.08C326.274 230.08 327.156 231.808 327.156 233.356C327.156 235.156 326.292 236.812 324.168 236.812ZM331.177 238H332.887V234.202C332.887 231.52 334.471 230.26 336.577 230.296V228.658C334.795 228.64 333.481 229.558 332.887 230.944C332.887 230.134 332.851 229.162 332.815 228.892H331.159C331.177 229.72 331.177 230.548 331.177 231.376V238ZM346.059 231.772C346.059 230.26 345.321 228.64 342.009 228.64C338.877 228.64 338.067 230.35 337.959 231.556H339.669C339.849 230.71 340.263 229.954 342.009 229.954C343.953 229.954 344.367 230.872 344.367 231.88V232.348C344.061 232.348 343.251 232.348 342.153 232.348C339.561 232.348 337.437 232.996 337.437 235.336C337.437 236.704 338.391 238.252 340.965 238.252C342.891 238.252 343.917 237.622 344.403 236.668C344.403 236.974 344.439 237.676 344.511 238H346.131C346.113 237.802 346.059 236.65 346.059 235.75V231.772ZM344.367 233.968C344.367 235.498 343.719 236.92 341.307 236.92C339.795 236.92 339.129 236.146 339.129 235.246C339.129 234.022 340.101 233.572 342.189 233.572C343.485 233.572 344.097 233.572 344.367 233.572V233.968ZM349.053 238H350.781V233.644C350.781 231.538 351.717 230.08 353.607 230.08C355.299 230.08 355.875 231.268 355.875 232.78V238H357.603V232.456C357.603 229.972 356.217 228.64 354.075 228.64C352.113 228.64 351.177 229.702 350.781 230.584C350.763 229.972 350.745 229.216 350.709 228.892H349.035C349.053 229.576 349.053 230.422 349.053 231.196V238ZM367.589 224.482V230.044C367.337 229.612 366.599 228.64 364.457 228.64C362.081 228.64 359.831 230.53 359.831 233.536C359.831 236.29 361.613 238.252 364.241 238.252C366.347 238.252 367.139 237.406 367.589 236.614C367.589 237.082 367.607 237.622 367.661 238H369.335C369.317 237.136 369.317 236.236 369.317 235.354V224.482H367.589ZM364.673 230.08C366.959 230.08 367.661 231.412 367.661 233.428C367.661 235.426 366.779 236.83 364.601 236.83C362.621 236.83 361.595 235.174 361.595 233.5C361.595 231.772 362.603 230.08 364.673 230.08ZM374.111 238V235.192H372.329V238H374.111ZM374.111 231.646V228.82H372.329V231.646H374.111Z" fill="#F7F7F3"/>
<path d="M110.388 369H121.608V321.128H104.744C100.052 335.408 95.768 347.988 93.728 355.536H93.66C92.232 349.008 87.812 335.952 82.984 321.128H66.188V369H76.66V351.592C76.66 343.432 76.252 334.116 75.912 328.54H75.98C78.496 337.584 83.528 353.564 87.948 369H98.148C103.792 351.456 108.28 337.38 110.66 328.54H110.728C110.456 333.844 110.388 342.412 110.388 350.708V369ZM131.43 369H142.514V356.216C142.514 346.152 148.158 342.956 156.114 343.092V333.028C148.77 332.824 144.486 336.292 142.514 340.916C142.514 339.012 142.378 335.136 142.242 333.912H131.362C131.43 337.108 131.43 340.236 131.43 343.432V369ZM180.266 332.96C166.938 332.96 160.002 341.8 160.002 351.456C160.002 361.18 166.734 369.952 179.79 369.952C192.846 369.952 200.326 362.268 200.326 351.456C200.326 342.684 193.934 332.96 180.266 332.96ZM180.13 341.324C186.25 341.324 188.902 346.288 188.902 351.592C188.902 356.964 186.182 361.588 180.198 361.588C174.35 361.588 171.358 356.896 171.358 351.456C171.358 346.016 174.078 341.324 180.13 341.324ZM203.596 341.936H209.852V358.732C209.852 365.532 212.368 369.34 221.004 369.34C223.588 369.34 226.172 369.068 228.076 368.524V360.908C227.124 361.112 226.036 361.112 225.084 361.112C221.684 361.112 221.004 359.752 221.004 356.76V341.936H229.164V333.912H221.004V323.508H209.852V333.912H203.596V341.936ZM271.806 354.176C271.874 353.02 271.874 352.408 271.874 351.524C271.874 342.344 266.366 332.96 252.698 332.96C239.846 332.96 233.182 341.596 233.182 351.524C233.182 360.432 238.418 369.952 252.766 369.952C264.054 369.952 269.358 364.512 271.466 358.256H260.382C259.09 360.432 257.118 361.724 252.902 361.724C247.666 361.724 244.538 358.392 244.266 354.176H271.806ZM244.402 347.376C244.742 343.908 246.85 340.712 252.698 340.712C258.954 340.712 260.382 344.656 260.654 347.376H244.402ZM292.145 369V354.788H279.361V369H292.145Z" fill="#F7F7F3"/>
<path d="M110.388 496H121.608V448.128H104.744C100.052 462.408 95.768 474.988 93.728 482.536H93.66C92.232 476.008 87.812 462.952 82.984 448.128H66.188V496H76.66V478.592C76.66 470.432 76.252 461.116 75.912 455.54H75.98C78.496 464.584 83.528 480.564 87.948 496H98.148C103.792 478.456 108.28 464.38 110.66 455.54H110.728C110.456 460.844 110.388 469.412 110.388 477.708V496ZM131.43 496H142.514V483.216C142.514 473.152 148.158 469.956 156.114 470.092V460.028C148.77 459.824 144.486 463.292 142.514 467.916C142.514 466.012 142.378 462.136 142.242 460.912H131.362C131.43 464.108 131.43 467.236 131.43 470.432V496ZM180.266 459.96C166.938 459.96 160.002 468.8 160.002 478.456C160.002 488.18 166.734 496.952 179.79 496.952C192.846 496.952 200.326 489.268 200.326 478.456C200.326 469.684 193.934 459.96 180.266 459.96ZM180.13 468.324C186.25 468.324 188.902 473.288 188.902 478.592C188.902 483.964 186.182 488.588 180.198 488.588C174.35 488.588 171.358 483.896 171.358 478.456C171.358 473.016 174.078 468.324 180.13 468.324ZM203.596 468.936H209.852V485.732C209.852 492.532 212.368 496.34 221.004 496.34C223.588 496.34 226.172 496.068 228.076 495.524V487.908C227.124 488.112 226.036 488.112 225.084 488.112C221.684 488.112 221.004 486.752 221.004 483.76V468.936H229.164V460.912H221.004V450.508H209.852V460.912H203.596V468.936ZM271.806 481.176C271.874 480.02 271.874 479.408 271.874 478.524C271.874 469.344 266.366 459.96 252.698 459.96C239.846 459.96 233.182 468.596 233.182 478.524C233.182 487.432 238.418 496.952 252.766 496.952C264.054 496.952 269.358 491.512 271.466 485.256H260.382C259.09 487.432 257.118 488.724 252.902 488.724C247.666 488.724 244.538 485.392 244.266 481.176H271.806ZM244.402 474.376C244.742 470.908 246.85 467.712 252.698 467.712C258.954 467.712 260.382 471.656 260.654 474.376H244.402ZM306.172 445.408V463.564C305.152 462.272 302.364 459.96 295.564 459.96C286.86 459.96 277.408 466.896 277.408 478.796C277.408 489.744 284.752 496.952 294.476 496.952C301.752 496.952 304.268 494.708 306.172 491.988C306.24 493.348 306.308 494.98 306.444 496H317.46C317.392 492.736 317.392 489.404 317.392 486.14V445.408H306.172ZM297.808 468.596C304.064 468.596 306.444 472.404 306.444 478.456C306.444 484.508 303.52 488.316 297.74 488.316C292.096 488.316 288.832 484.032 288.832 478.524C288.832 473.356 291.756 468.596 297.808 468.596ZM338.829 496V481.788H326.045V496H338.829Z" fill="#F7F7F3"/>
<path d="M110.388 623H121.608V575.128H104.744C100.052 589.408 95.768 601.988 93.728 609.536H93.66C92.232 603.008 87.812 589.952 82.984 575.128H66.188V623H76.66V605.592C76.66 597.432 76.252 588.116 75.912 582.54H75.98C78.496 591.584 83.528 607.564 87.948 623H98.148C103.792 605.456 108.28 591.38 110.66 582.54H110.728C110.456 587.844 110.388 596.412 110.388 604.708V623ZM131.43 623H142.514V610.216C142.514 600.152 148.158 596.956 156.114 597.092V587.028C148.77 586.824 144.486 590.292 142.514 594.916C142.514 593.012 142.378 589.136 142.242 587.912H131.362C131.43 591.108 131.43 594.236 131.43 597.432V623ZM180.266 586.96C166.938 586.96 160.002 595.8 160.002 605.456C160.002 615.18 166.734 623.952 179.79 623.952C192.846 623.952 200.326 616.268 200.326 605.456C200.326 596.684 193.934 586.96 180.266 586.96ZM180.13 595.324C186.25 595.324 188.902 600.288 188.902 605.592C188.902 610.964 186.182 615.588 180.198 615.588C174.35 615.588 171.358 610.896 171.358 605.456C171.358 600.016 174.078 595.324 180.13 595.324ZM203.596 595.936H209.852V612.732C209.852 619.532 212.368 623.34 221.004 623.34C223.588 623.34 226.172 623.068 228.076 622.524V614.908C227.124 615.112 226.036 615.112 225.084 615.112C221.684 615.112 221.004 613.752 221.004 610.76V595.936H229.164V587.912H221.004V577.508H209.852V587.912H203.596V595.936ZM235.821 623H246.905V587.912H235.821V623ZM235.821 581.248H246.905V572.408H235.821V581.248ZM274.496 586.96C261.168 586.96 254.232 595.8 254.232 605.456C254.232 615.18 260.964 623.952 274.02 623.952C287.076 623.952 294.556 616.268 294.556 605.456C294.556 596.684 288.164 586.96 274.496 586.96ZM274.36 595.324C280.48 595.324 283.132 600.288 283.132 605.592C283.132 610.964 280.412 615.588 274.428 615.588C268.58 615.588 265.588 610.896 265.588 605.456C265.588 600.016 268.308 595.324 274.36 595.324ZM301.894 623H313.046V605.524C313.046 599.2 315.494 595.596 320.662 595.596C325.694 595.596 327.19 599.132 327.19 603.144V623H338.478V601.376C338.478 592.332 333.31 586.96 324.674 586.96C317.806 586.96 314.61 590.02 313.046 592.468C312.978 591.04 312.842 588.864 312.706 587.912H301.826C301.894 590.428 301.894 593.76 301.894 596.752V623ZM384.364 608.176C384.432 607.02 384.432 606.408 384.432 605.524C384.432 596.344 378.924 586.96 365.256 586.96C352.404 586.96 345.74 595.596 345.74 605.524C345.74 614.432 350.976 623.952 365.324 623.952C376.612 623.952 381.916 618.512 384.024 612.256H372.94C371.648 614.432 369.676 615.724 365.46 615.724C360.224 615.724 357.096 612.392 356.824 608.176H384.364ZM356.96 601.376C357.3 597.908 359.408 594.712 365.256 594.712C371.512 594.712 372.94 598.656 373.212 601.376H356.96ZM418.731 572.408V590.564C417.711 589.272 414.923 586.96 408.123 586.96C399.419 586.96 389.967 593.896 389.967 605.796C389.967 616.744 397.311 623.952 407.035 623.952C414.311 623.952 416.827 621.708 418.731 618.988C418.799 620.348 418.867 621.98 419.003 623H430.019C429.951 619.736 429.951 616.404 429.951 613.14V572.408H418.731ZM410.367 595.596C416.623 595.596 419.003 599.404 419.003 605.456C419.003 611.508 416.079 615.316 410.299 615.316C404.655 615.316 401.391 611.032 401.391 605.524C401.391 600.356 404.315 595.596 410.367 595.596ZM451.387 623V608.788H438.603V623H451.387Z" fill="#F7F7F3"/>
<path d="M666.736 376.965H676.082C677.457 376.929 678.819 377.238 680.043 377.865C681.119 378.432 682.004 379.304 682.586 380.373C683.173 381.484 683.472 382.726 683.454 383.983C683.497 385.386 683.124 386.771 682.383 387.963C681.598 389.109 680.441 389.948 679.108 390.338L684.124 397.021H680.779L676.106 391.004H669.411V397.021H666.736V376.965ZM675.763 388.648C677.095 388.707 678.396 388.238 679.385 387.343C679.84 386.913 680.199 386.391 680.437 385.811C680.676 385.232 680.79 384.609 680.771 383.983C680.79 383.357 680.676 382.734 680.437 382.156C680.198 381.577 679.839 381.056 679.385 380.626C678.399 379.725 677.097 379.251 675.763 379.306H669.411V388.652L675.763 388.648Z" fill="#F7F7F3"/>
<path d="M690.974 395.973C689.414 395.056 688.114 393.756 687.196 392.196C686.278 390.623 685.795 388.834 685.795 387.013C685.795 385.191 686.278 383.403 687.196 381.829C688.114 380.269 689.414 378.969 690.974 378.052C692.547 377.134 694.336 376.65 696.157 376.65C697.978 376.65 699.767 377.134 701.34 378.052C702.9 378.969 704.2 380.269 705.117 381.829C706.035 383.403 706.519 385.191 706.519 387.013C706.519 388.834 706.035 390.623 705.117 392.196C704.2 393.756 702.9 395.056 701.34 395.973C699.767 396.891 697.978 397.375 696.157 397.375C694.336 397.375 692.547 396.891 690.974 395.973V395.973ZM700.051 393.948C701.218 393.228 702.175 392.214 702.828 391.008C703.495 389.782 703.844 388.408 703.844 387.013C703.844 385.617 703.495 384.243 702.828 383.017C702.174 381.812 701.217 380.799 700.051 380.077C698.876 379.366 697.53 378.991 696.157 378.991C694.784 378.991 693.437 379.366 692.263 380.077C691.096 380.797 690.139 381.811 689.486 383.017C688.819 384.243 688.47 385.617 688.47 387.013C688.47 388.408 688.819 389.782 689.486 391.008C690.138 392.215 691.095 393.229 692.263 393.948C693.437 394.659 694.784 395.034 696.157 395.034C697.53 395.034 698.876 394.659 700.051 393.948Z" fill="#F7F7F3"/>
<path d="M713.876 379.306H707.189V376.969H723.237V379.306H716.551V397.021H713.876V379.306Z" fill="#F7F7F3"/>
<path d="M733.456 366C731.011 366 728.915 367.988 728.915 371.061V377.027H730.312V371.061C730.312 368.892 731.709 367.265 733.456 367.265C735.202 367.265 736.599 368.892 736.599 371.061V377.027H737.996V371.061C737.996 367.988 735.9 366 733.456 366Z" fill="#F7F7F3"/>
<path d="M652.028 386.323L642 376.295V392.655V397.02H642.927H644.675V395.276V392.655V382.982L650.817 389.127L659.38 380.556V382.986L659.384 382.982V397.02H662.059V376.295L652.028 386.323Z" fill="#F7F7F3"/>
</svg>
