<svg width="678" height="597" viewBox="0 0 678 597" fill="none" xmlns="http://www.w3.org/2000/svg">
<path d="M1.008 15.056C1.56 18.2 3.96 20.36 8.736 20.36C13.872 20.36 16.032 18.032 16.032 15.32C16.032 12.968 15.048 11.048 8.88 10.016C5.016 9.368 4.32 8.48 4.32 7.088C4.32 5.384 5.904 4.544 8.352 4.544C11.952 4.544 12.672 6.08 13.008 7.232H15.456C15.264 5.504 13.968 2.6 8.4 2.6C4.704 2.6 1.848 4.328 1.848 7.328C1.848 9.632 3.072 11.24 8.208 12.128C12.6 12.848 13.536 13.88 13.536 15.56C13.536 17.144 12.264 18.464 8.904 18.464C5.544 18.464 4.08 17.048 3.456 15.056H1.008ZM31.0673 14.48C31.0673 14.24 31.0673 14.072 31.0673 13.88C31.0673 10.904 29.4353 7.52 24.8273 7.52C21.0113 7.52 18.5633 10.304 18.5633 13.976C18.5633 17.168 20.5312 20.336 24.8993 20.336C28.5233 20.336 30.2513 18.368 30.8993 16.544H28.6193C27.9713 17.744 26.9153 18.512 25.0193 18.512C22.5473 18.512 20.9873 16.808 20.8433 14.48H31.0673ZM20.8913 12.848C21.1073 10.856 22.3313 9.296 24.8273 9.296C27.8273 9.296 28.5953 11.408 28.6913 12.848H20.8913ZM34.0768 20H36.3568V14.936C36.3568 11.36 38.4688 9.68 41.2768 9.728V7.544C38.9008 7.52 37.1488 8.744 36.3568 10.592C36.3568 9.512 36.3088 8.216 36.2608 7.856H34.0528C34.0768 8.96 34.0768 10.064 34.0768 11.168V20ZM42.9443 7.856L48.2963 20H50.7923L56.1203 7.856H53.7683C50.7923 14.816 49.9763 16.88 49.6403 17.912H49.6163C49.1603 16.592 46.5203 10.664 45.4163 7.856H42.9443ZM58.4753 20H60.7553V7.856H58.4753V20ZM58.4753 4.712H60.7553V1.976H58.4753V4.712ZM73.7833 16.208C73.1833 17.6 72.1033 18.488 70.1353 18.488C67.4953 18.488 66.0553 16.472 66.0553 13.928C66.0553 11.288 67.5673 9.368 70.1113 9.368C72.3913 9.368 73.3513 10.616 73.7593 11.744H76.0393C75.7753 10.136 74.2393 7.52 70.1593 7.52C66.0793 7.52 63.7273 10.52 63.7273 13.976C63.7273 17.432 65.8153 20.336 70.1113 20.336C73.5673 20.336 75.4873 18.416 76.0873 16.208H73.7833ZM90.6219 14.48C90.6219 14.24 90.6219 14.072 90.6219 13.88C90.6219 10.904 88.9899 7.52 84.3819 7.52C80.5659 7.52 78.1179 10.304 78.1179 13.976C78.1179 17.168 80.0859 20.336 84.4539 20.336C88.0779 20.336 89.8059 18.368 90.4539 16.544H88.1739C87.5259 17.744 86.4699 18.512 84.5739 18.512C82.1019 18.512 80.5419 16.808 80.3979 14.48H90.6219ZM80.4459 12.848C80.6619 10.856 81.8859 9.296 84.3819 9.296C87.3819 9.296 88.1499 11.408 88.2459 12.848H80.4459ZM92.6436 16.328C93.0756 18.848 95.1396 20.336 98.6676 20.336C102.604 20.336 104.26 18.728 104.26 16.544C104.26 14.744 103.396 13.328 98.8356 12.704C96.0516 12.344 95.4996 11.816 95.4996 10.904C95.4996 10.208 95.9556 9.248 98.2116 9.248C100.876 9.248 101.38 10.424 101.572 11.168H103.852C103.732 9.704 102.556 7.52 98.3316 7.52C94.4676 7.52 93.1956 9.536 93.1956 11.096C93.1956 12.608 94.0116 14.096 98.2836 14.648C101.356 15.008 101.98 15.704 101.98 16.712C101.98 17.792 101.14 18.608 98.8116 18.608C96.6276 18.608 95.3796 17.768 94.9476 16.328H92.6436Z" fill="#F7F7F3"/>
<path d="M2.898 177.856C3.168 176.848 3.816 176.002 5.544 176.002C7.272 176.002 7.992 176.92 7.992 177.91C7.992 179.026 7.38 179.71 5.418 179.71H4.644V181.168H5.598C7.56 181.168 8.514 182.014 8.514 183.4C8.514 185.11 7.272 185.848 5.688 185.848C3.978 185.848 2.934 185.002 2.61 183.724H0.864C1.188 185.542 2.52 187.252 5.616 187.252C8.586 187.252 10.314 185.704 10.314 183.454C10.314 181.438 8.802 180.592 7.902 180.376V180.34C8.64 180.124 9.774 179.476 9.774 177.838C9.774 176.236 8.568 174.58 5.598 174.58C2.538 174.58 1.422 176.47 1.206 177.856H2.898ZM17.2405 184.246C17.5645 186.136 19.1125 187.252 21.7585 187.252C24.7105 187.252 25.9525 186.046 25.9525 184.408C25.9525 183.058 25.3045 181.996 21.8845 181.528C19.7965 181.258 19.3825 180.862 19.3825 180.178C19.3825 179.656 19.7245 178.936 21.4165 178.936C23.4145 178.936 23.7925 179.818 23.9365 180.376H25.6465C25.5565 179.278 24.6745 177.64 21.5065 177.64C18.6085 177.64 17.6545 179.152 17.6545 180.322C17.6545 181.456 18.2665 182.572 21.4705 182.986C23.7745 183.256 24.2425 183.778 24.2425 184.534C24.2425 185.344 23.6125 185.956 21.8665 185.956C20.2285 185.956 19.2925 185.326 18.9685 184.246H17.2405ZM26.9013 179.242H28.7013V184.462C28.7013 186.244 29.2773 187.09 31.1673 187.09C31.6893 187.09 32.1573 187.072 32.5713 186.928V185.668C32.3013 185.74 31.9413 185.74 31.6713 185.74C30.6813 185.74 30.4113 185.272 30.4113 184.228V179.242H32.7873V177.892H30.4113V174.958H28.7013V177.892H26.9013V179.242ZM43.2868 182.86C43.2868 182.68 43.2868 182.554 43.2868 182.41C43.2868 180.178 42.0628 177.64 38.6068 177.64C35.7448 177.64 33.9088 179.728 33.9088 182.482C33.9088 184.876 35.3848 187.252 38.6608 187.252C41.3788 187.252 42.6748 185.776 43.1608 184.408H41.4508C40.9648 185.308 40.1728 185.884 38.7508 185.884C36.8968 185.884 35.7268 184.606 35.6188 182.86H43.2868ZM35.6548 181.636C35.8168 180.142 36.7348 178.972 38.6068 178.972C40.8568 178.972 41.4328 180.556 41.5048 181.636H35.6548ZM50.4759 187.252C52.9419 187.252 54.9939 185.272 54.9939 182.302C54.9939 179.656 53.2119 177.64 50.7639 177.64C48.8559 177.64 47.7939 178.522 47.2539 179.476C47.2539 178.774 47.2359 178.162 47.1999 177.892H45.5259C45.5439 178.648 45.5439 179.422 45.5439 180.178V190.996H47.2539V185.668C47.7399 186.442 48.5859 187.252 50.4759 187.252ZM50.2059 185.812C48.2079 185.812 47.1999 184.408 47.1999 182.5C47.1999 180.592 48.1359 179.08 50.2419 179.08C52.2939 179.08 53.2299 180.754 53.2299 182.374C53.2299 184.192 52.2219 185.812 50.2059 185.812ZM56.51 184.246C56.834 186.136 58.382 187.252 61.028 187.252C63.98 187.252 65.222 186.046 65.222 184.408C65.222 183.058 64.574 181.996 61.154 181.528C59.066 181.258 58.652 180.862 58.652 180.178C58.652 179.656 58.994 178.936 60.686 178.936C62.684 178.936 63.062 179.818 63.206 180.376H64.916C64.826 179.278 63.944 177.64 60.776 177.64C57.878 177.64 56.924 179.152 56.924 180.322C56.924 181.456 57.536 182.572 60.74 182.986C63.044 183.256 63.512 183.778 63.512 184.534C63.512 185.344 62.882 185.956 61.136 185.956C59.498 185.956 58.562 185.326 58.238 184.246H56.51ZM71.62 179.242H73.42V184.462C73.42 186.244 73.996 187.09 75.886 187.09C76.408 187.09 76.876 187.072 77.29 186.928V185.668C77.02 185.74 76.66 185.74 76.39 185.74C75.4 185.74 75.13 185.272 75.13 184.228V179.242H77.506V177.892H75.13V174.958H73.42V177.892H71.62V179.242ZM83.5235 177.64C80.4455 177.64 78.6275 179.854 78.6275 182.464C78.6275 184.984 80.3555 187.252 83.4335 187.252C86.6915 187.252 88.3295 184.984 88.3295 182.446C88.3295 180.034 86.6735 177.64 83.5235 177.64ZM83.4515 179.044C85.4675 179.044 86.5655 180.646 86.5655 182.482C86.5655 184.3 85.5755 185.866 83.4875 185.866C81.4895 185.866 80.3735 184.192 80.3735 182.464C80.3735 180.628 81.3815 179.044 83.4515 179.044ZM89.5686 177.892L92.5566 187H94.4106C95.6886 183.472 96.6066 180.718 96.8406 179.836H96.8586C97.1646 180.898 98.2086 183.814 99.2886 187H101.071L104.221 177.892H102.511C100.999 182.554 100.423 184.498 100.225 185.38H100.207C100.045 184.642 99.5946 183.274 97.7586 177.892H96.1206C94.2306 183.346 93.8526 184.534 93.6006 185.47H93.5826C93.3666 184.48 93.0066 183.22 91.3506 177.892H89.5686ZM113.864 180.772C113.864 179.26 113.126 177.64 109.814 177.64C106.682 177.64 105.872 179.35 105.764 180.556H107.474C107.654 179.71 108.068 178.954 109.814 178.954C111.758 178.954 112.172 179.872 112.172 180.88V181.348C111.866 181.348 111.056 181.348 109.958 181.348C107.366 181.348 105.242 181.996 105.242 184.336C105.242 185.704 106.196 187.252 108.77 187.252C110.696 187.252 111.722 186.622 112.208 185.668C112.208 185.974 112.244 186.676 112.316 187H113.936C113.918 186.802 113.864 185.65 113.864 184.75V180.772ZM112.172 182.968C112.172 184.498 111.524 185.92 109.112 185.92C107.6 185.92 106.934 185.146 106.934 184.246C106.934 183.022 107.906 182.572 109.994 182.572C111.29 182.572 111.902 182.572 112.172 182.572V182.968ZM116.876 187H118.586V183.202C118.586 180.52 120.17 179.26 122.276 179.296V177.658C120.494 177.64 119.18 178.558 118.586 179.944C118.586 179.134 118.55 178.162 118.514 177.892H116.858C116.876 178.72 116.876 179.548 116.876 180.376V187ZM131.016 173.482V179.044C130.764 178.612 130.026 177.64 127.884 177.64C125.508 177.64 123.258 179.53 123.258 182.536C123.258 185.29 125.04 187.252 127.668 187.252C129.774 187.252 130.566 186.406 131.016 185.614C131.016 186.082 131.034 186.622 131.088 187H132.762C132.744 186.136 132.744 185.236 132.744 184.354V173.482H131.016ZM128.1 179.08C130.386 179.08 131.088 180.412 131.088 182.428C131.088 184.426 130.206 185.83 128.028 185.83C126.048 185.83 125.022 184.174 125.022 182.5C125.022 180.772 126.03 179.08 128.1 179.08ZM134.908 184.246C135.232 186.136 136.78 187.252 139.426 187.252C142.378 187.252 143.62 186.046 143.62 184.408C143.62 183.058 142.972 181.996 139.552 181.528C137.464 181.258 137.05 180.862 137.05 180.178C137.05 179.656 137.392 178.936 139.084 178.936C141.082 178.936 141.46 179.818 141.604 180.376H143.314C143.224 179.278 142.342 177.64 139.174 177.64C136.276 177.64 135.322 179.152 135.322 180.322C135.322 181.456 135.934 182.572 139.138 182.986C141.442 183.256 141.91 183.778 141.91 184.534C141.91 185.344 141.28 185.956 139.534 185.956C137.896 185.956 136.96 185.326 136.636 184.246H134.908ZM149.982 177.892L154.194 187.432C153.366 189.214 152.898 189.718 151.674 189.718C151.44 189.718 151.026 189.7 150.666 189.646V191.158C150.99 191.212 151.53 191.248 151.854 191.248C154.14 191.248 154.734 190.456 156.354 186.55L159.918 177.892H158.136C156.408 182.176 155.472 184.804 155.148 185.686H155.13C154.86 184.93 153.798 182.374 151.872 177.892H149.982ZM165.807 177.64C162.729 177.64 160.911 179.854 160.911 182.464C160.911 184.984 162.639 187.252 165.717 187.252C168.975 187.252 170.613 184.984 170.613 182.446C170.613 180.034 168.957 177.64 165.807 177.64ZM165.735 179.044C167.751 179.044 168.849 180.646 168.849 182.482C168.849 184.3 167.859 185.866 165.771 185.866C163.773 185.866 162.657 184.192 162.657 182.464C162.657 180.628 163.665 179.044 165.735 179.044ZM181.233 177.892H179.523V182.014C179.523 184.678 178.677 185.812 176.715 185.812C175.077 185.812 174.537 184.606 174.537 183.238V177.892H172.827V183.544C172.827 186.208 174.321 187.252 176.247 187.252C178.245 187.252 179.073 186.496 179.523 185.47C179.523 186.118 179.559 186.748 179.595 187H181.233C181.215 186.118 181.233 185.236 181.233 184.354V177.892ZM184.147 187H185.857V183.202C185.857 180.52 187.441 179.26 189.547 179.296V177.658C187.765 177.64 186.451 178.558 185.857 179.944C185.857 179.134 185.821 178.162 185.785 177.892H184.129C184.147 178.72 184.147 179.548 184.147 180.376V187ZM203.737 173.482V179.044C203.485 178.612 202.747 177.64 200.605 177.64C198.229 177.64 195.979 179.53 195.979 182.536C195.979 185.29 197.761 187.252 200.389 187.252C202.495 187.252 203.287 186.406 203.737 185.614C203.737 186.082 203.755 186.622 203.809 187H205.483C205.465 186.136 205.465 185.236 205.465 184.354V173.482H203.737ZM200.821 179.08C203.107 179.08 203.809 180.412 203.809 182.428C203.809 184.426 202.927 185.83 200.749 185.83C198.769 185.83 197.743 184.174 197.743 182.5C197.743 180.772 198.751 179.08 200.821 179.08ZM208.388 187H210.098V183.202C210.098 180.52 211.682 179.26 213.788 179.296V177.658C212.006 177.64 210.692 178.558 210.098 179.944C210.098 179.134 210.062 178.162 210.026 177.892H208.37C208.388 178.72 208.388 179.548 208.388 180.376V187ZM224.148 182.86C224.148 182.68 224.148 182.554 224.148 182.41C224.148 180.178 222.924 177.64 219.468 177.64C216.606 177.64 214.77 179.728 214.77 182.482C214.77 184.876 216.246 187.252 219.522 187.252C222.24 187.252 223.536 185.776 224.022 184.408H222.312C221.826 185.308 221.034 185.884 219.612 185.884C217.758 185.884 216.588 184.606 216.48 182.86H224.148ZM216.516 181.636C216.678 180.142 217.596 178.972 219.468 178.972C221.718 178.972 222.294 180.556 222.366 181.636H216.516ZM234.45 180.772C234.45 179.26 233.712 177.64 230.4 177.64C227.268 177.64 226.458 179.35 226.35 180.556H228.06C228.24 179.71 228.654 178.954 230.4 178.954C232.344 178.954 232.758 179.872 232.758 180.88V181.348C232.452 181.348 231.642 181.348 230.544 181.348C227.952 181.348 225.828 181.996 225.828 184.336C225.828 185.704 226.782 187.252 229.356 187.252C231.282 187.252 232.308 186.622 232.794 185.668C232.794 185.974 232.83 186.676 232.902 187H234.522C234.504 186.802 234.45 185.65 234.45 184.75V180.772ZM232.758 182.968C232.758 184.498 232.11 185.92 229.698 185.92C228.186 185.92 227.52 185.146 227.52 184.246C227.52 183.022 228.492 182.572 230.58 182.572C231.876 182.572 232.488 182.572 232.758 182.572V182.968ZM237.444 187H239.154V182.14C239.154 180.412 239.82 179.062 241.53 179.062C243.15 179.062 243.51 180.286 243.51 181.366V187H245.22V182.014C245.22 180.052 246.156 179.062 247.614 179.062C249.234 179.062 249.576 180.376 249.576 181.438V187H251.268V181.384C251.268 178.684 249.81 177.64 248.01 177.64C246.21 177.64 245.364 178.612 244.878 179.386C244.482 178.36 243.582 177.64 242.088 177.64C240.486 177.64 239.604 178.486 239.136 179.26C239.154 178.792 239.136 178.27 239.082 177.892H237.426C237.444 178.684 237.444 179.458 237.444 180.25V187ZM259.434 183.868C259.434 184.912 259.434 185.848 259.416 187H261.072C261.09 186.694 261.108 186.046 261.108 185.596C261.576 186.424 262.476 187.252 264.42 187.252C267.012 187.252 268.92 185.344 268.92 182.302C268.92 179.638 267.084 177.64 264.528 177.64C262.584 177.64 261.612 178.594 261.162 179.314V173.482H259.434V183.868ZM264.168 185.812C262.278 185.812 261.09 184.516 261.09 182.446C261.09 180.538 262.08 179.08 264.15 179.08C266.274 179.08 267.156 180.808 267.156 182.356C267.156 184.156 266.292 185.812 264.168 185.812ZM271.177 187H272.887V183.202C272.887 180.52 274.471 179.26 276.577 179.296V177.658C274.795 177.64 273.481 178.558 272.887 179.944C272.887 179.134 272.851 178.162 272.815 177.892H271.159C271.177 178.72 271.177 179.548 271.177 180.376V187ZM286.059 180.772C286.059 179.26 285.321 177.64 282.009 177.64C278.877 177.64 278.067 179.35 277.959 180.556H279.669C279.849 179.71 280.263 178.954 282.009 178.954C283.953 178.954 284.367 179.872 284.367 180.88V181.348C284.061 181.348 283.251 181.348 282.153 181.348C279.561 181.348 277.437 181.996 277.437 184.336C277.437 185.704 278.391 187.252 280.965 187.252C282.891 187.252 283.917 186.622 284.403 185.668C284.403 185.974 284.439 186.676 284.511 187H286.131C286.113 186.802 286.059 185.65 286.059 184.75V180.772ZM284.367 182.968C284.367 184.498 283.719 185.92 281.307 185.92C279.795 185.92 279.129 185.146 279.129 184.246C279.129 183.022 280.101 182.572 282.189 182.572C283.485 182.572 284.097 182.572 284.367 182.572V182.968ZM289.053 187H290.781V182.644C290.781 180.538 291.717 179.08 293.607 179.08C295.299 179.08 295.875 180.268 295.875 181.78V187H297.603V181.456C297.603 178.972 296.217 177.64 294.075 177.64C292.113 177.64 291.177 178.702 290.781 179.584C290.763 178.972 290.745 178.216 290.709 177.892H289.035C289.053 178.576 289.053 179.422 289.053 180.196V187ZM307.589 173.482V179.044C307.337 178.612 306.599 177.64 304.457 177.64C302.081 177.64 299.831 179.53 299.831 182.536C299.831 185.29 301.613 187.252 304.241 187.252C306.347 187.252 307.139 186.406 307.589 185.614C307.589 186.082 307.607 186.622 307.661 187H309.335C309.317 186.136 309.317 185.236 309.317 184.354V173.482H307.589ZM304.673 179.08C306.959 179.08 307.661 180.412 307.661 182.428C307.661 184.426 306.779 185.83 304.601 185.83C302.621 185.83 301.595 184.174 301.595 182.5C301.595 180.772 302.603 179.08 304.673 179.08ZM314.111 187V184.192H312.329V187H314.111ZM314.111 180.646V177.82H312.329V180.646H314.111Z" fill="#F7F7F3"/>
<path d="M50.388 318H61.608V270.128H44.744C40.052 284.408 35.768 296.988 33.728 304.536H33.66C32.232 298.008 27.812 284.952 22.984 270.128H6.188V318H16.66V300.592C16.66 292.432 16.252 283.116 15.912 277.54H15.98C18.496 286.584 23.528 302.564 27.948 318H38.148C43.792 300.456 48.28 286.38 50.66 277.54H50.728C50.456 282.844 50.388 291.412 50.388 299.708V318ZM71.4303 318H82.5143V305.216C82.5143 295.152 88.1583 291.956 96.1143 292.092V282.028C88.7703 281.824 84.4863 285.292 82.5143 289.916C82.5143 288.012 82.3783 284.136 82.2423 282.912H71.3623C71.4303 286.108 71.4303 289.236 71.4303 292.432V318ZM120.266 281.96C106.938 281.96 100.002 290.8 100.002 300.456C100.002 310.18 106.734 318.952 119.79 318.952C132.846 318.952 140.326 311.268 140.326 300.456C140.326 291.684 133.934 281.96 120.266 281.96ZM120.13 290.324C126.25 290.324 128.902 295.288 128.902 300.592C128.902 305.964 126.182 310.588 120.198 310.588C114.35 310.588 111.358 305.896 111.358 300.456C111.358 295.016 114.078 290.324 120.13 290.324ZM143.596 290.936H149.852V307.732C149.852 314.532 152.368 318.34 161.004 318.34C163.588 318.34 166.172 318.068 168.076 317.524V309.908C167.124 310.112 166.036 310.112 165.084 310.112C161.684 310.112 161.004 308.752 161.004 305.76V290.936H169.164V282.912H161.004V272.508H149.852V282.912H143.596V290.936ZM211.806 303.176C211.874 302.02 211.874 301.408 211.874 300.524C211.874 291.344 206.366 281.96 192.698 281.96C179.846 281.96 173.182 290.596 173.182 300.524C173.182 309.432 178.418 318.952 192.766 318.952C204.054 318.952 209.358 313.512 211.466 307.256H200.382C199.09 309.432 197.118 310.724 192.902 310.724C187.666 310.724 184.538 307.392 184.266 303.176H211.806ZM184.402 296.376C184.742 292.908 186.85 289.712 192.698 289.712C198.954 289.712 200.382 293.656 200.654 296.376H184.402ZM232.145 318V303.788H219.361V318H232.145Z" fill="#F7F7F3"/>
<path d="M50.388 445H61.608V397.128H44.744C40.052 411.408 35.768 423.988 33.728 431.536H33.66C32.232 425.008 27.812 411.952 22.984 397.128H6.188V445H16.66V427.592C16.66 419.432 16.252 410.116 15.912 404.54H15.98C18.496 413.584 23.528 429.564 27.948 445H38.148C43.792 427.456 48.28 413.38 50.66 404.54H50.728C50.456 409.844 50.388 418.412 50.388 426.708V445ZM71.4303 445H82.5143V432.216C82.5143 422.152 88.1583 418.956 96.1143 419.092V409.028C88.7703 408.824 84.4863 412.292 82.5143 416.916C82.5143 415.012 82.3783 411.136 82.2423 409.912H71.3623C71.4303 413.108 71.4303 416.236 71.4303 419.432V445ZM120.266 408.96C106.938 408.96 100.002 417.8 100.002 427.456C100.002 437.18 106.734 445.952 119.79 445.952C132.846 445.952 140.326 438.268 140.326 427.456C140.326 418.684 133.934 408.96 120.266 408.96ZM120.13 417.324C126.25 417.324 128.902 422.288 128.902 427.592C128.902 432.964 126.182 437.588 120.198 437.588C114.35 437.588 111.358 432.896 111.358 427.456C111.358 422.016 114.078 417.324 120.13 417.324ZM143.596 417.936H149.852V434.732C149.852 441.532 152.368 445.34 161.004 445.34C163.588 445.34 166.172 445.068 168.076 444.524V436.908C167.124 437.112 166.036 437.112 165.084 437.112C161.684 437.112 161.004 435.752 161.004 432.76V417.936H169.164V409.912H161.004V399.508H149.852V409.912H143.596V417.936ZM211.806 430.176C211.874 429.02 211.874 428.408 211.874 427.524C211.874 418.344 206.366 408.96 192.698 408.96C179.846 408.96 173.182 417.596 173.182 427.524C173.182 436.432 178.418 445.952 192.766 445.952C204.054 445.952 209.358 440.512 211.466 434.256H200.382C199.09 436.432 197.118 437.724 192.902 437.724C187.666 437.724 184.538 434.392 184.266 430.176H211.806ZM184.402 423.376C184.742 419.908 186.85 416.712 192.698 416.712C198.954 416.712 200.382 420.656 200.654 423.376H184.402ZM246.172 394.408V412.564C245.152 411.272 242.364 408.96 235.564 408.96C226.86 408.96 217.408 415.896 217.408 427.796C217.408 438.744 224.752 445.952 234.476 445.952C241.752 445.952 244.268 443.708 246.172 440.988C246.24 442.348 246.308 443.98 246.444 445H257.46C257.392 441.736 257.392 438.404 257.392 435.14V394.408H246.172ZM237.808 417.596C244.064 417.596 246.444 421.404 246.444 427.456C246.444 433.508 243.52 437.316 237.74 437.316C232.096 437.316 228.832 433.032 228.832 427.524C228.832 422.356 231.756 417.596 237.808 417.596ZM278.829 445V430.788H266.045V445H278.829Z" fill="#F7F7F3"/>
<path d="M50.388 572H61.608V524.128H44.744C40.052 538.408 35.768 550.988 33.728 558.536H33.66C32.232 552.008 27.812 538.952 22.984 524.128H6.188V572H16.66V554.592C16.66 546.432 16.252 537.116 15.912 531.54H15.98C18.496 540.584 23.528 556.564 27.948 572H38.148C43.792 554.456 48.28 540.38 50.66 531.54H50.728C50.456 536.844 50.388 545.412 50.388 553.708V572ZM71.4303 572H82.5143V559.216C82.5143 549.152 88.1583 545.956 96.1143 546.092V536.028C88.7703 535.824 84.4863 539.292 82.5143 543.916C82.5143 542.012 82.3783 538.136 82.2423 536.912H71.3623C71.4303 540.108 71.4303 543.236 71.4303 546.432V572ZM120.266 535.96C106.938 535.96 100.002 544.8 100.002 554.456C100.002 564.18 106.734 572.952 119.79 572.952C132.846 572.952 140.326 565.268 140.326 554.456C140.326 545.684 133.934 535.96 120.266 535.96ZM120.13 544.324C126.25 544.324 128.902 549.288 128.902 554.592C128.902 559.964 126.182 564.588 120.198 564.588C114.35 564.588 111.358 559.896 111.358 554.456C111.358 549.016 114.078 544.324 120.13 544.324ZM143.596 544.936H149.852V561.732C149.852 568.532 152.368 572.34 161.004 572.34C163.588 572.34 166.172 572.068 168.076 571.524V563.908C167.124 564.112 166.036 564.112 165.084 564.112C161.684 564.112 161.004 562.752 161.004 559.76V544.936H169.164V536.912H161.004V526.508H149.852V536.912H143.596V544.936ZM175.821 572H186.905V536.912H175.821V572ZM175.821 530.248H186.905V521.408H175.821V530.248ZM214.496 535.96C201.168 535.96 194.232 544.8 194.232 554.456C194.232 564.18 200.964 572.952 214.02 572.952C227.076 572.952 234.556 565.268 234.556 554.456C234.556 545.684 228.164 535.96 214.496 535.96ZM214.36 544.324C220.48 544.324 223.132 549.288 223.132 554.592C223.132 559.964 220.412 564.588 214.428 564.588C208.58 564.588 205.588 559.896 205.588 554.456C205.588 549.016 208.308 544.324 214.36 544.324ZM241.894 572H253.046V554.524C253.046 548.2 255.494 544.596 260.662 544.596C265.694 544.596 267.19 548.132 267.19 552.144V572H278.478V550.376C278.478 541.332 273.31 535.96 264.674 535.96C257.806 535.96 254.61 539.02 253.046 541.468C252.978 540.04 252.842 537.864 252.706 536.912H241.826C241.894 539.428 241.894 542.76 241.894 545.752V572ZM324.364 557.176C324.432 556.02 324.432 555.408 324.432 554.524C324.432 545.344 318.924 535.96 305.256 535.96C292.404 535.96 285.74 544.596 285.74 554.524C285.74 563.432 290.976 572.952 305.324 572.952C316.612 572.952 321.916 567.512 324.024 561.256H312.94C311.648 563.432 309.676 564.724 305.46 564.724C300.224 564.724 297.096 561.392 296.824 557.176H324.364ZM296.96 550.376C297.3 546.908 299.408 543.712 305.256 543.712C311.512 543.712 312.94 547.656 313.212 550.376H296.96ZM358.731 521.408V539.564C357.711 538.272 354.923 535.96 348.123 535.96C339.419 535.96 329.967 542.896 329.967 554.796C329.967 565.744 337.311 572.952 347.035 572.952C354.311 572.952 356.827 570.708 358.731 567.988C358.799 569.348 358.867 570.98 359.003 572H370.019C369.951 568.736 369.951 565.404 369.951 562.14V521.408H358.731ZM350.367 544.596C356.623 544.596 359.003 548.404 359.003 554.456C359.003 560.508 356.079 564.316 350.299 564.316C344.655 564.316 341.391 560.032 341.391 554.524C341.391 549.356 344.315 544.596 350.367 544.596ZM391.387 572V557.788H378.603V572H391.387Z" fill="#F7F7F3"/>
<path d="M606.736 325.965H616.082C617.457 325.929 618.819 326.238 620.043 326.865C621.119 327.432 622.004 328.304 622.586 329.373C623.173 330.484 623.472 331.726 623.454 332.983C623.497 334.386 623.124 335.771 622.383 336.963C621.598 338.109 620.441 338.948 619.108 339.338L624.124 346.021H620.779L616.106 340.004H609.411V346.021H606.736V325.965ZM615.763 337.648C617.095 337.707 618.396 337.238 619.385 336.343C619.84 335.913 620.199 335.391 620.437 334.811C620.676 334.232 620.79 333.609 620.771 332.983C620.79 332.357 620.676 331.734 620.437 331.156C620.198 330.577 619.839 330.056 619.385 329.626C618.399 328.725 617.097 328.251 615.763 328.306H609.411V337.652L615.763 337.648Z" fill="#F7F7F3"/>
<path d="M630.974 344.973C629.414 344.056 628.114 342.756 627.196 341.196C626.278 339.623 625.795 337.834 625.795 336.013C625.795 334.191 626.278 332.403 627.196 330.829C628.114 329.269 629.414 327.969 630.974 327.052C632.547 326.134 634.336 325.65 636.157 325.65C637.978 325.65 639.767 326.134 641.34 327.052C642.9 327.969 644.2 329.269 645.117 330.829C646.035 332.403 646.519 334.191 646.519 336.013C646.519 337.834 646.035 339.623 645.117 341.196C644.2 342.756 642.9 344.056 641.34 344.973C639.767 345.891 637.978 346.375 636.157 346.375C634.336 346.375 632.547 345.891 630.974 344.973V344.973ZM640.051 342.948C641.218 342.228 642.175 341.214 642.828 340.008C643.495 338.782 643.844 337.408 643.844 336.013C643.844 334.617 643.495 333.243 642.828 332.017C642.174 330.812 641.217 329.799 640.051 329.077C638.876 328.366 637.53 327.991 636.157 327.991C634.784 327.991 633.437 328.366 632.263 329.077C631.096 329.797 630.139 330.811 629.486 332.017C628.819 333.243 628.47 334.617 628.47 336.013C628.47 337.408 628.819 338.782 629.486 340.008C630.138 341.215 631.095 342.229 632.263 342.948C633.437 343.659 634.784 344.034 636.157 344.034C637.53 344.034 638.876 343.659 640.051 342.948Z" fill="#F7F7F3"/>
<path d="M653.876 328.306H647.189V325.969H663.237V328.306H656.551V346.021H653.876V328.306Z" fill="#F7F7F3"/>
<path d="M673.456 315C671.011 315 668.915 316.988 668.915 320.061V326.027H670.312V320.061C670.312 317.892 671.709 316.265 673.456 316.265C675.202 316.265 676.599 317.892 676.599 320.061V326.027H677.996V320.061C677.996 316.988 675.9 315 673.456 315Z" fill="#F7F7F3"/>
<path d="M592.028 335.323L582 325.295V341.655V346.02H582.927H584.675V344.276V341.655V331.982L590.817 338.127L599.38 329.556V331.986L599.384 331.982V346.02H602.059V325.295L592.028 335.323Z" fill="#F7F7F3"/>
</svg>
